<?xml version="1.0" standalone="no"?>
<svg xmlns="http://www.w3.org/2000/svg" width="24" height="24"><rect width="24" height="24" opacity="0"></rect><g><path d="M2.23 18.36Q2.54 18.36 2.76 18.14Q2.98 17.93 2.98 17.62L2.98 11.88Q2.98 9.43 4.19 7.36Q5.4 5.28 7.48 4.07Q9.55 2.86 12 2.86Q14.45 2.86 16.51 4.07Q18.58 5.28 19.8 7.36Q21.02 9.43 21.02 11.88L21.02 17.62Q21.02 17.93 21.24 18.14Q21.46 18.36 21.77 18.36Q22.08 18.36 22.3 18.14Q22.51 17.93 22.51 17.62L22.51 11.88Q22.51 9.02 21.1 6.6Q19.68 4.18 17.27 2.76Q14.86 1.34 12 1.34Q9.14 1.34 6.73 2.76Q4.32 4.18 2.9 6.6Q1.49 9.02 1.49 11.88L1.49 17.62Q1.49 17.93 1.7 18.14Q1.92 18.36 2.23 18.36Z" fill="rgba(0,0,0,0.9019607843137255)"></path><path d="M6.91 20.3Q7.22 20.3 7.44 20.09Q7.66 19.87 7.66 19.56L7.66 13.85Q7.66 13.54 7.44 13.32Q7.22 13.1 6.91 13.1Q6.6 13.1 6.38 13.32Q6.17 13.54 6.17 13.85L6.17 19.56Q6.17 19.87 6.38 20.09Q6.6 20.3 6.91 20.3ZM17.09 19.82Q17.4 19.82 17.62 19.61Q17.83 19.39 17.83 19.08L17.83 14.33Q17.83 14.02 17.62 13.8Q17.4 13.58 17.09 13.58Q16.78 13.58 16.55 13.8Q16.32 14.02 16.32 14.33L16.32 19.08Q16.32 19.39 16.55 19.61Q16.78 19.82 17.09 19.82ZM12 22.63Q12.31 22.63 12.53 22.42Q12.74 22.2 12.74 21.89L12.74 11.52Q12.74 11.21 12.53 10.99Q12.31 10.78 12 10.78Q11.69 10.78 11.47 10.99Q11.26 11.21 11.26 11.52L11.26 21.89Q11.26 22.2 11.47 22.42Q11.69 22.63 12 22.63Z" fill="rgba(0,0,0,0.9019607843137255)"></path></g></svg>