<?xml version="1.0" standalone="no"?>
<svg xmlns="http://www.w3.org/2000/svg" width="24" height="24"><rect width="24" height="24" opacity="0"></rect><g><path d="M10.22 13.13Q9.86 12.94 9.49 13.01Q9.12 13.08 8.87 13.37Q8.62 13.66 8.62 14.06L8.62 21.7Q8.62 22.1 8.87 22.39Q9.12 22.68 9.49 22.75Q9.86 22.82 10.22 22.63L16.85 18.82Q17.21 18.62 17.33 18.24Q17.45 17.86 17.33 17.48Q17.21 17.11 16.85 16.92L10.22 13.13Z" fill="rgba(0,0,0,0.9019607843137255)"></path><path d="M2.23 18.24Q2.54 18.24 2.76 18.02Q2.98 17.81 2.98 17.5L2.98 11.76Q2.98 9.31 4.19 7.24Q5.4 5.16 7.48 3.95Q9.55 2.74 12 2.74Q14.45 2.74 16.52 3.95Q18.6 5.16 19.81 7.24Q21.02 9.31 21.02 11.76L21.02 17.47Q21.02 17.78 21.24 18.01Q21.46 18.24 21.77 18.24Q22.08 18.24 22.3 18.01Q22.51 17.78 22.51 17.47L22.51 11.76Q22.51 8.9 21.1 6.48Q19.68 4.06 17.27 2.64Q14.86 1.22 12 1.22Q9.14 1.22 6.73 2.64Q4.32 4.06 2.9 6.47Q1.49 8.88 1.49 11.74L1.49 17.47Q1.49 17.78 1.7 18.01Q1.92 18.24 2.23 18.24Z" fill="rgba(0,0,0,0.9019607843137255)"></path></g></svg>