<?xml version="1.0" standalone="no"?>
<svg xmlns="http://www.w3.org/2000/svg" width="24" height="24"><rect width="24" height="24" opacity="0"></rect><g><path d="M8.52 4.2Q8.33 4.25 8.16 4.42L7.97 4.61Q7.7 4.87 7.6 5.23Q7.49 5.59 7.58 5.95Q7.82 6.96 8.69 8.11Q9.55 9.26 10.7 10.14Q11.86 11.02 12.84 11.23Q13.2 11.3 13.54 11.2Q13.87 11.09 14.14 10.82L14.35 10.61Q14.59 10.37 14.6 10.09Q14.62 9.82 14.35 9.6L13.49 8.9Q13.3 8.76 13.04 8.78Q12.79 8.81 12.62 8.98L12.29 9.31Q12.17 9.43 12.01 9.44Q11.86 9.46 11.71 9.38Q11.16 9.05 10.44 8.33Q9.72 7.61 9.38 7.08Q9.29 6.94 9.31 6.78Q9.34 6.62 9.46 6.5L9.84 6.14Q10.03 5.95 10.06 5.74Q10.08 5.52 9.91 5.33L9.12 4.32Q8.93 4.1 8.52 4.2ZM17.76 23.02Q18.65 23.02 19.39 22.57Q20.14 22.13 20.57 21.38Q21 20.64 21 19.75L21 8.78Q21 8.33 20.63 8.14Q20.26 7.94 19.88 8.14Q19.51 8.33 19.51 8.78L19.51 19.75Q19.51 20.47 19 20.99Q18.48 21.5 17.76 21.5L6.22 21.5Q5.5 21.5 4.98 20.99Q4.46 20.47 4.46 19.75L4.46 4.27Q4.46 3.53 4.98 3.02Q5.5 2.52 6.22 2.52L13.2 2.52Q13.68 2.52 13.87 2.14Q14.06 1.75 13.87 1.38Q13.68 1.01 13.2 1.01L6.22 1.01Q5.35 1.01 4.61 1.45Q3.86 1.9 3.42 2.64Q2.98 3.38 2.98 4.27L2.98 19.75Q2.98 20.64 3.42 21.38Q3.86 22.13 4.61 22.57Q5.35 23.02 6.22 23.02L17.76 23.02ZM12.24 14.59Q12.7 14.59 12.88 14.22Q13.06 13.85 12.88 13.46Q12.7 13.08 12.24 13.08L8.14 13.08Q7.68 13.08 7.5 13.46Q7.32 13.85 7.5 14.22Q7.68 14.59 8.14 14.59L12.24 14.59ZM15.84 18.29Q16.32 18.29 16.51 17.9Q16.7 17.52 16.51 17.15Q16.32 16.78 15.84 16.78L8.14 16.78Q7.68 16.78 7.49 17.16Q7.3 17.54 7.49 17.92Q7.68 18.29 8.14 18.29L15.84 18.29Z" fill="rgba(0,0,0,0.9019607843137255)"></path><path d="M17.59 1.13Q17.57 0.98 17.42 0.98Q17.28 0.98 17.23 1.13Q17.06 1.97 16.6 2.72Q16.13 3.48 15.43 3.95Q14.74 4.42 13.94 4.42Q13.8 4.42 13.8 4.58Q13.8 4.75 13.94 4.78Q14.78 4.94 15.54 5.41Q16.3 5.88 16.76 6.58Q17.23 7.27 17.23 8.06Q17.23 8.21 17.4 8.21Q17.57 8.21 17.59 8.06Q17.76 7.22 18.23 6.47Q18.7 5.71 19.39 5.24Q20.09 4.78 20.88 4.78Q20.95 4.78 21 4.69Q21.05 4.61 21.02 4.52Q21 4.44 20.88 4.42Q19.63 4.15 18.74 3.26Q17.86 2.38 17.59 1.13Z" fill="rgba(0,0,0,0.9019607843137255)"></path></g></svg>