<?xml version="1.0" standalone="no"?>
<svg xmlns="http://www.w3.org/2000/svg" width="24" height="24"><rect width="24" height="24" opacity="0"></rect><g><path d="M8.69 21.62Q8.69 22.08 9.06 22.26Q9.43 22.44 9.82 22.26Q10.2 22.08 10.2 21.62L10.2 14.66Q10.2 14.21 9.82 14.03Q9.43 13.85 9.06 14.03Q8.69 14.21 8.69 14.66L8.69 21.62ZM13.9 21.62Q13.9 22.08 14.27 22.27Q14.64 22.46 15.01 22.27Q15.38 22.08 15.38 21.62L15.38 14.66Q15.38 14.21 15.01 14.02Q14.64 13.82 14.27 14.02Q13.9 14.21 13.9 14.66L13.9 21.62Z" fill="rgba(0,0,0,0.9019607843137255)"></path><path d="M2.98 11.76Q2.98 9.31 4.19 7.24Q5.4 5.16 7.48 3.95Q9.55 2.74 12 2.74Q14.45 2.74 16.52 3.95Q18.6 5.16 19.81 7.24Q21.02 9.31 21.02 11.76L21.02 17.47Q21.02 17.95 21.4 18.14Q21.77 18.34 22.14 18.14Q22.51 17.95 22.51 17.47L22.51 11.76Q22.51 8.9 21.1 6.48Q19.68 4.06 17.27 2.64Q14.86 1.22 12 1.22Q9.14 1.22 6.73 2.64Q4.32 4.06 2.9 6.47Q1.49 8.88 1.49 11.74L1.49 17.47Q1.49 17.95 1.86 18.14Q2.23 18.34 2.6 18.16Q2.98 17.98 2.98 17.5L2.98 11.76Z" fill="rgba(0,0,0,0.9019607843137255)"></path></g></svg>