<?xml version="1.0" standalone="no"?>
<svg xmlns="http://www.w3.org/2000/svg" width="24" height="24"><rect width="24" height="24" opacity="0"></rect><g><path d="M21.94 18.07Q20.57 17.81 19.57 16.81Q18.58 15.82 18.29 14.45Q18.29 14.38 18.23 14.33Q18.17 14.28 18.1 14.28Q18.02 14.28 17.96 14.33Q17.9 14.38 17.88 14.45Q17.62 15.82 16.62 16.81Q15.62 17.81 14.28 18.07Q14.21 18.1 14.16 18.14Q14.11 18.19 14.11 18.29Q14.11 18.36 14.16 18.41Q14.21 18.46 14.28 18.48Q15.65 18.74 16.63 19.74Q17.62 20.74 17.88 22.1Q17.95 22.25 18.1 22.25Q18.17 22.25 18.22 22.21Q18.26 22.18 18.29 22.1Q18.58 20.74 19.57 19.74Q20.57 18.74 21.94 18.48Q22.01 18.48 22.04 18.42Q22.08 18.36 22.08 18.29Q22.08 18.19 22.04 18.14Q22.01 18.1 21.94 18.07Z" fill="rgba(0,0,0,0.9019607843137255)"></path><path d="M11.86 19.97L11.86 11.4L18.72 8.35L18.72 12.36Q18.72 12.67 18.95 12.89Q19.18 13.1 19.49 13.1Q19.8 13.1 20.02 12.89Q20.23 12.67 20.23 12.36L20.23 6.79Q20.23 6.34 20 5.95Q19.78 5.57 19.39 5.4L12.17 1.99Q11.66 1.73 11.1 1.73Q10.54 1.73 10.03 1.99L2.83 5.38Q2.42 5.57 2.17 5.98Q1.92 6.38 1.92 6.7L1.92 15.98Q1.92 16.82 2.38 17.52Q2.83 18.22 3.58 18.55L10.01 21.41Q10.54 21.65 11.08 21.65Q11.62 21.65 12.17 21.43L12.19 21.43L13.42 20.95Q13.7 20.86 13.82 20.56Q13.94 20.26 13.82 19.97Q13.73 19.68 13.44 19.56Q13.15 19.44 12.84 19.56ZM10.68 3.34Q11.11 3.14 11.52 3.34L18.74 6.72L11.4 9.96Q11.23 10.06 11 10.06Q10.78 10.06 10.58 9.96L3.5 6.7L10.68 3.34ZM4.2 17.18Q3.84 17.02 3.64 16.69Q3.43 16.37 3.43 15.98L3.43 8.3L10.34 11.45L10.34 19.92L4.2 17.18Z" fill="rgba(0,0,0,0.9019607843137255)"></path></g></svg>