<?xml version="1.0" standalone="no"?>
<svg xmlns="http://www.w3.org/2000/svg" width="24" height="24"><rect width="24" height="24" opacity="0"></rect><g><path d="M7.61 2.76Q7.08 2.11 6.34 1.88Q5.59 1.66 4.85 1.84Q4.1 2.02 3.6 2.54L3.12 3.05Q2.3 3.94 1.96 5.09Q1.61 6.24 1.87 7.34Q2.54 10.22 5 13.49Q7.46 16.75 10.68 19.18Q13.9 21.6 16.68 22.15Q17.78 22.39 18.89 22.08Q19.99 21.77 20.88 20.88L21.48 20.28Q21.98 19.78 22.19 19.04Q22.39 18.31 22.2 17.6Q22.01 16.9 21.41 16.44L19.03 14.64Q18.26 14.06 17.34 14.1Q16.42 14.14 15.74 14.81L14.81 15.72Q14.69 15.84 14.51 15.86Q14.33 15.89 14.18 15.79Q12.79 14.93 10.87 13.04Q8.95 11.16 8.11 9.82Q8.02 9.65 8.03 9.48Q8.04 9.31 8.16 9.19L9.24 8.21Q9.7 7.8 9.85 7.21Q10.01 6.62 9.86 6.01Q9.72 5.4 9.34 4.92L7.61 2.76ZM8.21 5.88Q8.45 6.14 8.44 6.52Q8.42 6.89 8.16 7.13L7.13 8.11Q6.62 8.59 6.55 9.29Q6.48 9.98 6.84 10.58Q7.75 12.07 9.79 14.09Q11.83 16.1 13.39 17.06Q13.99 17.42 14.66 17.34Q15.34 17.26 15.84 16.78L16.8 15.84Q17.06 15.58 17.44 15.56Q17.81 15.55 18.1 15.79L18.86 16.39Q19.34 16.75 19.78 17.08Q20.21 17.4 20.45 17.59Q20.78 17.9 20.77 18.4Q20.76 18.89 20.42 19.22L19.82 19.82Q19.27 20.38 18.52 20.6Q17.76 20.83 16.99 20.69Q14.5 20.21 11.52 17.94Q8.54 15.67 6.24 12.65Q3.94 9.62 3.34 7.01Q3.14 6.22 3.37 5.42Q3.6 4.63 4.18 4.08L4.68 3.6Q5.09 3.19 5.6 3.25Q6.12 3.31 6.43 3.7L8.21 5.88Z" fill="rgba(0,0,0,0.9019607843137255)"></path><path d="M12.77 2.81Q12.65 3.41 12.2 3.85Q11.76 4.3 11.16 4.42Q11.06 4.44 11.06 4.52Q11.06 4.61 11.16 4.61Q11.74 4.61 12.18 5.09Q12.62 5.57 12.77 6.19Q12.79 6.31 12.86 6.31Q12.94 6.31 12.96 6.19Q13.1 5.54 13.54 5.08Q13.97 4.61 14.57 4.61Q14.69 4.61 14.69 4.51Q14.69 4.42 14.57 4.42Q13.97 4.42 13.54 3.94Q13.1 3.46 12.96 2.81Q12.94 2.69 12.86 2.69Q12.79 2.69 12.77 2.81ZM18.24 4.68Q18 5.98 17.1 6.88Q16.2 7.78 14.83 8.16Q14.69 8.21 14.68 8.36Q14.66 8.52 14.83 8.54Q16.1 8.78 17.04 9.76Q17.98 10.73 18.24 12.02Q18.29 12.19 18.44 12.19Q18.6 12.19 18.62 12.02Q18.89 10.7 19.84 9.74Q20.78 8.78 22.06 8.54Q22.2 8.52 22.25 8.42Q22.3 8.33 22.24 8.24Q22.18 8.16 22.06 8.16Q20.78 8.11 19.85 7.09Q18.91 6.07 18.62 4.68Q18.58 4.51 18.42 4.5Q18.26 4.49 18.24 4.68Z" fill="rgba(0,0,0,0.9019607843137255)"></path></g></svg>