<?xml version="1.0" standalone="no"?>
<svg xmlns="http://www.w3.org/2000/svg" width="24" height="24"><rect width="24" height="24" opacity="0"></rect><g><path d="M16.03 17.16Q16.03 18.24 15.5 19.15Q14.98 20.06 14.06 20.6Q13.15 21.14 12.07 21.14L5.93 21.14Q4.85 21.14 3.94 20.6Q3.02 20.06 2.48 19.15Q1.94 18.24 1.94 17.16L1.94 6.98Q1.94 5.9 2.48 4.99Q3.02 4.08 3.94 3.54Q4.85 3 5.93 3L8.11 3Q8.45 3 8.66 3.22Q8.88 3.43 8.88 3.77Q8.88 4.08 8.65 4.3Q8.42 4.51 8.11 4.51L5.93 4.51Q4.9 4.51 4.18 5.23Q3.46 5.95 3.46 6.98L3.46 17.16Q3.46 18.19 4.18 18.91Q4.9 19.63 5.93 19.63L12.07 19.63Q13.1 19.63 13.82 18.91Q14.54 18.19 14.54 17.16L14.54 10.73Q14.54 10.42 14.76 10.2Q14.98 9.98 15.29 9.98Q15.6 9.98 15.82 10.2Q16.03 10.42 16.03 10.73L16.03 17.16ZM5.21 13.63Q5.21 13.32 5.42 13.1Q5.64 12.89 5.95 12.89L12.05 12.89Q12.36 12.89 12.58 13.1Q12.79 13.32 12.79 13.63Q12.79 13.94 12.58 14.17Q12.36 14.4 12.05 14.4L5.95 14.4Q5.64 14.4 5.42 14.18Q5.21 13.97 5.21 13.63ZM5.21 10.34Q5.21 10.01 5.42 9.8Q5.64 9.6 5.95 9.6L8.81 9.6Q9.14 9.6 9.36 9.82Q9.58 10.03 9.58 10.34Q9.58 10.66 9.35 10.87Q9.12 11.09 8.81 11.09L5.95 11.09Q5.64 11.09 5.42 10.87Q5.21 10.66 5.21 10.34Z" fill="rgba(0,0,0,0.9019607843137255)"></path><path d="M17.28 15.31Q17.06 15.07 17.08 14.77Q17.09 14.47 17.33 14.26Q17.64 13.97 17.81 13.58Q17.98 13.2 17.98 12.79Q17.98 12.38 17.81 12Q17.64 11.62 17.35 11.33Q17.11 11.11 17.1 10.81Q17.09 10.51 17.3 10.27Q17.52 10.03 17.83 10.03Q18.14 10.03 18.36 10.25Q18.89 10.73 19.18 11.4Q19.46 12.07 19.46 12.79Q19.46 13.54 19.16 14.21Q18.86 14.88 18.34 15.36Q18.1 15.58 17.8 15.56Q17.5 15.55 17.28 15.31ZM19.7 17.33Q19.49 17.09 19.5 16.78Q19.51 16.46 19.75 16.25Q20.5 15.55 20.92 14.6Q21.34 13.66 21.34 12.62Q21.34 11.59 20.93 10.66Q20.52 9.72 19.75 9Q19.54 8.78 19.52 8.47Q19.51 8.16 19.73 7.92Q19.94 7.7 20.26 7.69Q20.57 7.68 20.81 7.9Q21.79 8.86 22.31 10.07Q22.82 11.28 22.82 12.62Q22.82 13.97 22.28 15.2Q21.74 16.44 20.78 17.35L20.76 17.35Q20.52 17.57 20.22 17.57Q19.92 17.57 19.7 17.33ZM9.67 6.29Q9.67 6.19 9.79 6.14Q10.85 5.93 11.6 5.16Q12.36 4.39 12.58 3.36Q12.62 3.24 12.72 3.24Q12.86 3.24 12.86 3.36Q13.1 4.42 13.86 5.18Q14.62 5.95 15.67 6.14Q15.72 6.14 15.74 6.19Q15.77 6.24 15.77 6.29Q15.77 6.41 15.67 6.46Q14.62 6.67 13.85 7.43Q13.08 8.18 12.86 9.22Q12.82 9.34 12.72 9.34Q12.65 9.34 12.62 9.3Q12.6 9.26 12.58 9.22Q12.36 8.16 11.59 7.4Q10.82 6.65 9.79 6.46Q9.67 6.38 9.67 6.29ZM14.52 3.29Q14.52 3.26 14.51 3.23Q14.5 3.19 14.52 3.19Q14.95 3.1 15.29 2.76Q15.62 2.42 15.72 1.99Q15.82 2.42 16.14 2.76Q16.46 3.1 16.92 3.19L16.92 3.31Q16.49 3.41 16.18 3.71Q15.86 4.01 15.77 4.44L15.74 4.44Q15.72 4.44 15.7 4.45Q15.67 4.46 15.65 4.44Q15.55 4.01 15.25 3.7Q14.95 3.38 14.52 3.31Z" fill="rgba(0,0,0,0.9019607843137255)"></path></g></svg>