<?xml version="1.0" standalone="no"?>
<svg xmlns="http://www.w3.org/2000/svg" width="24" height="24"><rect width="24" height="24" opacity="0"></rect><g><path d="M4.27 15.38Q3.94 15.5 3.82 15.77Q3.7 16.03 3.86 16.39Q5.11 19.01 7.56 20.57Q10.01 22.13 12.94 22.13Q15.65 22.13 17.95 20.78Q20.26 19.44 21.6 17.15Q22.94 14.86 22.94 12.14Q22.94 9.6 21.76 7.42Q20.57 5.23 18.52 3.84Q16.46 2.45 13.99 2.18Q13.61 2.14 13.39 2.32Q13.18 2.5 13.15 2.88Q13.13 3.24 13.31 3.43Q13.49 3.62 13.85 3.67Q13.87 3.67 13.87 3.67Q13.87 3.67 13.9 3.67Q15.98 3.91 17.71 5.1Q19.44 6.29 20.44 8.14Q21.43 9.98 21.43 12.14Q21.43 14.45 20.29 16.4Q19.15 18.36 17.2 19.5Q15.24 20.64 12.94 20.64Q10.46 20.64 8.4 19.34Q6.34 18.05 5.28 15.84L5.21 15.67Q5.04 15.41 4.81 15.35Q4.58 15.29 4.27 15.38Z" fill="rgba(0,0,0,0.9019607843137255)"></path><path d="M4.03 8.18Q3.98 8.18 3.96 8.22Q3.94 8.26 3.91 8.3Q3.72 9.29 3.01 9.98Q2.3 10.68 1.34 10.85Q1.3 10.87 1.27 10.91Q1.25 10.94 1.25 11.02Q1.25 11.06 1.27 11.09Q1.3 11.11 1.34 11.14Q2.33 11.33 3.02 12.02Q3.72 12.72 3.91 13.7Q3.91 13.75 3.95 13.78Q3.98 13.8 4.03 13.8Q4.13 13.8 4.2 13.7Q4.39 12.74 5.09 12.04Q5.78 11.33 6.74 11.14Q6.79 11.14 6.83 11.1Q6.86 11.06 6.86 11.02Q6.86 10.92 6.74 10.87Q5.78 10.68 5.09 9.98Q4.39 9.29 4.2 8.3Q4.18 8.26 4.14 8.22Q4.1 8.18 4.03 8.18ZM8.45 0.67Q8.4 0.67 8.35 0.72Q8.3 0.77 8.28 0.84Q7.97 2.33 6.91 3.38Q5.86 4.44 4.39 4.7Q4.25 4.75 4.25 4.97Q4.25 5.02 4.3 5.06Q4.34 5.11 4.39 5.14Q5.88 5.45 6.92 6.49Q7.97 7.54 8.28 9.02Q8.28 9.1 8.34 9.13Q8.4 9.17 8.45 9.17Q8.57 9.17 8.62 9.14Q8.66 9.12 8.71 9.02Q9.02 7.56 10.07 6.5Q11.11 5.45 12.58 5.14Q12.65 5.14 12.7 5.09Q12.74 5.04 12.74 4.97Q12.74 4.85 12.7 4.8Q12.65 4.75 12.6 4.73L12.58 4.73Q11.11 4.44 10.07 3.38Q9.02 2.33 8.71 0.84Q8.66 0.67 8.45 0.67Z" fill="rgba(0,0,0,0.9019607843137255)"></path></g></svg>