<?xml version="1.0" encoding="UTF-8"?>
<svg width="24px" height="24px" viewBox="0 0 24 24" version="1.1" xmlns="http://www.w3.org/2000/svg" xmlns:xlink="http://www.w3.org/1999/xlink">
    <title>ai_recognize</title>
    <g id="ai_recognize" stroke="none" stroke-width="1" fill="none" fill-rule="evenodd">
        <path d="M22.3310811,14.4500231 C22.7547673,14.4500231 23.1044037,14.7670682 23.1556869,15.1768552 L23.1621622,15.2811042 L23.1621622,16.7905405 C23.1621622,20.2329911 20.4321711,23.0378181 17.0190702,23.1581402 L16.7905405,23.1621622 L15.2702086,23.1621622 C14.8112152,23.1621622 14.4391275,22.7900745 14.4391275,22.3310811 C14.4391275,21.9073949 14.7561726,21.5577585 15.1659595,21.5064753 L15.2702086,21.5 L16.7905405,21.5 C19.3192542,21.5 21.3824813,19.507015 21.4951539,17.0061128 L21.5,16.7905405 L21.5,15.2811042 C21.5,14.8221108 21.8720877,14.4500231 22.3310811,14.4500231 Z M1.83108108,14.4500231 C2.2547673,14.4500231 2.60440367,14.7670682 2.65568686,15.1768552 L2.66216216,15.2811042 L2.66216216,16.7905405 C2.66216216,19.3192542 4.6551472,21.3824813 7.15604934,21.4951539 L7.37162162,21.5 L8.92677202,21.5 C9.38576543,21.5 9.75785311,21.8720877 9.75785311,22.3310811 C9.75785311,22.7547673 9.44080799,23.1044037 9.03102107,23.1556869 L8.92677202,23.1621622 L7.37162162,23.1621622 C3.92917107,23.1621622 1.1243441,20.4321711 1.00402197,17.0190702 L1,16.7905405 L1,15.2811042 C1,14.8221108 1.37208767,14.4500231 1.83108108,14.4500231 Z M12.0810811,6.54054054 C15.1410371,6.54054054 17.6216216,9.02112503 17.6216216,12.0810811 C17.6216216,15.1410371 15.1410371,17.6216216 12.0810811,17.6216216 C9.02112503,17.6216216 6.54054054,15.1410371 6.54054054,12.0810811 C6.54054054,9.02112503 9.02112503,6.54054054 12.0810811,6.54054054 Z M12.0810811,8.21949222 C9.94838444,8.21949222 8.21949222,9.94838444 8.21949222,12.0810811 C8.21949222,14.2137777 9.94838444,15.9426699 12.0810811,15.9426699 C14.2137777,15.9426699 15.9426699,14.2137777 15.9426699,12.0810811 C15.9426699,9.94838444 14.2137777,8.21949222 12.0810811,8.21949222 Z M8.92677202,1 C9.38576543,1 9.75785311,1.37208767 9.75785311,1.83108108 C9.75785311,2.2547673 9.44080799,2.60440367 9.03102107,2.65568686 L8.92677202,2.66216216 L7.37162162,2.66216216 C4.84290794,2.66216216 2.77968086,4.6551472 2.6670083,7.15604934 L2.66216216,7.37162162 L2.66216216,8.93066218 C2.66216216,9.38965559 2.29007449,9.76174326 1.83108108,9.76174326 C1.40739486,9.76174326 1.05775849,9.44469814 1.0064753,9.03491123 L1,8.93066218 L1,7.37162162 C1,3.92917107 3.72999109,1.1243441 7.14309201,1.00402197 L7.37162162,1 L8.92677202,1 Z M16.7905405,1 C20.2329911,1 23.0378181,3.72999109 23.1581402,7.14309201 L23.1621622,7.37162162 L23.1621622,8.93066218 C23.1621622,9.38965559 22.7900745,9.76174326 22.3310811,9.76174326 C21.9073949,9.76174326 21.5577585,9.44469814 21.5064753,9.03491123 L21.5,8.93066218 L21.5,7.37162162 C21.5,4.84290794 19.507015,2.77968086 17.0061128,2.6670083 L16.7905405,2.66216216 L15.2702086,2.66216216 C14.8112152,2.66216216 14.4391275,2.29007449 14.4391275,1.83108108 C14.4391275,1.40739486 14.7561726,1.05775849 15.1659595,1.0064753 L15.2702086,1 L16.7905405,1 Z" id="形状结合" fill="#000000" fill-rule="nonzero"></path>
    </g>
</svg>