<?xml version="1.0" standalone="no"?>
<svg xmlns="http://www.w3.org/2000/svg" width="24" height="24"><rect width="24" height="24" opacity="0"></rect><g><path d="M9.34 15.82Q7.9 15.53 6.86 14.48Q5.83 13.44 5.52 12Q5.52 11.9 5.46 11.86Q5.4 11.81 5.33 11.81Q5.26 11.81 5.2 11.86Q5.14 11.9 5.11 12Q4.82 13.44 3.78 14.48Q2.74 15.53 1.32 15.82Q1.22 15.82 1.19 15.86Q1.15 15.91 1.15 16.01Q1.15 16.08 1.19 16.13Q1.22 16.18 1.32 16.2Q2.76 16.54 3.79 17.57Q4.82 18.6 5.09 20.02Q5.16 20.16 5.33 20.16Q5.38 20.16 5.44 20.12Q5.5 20.09 5.52 20.02Q5.83 18.6 6.88 17.57Q7.92 16.54 9.34 16.2Q9.41 16.2 9.46 16.15Q9.5 16.1 9.5 16.03Q9.5 15.86 9.34 15.82Z" fill="rgba(0,0,0,0.9019607843137255)"></path><path d="M17.86 16.34Q18.91 15.14 19.51 13.63Q20.11 12.12 20.11 10.46Q20.11 8.04 18.91 5.99Q17.71 3.94 15.66 2.74Q13.61 1.54 11.18 1.54Q8.76 1.54 6.72 2.75Q4.68 3.96 3.48 6.04Q2.28 8.11 2.28 10.56Q2.28 10.87 2.5 11.09Q2.71 11.3 3.02 11.3Q3.34 11.3 3.55 11.09Q3.77 10.87 3.77 10.56Q3.77 8.52 4.76 6.79Q5.76 5.06 7.46 4.06Q9.17 3.05 11.18 3.05Q13.2 3.05 14.9 4.04Q16.61 5.04 17.6 6.74Q18.6 8.45 18.6 10.46Q18.6 12.48 17.59 14.18Q16.58 15.89 14.86 16.88Q13.13 17.88 11.09 17.88Q10.78 17.88 10.56 18.1Q10.34 18.31 10.34 18.62Q10.34 18.94 10.56 19.15Q10.78 19.37 11.09 19.37Q12.67 19.37 14.12 18.85Q15.58 18.34 16.75 17.4L21.55 22.25Q21.82 22.46 22.1 22.46Q22.39 22.46 22.63 22.25Q22.85 22.03 22.85 21.72Q22.85 21.41 22.63 21.19L17.86 16.34Z" fill="rgba(0,0,0,0.9019607843137255)"></path></g></svg>