<?xml version="1.0" standalone="no"?>
<svg xmlns="http://www.w3.org/2000/svg" width="24" height="24"><rect width="24" height="24" opacity="0"></rect><g><path d="M12.24 17.09Q11.93 17.09 11.7 17.3Q11.47 17.52 11.47 17.83Q11.47 18.14 11.7 18.37Q11.93 18.6 12.24 18.6L18.31 18.6L18.31 20.59Q18.31 20.9 18.53 21.12Q18.74 21.34 19.06 21.34Q19.37 21.34 19.58 21.12Q19.8 20.9 19.8 20.59L19.8 18.6L20.9 18.6Q21.22 18.6 21.43 18.37Q21.65 18.14 21.65 17.83Q21.65 17.52 21.43 17.3Q21.22 17.09 20.9 17.09L12.24 17.09ZM5.45 5.69L5.45 11.76Q5.45 12.07 5.66 12.3Q5.88 12.53 6.19 12.53Q6.5 12.53 6.72 12.3Q6.94 12.07 6.94 11.76L6.94 3.1Q6.94 2.78 6.72 2.56Q6.5 2.33 6.19 2.33Q5.88 2.33 5.66 2.56Q5.45 2.78 5.45 3.1L5.45 4.2L3.43 4.2Q3.12 4.2 2.9 4.42Q2.69 4.63 2.69 4.94Q2.69 5.26 2.9 5.47Q3.12 5.69 3.43 5.69ZM17.06 5.69Q17.59 5.69 17.95 6.05Q18.31 6.41 18.31 6.94L18.31 14.93Q18.31 15.24 18.53 15.47Q18.74 15.7 19.06 15.7Q19.37 15.7 19.58 15.47Q19.8 15.24 19.8 14.93L19.8 6.94Q19.8 6.19 19.43 5.57Q19.06 4.94 18.43 4.57Q17.81 4.2 17.06 4.2L9.07 4.2Q8.76 4.2 8.53 4.42Q8.3 4.63 8.3 4.94Q8.3 5.26 8.53 5.47Q8.76 5.69 9.07 5.69L17.06 5.69Z" fill="rgba(0,0,0,0.9019607843137255)"></path><path d="M10.18 17.45Q8.81 17.18 7.81 16.18Q6.82 15.17 6.53 13.8Q6.53 13.73 6.47 13.69Q6.41 13.66 6.34 13.66Q6.26 13.66 6.22 13.69Q6.17 13.73 6.14 13.8Q5.86 15.17 4.85 16.18Q3.84 17.18 2.47 17.45Q2.42 17.47 2.38 17.52Q2.33 17.57 2.33 17.64Q2.33 17.71 2.38 17.76Q2.42 17.81 2.47 17.86Q3.86 18.14 4.86 19.14Q5.86 20.14 6.14 21.48Q6.14 21.55 6.19 21.6Q6.24 21.65 6.34 21.65Q6.41 21.65 6.46 21.6Q6.5 21.55 6.53 21.48Q6.82 20.11 7.81 19.13Q8.81 18.14 10.18 17.86Q10.25 17.83 10.3 17.78Q10.34 17.74 10.34 17.64Q10.34 17.57 10.3 17.52Q10.25 17.47 10.18 17.45Z" fill="rgba(0,0,0,0.9019607843137255)"></path></g></svg>