<?xml version="1.0" standalone="no"?>
<svg xmlns="http://www.w3.org/2000/svg" width="24" height="24"><rect width="24" height="24" opacity="0"></rect><g><path d="M19.46 13.25Q19.46 13.15 19.38 13.1Q19.3 13.06 19.21 13.09Q19.13 13.13 19.1 13.25Q18.86 14.5 17.98 15.4Q17.09 16.3 15.84 16.56Q15.72 16.58 15.68 16.67Q15.65 16.75 15.7 16.84Q15.74 16.92 15.84 16.92Q17.09 17.18 17.98 18.08Q18.86 18.98 19.1 20.23Q19.13 20.33 19.21 20.36Q19.3 20.4 19.37 20.36Q19.44 20.33 19.46 20.23Q19.7 18.98 20.6 18.08Q21.5 17.18 22.73 16.92Q22.82 16.92 22.86 16.84Q22.9 16.75 22.86 16.67Q22.82 16.58 22.73 16.56Q21.5 16.32 20.62 15.42Q19.73 14.52 19.46 13.25Z" fill="rgba(0,0,0,0.9019607843137255)"></path><path d="M14.71 20.21Q15.02 20.21 15.24 19.98Q15.46 19.75 15.46 19.44Q15.46 19.13 15.24 18.91Q15.02 18.7 14.71 18.7L5.06 18.7Q4.39 18.7 3.84 18.36Q3.29 18.02 2.95 17.45Q2.62 16.87 2.62 16.2L2.62 7.61Q2.62 6.94 2.95 6.36Q3.29 5.78 3.84 5.45Q4.39 5.11 5.06 5.11L18.67 5.11Q19.7 5.11 20.41 5.84Q21.12 6.58 21.12 7.61L21.12 12.31Q21.12 12.62 21.35 12.84Q21.58 13.06 21.89 13.06Q22.2 13.06 22.42 12.84Q22.63 12.62 22.63 12.31L22.63 7.61Q22.63 6.53 22.1 5.62Q21.58 4.7 20.66 4.16Q19.75 3.62 18.67 3.62L5.06 3.62Q3.98 3.62 3.08 4.16Q2.18 4.7 1.66 5.62Q1.13 6.53 1.13 7.61L1.13 16.2Q1.13 17.28 1.66 18.2Q2.18 19.13 3.08 19.67Q3.98 20.21 5.06 20.21L14.71 20.21ZM12.58 12.7Q12.89 12.7 13.1 12.47Q13.32 12.24 13.32 11.93Q13.32 11.62 13.1 11.4Q12.89 11.18 12.58 11.18L6.31 11.18Q6 11.18 5.78 11.4Q5.57 11.62 5.57 11.93Q5.57 12.24 5.78 12.47Q6 12.7 6.31 12.7L12.58 12.7ZM17.47 9.46Q17.78 9.46 18 9.23Q18.22 9 18.22 8.69Q18.22 8.38 18 8.16Q17.78 7.94 17.47 7.94L6.31 7.94Q6 7.94 5.78 8.16Q5.57 8.38 5.57 8.69Q5.57 9 5.78 9.23Q6 9.46 6.31 9.46L17.47 9.46ZM7.68 15.96Q7.99 15.96 8.21 15.74Q8.42 15.53 8.42 15.22Q8.42 14.9 8.21 14.69Q7.99 14.47 7.68 14.47L6.31 14.47Q6 14.47 5.78 14.69Q5.57 14.9 5.57 15.22Q5.57 15.53 5.78 15.74Q6 15.96 6.31 15.96L7.68 15.96ZM17.47 12.72Q17.78 12.72 18 12.5Q18.22 12.29 18.22 11.98Q18.22 11.66 18 11.45Q17.78 11.23 17.47 11.23L16.13 11.23Q15.82 11.23 15.59 11.45Q15.36 11.66 15.36 11.98Q15.36 12.29 15.59 12.5Q15.82 12.72 16.13 12.72L17.47 12.72Z" fill="rgba(0,0,0,0.9019607843137255)"></path></g></svg>