<?xml version="1.0" standalone="no"?>
<svg xmlns="http://www.w3.org/2000/svg" width="24" height="24"><rect width="24" height="24" opacity="0"></rect><g><path d="M4.13 17.59Q4.1 17.5 4.01 17.5Q3.91 17.5 3.86 17.59Q3.67 18.43 3.06 19.07Q2.45 19.7 1.58 19.87Q1.51 19.9 1.51 20Q1.51 20.11 1.58 20.11Q2.45 20.28 3.07 20.9Q3.7 21.53 3.86 22.39Q3.91 22.49 4.01 22.49Q4.1 22.49 4.13 22.39Q4.32 21.53 4.93 20.9Q5.54 20.28 6.41 20.11Q6.5 20.11 6.5 19.99Q6.5 19.87 6.41 19.87Q5.54 19.68 4.93 19.07Q4.32 18.46 4.13 17.59ZM18.7 1.66Q18.6 1.44 18.47 1.48Q18.34 1.51 18.29 1.66Q18.02 3.02 17.03 4.02Q16.03 5.02 14.64 5.3Q14.5 5.35 14.5 5.52Q14.5 5.69 14.64 5.69Q16.01 5.98 17.02 6.97Q18.02 7.97 18.29 9.34Q18.38 9.5 18.52 9.5Q18.65 9.5 18.7 9.34Q18.98 7.97 19.97 6.97Q20.95 5.98 22.34 5.69Q22.51 5.64 22.51 5.48Q22.51 5.33 22.34 5.3Q20.98 5.02 19.98 4.02Q18.98 3.02 18.7 1.66Z" fill="rgba(0,0,0,0.9019607843137255)"></path><path d="M14.5 10.03Q12.94 10.03 11.6 10.8Q10.27 11.57 9.49 12.89Q8.71 14.21 8.71 15.77Q8.71 17.3 9.49 18.62Q10.27 19.94 11.6 20.72Q12.94 21.5 14.5 21.5Q16.06 21.5 17.38 20.74Q18.7 19.97 19.48 18.65Q20.26 17.33 20.26 15.77Q20.26 14.21 19.48 12.89Q18.7 11.57 17.38 10.8Q16.06 10.03 14.5 10.03ZM1.75 9.46Q1.68 11.02 2.33 12.4Q2.98 13.78 4.18 14.72Q5.38 15.67 6.91 15.96Q7.18 16.01 7.39 15.85Q7.61 15.7 7.66 15.43Q7.7 15.17 7.56 14.95Q7.42 14.74 7.15 14.69Q5.93 14.47 4.97 13.72Q4.01 12.96 3.5 11.86Q3 10.75 3.05 9.53Q3.12 8.16 3.85 7.06Q4.58 5.95 5.76 5.34Q6.94 4.73 8.3 4.8Q9.41 4.85 10.36 5.35Q11.3 5.86 11.98 6.7Q12.65 7.54 12.91 8.57Q12.96 8.83 13.21 9.01Q13.46 9.19 13.7 9.12Q13.97 9.07 14.11 8.84Q14.26 8.62 14.18 8.35Q13.87 7.01 13.03 5.93Q12.19 4.85 10.98 4.21Q9.77 3.58 8.38 3.5Q6.67 3.41 5.18 4.18Q3.7 4.94 2.77 6.35Q1.85 7.75 1.75 9.46ZM9.05 6.7Q8.88 6.29 8.53 6.12Q8.18 5.95 7.84 6.1Q7.49 6.24 7.32 6.7L5.3 12.1Q5.14 12.48 5.36 12.74Q5.59 13.01 5.93 12.95Q6.26 12.89 6.43 12.48L6.91 11.16L9.46 11.16Q9.82 10.75 10.42 10.3L9.05 6.7ZM9.1 10.08L7.32 10.08L8.18 7.49ZM17.35 13.56Q17.62 13.56 17.72 13.76Q17.83 13.97 17.72 14.17Q17.62 14.38 17.35 14.38L16.56 14.38Q16.13 16.01 15.14 17.06Q15.77 17.52 16.26 17.77Q16.75 18.02 17.45 18.24Q17.76 18.34 17.81 18.56Q17.86 18.79 17.68 18.96Q17.5 19.13 17.18 19.03Q16.42 18.79 15.68 18.43Q14.95 18.07 14.5 17.64Q13.94 18.05 13.18 18.46Q12.41 18.86 11.81 19.03Q11.52 19.2 11.32 19.02Q11.11 18.84 11.16 18.58Q11.21 18.31 11.57 18.24Q12.29 18 12.83 17.74Q13.37 17.47 13.87 17.06Q13.3 16.42 12.95 15.78Q12.6 15.14 12.41 14.38L11.64 14.38Q11.42 14.38 11.33 14.17Q11.23 13.97 11.33 13.76Q11.42 13.56 11.64 13.56L14.23 13.56Q14.18 13.46 14.11 13.4Q14.04 13.34 13.99 13.27L13.92 13.2Q13.7 12.94 13.78 12.71Q13.85 12.48 14.09 12.44Q14.33 12.41 14.54 12.62Q15.17 13.44 15.19 13.56L17.35 13.56ZM13.25 14.38Q13.49 15.1 13.74 15.54Q13.99 15.98 14.5 16.51Q15.36 15.58 15.7 14.38L13.25 14.38Z" fill="rgba(0,0,0,0.9019607843137255)"></path></g></svg>