<?xml version="1.0" standalone="no"?>
<svg xmlns="http://www.w3.org/2000/svg" width="24" height="24"><rect width="24" height="24" opacity="0"></rect><g><path d="M3.86 17.59Q3.58 18.5 3 19.13Q2.42 19.75 1.58 19.87Q1.49 19.9 1.49 19.99Q1.49 20.09 1.58 20.11Q2.42 20.21 3.05 20.86Q3.67 21.5 3.86 22.39Q3.91 22.51 4.01 22.51Q4.1 22.51 4.13 22.39Q4.3 21.5 4.92 20.86Q5.54 20.21 6.41 20.11Q6.53 20.09 6.53 19.99Q6.53 19.9 6.41 19.87Q5.54 19.78 4.92 19.13Q4.3 18.48 4.13 17.59Q4.1 17.47 4.01 17.47Q3.91 17.47 3.86 17.59ZM18.29 1.63Q18.02 3.02 17.03 4.02Q16.03 5.02 14.64 5.3Q14.5 5.35 14.5 5.5Q14.5 5.64 14.64 5.69Q16.06 5.98 17.09 6.98Q18.12 7.99 18.29 9.34Q18.31 9.5 18.48 9.5Q18.65 9.5 18.67 9.34Q18.84 7.97 19.87 6.97Q20.9 5.98 22.34 5.69Q22.51 5.64 22.51 5.48Q22.51 5.33 22.34 5.3Q20.98 5.02 19.97 4.02Q18.96 3.02 18.67 1.63Q18.62 1.49 18.48 1.49Q18.34 1.49 18.29 1.63Z" fill="rgba(0,0,0,0.9019607843137255)"></path><path d="M14.5 10.03Q12.94 10.03 11.6 10.8Q10.27 11.57 9.49 12.89Q8.71 14.21 8.71 15.77Q8.71 17.3 9.49 18.62Q10.27 19.94 11.6 20.72Q12.94 21.5 14.5 21.5Q16.06 21.5 17.38 20.74Q18.7 19.97 19.48 18.65Q20.26 17.33 20.26 15.77Q20.26 14.21 19.48 12.89Q18.7 11.57 17.38 10.8Q16.06 10.03 14.5 10.03ZM1.75 9.46Q1.68 11.02 2.33 12.4Q2.98 13.78 4.18 14.72Q5.38 15.67 6.91 15.96Q7.3 16.03 7.51 15.74Q7.73 15.46 7.63 15.11Q7.54 14.76 7.15 14.69Q5.93 14.47 4.97 13.72Q4.01 12.96 3.5 11.86Q3 10.75 3.05 9.5Q3.12 8.16 3.85 7.06Q4.58 5.95 5.76 5.34Q6.94 4.73 8.3 4.8Q9.96 4.9 11.23 5.94Q12.5 6.98 12.91 8.57Q13.03 8.98 13.38 9.08Q13.73 9.19 14 8.98Q14.28 8.76 14.18 8.35Q13.87 7.01 13.03 5.93Q12.19 4.85 10.98 4.21Q9.77 3.58 8.38 3.5Q6.67 3.41 5.17 4.18Q3.67 4.94 2.75 6.35Q1.82 7.75 1.75 9.46ZM5.3 12.1Q5.16 12.46 5.38 12.74Q5.59 13.03 5.93 12.98Q6.26 12.94 6.43 12.48L6.91 11.16L9.46 11.16Q9.67 10.92 9.91 10.7Q10.15 10.49 10.42 10.3L9.05 6.7Q8.88 6.29 8.52 6.13Q8.16 5.98 7.81 6.12Q7.46 6.26 7.32 6.7L5.3 12.1ZM9.07 10.08L7.32 10.08L8.18 7.49ZM15.02 13.22Q15.1 13.34 15.17 13.49L15.19 13.56L17.35 13.56Q17.59 13.56 17.66 13.66Q17.74 13.75 17.74 13.96Q17.74 14.16 17.66 14.28Q17.59 14.38 17.35 14.38L16.56 14.38Q16.39 15.07 16.04 15.78Q15.7 16.49 15.14 17.06Q15.74 17.5 16.31 17.76Q16.87 18.02 17.66 18.29Q17.76 18.34 17.82 18.42Q17.88 18.5 17.86 18.6Q17.83 18.72 17.74 18.96Q17.69 19.08 17.56 19.09Q17.42 19.1 17.18 19.03Q15.46 18.5 14.5 17.64Q13.94 18.07 13.15 18.47Q12.36 18.86 11.69 19.06Q11.54 19.1 11.44 19.09Q11.33 19.08 11.28 18.98Q11.26 18.96 11.24 18.94Q11.23 18.91 11.23 18.86Q11.18 18.79 11.14 18.65Q11.06 18.41 11.45 18.29Q12.22 18.05 12.78 17.77Q13.34 17.5 13.87 17.06Q13.27 16.39 12.96 15.83Q12.65 15.26 12.41 14.38L11.64 14.38Q11.45 14.38 11.35 14.28Q11.28 14.21 11.28 13.97Q11.28 13.73 11.35 13.66Q11.45 13.56 11.64 13.56L14.21 13.56Q14.21 13.56 13.92 13.2Q13.73 12.96 13.73 12.82Q13.73 12.67 13.9 12.55Q14.06 12.43 14.23 12.43Q14.3 12.43 14.38 12.48Q14.45 12.53 14.54 12.62Q14.69 12.77 14.81 12.91L15.02 13.22ZM13.25 14.38Q13.49 15.1 13.74 15.54Q13.99 15.98 14.5 16.51Q14.95 16.01 15.22 15.53Q15.48 15.05 15.67 14.38L13.25 14.38Z" fill="rgba(0,0,0,0.9019607843137255)"></path></g></svg>