<?xml version="1.0" standalone="no"?>
<svg xmlns="http://www.w3.org/2000/svg" width="24" height="24"><rect width="24" height="24" opacity="0"></rect><g><path d="M12.24 10.06Q12.14 10.1 12.12 10.2Q12.1 10.3 12.16 10.39Q12.22 10.49 12.31 10.51L15.43 11.35Q15.7 11.42 15.94 11.29Q16.18 11.16 16.22 10.9L16.92 7.78Q16.94 7.61 16.82 7.52Q16.7 7.44 16.56 7.51L15.84 7.92L13.37 3.58Q13.13 3.17 12.72 2.93Q12.31 2.69 11.88 2.71Q11.4 2.71 11 2.95Q10.61 3.19 10.39 3.6L7.42 8.95Q7.3 9.17 7.37 9.42Q7.44 9.67 7.66 9.77L9.58 10.85Q9.79 10.97 10.04 10.9Q10.3 10.82 10.39 10.61L11.38 8.81Q11.5 8.62 11.7 8.54Q11.9 8.47 12.11 8.54Q12.31 8.62 12.43 8.81L12.91 9.65L12.24 10.06ZM18.41 12.41Q18.29 12.19 18.05 12.12Q17.81 12.05 17.57 12.19L15.67 13.27Q15.46 13.39 15.4 13.63Q15.34 13.87 15.46 14.09L16.49 15.91Q16.61 16.1 16.57 16.32Q16.54 16.54 16.37 16.68Q16.2 16.82 15.96 16.82L14.95 16.82L14.95 16.03Q14.95 15.94 14.88 15.86Q14.81 15.79 14.7 15.78Q14.59 15.77 14.52 15.84L12.24 18.14Q12.05 18.34 12.05 18.61Q12.05 18.89 12.24 19.08L14.59 21.24Q14.71 21.34 14.86 21.28Q15 21.22 15 21.05L15 20.23L19.94 20.21Q20.4 20.21 20.78 19.98Q21.17 19.75 21.41 19.37Q21.65 18.98 21.64 18.52Q21.62 18.05 21.41 17.64L18.41 12.41ZM7.97 16.82Q7.75 16.82 7.58 16.69Q7.42 16.56 7.38 16.36Q7.34 16.15 7.44 15.96L7.87 15.14L8.57 15.55Q8.69 15.62 8.81 15.56Q8.93 15.5 8.95 15.38Q8.95 15.34 8.93 15.29L8.16 12.12Q8.09 11.86 7.86 11.72Q7.63 11.59 7.37 11.66L4.3 12.55Q4.13 12.6 4.12 12.76Q4.1 12.91 4.25 13.01L4.94 13.42L2.57 17.74Q2.35 18.12 2.36 18.56Q2.38 19.01 2.59 19.42Q2.83 19.8 3.22 20.03Q3.6 20.26 4.06 20.26L9.98 20.23Q10.25 20.23 10.42 20.05Q10.58 19.87 10.58 19.63L10.58 17.42Q10.58 17.18 10.4 17Q10.22 16.82 9.98 16.82L7.97 16.82Z" fill="rgba(0,0,0,0.9019607843137255)"></path></g></svg>