<?xml version="1.0" standalone="no"?>
<svg xmlns="http://www.w3.org/2000/svg" width="24" height="24"><rect width="24" height="24" opacity="0"></rect><g><path d="M20.26 9.36Q20.26 7.13 19.14 5.23Q18.02 3.34 16.13 2.22Q14.23 1.1 12 1.1Q9.77 1.1 7.87 2.22Q5.98 3.34 4.86 5.23Q3.74 7.13 3.74 9.36Q3.74 11.59 4.75 13.4Q5.76 15.22 7.49 16.32Q9.22 17.42 11.35 17.59L10.61 18.7Q10.56 18.79 10.57 18.9Q10.58 19.01 10.67 19.08Q10.75 19.15 10.87 19.15L11.4 19.15L11.3 19.66Q10.87 21.19 9.41 21.96Q9.24 22.06 9.17 22.25Q9.1 22.44 9.19 22.63Q9.29 22.8 9.44 22.86Q9.6 22.92 9.79 22.87Q9.82 22.87 9.84 22.87Q9.86 22.87 9.89 22.85Q11.21 22.1 11.75 21.08Q12.29 20.06 12.38 19.18L13.13 19.18Q13.25 19.18 13.33 19.1Q13.42 19.03 13.43 18.91Q13.44 18.79 13.37 18.7L12.65 17.59Q14.74 17.42 16.49 16.28Q18.24 15.14 19.25 13.32Q20.26 11.5 20.26 9.36Z" fill="rgba(0,0,0,0.9019607843137255)"></path></g></svg>