<?xml version="1.0" standalone="no"?>
<svg xmlns="http://www.w3.org/2000/svg" width="24" height="24"><rect width="24" height="24" opacity="0"></rect><g mask="url(#hms_mask_0)"><path d="M3 5.76Q2.33 5.76 1.75 6.1Q1.18 6.43 0.84 7.01Q0.5 7.58 0.5 8.26L0.5 15.74Q0.5 16.42 0.84 16.99Q1.18 17.57 1.75 17.9Q2.33 18.24 3 18.24L17.78 18.24Q18.48 18.24 19.04 17.9Q19.61 17.57 19.94 17Q20.28 16.44 20.28 15.74L20.28 8.26Q20.28 7.56 19.94 7Q19.61 6.43 19.04 6.1Q18.48 5.76 17.78 5.76L3 5.76ZM22.51 9Q22.1 9 21.8 9.3Q21.5 9.6 21.5 10.01L21.5 13.99Q21.5 14.4 21.8 14.7Q22.1 15 22.51 15Q22.92 15 23.21 14.7Q23.5 14.4 23.5 13.99L23.5 10.01Q23.5 9.6 23.21 9.3Q22.92 9 22.51 9Z" fill="rgba(0,0,0,0.9019607843137255)"></path></g><defs><mask id="hms_mask_0"><rect width="24" height="24" fill="#ffffff"></rect><g><path d="M15.12 12.55Q15.41 12.79 15.4 13.13Q15.38 13.46 15.12 13.67Q14.86 13.87 14.5 13.8L11.11 12.46L11.11 14.28Q11.11 14.71 10.79 14.89Q10.46 15.07 10.06 14.88L5.69 11.71Q5.4 11.52 5.39 11.2Q5.38 10.87 5.63 10.64Q5.88 10.42 6.29 10.46L9.31 11.54L9.31 9.7Q9.31 9.34 9.64 9.12Q9.96 8.9 10.3 9.07L15.12 12.55Z" fill="#000000"></path></g></mask></defs></svg>