<?xml version="1.0" standalone="no"?>
<svg xmlns="http://www.w3.org/2000/svg" width="24" height="24"><rect width="24" height="24" opacity="0"></rect><g><path d="M12 1.01Q9.02 1.01 6.49 2.48Q3.96 3.96 2.48 6.49Q1.01 9.02 1.01 12Q1.01 14.98 2.48 17.51Q3.96 20.04 6.49 21.52Q9.02 22.99 12 22.99Q14.98 22.99 17.5 21.52Q20.02 20.04 21.5 17.51Q22.99 14.98 22.99 12Q22.99 9.02 21.52 6.49Q20.04 3.96 17.51 2.48Q14.98 1.01 12 1.01ZM12 21.5Q9.43 21.5 7.25 20.22Q5.06 18.94 3.78 16.75Q2.5 14.57 2.5 12Q2.5 9.41 3.78 7.22Q5.06 5.04 7.25 3.77Q9.43 2.5 12 2.5Q14.57 2.5 16.75 3.77Q18.94 5.04 20.22 7.22Q21.5 9.41 21.5 12Q21.5 14.59 20.22 16.78Q18.94 18.96 16.75 20.23Q14.57 21.5 12 21.5ZM10.22 10.9Q11.26 11.33 11.86 11.64Q13.37 12.43 14.53 12.79Q15.7 13.15 16.82 12.98Q17.95 12.82 19.06 11.9Q19.75 11.33 19.96 10.44Q20.16 9.55 19.93 8.6Q19.7 7.66 19.15 6.91Q17.93 5.23 16.06 4.28Q14.18 3.34 12.1 3.34Q9.74 3.34 7.75 4.51Q5.76 5.69 4.57 7.64Q3.38 9.6 3.34 11.81Q3.31 12.46 3.5 12.91Q3.7 13.37 4.08 13.73Q4.7 14.28 5.62 14.28Q6.24 14.28 6.82 14Q7.39 13.73 7.75 13.22L7.87 13.06Q8.54 12.12 9.05 11.59Q9.55 11.06 10.22 10.9ZM12.1 4.82Q13.82 4.82 15.37 5.62Q16.92 6.41 17.93 7.8Q18.43 8.47 18.53 9.37Q18.62 10.27 18.1 10.75Q17.47 11.28 16.85 11.47Q16.22 11.66 15.19 11.42Q14.16 11.18 12.53 10.32Q9.58 8.74 7.32 8.74Q6.36 8.74 5.5 9.07Q6.07 7.82 7.07 6.86Q8.06 5.9 9.36 5.36Q10.66 4.82 12.1 4.82ZM6.53 12.36Q6.31 12.65 5.96 12.77Q5.62 12.89 5.33 12.77Q5.09 12.67 4.96 12.43Q4.82 12.19 4.9 11.81Q4.94 11.5 5.18 11.14Q5.42 10.78 5.69 10.63Q6.22 10.32 6.84 10.27Q7.46 10.22 8.23 10.34Q7.8 10.7 7.45 11.14Q7.1 11.57 6.62 12.24L6.53 12.36ZM18.19 15Q17.16 15.12 16.2 14.98Q15.58 14.88 14.21 14.64Q11.95 14.26 10.5 14.68Q9.05 15.1 8.62 16.78Q8.47 17.33 8.57 17.96Q8.66 18.6 9.17 19.25Q9.77 20.02 10.49 20.35Q11.21 20.69 11.88 20.69Q13.06 20.66 14.17 20.41Q15.29 20.16 16.13 19.68Q17.21 19.06 18.05 18.28Q18.89 17.5 19.36 16.8Q19.82 16.1 19.87 15.72Q19.9 15.31 19.72 15.13Q19.54 14.95 19.18 14.94Q18.82 14.93 18.19 15ZM15.38 18.38Q14.86 18.67 13.86 18.96Q12.86 19.25 11.95 19.2Q11.4 19.18 10.92 18.85Q10.44 18.53 10.19 18.06Q9.94 17.59 10.06 17.16Q10.22 16.54 10.74 16.21Q11.26 15.89 11.95 15.89Q12.7 15.89 13.97 16.13Q15.14 16.27 16.32 16.44Q16.7 16.49 16.85 16.49Q17.16 16.54 17.66 16.54Q17.83 16.54 17.83 16.62Q17.83 16.7 17.66 16.87Q17.38 17.16 16.69 17.6Q16.01 18.05 15.38 18.38Z" fill="rgba(0,0,0,0.9019607843137255)"></path></g></svg>