<?xml version="1.0" standalone="no"?>
<svg xmlns="http://www.w3.org/2000/svg" width="24" height="24"><rect width="24" height="24" opacity="0"></rect><g><path d="M12 22.99Q14.98 22.99 17.51 21.52Q20.04 20.04 21.52 17.51Q22.99 14.98 22.99 12Q22.99 9.02 21.52 6.49Q20.04 3.96 17.51 2.48Q14.98 1.01 12 1.01Q9.02 1.01 6.49 2.48Q3.96 3.96 2.48 6.49Q1.01 9.02 1.01 12Q1.01 14.98 2.48 17.51Q3.96 20.04 6.49 21.52Q9.02 22.99 12 22.99ZM12 2.5Q14.57 2.5 16.75 3.78Q18.94 5.06 20.22 7.25Q21.5 9.43 21.5 12Q21.5 14.57 20.22 16.75Q18.94 18.94 16.75 20.22Q14.57 21.5 12 21.5Q9.43 21.5 7.25 20.22Q5.06 18.94 3.78 16.75Q2.5 14.57 2.5 12Q2.5 9.43 3.78 7.25Q5.06 5.06 7.25 3.78Q9.43 2.5 12 2.5Z" fill="rgba(0,0,0,0.9019607843137255)"></path><path d="M11.95 3.5Q9.38 3.5 7.32 4.91Q5.26 6.31 4.22 8.51Q3.19 10.7 3.5 12.98Q3.43 11.86 4.4 11.11Q5.38 10.37 6.92 10.26Q8.47 10.15 9.96 10.73Q10.37 10.9 11.83 11.59Q12.46 11.88 13.09 12.17Q13.73 12.46 14.09 12.58Q15.67 13.08 17.03 12.71Q18.38 12.34 19.13 11.23Q19.66 10.42 19.67 9.41Q19.68 8.4 19.08 7.37Q17.93 5.59 16.04 4.55Q14.16 3.5 11.95 3.5ZM19.8 15.17Q19.03 15.6 17.94 15.7Q16.85 15.79 15.53 15.46Q15 15.31 14.47 15.19Q13.27 14.88 12.43 14.76Q11.59 14.64 10.75 14.87Q9.91 15.1 9.34 15.89Q8.74 16.7 8.81 17.76Q8.88 18.82 9.65 19.62Q10.42 20.42 11.81 20.54Q13.56 20.59 15.16 19.93Q16.75 19.27 17.96 18.04Q19.18 16.8 19.8 15.17Z" fill="rgba(0,0,0,0.9019607843137255)"></path></g></svg>