<?xml version="1.0" standalone="no"?>
<svg xmlns="http://www.w3.org/2000/svg" width="24" height="24"><rect width="24" height="24" opacity="0"></rect><g><path d="M10.2 5.9Q10.82 6.1 11.18 6.65Q11.54 7.2 11.42 7.85L10.13 14.98Q9.96 15.94 9.31 16.63Q8.66 17.33 7.75 17.6Q6.84 17.88 5.9 17.64L5.38 17.5L4.63 20.21L6.1 20.57Q6.34 20.64 6.47 20.87Q6.6 21.1 6.53 21.36Q6.46 21.67 6.18 21.78Q5.9 21.89 5.76 21.82L1.63 20.71Q1.37 20.66 1.24 20.42Q1.1 20.18 1.18 19.94Q1.25 19.7 1.45 19.57Q1.66 19.44 1.9 19.46Q1.92 19.46 1.93 19.48Q1.94 19.49 1.97 19.49L3.41 19.87L4.13 17.16L3.77 17.06Q2.83 16.82 2.18 16.13Q1.54 15.43 1.33 14.5Q1.13 13.56 1.46 12.65L3.91 5.83Q4.13 5.23 4.72 4.92Q5.3 4.61 5.95 4.78L10.2 5.9ZM10.63 7.92Q10.73 7.54 10.51 7.2Q10.3 6.86 9.91 6.77L5.95 5.69Q5.57 5.59 5.22 5.77Q4.87 5.95 4.75 6.34L3.48 10.06Q3.36 10.42 3.48 10.75Q3.6 11.09 3.89 11.3Q4.18 11.52 4.56 11.52L9.12 11.4Q9.46 11.4 9.72 11.17Q9.98 10.94 10.08 10.61L10.63 7.92ZM22.8 19.94Q22.87 20.16 22.78 20.36Q22.68 20.57 22.49 20.69Q22.46 20.71 22.43 20.72Q22.39 20.74 22.37 20.74L18.24 21.84Q17.9 21.84 17.71 21.73Q17.52 21.62 17.45 21.36Q17.38 21.12 17.51 20.89Q17.64 20.66 17.9 20.59L19.34 20.21L18.62 17.52L18.07 17.64Q17.14 17.9 16.22 17.63Q15.31 17.35 14.68 16.64Q14.04 15.94 13.85 14.98L12.55 7.87Q12.43 7.2 12.79 6.64Q13.15 6.07 13.8 5.9L18.05 4.78Q18.67 4.61 19.26 4.92Q19.85 5.23 20.09 5.83L22.54 12.65Q22.87 13.56 22.67 14.5Q22.46 15.43 21.8 16.13Q21.14 16.82 20.21 17.06L19.85 17.16L20.57 19.87L22.03 19.49Q22.27 19.42 22.51 19.55Q22.75 19.68 22.8 19.94ZM19.42 11.52Q19.8 11.52 20.09 11.3Q20.38 11.09 20.5 10.75Q20.62 10.42 20.5 10.06L19.22 6.34Q19.1 5.98 18.76 5.78Q18.41 5.59 18.02 5.69L14.06 6.77Q13.68 6.89 13.46 7.22Q13.25 7.56 13.34 7.94L13.92 10.61Q13.99 10.94 14.26 11.17Q14.52 11.4 14.88 11.4L19.42 11.52Z" fill="rgba(0,0,0,0.9019607843137255)"></path><path d="M12 4.9Q12.26 4.9 12.44 4.72Q12.62 4.54 12.62 4.27L12.62 2.76Q12.62 2.5 12.44 2.33Q12.26 2.16 12 2.16Q11.76 2.16 11.58 2.33Q11.4 2.5 11.4 2.76L11.4 4.27Q11.4 4.54 11.58 4.72Q11.76 4.9 12 4.9ZM13.39 3.91Q13.27 4.13 13.33 4.38Q13.39 4.63 13.61 4.75Q13.92 4.87 14.12 4.81Q14.33 4.75 14.47 4.54L14.76 4.03Q14.88 3.79 14.82 3.55Q14.76 3.31 14.52 3.19Q14.3 3.05 14.05 3.12Q13.8 3.19 13.68 3.41L13.39 3.91ZM9.53 4.54Q9.67 4.78 9.94 4.84Q10.2 4.9 10.39 4.75Q10.61 4.63 10.68 4.38Q10.75 4.13 10.61 3.91L10.32 3.41Q10.2 3.19 9.95 3.12Q9.7 3.05 9.48 3.19Q9.26 3.31 9.19 3.55Q9.12 3.79 9.24 4.03L9.53 4.54Z" fill="rgba(0,0,0,0.9019607843137255)"></path></g></svg>