<?xml version="1.0" standalone="no"?>
<svg xmlns="http://www.w3.org/2000/svg" width="24" height="24"><rect width="24" height="24" opacity="0"></rect><g><path d="M20.21 11.5Q20.83 11.5 21.29 11.95Q21.74 12.41 21.74 13.03L21.74 14.9Q21.74 15.86 21.28 16.67Q20.81 17.47 20 17.94Q19.2 18.41 18.24 18.41L17.21 18.41Q16.3 20.02 14.71 20.98Q13.13 21.94 11.26 21.94L9.02 21.94Q7.18 21.94 5.63 21.02Q4.08 20.11 3.17 18.56Q2.26 17.02 2.26 15.17L2.26 9.86Q2.26 9.19 2.71 8.72Q3.17 8.26 3.84 8.26L16.44 8.26Q17.09 8.26 17.57 8.72Q18.05 9.19 18.05 9.86L18.05 11.5L20.21 11.5ZM20.26 13.03L18.05 13.01L18.05 15.17Q18.05 15.6 17.98 16.04Q17.9 16.49 17.78 16.92Q18.53 17.02 19.09 16.74Q19.66 16.46 19.96 15.97Q20.26 15.48 20.26 14.9Z" fill="rgba(0,0,0,0.9019607843137255)"></path><path d="M6.19 6.86Q6.05 6.67 6.11 6.41Q6.17 6.14 6.36 6Q6.58 5.86 6.6 5.53Q6.62 5.21 6.43 4.82Q6.19 4.39 6.13 3.97Q6.07 3.55 6.22 3.14Q6.36 2.71 6.65 2.47Q6.94 2.23 7.22 2.09L7.27 2.06Q7.49 1.97 7.72 2.08Q7.94 2.18 8.04 2.4Q8.14 2.64 8.04 2.87Q7.94 3.1 7.7 3.19Q7.34 3.36 7.31 3.62Q7.27 3.89 7.49 4.3Q7.92 5.16 7.75 5.89Q7.58 6.62 7.03 7.03Q6.82 7.15 6.58 7.12Q6.34 7.08 6.19 6.86ZM9.48 6.86Q9.36 6.67 9.41 6.41Q9.46 6.14 9.65 6Q9.89 5.86 9.9 5.54Q9.91 5.23 9.72 4.82Q9.48 4.39 9.42 3.96Q9.36 3.53 9.5 3.14Q9.65 2.74 9.95 2.48Q10.25 2.23 10.51 2.09L10.56 2.06Q10.8 1.97 11.03 2.08Q11.26 2.18 11.35 2.4Q11.45 2.64 11.34 2.87Q11.23 3.1 11.02 3.19Q10.68 3.36 10.62 3.65Q10.56 3.94 10.78 4.3Q11.21 5.16 11.04 5.89Q10.87 6.62 10.32 7.03Q10.1 7.15 9.86 7.12Q9.62 7.08 9.48 6.86ZM12.79 6.86Q12.67 6.67 12.73 6.41Q12.79 6.14 12.98 6Q13.2 5.86 13.21 5.53Q13.22 5.21 13.03 4.82Q12.79 4.39 12.73 3.96Q12.67 3.53 12.82 3.14Q12.96 2.74 13.26 2.48Q13.56 2.23 13.82 2.09L13.87 2.06Q14.11 1.97 14.33 2.08Q14.54 2.18 14.64 2.4Q14.74 2.64 14.64 2.87Q14.54 3.1 14.33 3.19Q13.66 3.53 14.09 4.3Q14.52 5.16 14.35 5.89Q14.18 6.62 13.63 7.03Q13.42 7.15 13.19 7.12Q12.96 7.08 12.79 6.86Z" fill="rgba(0,0,0,0.9019607843137255)"></path></g></svg>