<?xml version="1.0" standalone="no"?>
<svg xmlns="http://www.w3.org/2000/svg" width="24" height="24"><rect width="24" height="24" opacity="0"></rect><g><path d="M14.9 2.69Q14.9 3.5 15.48 4.09Q16.06 4.68 16.87 4.68Q17.71 4.68 18.29 4.09Q18.86 3.5 18.86 2.69Q18.86 1.85 18.29 1.27Q17.71 0.7 16.87 0.7Q16.06 0.7 15.48 1.27Q14.9 1.85 14.9 2.69ZM9.82 10.99Q9.43 11.81 9.5 12.61Q9.58 13.42 10.2 13.85L14.76 16.97L17.62 22.99Q17.81 23.4 18.23 23.44Q18.65 23.47 18.94 23.17Q19.22 22.87 19.1 22.37Q18.22 19.2 17.64 17.4Q17.06 15.6 16.85 15.29Q16.42 14.71 14.06 12.29Q15.91 9.41 16.18 8.95Q16.97 7.54 16.74 6.43Q16.51 5.33 15.34 4.63Q14.93 4.39 14.41 4.31Q13.9 4.22 13.49 4.34L9.89 5.14Q9 5.33 8.66 5.45Q8.33 5.57 8.21 5.71L5.83 9.43Q5.54 9.86 5.75 10.24Q5.95 10.61 6.37 10.69Q6.79 10.78 7.08 10.46L9.46 7.82L11.57 7.34L9.82 10.99Z" fill="rgba(0,0,0,0.9019607843137255)"></path><path d="M17.64 7.92Q17.59 7.78 17.5 7.75Q17.4 7.73 17.3 7.78Q17.21 7.82 17.16 7.9Q16.92 8.64 16.69 9.12Q16.46 9.6 16.06 10.22Q16.34 10.68 16.75 11.14Q17.16 11.59 17.54 11.78Q17.71 11.88 18.64 11.81Q19.56 11.74 21.29 11.52Q21.53 11.47 21.68 11.28Q21.84 11.09 21.84 10.85Q21.84 10.56 21.64 10.37Q21.43 10.18 21.17 10.18L18.55 10.13L17.64 7.92ZM2.18 16.13Q2.18 16.37 2.33 16.57Q2.47 16.78 2.69 16.87L6.31 18.26Q6.84 18.46 7.22 18.48Q7.61 18.5 7.92 18.29L11.69 15.58Q10.8 15.1 10.24 14.6Q9.67 14.11 9.14 13.46L6.74 16.13L3.19 15.34Q2.88 15.26 2.53 15.49Q2.18 15.72 2.18 16.13Z" fill="rgba(0,0,0,0.9019607843137255)"></path></g></svg>