<?xml version="1.0" standalone="no"?>
<svg xmlns="http://www.w3.org/2000/svg" width="24" height="24"><rect width="24" height="24" opacity="0"></rect><g><path d="M11.26 8.18Q11.28 9.26 10.66 10.13Q10.03 10.99 9.02 11.3L9.31 21Q9.34 21.72 8.82 22.25Q8.3 22.78 7.56 22.78L7.34 22.78Q6.6 22.78 6.08 22.25Q5.57 21.72 5.59 21L5.9 11.3Q4.9 10.97 4.27 10.13Q3.65 9.29 3.67 8.21L3.79 2.11Q3.79 1.75 4.1 1.49Q4.42 1.22 4.8 1.22Q5.18 1.22 5.45 1.49Q5.71 1.75 5.71 2.11L5.83 7.13Q5.88 7.15 5.95 7.15Q6.02 7.15 6.07 7.13L6.48 2.04Q6.53 1.7 6.78 1.46Q7.03 1.22 7.39 1.22Q7.82 1.22 8.09 1.45Q8.35 1.68 8.4 2.04L8.81 7.1Q8.86 7.15 8.93 7.15Q9 7.15 9.07 7.13L9.17 2.11Q9.19 1.75 9.44 1.5Q9.7 1.25 10.08 1.25Q10.51 1.25 10.8 1.5Q11.09 1.75 11.11 2.11L11.26 8.18Z" fill="rgba(0,0,0,0.9019607843137255)"></path><path d="M20.33 21Q20.35 21.72 19.84 22.24Q19.32 22.75 18.6 22.75L18.02 22.75Q17.3 22.75 16.8 22.24Q16.3 21.72 16.32 21L16.42 13.27L15.48 13.27Q14.95 13.27 14.57 12.89Q14.18 12.5 14.18 11.98L14.18 5.42Q14.18 4.27 14.75 3.31Q15.31 2.35 16.28 1.79Q17.26 1.22 18.38 1.22L18.72 1.22Q19.25 1.22 19.63 1.6Q20.02 1.97 20.02 2.5L20.18 13.01L20.33 21Z" fill="rgba(0,0,0,0.9019607843137255)"></path></g></svg>