<?xml version="1.0" standalone="no"?>
<svg xmlns="http://www.w3.org/2000/svg" width="24" height="24"><rect width="24" height="24" opacity="0"></rect><g><path d="M20.21 5.35Q20.47 5.35 20.65 5.53Q20.83 5.71 20.83 5.98Q20.83 6.24 20.65 6.42Q20.47 6.6 20.21 6.6Q19.94 6.6 19.76 6.42Q19.58 6.24 19.58 5.98Q19.58 5.71 19.76 5.53Q19.94 5.35 20.21 5.35ZM20.47 2.47Q20.45 2.3 20.32 2.22Q20.18 2.14 20.04 2.17Q19.9 2.21 19.82 2.38L19.01 3.53Q18.82 3.6 18.6 3.67L18.17 3.82Q15.67 4.8 12.62 8.52L10.49 8.66L9.22 8.76Q7.51 8.45 6.42 8.68Q5.33 8.9 4.7 9.67Q3.62 11.04 2.71 11.95Q1.8 12.86 1.42 12.79Q0.96 12.7 1.62 13.24Q2.28 13.78 3.19 14.09Q4.1 14.4 4.7 13.97Q5.3 13.54 5.57 13.01Q5.83 12.48 6.02 11.74Q6.1 11.47 6.18 11.22Q6.26 10.97 6.38 10.8Q6.5 10.66 6.64 10.57Q6.77 10.49 6.94 10.46Q6.6 11.93 5.92 15.04Q5.23 18.14 4.92 19.58L4.92 19.58Q6.31 20.14 8.16 20.5Q8.21 19.08 8.72 17.63Q9.24 16.18 10.16 15.22Q11.09 14.26 12.31 14.21Q13.54 14.16 14.52 15.02Q15.5 15.89 16.1 17.26Q16.7 18.62 16.85 20.09Q18.53 19.61 20.04 18.86L17.98 11.54Q17.86 11.14 17.9 10.7Q17.95 10.27 18.14 9.89L18.79 8.66Q18.96 8.4 19.22 8.4Q19.42 8.4 19.54 8.5Q19.61 8.57 19.68 8.66L20.66 10.32Q20.76 10.49 20.93 10.55Q21.1 10.61 21.26 10.54L22.39 10.1Q22.58 10.03 22.67 9.86Q22.75 9.7 22.73 9.5L21.7 4.03Q21.67 3.94 21.62 3.86Q21.58 3.79 21.48 3.77L20.88 3.58L20.47 2.47ZM1.7 19.92Q3.94 21.12 6.46 21.74Q8.98 22.37 11.64 22.37Q14.5 22.37 17.22 21.62Q19.94 20.88 22.32 19.46Q22.63 19.3 22.7 18.96Q22.78 18.62 22.58 18.34Q22.39 18.05 22.03 17.98Q21.67 17.9 21.36 18.1Q19.2 19.39 16.73 20.06Q14.26 20.74 11.64 20.74Q9.24 20.74 6.95 20.17Q4.66 19.61 2.62 18.5Q2.3 18.34 1.94 18.42Q1.58 18.5 1.39 18.79Q1.2 19.08 1.28 19.4Q1.37 19.73 1.7 19.92Z" fill="rgba(0,0,0,0.9019607843137255)"></path></g></svg>