<?xml version="1.0" encoding="UTF-8"?>
<svg width="24px" height="24px" viewBox="0 0 24 24" version="1.1" xmlns="http://www.w3.org/2000/svg" xmlns:xlink="http://www.w3.org/1999/xlink">
    <title>logo-白</title>
    <g id="规则规范" stroke="none" stroke-width="1" fill="none" fill-rule="evenodd">
        <g id="logo-白">
            <rect id="矩形" x="0" y="0" width="24" height="24"></rect>
            <g id="编组" transform="translate(1.230284, 1.000000)" fill="#FFFFFF">
                <g id="编组-2" transform="translate(0.067166, 18.327121)">
                    <polygon id="Fill-1" points="2.36367205 0.0465207057 2.36367205 1.50942886 0.725500598 1.50942886 0.725500598 0.0465207057 0 0.0465207057 0 3.67287935 0.725500598 3.67287935 0.725500598 2.20015373 2.36367205 2.20015373 2.36367205 3.67287935 3.08912032 3.67287935 3.08912032 0.0465207057"></polygon>
                    <path d="M6.49710548,2.07141661 C6.49710548,2.65978555 6.20489849,2.97387883 5.67445568,2.97387883 C5.14083497,2.97387883 4.84693311,2.65089012 4.84693311,2.04642469 L4.84693311,0.00264744844 L4.11262865,0.00264744844 L4.11262865,2.07141661 C4.11262865,3.08920168 4.67829308,3.67285817 5.66460422,3.67285817 C6.6603431,3.67285817 7.23135697,3.0782942 7.23135697,2.04150044 L7.23135697,0.000529489687 L6.49710548,0.000529489687 L6.49710548,2.07141661 Z" id="Fill-2"></path>
                    <polygon id="Fill-4" points="14.9841005 2.48849563 14.1622981 0 13.563054 0 12.7413575 2.48849563 11.9419063 0.00211795875 11.1603572 0.00211795875 12.4215559 3.61879727 13.029751 3.61879727 13.8527186 1.24297704 14.6755273 3.61879727 15.2887542 3.61879727 16.5469338 0.00211795875 15.7854054 0.00211795875"></polygon>
                    <polygon id="Fill-6" points="17.8634436 2.06164752 19.1991638 2.06164752 19.1991638 1.40259171 17.8634436 1.40259171 17.8634436 0.661994482 19.8022214 0.661994482 19.8022214 0.00293866777 17.1389906 0.00293866777 17.1389906 3.61644104 19.872029 3.61644104 19.872029 2.95743817 17.8634436 2.95743817"></polygon>
                    <polygon id="Fill-8" points="20.7478131 3.6137883 21.4722661 3.6137883 21.4722661 0.000285924431 20.7478131 0.000285924431"></polygon>
                    <path d="M9.50922089,0.916107173 L10.0661461,2.21113305 L8.95589727,2.21113305 L9.50922089,0.916107173 Z M10.3391269,2.86346435 L10.6641191,3.61661048 L11.4338041,3.61661048 L9.84575945,0.000513604997 L9.19805249,0.000513604997 L7.60359913,3.61661048 L8.35315746,3.61661048 L8.68275762,2.86346435 L10.3391269,2.86346435 Z" id="Fill-10"></path>
                </g>
                <path d="M3.29666984,2.85696751 C3.29666984,2.85696751 1.43146025,4.57134922 1.55073705,6.42382184 C1.60555566,7.75760636 2.64011776,8.58853453 2.64011776,8.58853453 C4.29479214,10.1659902 8.22239941,12.1885349 9.1670802,12.6571862 C9.20574452,12.6763538 9.24340252,12.6648109 9.26384695,12.6476025 C9.29377208,12.6223988 9.28889931,12.5740564 9.27571107,12.5453051 C6.75506165,7.04480734 3.29666984,2.85696751 3.29666984,2.85696751 M8.14676563,0.203588785 C6.39241143,0.630198626 5.95968874,2.24429499 5.95968874,2.24429499 C5.65471722,3.09174323 5.97033467,4.34260967 5.97033467,4.34260967 C6.55263006,6.92673114 9.41988135,11.1758859 10.0485739,12.0842784 C10.0720903,12.1177421 10.1063586,12.1306087 10.1421098,12.1211309 C10.1649377,12.1150947 10.1918438,12.0971979 10.1967166,12.0472671 C11.1498717,2.52397144 9.18890171,0 9.18890171,0 C8.65205015,0.0757170253 8.14676563,0.203588785 8.14676563,0.203588785 M8.5781642,13.9608957 C6.92486691,14.0185042 1.95231643,14.1916473 1.95231643,14.1916473 C3.43824485,16.7438935 5.14906195,16.1609254 5.14906195,16.1609254 C6.0745165,15.9001517 7.99486249,14.5578424 8.62800411,14.103805 C8.66799256,14.0751067 8.65877668,14.0236403 8.64823668,14.0028313 C8.63467768,13.9762509 8.60104501,13.9601015 8.5781642,13.9608957 M8.72461197,13.3207427 C5.81652479,11.3617897 0.190759009,8.34168643 0.190759009,8.34168643 C-0.311824301,9.8583567 0.337630494,11.1567713 0.337630494,11.1567713 C1.06594993,12.7484703 2.46782316,13.1941417 2.46782316,13.1941417 C3.09768096,13.4358538 3.60741453,13.4560803 3.60741453,13.4560803 C3.70667063,13.4745065 7.64868433,13.4697941 8.68992,13.4682585 C8.72482383,13.4680467 8.75093549,13.4434255 8.75861539,13.4158391 C8.77302183,13.3638432 8.74590383,13.3351448 8.72461197,13.3207427 M21.3422655,8.34168643 C21.3422655,8.34168643 15.7165527,11.3617897 12.8084125,13.3207427 C12.7871207,13.3351448 12.7600027,13.3638432 12.7744621,13.4158391 C12.782089,13.4434255 12.8082536,13.4680467 12.8432104,13.4682585 C13.8843402,13.4697941 17.8264068,13.4745065 17.9256629,13.4560803 C17.9256629,13.4560803 18.4353965,13.4358538 19.0652543,13.1941417 C19.0652543,13.1941417 20.4671275,12.7484703 21.195394,11.1567713 C21.195394,11.1567713 21.8449018,9.8583567 21.3422655,8.34168643 M12.8848408,14.0028313 C12.8743008,14.0236403 12.8650849,14.0751067 12.9050734,14.103805 C13.538268,14.5578424 15.458561,15.9001517 16.3840155,16.1609254 C16.3840155,16.1609254 18.0947797,16.7438935 19.580761,14.1916473 C19.580761,14.1916473 14.6082106,14.0185042 12.9549133,13.9608957 C12.9319795,13.9601015 12.8983998,13.9762509 12.8848408,14.0028313 M15.5733887,2.24429499 C15.5733887,2.24429499 15.140666,0.630198626 13.3863118,0.203588785 C13.3863118,0.203588785 12.8810273,0.0757170253 12.3441758,0 C12.3441758,0 10.3832058,2.52397144 11.3363079,12.0472671 C11.3411807,12.0971979 11.3681398,12.1150947 11.3909676,12.1211309 C11.4267189,12.1306087 11.4609342,12.1177421 11.4845035,12.0842784 C12.1131432,11.1758859 14.9803945,6.92673114 15.5626898,4.34260967 C15.5626898,4.34260967 15.8783073,3.09174323 15.5733887,2.24429499 M19.9823404,6.42382184 C20.1016172,4.57134922 18.2364076,2.85696751 18.2364076,2.85696751 C18.2364076,2.85696751 14.7779629,7.04480734 12.2573134,12.5453051 C12.2441252,12.5740564 12.2393054,12.6223988 12.2692305,12.6476025 C12.289675,12.6648109 12.32728,12.6763538 12.3659443,12.6571862 C13.3106781,12.1885349 17.2382853,10.1659902 18.8929597,8.58853453 C18.8929597,8.58853453 19.9275218,7.75760636 19.9823404,6.42382184" id="Fill-11"></path>
            </g>
        </g>
    </g>
</svg>