<svg width="336.000000" height="336.000000" viewBox="0 0 336 336" fill="none" xmlns="http://www.w3.org/2000/svg" xmlns:xlink="http://www.w3.org/1999/xlink">
	<desc>
			Created with Pixso.
	</desc>
	<defs>
		<clipPath id="clip78_3311">
			<rect id="ic_light wma" width="336.000000" height="336.000000" fill="white" fill-opacity="0"/>
		</clipPath>
		<linearGradient x1="168.000000" y1="0.369141" x2="168.000000" y2="336.369141" id="paint_linear_80_2154_0" gradientUnits="userSpaceOnUse">
			<stop stop-color="#FF6D81"/>
			<stop offset="1.000000" stop-color="#F03F64"/>
		</linearGradient>
		<linearGradient x1="247.925674" y1="45.868553" x2="198.741470" y2="92.657913" id="paint_linear_80_2156_0" gradientUnits="userSpaceOnUse">
			<stop offset="0.100487" stop-color="#EF4161"/>
			<stop offset="1.000000" stop-color="#FA7286"/>
		</linearGradient>
		<linearGradient x1="205.606766" y1="-4.293848" x2="236.694397" y2="99.143555" id="paint_linear_80_2157_0" gradientUnits="userSpaceOnUse">
			<stop stop-color="#F85A72"/>
			<stop offset="0.254966" stop-color="#FF9EA5"/>
			<stop offset="0.670781" stop-color="#FFB1BE"/>
			<stop offset="0.942386" stop-color="#F7637B"/>
			<stop offset="1.000000" stop-color="#F45973" stop-opacity="0.000000"/>
		</linearGradient>
	</defs>
	<g clip-path="url(#clip78_3311)">
		<path id="矩形备份 113" d="M65.58 0.36L188.38 0.36C194.19 0.36 199.77 2.66 203.9 6.75L287.46 89.5C291.64 93.64 294 99.28 294 105.17L294 312.78C294 325.81 283.44 336.36 270.41 336.36L65.58 336.36C52.55 336.36 42 325.81 42 312.78L42 23.95C42 10.92 52.55 0.36 65.58 0.36Z" fill="url(#paint_linear_80_2154_0)" fill-opacity="1.000000" fill-rule="evenodd"/>
		<g style="mix-blend-mode:normal">
			<path id="矩形 2" d="M197.08 64.1L197.08 35L196.89 17.5C196.84 11.89 194.55 6.54 190.55 2.62L187.87 0L191.68 0C196.55 0 201.2 1.96 204.59 5.45L208.87 9.85L221.39 22.28L246.45 47.15L271.5 72.02L286.87 87.27C291.42 91.78 293.97 97.91 293.97 104.31L293.97 105.36L291.38 102.77C287.38 98.77 281.95 96.52 276.29 96.52L258.6 96.52L229.5 96.52C211.6 96.52 197.08 82 197.08 64.1Z" fill="url(#paint_linear_80_2156_0)" fill-opacity="1.000000" fill-rule="evenodd"/>
		</g>
		<path id="减去顶层" d="M185.919 1.49854L189.963 4.39111C191.089 5.19653 192.084 6.11206 192.948 7.13794L192.948 7.13794C193.699 8.02905 194.352 9.00317 194.905 10.0603C195.558 11.3066 196.032 12.5928 196.329 13.9185C196.577 15.0264 196.701 16.1619 196.701 17.3254L196.859 49.98L196.886 64.8428C196.886 67.8318 197.297 70.6978 198.119 73.4404C198.638 75.1709 199.32 76.8523 200.166 78.4846C200.372 78.8811 200.586 79.2729 200.809 79.6597C202.671 82.896 205.13 85.7893 208.186 88.3394C209.79 89.6787 211.484 90.865 213.267 91.8982C214.86 92.822 216.526 93.6235 218.263 94.3025C221.742 95.6628 224.994 96.343 228.018 96.343C229.049 96.343 229.859 95.5322 229.859 94.5007C229.859 93.469 229.049 92.6584 228.018 92.6584C225.457 92.6584 222.652 92.0625 219.604 90.8708C218.054 90.2646 216.566 89.55 215.143 88.7263C213.53 87.7939 211.998 86.7219 210.547 85.5105C207.685 83.1221 205.417 80.4065 203.744 77.364L203.744 77.3635C203.035 75.9956 202.15 74.0127 201.705 72.564C200.948 70.1067 200.57 67.533 200.57 64.8428L200.544 49.9734L200.386 17.3076C200.386 15.8994 200.238 14.5239 199.942 13.1812L199.942 13.1807C199.577 11.5212 198.986 9.91162 198.169 8.35156C197.48 7.03516 196.667 5.82397 195.729 4.71826L195.729 4.71826C194.678 3.47778 193.471 2.36987 192.106 1.39429L191.158 0.71582C189.963 0.000488281 189.782 0.000488281 185.587 0.000488281L183.779 0.000488281L185.919 1.49854Z" clip-rule="evenodd" fill="url(#paint_linear_80_2157_0)" fill-opacity="1.000000" fill-rule="evenodd"/>
		<g style="mix-blend-mode:normal">
			<path id="合并" d="M197.226 273.838L211.179 236.371C211.527 235.433 212.157 234.756 213.068 234.34C213.523 234.131 213.981 234.019 214.444 234.002C214.906 233.985 215.372 234.064 215.841 234.239C216.344 234.427 216.783 234.711 217.16 235.094C217.348 235.285 217.512 235.492 217.65 235.714L217.65 235.714C217.789 235.936 217.903 236.174 217.993 236.427L231.259 273.893C231.937 275.807 230.966 277.843 229.052 278.521C227.138 279.198 225.102 278.227 224.425 276.313L221.246 267.338L207.383 267.338L204.02 276.368C203.312 278.271 201.26 279.209 199.357 278.5C197.455 277.792 196.517 275.74 197.226 273.838ZM210.083 260.088L218.68 260.088L214.489 248.255L210.083 260.088ZM184.681 247.208L184.681 274.17C184.681 276.2 186.275 277.795 188.306 277.795C190.336 277.795 191.931 276.2 191.931 274.17L191.931 238.489C191.931 237.488 191.577 236.633 190.869 235.925C190.161 235.217 189.307 234.863 188.306 234.863L184.337 234.863C183.601 234.863 182.928 235.068 182.317 235.478C181.706 235.888 181.261 236.433 180.982 237.114L169.776 264.452L159.016 237.159C158.743 236.466 158.299 235.911 157.684 235.492C157.068 235.073 156.388 234.863 155.644 234.863L151.543 234.863C150.546 234.863 149.693 235.215 148.986 235.918C148.279 236.622 147.923 237.472 147.918 238.47L147.732 274.151C147.722 276.181 149.309 277.784 151.339 277.795C153.369 277.805 154.973 276.219 154.983 274.188L155.124 247.055L166.338 275.499C166.52 275.959 166.783 276.364 167.13 276.716C167.477 277.067 167.879 277.337 168.336 277.524C169.262 277.904 170.187 277.9 171.11 277.514C172.033 277.127 172.686 276.471 173.064 275.545L184.681 247.208ZM108.541 260.952L103.159 237.982C102.696 236.005 100.779 234.816 98.8027 235.279C96.8262 235.742 95.6367 237.659 96.0996 239.635L104.43 275.193C104.658 276.168 105.198 276.919 106.049 277.447C106.899 277.975 107.812 278.124 108.787 277.896C109.402 277.752 109.943 277.466 110.41 277.038C110.876 276.611 111.208 276.096 111.404 275.495L119.577 250.556L127.582 275.475C127.888 276.428 128.486 277.133 129.377 277.591C130.267 278.048 131.188 278.124 132.142 277.818C132.743 277.625 133.26 277.296 133.689 276.833C134.12 276.37 134.409 275.831 134.558 275.217L143.141 239.659C143.617 237.686 142.441 235.761 140.468 235.285C138.494 234.808 136.569 235.984 136.093 237.958L130.538 260.97L123.063 237.7C122.886 237.147 122.592 236.665 122.183 236.253C121.978 236.047 121.756 235.87 121.515 235.721C121.274 235.573 121.017 235.454 120.74 235.364C120.265 235.208 119.797 235.147 119.336 235.182C118.874 235.218 118.421 235.348 117.974 235.574C117.527 235.801 117.153 236.089 116.853 236.44C116.551 236.791 116.322 237.204 116.167 237.68L108.541 260.952Z" clip-rule="evenodd" fill="#FFFFFF" fill-opacity="1.000000" fill-rule="evenodd"/>
		</g>
		<g style="mix-blend-mode:normal">
			<path id="Shape Copy备份 26" d="M205.57 133.88L205.57 195.15C205.57 203.11 199.76 209.4 192.01 210.35C184.26 211.3 178.35 206.25 178.35 199.94C178.35 192.13 184.01 188.71 188.85 186.71C193.7 184.71 197.2 180.9 197.2 177.16L197.2 148.72C197.2 146.6 195.27 145 193.18 145.39L158.1 152C156.5 152.3 155.34 153.7 155.34 155.32L155.34 200.98C155.34 208.9 147.72 217.21 140.8 218.6C133.88 219.99 126 215.13 126 207.06C126 199 133.04 194.5 136.84 193.02C139.03 192.17 146.97 189.57 146.97 185.72L146.97 141.21C146.97 137.34 149.76 134.02 153.58 133.36L196.26 126.03C201.13 125.19 205.57 128.94 205.57 133.88Z" fill="#FFFFFF" fill-opacity="1.000000" fill-rule="evenodd"/>
		</g>
	</g>
</svg>
