<svg width="336.000000" height="336.000000" viewBox="0 0 336 336" fill="none" xmlns="http://www.w3.org/2000/svg" xmlns:xlink="http://www.w3.org/1999/xlink">
	<desc>
			Created with Pixso.
	</desc>
	<defs>
		<clipPath id="clip78_3576">
			<rect id="ic_light teb" width="336.000000" height="336.000000" fill="white" fill-opacity="0"/>
		</clipPath>
		<linearGradient x1="168.000000" y1="0.000000" x2="168.000000" y2="336.000000" id="paint_linear_80_2271_0" gradientUnits="userSpaceOnUse">
			<stop stop-color="#55BFF2"/>
			<stop offset="1.000000" stop-color="#3898F7"/>
		</linearGradient>
		<linearGradient x1="289.026459" y1="79.026276" x2="254.578918" y2="105.368423" id="paint_linear_80_2271_1" gradientUnits="userSpaceOnUse">
			<stop offset="0.012343" stop-color="#A54000"/>
			<stop offset="1.000000" stop-color="#F67F22" stop-opacity="0.000000"/>
		</linearGradient>
		<linearGradient x1="247.925674" y1="45.868797" x2="198.741470" y2="92.658157" id="paint_linear_80_2274_0" gradientUnits="userSpaceOnUse">
			<stop offset="0.100487" stop-color="#4799ED"/>
			<stop offset="1.000000" stop-color="#77CDFB"/>
		</linearGradient>
		<linearGradient x1="205.607742" y1="-4.293359" x2="234.490524" y2="97.463654" id="paint_linear_80_2275_0" gradientUnits="userSpaceOnUse">
			<stop stop-color="#36BCF8"/>
			<stop offset="0.265149" stop-color="#A5DAFF"/>
			<stop offset="0.715692" stop-color="#CDEBFF"/>
			<stop offset="0.924672" stop-color="#80C9FF"/>
			<stop offset="1.000000" stop-color="#64B8F5" stop-opacity="0.000000"/>
		</linearGradient>
	</defs>
	<g clip-path="url(#clip78_3576)">
		<path id="矩形备份 113" d="M65.58 0L188.38 0C194.19 0 199.77 2.29 203.9 6.38L287.46 89.13C291.64 93.27 294 98.91 294 104.8L294 312.41C294 325.44 283.44 336 270.41 336L65.58 336C52.55 336 42 325.44 42 312.41L42 23.58C42 10.55 52.55 0 65.58 0Z" fill="url(#paint_linear_80_2271_0)" fill-opacity="1.000000" fill-rule="evenodd"/>
		<path id="矩形备份 113" d="M65.58 0L188.38 0C194.19 0 199.77 2.29 203.9 6.38L287.46 89.13C291.64 93.27 294 98.91 294 104.8L294 312.41C294 325.44 283.44 336 270.41 336L65.58 336C52.55 336 42 325.44 42 312.41L42 23.58C42 10.55 52.55 0 65.58 0Z" fill="url(#paint_linear_80_2271_1)" fill-opacity="0" fill-rule="evenodd"/>
		<g style="mix-blend-mode:normal">
			<path id="矩形 2" d="M197.08 64.1L197.08 35L196.89 17.5C196.84 11.89 194.55 6.54 190.55 2.62L187.87 0L191.68 0C196.55 0 201.2 1.96 204.59 5.45L208.87 9.85L221.39 22.28L246.45 47.15L271.5 72.02L286.87 87.27C291.42 91.78 293.97 97.91 293.97 104.31L293.97 105.36L291.38 102.77C287.38 98.77 281.95 96.52 276.29 96.52L258.6 96.52L229.5 96.52C211.6 96.52 197.08 82 197.08 64.1Z" fill="url(#paint_linear_80_2274_0)" fill-opacity="1.000000" fill-rule="evenodd"/>
		</g>
		<path id="减去顶层" d="M185.92 1.49902L189.964 4.3916C191.09 5.19702 192.085 6.11255 192.949 7.13843L192.949 7.13843C193.7 8.02954 194.353 9.00366 194.906 10.0608C195.559 11.3071 196.033 12.5933 196.33 13.9189C196.578 15.0269 196.702 16.1624 196.702 17.3259L196.86 49.9805L196.887 64.8433C196.887 67.8323 197.298 70.6982 198.12 73.4409C198.639 75.1714 199.321 76.8528 200.167 78.4851C200.373 78.8816 200.587 79.2734 200.81 79.6602C202.672 82.8965 205.131 85.7898 208.187 88.3398C209.791 89.6792 211.485 90.8655 213.268 91.8987C214.861 92.8225 216.527 93.624 218.264 94.303C221.743 95.6633 224.995 96.3435 228.019 96.3435C229.05 96.3435 229.86 95.5327 229.86 94.5012C229.86 93.4695 229.05 92.6589 228.019 92.6589C225.458 92.6589 222.653 92.063 219.605 90.8713C218.055 90.2651 216.567 89.5505 215.144 88.7268C213.531 87.7944 211.999 86.7224 210.548 85.511C207.686 83.1226 205.418 80.407 203.745 77.3645L203.745 77.364C203.036 75.9961 202.151 74.0132 201.706 72.5645C200.949 70.1072 200.571 67.5334 200.571 64.8433L200.545 49.9739L200.387 17.3081C200.387 15.8999 200.239 14.5244 199.943 13.1816L199.943 13.1812C199.578 11.5217 198.987 9.91211 198.17 8.35205C197.481 7.03564 196.668 5.82446 195.73 4.71875L195.73 4.71875C194.679 3.47827 193.472 2.37036 192.107 1.39478L191.159 0.716309C189.964 0.000976562 189.783 0.000976562 185.588 0.000976562L183.78 0.000976562L185.92 1.49902Z" clip-rule="evenodd" fill="url(#paint_linear_80_2275_0)" fill-opacity="1.000000" fill-rule="evenodd"/>
		<g style="mix-blend-mode:normal">
			<path id="合并" d="M200.786 162.529L214.248 162.529C215.194 162.529 216.225 162.596 217.338 162.729C219.806 163.025 221.796 163.619 223.31 164.51C224.75 165.255 226.059 166.147 227.237 167.188C227.394 167.326 227.547 167.466 227.699 167.61C228.474 168.341 229.175 169.128 229.803 169.97C230.23 170.544 230.624 171.144 230.983 171.769C231.378 172.454 231.725 173.16 232.023 173.885C232.371 174.726 232.653 175.594 232.873 176.488C233.071 177.297 233.214 178.113 233.299 178.934C233.364 179.56 233.397 180.189 233.397 180.822C233.397 181.021 233.395 181.219 233.388 181.419C233.354 182.455 233.234 183.474 233.028 184.475C232.903 185.083 232.746 185.684 232.558 186.279C232.22 187.345 231.789 188.36 231.265 189.325C230.993 189.825 230.697 190.311 230.376 190.784C230.186 191.064 229.988 191.338 229.782 191.605C229.982 191.791 230.178 191.98 230.368 192.174C231.788 193.616 232.969 195.294 233.909 197.208C234.267 197.902 234.57 198.754 234.821 199.765C235.104 200.903 235.277 202.081 235.34 203.299C235.354 203.561 235.36 203.831 235.36 204.107C235.36 205.344 235.23 206.688 235.031 207.815C234.804 208.99 234.465 210.119 234.014 211.202C233.771 211.782 233.498 212.349 233.192 212.902C232.026 215.012 230.575 216.772 228.84 218.18C228.037 218.832 227.173 219.409 226.248 219.911C225.683 220.218 225.103 220.491 224.51 220.732C222.606 221.504 220.565 221.936 218.385 222.025C215.982 222.124 210.271 222.127 201.251 222.035C200.958 222.081 200.657 222.104 200.351 222.103C197.293 222.092 194.898 219.687 194.898 216.633L194.898 216.613L195.065 167.981C195.076 164.917 197.491 162.519 200.556 162.529C200.633 162.529 200.71 162.531 200.786 162.534L200.786 162.529ZM218.02 197.59C213.243 197.665 209.205 197.67 205.905 197.607L205.859 211.13C206.617 211.135 207.39 211.139 208.175 211.142C213.293 211.166 216.547 211.15 217.935 211.093C219.25 211.038 220.39 210.706 221.353 210.096C222.265 209.517 223.019 208.689 223.614 207.61C223.697 207.462 223.772 207.31 223.843 207.156C224.23 206.296 224.425 205.348 224.425 204.313C224.425 204.166 224.421 204.017 224.413 203.867C224.386 203.348 224.22 202.525 224.106 202.068C223.513 200.851 222.734 199.878 221.771 199.149C221.264 198.764 220.704 198.448 220.094 198.199C219.53 197.969 218.597 197.757 218.02 197.666L218.02 197.59ZM205.943 186.663C209.41 186.733 213.777 186.722 219.046 186.629C219.569 186.365 220.038 186.041 220.451 185.657C220.777 185.354 221.068 185.014 221.324 184.636C221.541 184.318 221.727 183.985 221.881 183.639C222.23 182.853 222.421 181.995 222.451 181.065C222.454 180.98 222.455 180.896 222.455 180.812C222.455 180.167 222.374 179.543 222.213 178.941L222.213 178.94C222.053 178.346 221.814 177.774 221.497 177.222C221.333 176.936 221.15 176.664 220.951 176.405C220.248 175.495 219.076 174.627 217.937 174.055L217.405 173.838C217.028 173.74 216.572 173.658 216.034 173.594C215.354 173.512 214.759 173.471 214.248 173.471L205.989 173.471L205.943 186.663ZM183.279 221.839L157.891 221.839C156.38 221.839 155.09 221.304 154.021 220.236C152.953 219.168 152.419 217.878 152.419 216.368L152.419 169.305C152.419 168.55 152.553 167.849 152.819 167.205C153.087 166.56 153.487 165.97 154.021 165.436C154.556 164.902 155.146 164.501 155.79 164.234C156.435 163.967 157.135 163.834 157.891 163.834L183.279 163.834C186.343 163.834 188.75 166.241 188.75 169.305C188.75 172.369 186.343 174.776 183.279 174.776L163.361 174.776L163.361 186.271L179.775 186.271C182.839 186.271 185.246 188.679 185.246 191.742C185.246 194.806 182.839 197.214 179.775 197.214L163.361 197.214L163.361 210.896L183.279 210.896C186.343 210.896 188.75 213.304 188.75 216.368C188.75 219.431 186.343 221.839 183.279 221.839ZM141.158 174.921L131.314 174.921L131.314 216.045C131.314 219.108 128.907 221.516 125.844 221.516C122.779 221.516 120.372 219.108 120.372 216.045L120.372 174.921L110.526 174.921C107.463 174.921 105.056 172.514 105.056 169.45C105.056 166.386 107.463 163.979 110.526 163.979L141.158 163.979C144.222 163.979 146.629 166.386 146.629 169.45C146.629 172.514 144.222 174.921 141.158 174.921Z" clip-rule="evenodd" fill="#FFFFFF" fill-opacity="1.000000" fill-rule="evenodd"/>
		</g>
	</g>
</svg>
