<svg width="336.000000" height="336.000000" viewBox="0 0 336 336" fill="none" xmlns="http://www.w3.org/2000/svg" xmlns:xlink="http://www.w3.org/1999/xlink">
	<desc>
			Created with Pixso.
	</desc>
	<defs>
		<clipPath id="clip78_3488">
			<rect id="ic_light word" width="336.000000" height="336.000000" fill="white" fill-opacity="0"/>
		</clipPath>
		<linearGradient x1="168.000000" y1="0.000000" x2="168.000000" y2="336.000000" id="paint_linear_80_2223_0" gradientUnits="userSpaceOnUse">
			<stop stop-color="#55BFF2"/>
			<stop offset="1.000000" stop-color="#3898F7"/>
		</linearGradient>
		<linearGradient x1="289.026459" y1="79.026276" x2="254.578918" y2="105.368423" id="paint_linear_80_2223_1" gradientUnits="userSpaceOnUse">
			<stop offset="0.012343" stop-color="#A54000"/>
			<stop offset="1.000000" stop-color="#F67F22" stop-opacity="0.000000"/>
		</linearGradient>
		<linearGradient x1="247.926651" y1="45.869041" x2="198.742447" y2="92.658401" id="paint_linear_80_2226_0" gradientUnits="userSpaceOnUse">
			<stop offset="0.100487" stop-color="#4799ED"/>
			<stop offset="1.000000" stop-color="#77CDFB"/>
		</linearGradient>
		<linearGradient x1="205.607742" y1="-4.294336" x2="234.490524" y2="97.462677" id="paint_linear_80_2227_0" gradientUnits="userSpaceOnUse">
			<stop stop-color="#36BCF8"/>
			<stop offset="0.265149" stop-color="#A5DAFF"/>
			<stop offset="0.715692" stop-color="#CDEBFF"/>
			<stop offset="0.924672" stop-color="#80C9FF"/>
			<stop offset="1.000000" stop-color="#64B8F5" stop-opacity="0.000000"/>
		</linearGradient>
	</defs>
	<g clip-path="url(#clip78_3488)">
		<path id="矩形备份 113" d="M65.58 0L188.38 0C194.19 0 199.77 2.29 203.9 6.38L287.46 89.13C291.64 93.27 294 98.91 294 104.8L294 312.41C294 325.44 283.44 336 270.41 336L65.58 336C52.55 336 42 325.44 42 312.41L42 23.58C42 10.55 52.55 0 65.58 0Z" fill="url(#paint_linear_80_2223_0)" fill-opacity="1.000000" fill-rule="evenodd"/>
		<path id="矩形备份 113" d="M65.58 0L188.38 0C194.19 0 199.77 2.29 203.9 6.38L287.46 89.13C291.64 93.27 294 98.91 294 104.8L294 312.41C294 325.44 283.44 336 270.41 336L65.58 336C52.55 336 42 325.44 42 312.41L42 23.58C42 10.55 52.55 0 65.58 0Z" fill="url(#paint_linear_80_2223_1)" fill-opacity="0" fill-rule="evenodd"/>
		<g style="mix-blend-mode:normal">
			<path id="矩形 2" d="M197.08 64.1L197.08 35L196.9 17.5C196.84 11.89 194.56 6.54 190.55 2.62L187.87 0L191.68 0C196.55 0 201.2 1.96 204.59 5.45L208.87 9.85L221.4 22.29L246.45 47.15L271.5 72.02L286.88 87.27C291.42 91.78 293.97 97.91 293.97 104.31L293.97 105.36L291.39 102.77C287.38 98.77 281.95 96.52 276.29 96.52L258.61 96.52L229.5 96.52C211.6 96.52 197.08 82.01 197.08 64.1Z" fill="url(#paint_linear_80_2226_0)" fill-opacity="1.000000" fill-rule="evenodd"/>
		</g>
		<path id="减去顶层" d="M183.787 0L183.78 0L185.92 1.49805L189.964 4.39062C191.09 5.1958 192.085 6.11182 192.949 7.13721L192.949 7.1377C193.7 8.02832 194.353 9.00244 194.906 10.0601C195.559 11.3062 196.033 12.5923 196.33 13.918C196.578 15.0259 196.702 16.1616 196.702 17.3247L196.86 49.9795L196.887 64.8423C196.887 67.8315 197.298 70.6973 198.12 73.4399C198.639 75.1704 199.321 76.8516 200.167 78.4839C200.373 78.8809 200.587 79.2725 200.81 79.6592C202.672 82.8955 205.131 85.7891 208.187 88.3389C209.791 89.6782 211.485 90.8647 213.268 91.8975C214.861 92.8218 216.527 93.623 218.264 94.3018C221.743 95.6621 224.995 96.3423 228.019 96.3423C229.05 96.3423 229.86 95.5317 229.86 94.5C229.86 93.4683 229.05 92.6577 228.019 92.6577C225.458 92.6577 222.653 92.062 219.605 90.8701C218.055 90.2642 216.567 89.5493 215.144 88.7261C213.531 87.7935 211.999 86.7217 210.548 85.5103C207.686 83.1216 205.418 80.4058 203.745 77.3633L203.745 77.3628C203.036 75.9951 202.151 74.0122 201.706 72.5635C200.949 70.106 200.571 67.5322 200.571 64.8423L200.545 49.9731L200.387 17.3071C200.387 15.8989 200.239 14.5234 199.943 13.1807L199.943 13.1802C199.578 11.521 198.987 9.91113 198.17 8.35107C197.481 7.03467 196.668 5.82373 195.73 4.71777L195.73 4.71777C194.679 3.47754 193.472 2.36914 192.107 1.39404L191.159 0.715332C190.055 0.0546875 189.816 0.00439453 186.479 0.000488281L183.787 0.000488281L183.787 0Z" clip-rule="evenodd" fill="url(#paint_linear_80_2227_0)" fill-opacity="1.000000" fill-rule="evenodd"/>
		<g style="mix-blend-mode:normal">
			<path id="路径 4备份 (边框)" d="M118.56 150.41C117.45 145.84 112.98 143.13 108.41 144.25C103.84 145.37 101.13 149.83 102.25 154.4L126.31 252.68C126.83 254.83 127.78 256.46 129.15 257.57C130.52 258.68 132.31 259.27 134.52 259.34C136.73 259.41 138.55 258.94 139.99 257.92C141.43 256.9 142.48 255.34 143.14 253.23L166.04 180.44L188.85 253.2C189.51 255.32 190.56 256.89 192 257.91C193.44 258.93 195.27 259.4 197.49 259.33C199.71 259.25 201.51 258.65 202.87 257.53C204.24 256.41 205.18 254.77 205.69 252.62L229.1 154.35C230.19 149.78 227.46 145.32 222.88 144.23C218.3 143.14 213.85 145.88 212.76 150.46L196.13 220.27L174.39 150.93C173.75 148.89 172.74 147.36 171.35 146.34C169.96 145.32 168.19 144.81 166.05 144.81C163.91 144.81 162.15 145.32 160.76 146.34C159.37 147.36 158.35 148.89 157.71 150.93L135.77 220.68L118.56 150.41Z" fill="#FFFFFF" fill-opacity="1.000000" fill-rule="evenodd"/>
		</g>
	</g>
</svg>
