<svg width="336.000000" height="336.000000" viewBox="0 0 336 336" fill="none" xmlns="http://www.w3.org/2000/svg" xmlns:xlink="http://www.w3.org/1999/xlink">
	<desc>
			Created with Pixso.
	</desc>
	<defs>
		<clipPath id="clip78_3265">
			<rect id="ic_light ape" width="336.000000" height="336.000000" fill="white" fill-opacity="0"/>
		</clipPath>
		<linearGradient x1="168.000000" y1="0.369141" x2="168.000000" y2="336.369141" id="paint_linear_80_2122_0" gradientUnits="userSpaceOnUse">
			<stop stop-color="#FF6D81"/>
			<stop offset="1.000000" stop-color="#F03F64"/>
		</linearGradient>
		<linearGradient x1="247.925674" y1="45.868553" x2="198.741470" y2="92.657913" id="paint_linear_80_2124_0" gradientUnits="userSpaceOnUse">
			<stop offset="0.100487" stop-color="#EF4161"/>
			<stop offset="1.000000" stop-color="#FA7286"/>
		</linearGradient>
		<linearGradient x1="205.606766" y1="-4.294825" x2="236.694397" y2="99.142578" id="paint_linear_80_2125_0" gradientUnits="userSpaceOnUse">
			<stop stop-color="#F85A72"/>
			<stop offset="0.254966" stop-color="#FF9EA5"/>
			<stop offset="0.670781" stop-color="#FFB1BE"/>
			<stop offset="0.942386" stop-color="#F7637B"/>
			<stop offset="1.000000" stop-color="#F45973" stop-opacity="0.000000"/>
		</linearGradient>
	</defs>
	<g clip-path="url(#clip78_3265)">
		<path id="矩形备份 113" d="M65.58 0.36L188.38 0.36C194.19 0.36 199.77 2.66 203.9 6.75L287.46 89.5C291.64 93.64 294 99.28 294 105.17L294 312.78C294 325.81 283.44 336.36 270.41 336.36L65.58 336.36C52.55 336.36 42 325.81 42 312.78L42 23.95C42 10.92 52.55 0.36 65.58 0.36Z" fill="url(#paint_linear_80_2122_0)" fill-opacity="1.000000" fill-rule="evenodd"/>
		<path id="矩形 2" d="M197.08 64.1L197.08 35L196.89 17.5C196.84 11.89 194.55 6.54 190.55 2.62L187.87 0L191.68 0C196.55 0 201.2 1.96 204.59 5.45L208.87 9.85L221.39 22.28L246.45 47.15L271.5 72.02L286.87 87.27C291.42 91.78 293.97 97.91 293.97 104.31L293.97 105.36L291.38 102.77C287.38 98.77 281.95 96.52 276.29 96.52L258.6 96.52L229.5 96.52C211.6 96.52 197.08 82 197.08 64.1Z" fill="url(#paint_linear_80_2124_0)" fill-opacity="1.000000" fill-rule="evenodd"/>
		<path id="减去顶层" d="M183.786 -0.000488281L183.779 -0.000488281L185.919 1.49756L189.963 4.39014C191.089 5.19531 192.084 6.11133 192.948 7.13672L192.948 7.13721C193.699 8.02783 194.352 9.00195 194.905 10.0596C195.558 11.3057 196.032 12.5918 196.329 13.9175C196.577 15.0254 196.701 16.1611 196.701 17.3242L196.859 49.979L196.886 64.8418C196.886 67.8311 197.297 70.6968 198.119 73.4395C198.638 75.1699 199.32 76.8511 200.166 78.4834C200.372 78.8804 200.586 79.272 200.809 79.6587C202.671 82.895 205.13 85.7886 208.186 88.3384C209.79 89.6777 211.484 90.8643 213.267 91.897C214.86 92.8213 216.526 93.6226 218.263 94.3013C221.742 95.6616 224.994 96.3418 228.018 96.3418C229.049 96.3418 229.859 95.5312 229.859 94.4995C229.859 93.4678 229.049 92.6572 228.018 92.6572C225.457 92.6572 222.652 92.0615 219.604 90.8696C218.054 90.2637 216.566 89.5488 215.143 88.7256C213.53 87.793 211.998 86.7212 210.547 85.5098C207.685 83.1211 205.417 80.4053 203.744 77.3628L203.744 77.3623C203.035 75.9946 202.15 74.0117 201.705 72.563C200.948 70.1055 200.57 67.5317 200.57 64.8418L200.544 49.9727L200.386 17.3066C200.386 15.8984 200.238 14.5229 199.942 13.1802L199.942 13.1797C199.577 11.5205 198.986 9.91064 198.169 8.35059C197.48 7.03418 196.667 5.82324 195.729 4.71729L195.729 4.71729C194.678 3.47705 193.471 2.36865 192.106 1.39355L191.158 0.714844C190.073 0.0654297 189.824 0.00537109 186.648 0L183.786 0L183.786 -0.000488281Z" clip-rule="evenodd" fill="url(#paint_linear_80_2125_0)" fill-opacity="1.000000" fill-rule="evenodd"/>
		<g style="mix-blend-mode:normal">
			<path id="合并" d="M156.447 237.625L156.447 273.967C156.447 275.998 158.042 277.593 160.072 277.593C162.103 277.593 163.697 275.998 163.697 273.967L163.697 262.473L171.062 262.473C172.153 262.473 173.219 262.357 174.26 262.126C175.074 261.945 175.873 261.693 176.656 261.37C177.557 260.998 178.404 260.547 179.197 260.016C179.926 259.528 180.608 258.973 181.246 258.352C182.005 257.611 182.667 256.809 183.232 255.942C183.665 255.28 184.041 254.58 184.36 253.843C184.728 252.997 185.007 252.132 185.198 251.248L185.198 251.244C185.406 250.282 185.511 249.298 185.511 248.292C185.511 247.342 185.418 246.411 185.233 245.499C185.042 244.557 184.753 243.635 184.364 242.733C184.041 241.981 183.66 241.267 183.221 240.591C182.662 239.731 182.01 238.933 181.265 238.195C180.579 237.517 179.841 236.917 179.052 236.396C178.307 235.904 177.517 235.482 176.68 235.13C175.841 234.778 174.985 234.508 174.111 234.32C173.117 234.106 172.101 234 171.062 234L160.072 234C159.071 234 158.217 234.354 157.509 235.062C157.155 235.416 156.89 235.806 156.713 236.233L156.712 236.233L156.712 236.234L156.712 236.234C156.535 236.661 156.447 237.125 156.447 237.625ZM128.026 237.19L114.244 273.468C113.523 275.365 114.448 277.422 116.346 278.143C118.242 278.863 120.299 277.939 121.02 276.042L124.322 267.349L137.989 267.349L141.108 275.986C141.798 277.895 143.839 278.853 145.748 278.163C147.657 277.474 148.615 275.432 147.926 273.523L134.822 237.246C134.732 236.997 134.619 236.764 134.481 236.545L134.481 236.545C134.344 236.327 134.183 236.124 133.997 235.936C133.627 235.559 133.194 235.276 132.701 235.089C131.766 234.733 130.841 234.761 129.928 235.171C129.472 235.376 129.085 235.647 128.768 235.983L128.768 235.983C128.451 236.32 128.203 236.722 128.026 237.19ZM196.686 277.593L215.49 277.593C217.521 277.593 219.115 275.998 219.115 273.967C219.115 271.937 217.521 270.342 215.49 270.342L200.311 270.342L200.311 258.809L212.699 258.809C214.729 258.809 216.324 257.214 216.324 255.184C216.324 253.154 214.729 251.559 212.699 251.559L200.311 251.559L200.311 242.4L215.49 242.4C217.521 242.4 219.115 240.805 219.115 238.775C219.115 236.745 217.521 235.149 215.49 235.149L196.686 235.149C195.685 235.149 194.83 235.503 194.122 236.211C193.414 236.919 193.061 237.773 193.061 238.775L193.061 273.967C193.061 274.968 193.414 275.823 194.122 276.531C194.83 277.239 195.685 277.593 196.686 277.593ZM171.062 255.223L163.697 255.223L163.697 241.25L171.062 241.25C171.613 241.25 172.152 241.311 172.677 241.43C173.082 241.522 173.479 241.65 173.869 241.814C174.275 241.985 174.659 242.188 175.022 242.425C175.431 242.691 175.812 243 176.165 243.35C176.576 243.756 176.93 244.199 177.226 244.678C177.407 244.971 177.566 245.278 177.704 245.598C177.896 246.043 178.037 246.498 178.13 246.962C178.217 247.396 178.26 247.84 178.26 248.292C178.26 248.797 178.206 249.29 178.098 249.77C178.006 250.175 177.877 250.571 177.709 250.958C177.578 251.259 177.428 251.548 177.257 251.825C176.96 252.307 176.602 252.752 176.184 253.161C175.88 253.457 175.556 253.722 175.211 253.958C174.801 254.237 174.36 254.474 173.892 254.667C173.551 254.808 173.203 254.922 172.849 255.009L172.848 255.009L172.848 255.009C172.27 255.151 171.674 255.223 171.062 255.223ZM135.371 260.101L131.328 248.907L127.075 260.101L135.371 260.101Z" clip-rule="evenodd" fill="#FFFFFF" fill-opacity="1.000000" fill-rule="evenodd"/>
		</g>
		<g style="mix-blend-mode:normal">
			<path id="Shape Copy备份 8" d="M205.57 133.88L205.57 195.15C205.57 203.11 199.76 209.4 192.01 210.35C184.26 211.3 178.35 206.25 178.35 199.94C178.35 192.13 184.01 188.71 188.85 186.71C193.7 184.71 197.2 180.9 197.2 177.16L197.2 148.72C197.2 146.6 195.27 145 193.18 145.39L158.1 152C156.5 152.3 155.34 153.69 155.34 155.32L155.34 200.98C155.34 208.9 147.72 217.21 140.8 218.6C133.88 219.99 126 215.13 126 207.06C126 199 133.04 194.49 136.84 193.02C139.03 192.17 146.97 189.57 146.97 185.72L146.97 141.21C146.97 137.34 149.76 134.02 153.58 133.36L196.26 126.03C201.13 125.19 205.57 128.94 205.57 133.88Z" fill="#FFFFFF" fill-opacity="1.000000" fill-rule="evenodd"/>
		</g>
	</g>
</svg>
