<svg width="336.000000" height="336.000000" viewBox="0 0 336 336" fill="none" xmlns="http://www.w3.org/2000/svg" xmlns:xlink="http://www.w3.org/1999/xlink">
	<desc>
			Created with Pixso.
	</desc>
	<defs>
		<clipPath id="clip78_3245">
			<rect id="ic_light video" width="336.000000" height="336.000000" fill="white" fill-opacity="0"/>
		</clipPath>
		<linearGradient x1="168.000000" y1="0.000000" x2="168.000000" y2="336.000000" id="paint_linear_80_2074_0" gradientUnits="userSpaceOnUse">
			<stop stop-color="#FA922C"/>
			<stop offset="1.000000" stop-color="#F26C18"/>
		</linearGradient>
		<linearGradient x1="247.936417" y1="45.869041" x2="198.752213" y2="92.658401" id="paint_linear_80_2076_0" gradientUnits="userSpaceOnUse">
			<stop offset="0.100487" stop-color="#F46104"/>
			<stop offset="1.000000" stop-color="#F59647" stop-opacity="0.466667"/>
		</linearGradient>
		<linearGradient x1="205.617508" y1="-4.293359" x2="234.500290" y2="97.463654" id="paint_linear_80_2077_0" gradientUnits="userSpaceOnUse">
			<stop stop-color="#F87E32"/>
			<stop offset="0.263153" stop-color="#F8AB6A"/>
			<stop offset="0.631381" stop-color="#FFC18D"/>
			<stop offset="0.952277" stop-color="#F4893A"/>
			<stop offset="1.000000" stop-color="#F4893A" stop-opacity="0.603922"/>
		</linearGradient>
	</defs>
	<g clip-path="url(#clip78_3245)">
		<path id="矩形备份 113" d="M65.58 0L188.38 0C194.19 0 199.77 2.29 203.9 6.38L287.46 89.13C291.64 93.27 294 98.91 294 104.8L294 312.41C294 325.44 283.44 336 270.41 336L65.58 336C52.55 336 42 325.44 42 312.41L42 23.58C42 10.55 52.55 0 65.58 0Z" fill="url(#paint_linear_80_2074_0)" fill-opacity="1.000000" fill-rule="evenodd"/>
		<g style="mix-blend-mode:normal">
			<path id="矩形 2" d="M197.09 64.1L197.09 35L196.91 17.5C196.85 11.89 194.56 6.54 190.56 2.62L187.88 0L191.69 0C196.56 0 201.21 1.96 204.6 5.45L208.88 9.85L221.41 22.29L246.46 47.15L271.51 72.02L286.89 87.27C291.43 91.78 293.98 97.91 293.98 104.31L293.98 105.36L291.39 102.77C287.39 98.77 281.96 96.52 276.3 96.52L258.62 96.52L229.51 96.52C211.61 96.52 197.09 82.01 197.09 64.1Z" fill="url(#paint_linear_80_2076_0)" fill-opacity="1.000000" fill-rule="evenodd"/>
		</g>
		<path id="减去顶层" d="M185.93 1.49902L189.974 4.3916C191.1 5.19678 192.095 6.11279 192.959 7.13818L192.959 7.13867C193.71 8.0293 194.362 9.00342 194.916 10.061C195.568 11.3071 196.043 12.5933 196.34 13.9189C196.588 15.0269 196.712 16.1626 196.712 17.3257L196.87 49.9805L196.896 64.8433C196.896 67.8325 197.308 70.6982 198.13 73.4409C198.648 75.1714 199.331 76.8525 200.177 78.4849C200.383 78.8818 200.597 79.2734 200.819 79.6602C202.682 82.8965 205.141 85.79 208.196 88.3398C209.801 89.6792 211.495 90.8657 213.277 91.8984C214.871 92.8228 216.537 93.624 218.273 94.3027C221.753 95.6631 225.005 96.3433 228.028 96.3433C229.06 96.3433 229.87 95.5327 229.87 94.501C229.87 93.4692 229.06 92.6587 228.028 92.6587C225.468 92.6587 222.663 92.063 219.615 90.8711C218.064 90.2651 216.577 89.5503 215.153 88.7271C213.541 87.7944 212.009 86.7227 210.558 85.5112C207.695 83.1226 205.428 80.4067 203.755 77.3643L203.755 77.3638C203.046 75.9961 202.161 74.0132 201.716 72.5645C200.959 70.1069 200.581 67.5332 200.581 64.8433L200.555 49.9741L200.396 17.3081C200.396 15.8999 200.249 14.5244 199.953 13.1816L199.953 13.1812C199.588 11.522 198.997 9.91211 198.18 8.35205C197.491 7.03564 196.678 5.82471 195.74 4.71875L195.74 4.71875C194.688 3.47852 193.481 2.37012 192.117 1.39502L191.169 0.716309C189.974 0.000976562 189.793 0.000976562 185.598 0.000976562L183.79 0.000976562L185.93 1.49902Z" clip-rule="evenodd" fill="url(#paint_linear_80_2077_0)" fill-opacity="1.000000" fill-rule="evenodd"/>
		<g style="mix-blend-mode:normal">
			<path id="多边形备份 6" d="M216.61 207.09L136.59 253.3C131.53 256.22 125.21 252.57 125.21 246.72L125.21 154.32C125.21 148.48 131.53 144.83 136.59 147.75L216.61 193.95C221.67 196.87 221.67 204.17 216.61 207.09Z" fill="#FFFFFF" fill-opacity="1.000000" fill-rule="evenodd"/>
		</g>
	</g>
</svg>
