<svg width="336.000000" height="336.000000" viewBox="0 0 336 336" fill="none" xmlns="http://www.w3.org/2000/svg" xmlns:xlink="http://www.w3.org/1999/xlink">
	<desc>
			Created with Pixso.
	</desc>
	<defs>
		<clipPath id="clip78_3544">
			<rect id="ic_light chm" width="336.000000" height="336.000000" fill="white" fill-opacity="0"/>
		</clipPath>
		<linearGradient x1="168.000000" y1="0.000000" x2="168.000000" y2="336.000000" id="paint_linear_80_2255_0" gradientUnits="userSpaceOnUse">
			<stop stop-color="#55BFF2"/>
			<stop offset="1.000000" stop-color="#3898F7"/>
		</linearGradient>
		<linearGradient x1="289.026459" y1="79.026276" x2="254.578918" y2="105.368423" id="paint_linear_80_2255_1" gradientUnits="userSpaceOnUse">
			<stop offset="0.012343" stop-color="#A54000"/>
			<stop offset="1.000000" stop-color="#F67F22" stop-opacity="0.000000"/>
		</linearGradient>
		<linearGradient x1="247.925674" y1="45.868797" x2="198.741470" y2="92.658157" id="paint_linear_80_2258_0" gradientUnits="userSpaceOnUse">
			<stop offset="0.100487" stop-color="#4799ED"/>
			<stop offset="1.000000" stop-color="#77CDFB"/>
		</linearGradient>
		<linearGradient x1="205.607742" y1="-4.293603" x2="234.490524" y2="97.463409" id="paint_linear_80_2259_0" gradientUnits="userSpaceOnUse">
			<stop stop-color="#36BCF8"/>
			<stop offset="0.265149" stop-color="#A5DAFF"/>
			<stop offset="0.715692" stop-color="#CDEBFF"/>
			<stop offset="0.924672" stop-color="#80C9FF"/>
			<stop offset="1.000000" stop-color="#64B8F5" stop-opacity="0.000000"/>
		</linearGradient>
	</defs>
	<g clip-path="url(#clip78_3544)">
		<path id="矩形备份 113" d="M65.58 0L188.38 0C194.19 0 199.77 2.29 203.9 6.38L287.46 89.13C291.64 93.27 294 98.91 294 104.8L294 312.41C294 325.44 283.44 336 270.41 336L65.58 336C52.55 336 42 325.44 42 312.41L42 23.58C42 10.55 52.55 0 65.58 0Z" fill="url(#paint_linear_80_2255_0)" fill-opacity="1.000000" fill-rule="evenodd"/>
		<path id="矩形备份 113" d="M65.58 0L188.38 0C194.19 0 199.77 2.29 203.9 6.38L287.46 89.13C291.64 93.27 294 98.91 294 104.8L294 312.41C294 325.44 283.44 336 270.41 336L65.58 336C52.55 336 42 325.44 42 312.41L42 23.58C42 10.55 52.55 0 65.58 0Z" fill="url(#paint_linear_80_2255_1)" fill-opacity="0" fill-rule="evenodd"/>
		<g style="mix-blend-mode:normal">
			<path id="矩形 2" d="M197.08 64.1L197.08 35L196.89 17.5C196.84 11.89 194.55 6.54 190.55 2.62L187.87 0L191.68 0C196.55 0 201.2 1.96 204.59 5.45L208.87 9.85L221.39 22.28L246.45 47.15L271.5 72.02L286.87 87.27C291.42 91.78 293.97 97.91 293.97 104.31L293.97 105.36L291.38 102.77C287.38 98.77 281.95 96.52 276.29 96.52L258.6 96.52L229.5 96.52C211.6 96.52 197.08 82 197.08 64.1Z" fill="url(#paint_linear_80_2258_0)" fill-opacity="1.000000" fill-rule="evenodd"/>
		</g>
		<path id="减去顶层" d="M185.92 1.49878L189.964 4.39136C191.09 5.19678 192.085 6.1123 192.949 7.13818L192.949 7.13818C193.7 8.0293 194.353 9.00342 194.906 10.0605C195.559 11.3069 196.033 12.593 196.33 13.9187C196.578 15.0266 196.702 16.1621 196.702 17.3257L196.86 49.9802L196.887 64.843C196.887 67.832 197.298 70.698 198.12 73.4407C198.639 75.1711 199.321 76.8525 200.167 78.4849C200.373 78.8813 200.587 79.2732 200.81 79.6599C202.672 82.8965 205.131 85.7896 208.187 88.3396C209.791 89.6792 211.485 90.8652 213.268 91.8984C214.861 92.8223 216.527 93.6238 218.264 94.3027C221.743 95.6631 224.995 96.3433 228.019 96.3433C229.05 96.3433 229.86 95.5325 229.86 94.501C229.86 93.4692 229.05 92.6587 228.019 92.6587C225.458 92.6587 222.653 92.0627 219.605 90.8711C218.055 90.2649 216.567 89.5503 215.144 88.7266C213.531 87.7942 211.999 86.7222 210.548 85.5107C207.686 83.1223 205.418 80.4067 203.745 77.3643L203.745 77.3638C203.036 75.9958 202.151 74.0129 201.706 72.5642C200.949 70.1069 200.571 67.5332 200.571 64.843L200.545 49.9736L200.387 17.3079C200.387 15.8997 200.239 14.5242 199.943 13.1814L199.943 13.1809C199.578 11.5215 198.987 9.91187 198.17 8.35181C197.481 7.0354 196.668 5.82422 195.73 4.71851L195.73 4.71851C194.679 3.47803 193.472 2.37012 192.107 1.39453L191.159 0.716064C189.964 0.000732422 189.783 0.000732422 185.588 0.000732422L183.78 0.000732422L185.92 1.49878Z" clip-rule="evenodd" fill="url(#paint_linear_80_2259_0)" fill-opacity="1.000000" fill-rule="evenodd"/>
		<g style="mix-blend-mode:normal">
			<path id="合并" d="M133.336 204.12C132.548 205.621 131.646 207.021 130.631 208.319C129.346 209.959 127.902 211.391 126.299 212.614C125.254 213.411 124.141 214.12 122.96 214.739C120.487 216.037 117.962 216.817 115.385 217.079L115.384 217.079C114.73 217.146 114.073 217.179 113.413 217.179C111.879 217.179 110.38 217.02 108.915 216.702C107.289 216.349 105.705 215.8 104.164 215.055C103.464 214.717 102.784 214.343 102.126 213.935L102.125 213.935C100.104 212.682 98.2842 211.104 96.666 209.199C96.5332 209.043 96.4023 208.885 96.2734 208.725L96.2725 208.725C94.3301 206.323 92.8223 203.569 91.751 200.461C90.584 197.076 90 193.452 90 189.589C90 185.729 90.5693 182.114 91.709 178.746C92.8037 175.509 94.5322 172.46 96.5645 169.996C98.1289 168.139 99.8896 166.592 101.846 165.355L101.846 165.354L101.846 165.354C102.562 164.901 103.306 164.489 104.075 164.119C105.42 163.472 106.802 162.973 108.22 162.623C109.899 162.207 111.63 162 113.413 162C115.517 162 117.429 162.207 119.148 162.622C120.889 163.042 122.511 163.697 123.983 164.569C125.282 165.34 126.53 166.323 127.728 167.517C128.597 168.385 129.564 169.499 130.631 170.86C131.648 172.16 132.551 173.562 133.34 175.066C134.657 177.579 133.717 180.589 131.203 181.907C128.69 183.224 125.68 182.284 124.362 179.771C123.859 178.811 123.289 177.924 122.65 177.108C121.84 176.072 121.146 175.267 120.569 174.692C119.97 174.094 119.384 173.625 118.811 173.284C118.209 172.927 117.529 172.657 116.771 172.474C115.832 172.248 114.713 172.135 113.413 172.135C112.4 172.135 111.421 172.26 110.475 172.51C109.788 172.692 108.701 173.151 108.05 173.464C106.656 174.204 105.412 175.225 104.316 176.525C103.026 178.057 102.024 179.879 101.31 181.993C100.526 184.308 100.135 186.84 100.135 189.589C100.135 192.32 100.534 194.842 101.333 197.157C102.061 199.268 103.079 201.095 104.39 202.637C105.542 203.993 107.112 205.178 108.575 205.931C109.42 206.339 110.288 206.635 111.179 206.819C111.907 206.969 112.652 207.044 113.413 207.044C115.013 207.044 116.625 206.618 118.25 205.765C118.792 205.481 119.309 205.163 119.802 204.811C120.863 204.054 121.812 203.141 122.65 202.071C123.288 201.256 123.858 200.37 124.36 199.412C125.679 196.899 128.688 195.96 131.202 197.278C133.715 198.596 134.654 201.607 133.336 204.12ZM236.738 211.618L236.738 179.716L223.367 213.366C222.885 214.581 222.043 215.448 220.843 215.965C219.642 216.483 218.434 216.501 217.219 216.018C216.604 215.773 216.062 215.415 215.598 214.944C215.132 214.472 214.781 213.927 214.544 213.308L201.65 179.57L201.489 211.641C201.477 214.293 199.382 216.366 196.73 216.353C194.079 216.339 192.006 214.245 192.02 211.594L192.244 167.043C192.25 165.741 192.715 164.63 193.639 163.711C194.101 163.251 194.61 162.907 195.166 162.677C195.723 162.447 196.327 162.333 196.979 162.333L201.941 162.333C202.923 162.333 203.818 162.611 204.626 163.167C205.435 163.724 206.015 164.46 206.364 165.377L219.054 198.579L232.27 165.319C232.628 164.417 233.208 163.694 234.011 163.149C234.412 162.877 234.834 162.673 235.277 162.537C235.721 162.4 236.185 162.333 236.67 162.333L241.474 162.333C242.781 162.333 243.897 162.795 244.822 163.719C245.284 164.182 245.631 164.692 245.862 165.25C246.093 165.808 246.209 166.414 246.209 167.067L246.209 211.618C246.209 214.269 244.125 216.353 241.474 216.353C238.822 216.353 236.738 214.269 236.738 211.618ZM143.388 211.618L143.388 167.067C143.388 164.416 145.471 162.333 148.122 162.333C150.774 162.333 152.857 164.416 152.857 167.067L152.857 183.783L175.549 183.783L175.549 167.067C175.549 164.416 177.633 162.333 180.284 162.333C182.936 162.333 185.019 164.416 185.019 167.067L185.019 211.618C185.019 214.269 182.936 216.353 180.284 216.353C177.633 216.353 175.549 214.269 175.549 211.618L175.549 193.253L152.857 193.253L152.857 211.618C152.857 214.269 150.774 216.353 148.122 216.353C145.471 216.353 143.388 214.269 143.388 211.618Z" clip-rule="evenodd" fill="#FFFFFF" fill-opacity="1.000000" fill-rule="evenodd"/>
		</g>
	</g>
</svg>
