<svg width="336.000000" height="336.000000" viewBox="0 0 336 336" fill="none" xmlns="http://www.w3.org/2000/svg" xmlns:xlink="http://www.w3.org/1999/xlink">
	<desc>
			Created with Pixso.
	</desc>
	<defs>
		<clipPath id="clip78_3233">
			<rect id="ic_light ppt" width="336.000000" height="336.000000" fill="white" fill-opacity="0"/>
		</clipPath>
		<linearGradient x1="168.000000" y1="0.000000" x2="168.000000" y2="336.000000" id="paint_linear_78_3234_0" gradientUnits="userSpaceOnUse">
			<stop stop-color="#FA922C"/>
			<stop offset="1.000000" stop-color="#F26C18"/>
		</linearGradient>
		<linearGradient x1="247.936417" y1="45.869041" x2="198.752213" y2="92.658401" id="paint_linear_78_3236_0" gradientUnits="userSpaceOnUse">
			<stop offset="0.100487" stop-color="#F46104"/>
			<stop offset="1.000000" stop-color="#F59647" stop-opacity="0.466667"/>
		</linearGradient>
		<linearGradient x1="205.617508" y1="-4.294336" x2="234.500290" y2="97.462677" id="paint_linear_78_3925_0" gradientUnits="userSpaceOnUse">
			<stop stop-color="#F87E32"/>
			<stop offset="0.263153" stop-color="#F8AB6A"/>
			<stop offset="0.631381" stop-color="#FFC18D"/>
			<stop offset="0.952277" stop-color="#F4893A"/>
			<stop offset="1.000000" stop-color="#F4893A" stop-opacity="0.603922"/>
		</linearGradient>
	</defs>
	<g clip-path="url(#clip78_3233)">
		<path id="矩形备份 113" d="M65.58 0L188.38 0C194.19 0 199.77 2.29 203.9 6.38L287.46 89.13C291.64 93.27 294 98.91 294 104.8L294 312.41C294 325.44 283.44 336 270.41 336L65.58 336C52.55 336 42 325.44 42 312.41L42 23.58C42 10.55 52.55 0 65.58 0Z" fill="url(#paint_linear_78_3234_0)" fill-opacity="1.000000" fill-rule="evenodd"/>
		<path id="矩形 2" d="M197.09 64.1L197.09 35L196.91 17.5C196.85 11.89 194.56 6.54 190.56 2.62L187.88 0L191.69 0C196.56 0 201.21 1.96 204.6 5.45L208.88 9.85L221.41 22.29L246.46 47.15L271.51 72.02L286.89 87.27C291.43 91.78 293.98 97.91 293.98 104.31L293.98 105.36L291.39 102.77C287.39 98.77 281.96 96.52 276.3 96.52L258.62 96.52L229.51 96.52C211.61 96.52 197.09 82.01 197.09 64.1Z" fill="url(#paint_linear_78_3236_0)" fill-opacity="1.000000" fill-rule="evenodd"/>
		<path id="减去顶层" d="M183.797 0L183.79 0L185.93 1.49805L189.974 4.39062C191.1 5.1958 192.095 6.11182 192.959 7.13721L192.959 7.1377C193.71 8.02832 194.362 9.00244 194.916 10.0601C195.568 11.3062 196.043 12.5923 196.34 13.918C196.588 15.0259 196.712 16.1616 196.712 17.3247L196.87 49.9795L196.896 64.8423C196.896 67.8315 197.308 70.6973 198.13 73.4399C198.648 75.1704 199.331 76.8516 200.177 78.4839C200.383 78.8809 200.597 79.2725 200.819 79.6592C202.682 82.8955 205.141 85.7891 208.196 88.3389C209.801 89.6782 211.495 90.8647 213.277 91.8975C214.871 92.8218 216.537 93.623 218.273 94.3018C221.753 95.6621 225.005 96.3423 228.028 96.3423C229.06 96.3423 229.87 95.5317 229.87 94.5C229.87 93.4683 229.06 92.6577 228.028 92.6577C225.468 92.6577 222.663 92.062 219.615 90.8701C218.064 90.2642 216.577 89.5493 215.153 88.7261C213.541 87.7935 212.009 86.7217 210.558 85.5103C207.695 83.1216 205.428 80.4058 203.755 77.3633L203.755 77.3628C203.046 75.9951 202.161 74.0122 201.716 72.5635C200.959 70.106 200.581 67.5322 200.581 64.8423L200.555 49.9731L200.396 17.3071C200.396 15.8989 200.249 14.5234 199.953 13.1807L199.953 13.1802C199.588 11.521 198.997 9.91113 198.18 8.35107C197.491 7.03467 196.678 5.82373 195.74 4.71777L195.74 4.71777C194.688 3.47754 193.481 2.36914 192.117 1.39404L191.169 0.715332C190.064 0.0546875 189.826 0.00439453 186.488 0.000488281L183.797 0.000488281L183.797 0Z" clip-rule="evenodd" fill="url(#paint_linear_78_3925_0)" fill-opacity="1.000000" fill-rule="evenodd"/>
		<path id="形状结合" d="M222.468 177.148C222.468 152.377 202.382 132 177.688 132L177.688 132.042C177.522 132.033 177.356 132.029 177.189 132.029L134.953 132.029L134.074 132.054C126.225 132.509 120 139.019 120 146.982L120 251.549L120.029 252.312C120.419 257.35 124.629 261.315 129.766 261.315L130.529 261.286C135.565 260.896 139.531 256.686 139.531 251.549L139.531 221.929L177.688 221.929L179.008 221.91C203.129 221.211 222.468 201.438 222.468 177.148ZM139.53 202.397L177.688 202.397C191.632 202.397 202.937 191.093 202.937 177.148C202.937 163.472 192.124 152.143 178.775 151.556L177.84 151.535L177.189 151.561L139.529 151.558L139.53 202.397Z" clip-rule="evenodd" fill="#FFFFFF" fill-opacity="1.000000" fill-rule="evenodd"/>
	</g>
</svg>
