<svg width="336.000000" height="336.000000" viewBox="0 0 336 336" fill="none" xmlns="http://www.w3.org/2000/svg" xmlns:xlink="http://www.w3.org/1999/xlink">
	<desc>
			Created with Pixso.
	</desc>
	<defs>
		<clipPath id="clip78_3460">
			<rect id="ic_light caj" width="336.000000" height="336.000000" fill="white" fill-opacity="0"/>
		</clipPath>
		<linearGradient x1="168.000000" y1="0.000000" x2="168.000000" y2="336.000000" id="paint_linear_78_3461_0" gradientUnits="userSpaceOnUse">
			<stop stop-color="#FF7957"/>
			<stop offset="1.000000" stop-color="#E94D35"/>
		</linearGradient>
		<linearGradient x1="289.026459" y1="79.026276" x2="254.578918" y2="105.368423" id="paint_linear_78_3461_1" gradientUnits="userSpaceOnUse">
			<stop offset="0.012343" stop-color="#A54000"/>
			<stop offset="1.000000" stop-color="#F67F22" stop-opacity="0.000000"/>
		</linearGradient>
		<linearGradient x1="247.925674" y1="45.868553" x2="198.741470" y2="92.657913" id="paint_linear_80_2310_0" gradientUnits="userSpaceOnUse">
			<stop offset="0.100487" stop-color="#EE452B"/>
			<stop offset="1.000000" stop-color="#FF8B6E"/>
		</linearGradient>
		<linearGradient x1="205.606766" y1="-4.293848" x2="234.489548" y2="97.463165" id="paint_linear_80_2311_0" gradientUnits="userSpaceOnUse">
			<stop stop-color="#FF705A"/>
			<stop offset="0.263153" stop-color="#FEB8A4"/>
			<stop offset="0.641081" stop-color="#FFBAAC"/>
			<stop offset="0.945777" stop-color="#FF8F77"/>
			<stop offset="1.000000" stop-color="#F76B50" stop-opacity="0.000000"/>
		</linearGradient>
	</defs>
	<g clip-path="url(#clip78_3460)">
		<path id="矩形备份 113" d="M65.58 0L188.38 0C194.19 0 199.77 2.29 203.9 6.38L287.46 89.13C291.64 93.27 294 98.91 294 104.8L294 312.41C294 325.44 283.44 336 270.41 336L65.58 336C52.55 336 42 325.44 42 312.41L42 23.58C42 10.55 52.55 0 65.58 0Z" fill="url(#paint_linear_78_3461_0)" fill-opacity="1.000000" fill-rule="evenodd"/>
		<path id="矩形备份 113" d="M65.58 0L188.38 0C194.19 0 199.77 2.29 203.9 6.38L287.46 89.13C291.64 93.27 294 98.91 294 104.8L294 312.41C294 325.44 283.44 336 270.41 336L65.58 336C52.55 336 42 325.44 42 312.41L42 23.58C42 10.55 52.55 0 65.58 0Z" fill="url(#paint_linear_78_3461_1)" fill-opacity="0" fill-rule="evenodd"/>
		<g style="mix-blend-mode:normal">
			<path id="矩形 2" d="M197.08 64.1L197.08 35L196.89 17.5C196.84 11.89 194.55 6.54 190.55 2.62L187.87 0L191.68 0C196.55 0 201.2 1.96 204.59 5.45L208.87 9.85L221.39 22.28L246.45 47.15L271.5 72.02L286.87 87.27C291.42 91.78 293.97 97.91 293.97 104.31L293.97 105.36L291.38 102.77C287.38 98.77 281.95 96.52 276.29 96.52L258.6 96.52L229.5 96.52C211.6 96.52 197.08 82 197.08 64.1Z" fill="url(#paint_linear_80_2310_0)" fill-opacity="1.000000" fill-rule="evenodd"/>
		</g>
		<path id="减去顶层" d="M185.919 1.49854L189.963 4.39111C191.089 5.19629 192.084 6.1123 192.948 7.1377L192.948 7.13818C193.699 8.02881 194.352 9.00293 194.905 10.0605C195.558 11.3066 196.032 12.5928 196.329 13.9185C196.577 15.0264 196.701 16.1621 196.701 17.3252L196.859 49.98L196.886 64.8428C196.886 67.832 197.297 70.6978 198.119 73.4404C198.638 75.1709 199.32 76.8521 200.166 78.4844C200.372 78.8813 200.586 79.2729 200.809 79.6597C202.671 82.896 205.13 85.7896 208.186 88.3394C209.79 89.6787 211.484 90.8652 213.267 91.8979C214.86 92.8223 216.526 93.6235 218.263 94.3022C221.742 95.6626 224.994 96.3428 228.018 96.3428C229.049 96.3428 229.859 95.5322 229.859 94.5005C229.859 93.4688 229.049 92.6582 228.018 92.6582C225.457 92.6582 222.652 92.0625 219.604 90.8706C218.054 90.2646 216.566 89.5498 215.143 88.7266C213.53 87.7939 211.998 86.7222 210.547 85.5107C207.685 83.1221 205.417 80.4062 203.744 77.3638L203.744 77.3633C203.035 75.9956 202.15 74.0127 201.705 72.564C200.948 70.1064 200.57 67.5327 200.57 64.8428L200.544 49.9736L200.386 17.3076C200.386 15.8994 200.238 14.5239 199.942 13.1812L199.942 13.1807C199.577 11.5215 198.986 9.91162 198.169 8.35156C197.48 7.03516 196.667 5.82422 195.729 4.71826L195.729 4.71826C194.678 3.47803 193.471 2.36963 192.106 1.39453L191.158 0.71582C189.963 0.000488281 189.782 0.000488281 185.587 0.000488281L183.779 0.000488281L185.919 1.49854Z" clip-rule="evenodd" fill="url(#paint_linear_80_2311_0)" fill-opacity="1.000000" fill-rule="evenodd"/>
		<g opacity="0.000000">
			<rect id="矩形 538" width="336.000000" height="336.000000" fill="#C4C4C4" fill-opacity="1.000000"/>
		</g>
		<g style="mix-blend-mode:normal">
			<path id="合并" d="M142.16 213.895C141.372 215.396 140.471 216.796 139.455 218.094C138.17 219.734 136.727 221.166 135.123 222.389C134.078 223.186 132.965 223.895 131.784 224.514C129.312 225.812 126.786 226.592 124.208 226.854C123.555 226.921 122.897 226.954 122.237 226.954C120.703 226.954 119.204 226.795 117.739 226.477C116.113 226.124 114.529 225.575 112.988 224.83C112.288 224.491 111.608 224.118 110.95 223.71C108.928 222.457 107.108 220.878 105.49 218.974C105.357 218.818 105.227 218.66 105.098 218.5C103.154 216.098 101.646 213.344 100.575 210.236C99.4082 206.851 98.8242 203.227 98.8242 199.364C98.8242 195.503 99.3936 191.889 100.533 188.521C101.628 185.284 103.356 182.235 105.389 179.771C106.953 177.914 108.714 176.367 110.67 175.129C111.387 174.676 112.13 174.264 112.899 173.894C114.244 173.247 115.626 172.749 117.044 172.397C118.724 171.982 120.454 171.774 122.237 171.774C124.341 171.774 126.253 171.982 127.973 172.397C129.713 172.817 131.335 173.472 132.808 174.344C134.106 175.115 135.354 176.098 136.552 177.292C137.421 178.159 138.389 179.273 139.455 180.635C140.473 181.935 141.375 183.337 142.164 184.841C143.481 187.354 142.541 190.364 140.027 191.682C137.515 192.999 134.504 192.059 133.187 189.546C132.684 188.586 132.113 187.699 131.475 186.883C130.664 185.847 129.97 185.042 129.394 184.467C128.794 183.869 128.208 183.399 127.635 183.06C127.033 182.702 126.354 182.432 125.596 182.25C124.656 182.023 123.537 181.91 122.237 181.91C121.225 181.91 120.245 182.035 119.299 182.285C118.612 182.467 117.525 182.926 116.874 183.239C115.48 183.979 114.236 185 113.141 186.3C111.851 187.832 110.849 189.654 110.134 191.768C109.351 194.083 108.959 196.615 108.959 199.364C108.959 202.094 109.358 204.617 110.157 206.933C110.885 209.043 111.903 210.87 113.214 212.412C114.366 213.768 115.937 214.953 117.399 215.706C118.244 216.114 119.112 216.41 120.003 216.593C120.731 216.744 121.477 216.819 122.237 216.819C123.837 216.819 125.449 216.393 127.074 215.54C127.616 215.256 128.133 214.938 128.626 214.586C129.688 213.83 130.637 212.916 131.475 211.846C132.112 211.031 132.683 210.145 133.185 209.188C134.503 206.674 137.513 205.735 140.026 207.053C142.539 208.372 143.479 211.381 142.16 213.895ZM235.373 176.842C235.373 174.004 233.144 171.775 230.306 171.775C227.468 171.775 225.238 174.004 225.238 176.842L225.238 212.508C225.213 212.756 225.157 213.152 225.094 213.407C224.924 214.09 224.67 214.604 224.333 214.948C223.703 215.586 222.781 216.081 221.568 216.432C220.722 216.677 219.873 216.807 219.021 216.823C218.516 216.833 218.01 216.801 217.502 216.729C215.893 216.502 214.676 215.926 213.85 215C213.307 214.391 212.933 213.63 212.729 212.718C212.108 209.949 209.445 208.26 206.676 208.88C203.906 209.5 202.218 212.163 202.838 214.932C203.211 216.598 203.813 218.127 204.646 219.519C205.045 220.166 205.605 220.965 206.096 221.534C206.657 222.186 207.277 222.788 207.957 223.338C208.433 223.724 208.928 224.079 209.442 224.404C211.382 225.627 213.597 226.414 216.086 226.765C217.309 226.938 218.525 226.997 219.737 226.942L219.738 226.942C221.296 226.871 222.845 226.613 224.386 226.167C227.132 225.372 229.422 224.1 231.257 222.351C231.545 222.057 232.132 221.441 232.389 221.122C233.576 219.641 234.423 217.886 234.929 215.856C235.225 214.667 235.373 213.571 235.373 212.57L235.373 176.842ZM168.095 175.942L150.042 219.964C148.965 222.59 150.183 225.499 152.808 226.576C155.434 227.652 158.343 226.436 159.419 223.81L163.911 212.856L181.807 212.856L186.045 223.728C187.076 226.372 189.963 227.639 192.607 226.608C195.251 225.578 196.519 222.69 195.487 220.046L178.326 176.031C178.107 175.472 177.817 174.972 177.455 174.53C177.106 174.104 176.689 173.734 176.206 173.419C175.762 173.129 175.296 172.909 174.809 172.76L174.808 172.76C174.309 172.607 173.786 172.528 173.24 172.523C172.695 172.519 172.172 172.588 171.669 172.732C171.179 172.873 170.709 173.084 170.26 173.367C169.771 173.674 169.349 174.037 168.992 174.456L168.992 174.457L168.992 174.457C168.622 174.892 168.323 175.387 168.095 175.942ZM177.854 202.722L173.084 190.488L168.067 202.722L177.854 202.722Z" clip-rule="evenodd" fill="#FFFFFF" fill-opacity="1.000000" fill-rule="evenodd"/>
		</g>
	</g>
</svg>
