<svg width="336.000000" height="336.000000" viewBox="0 0 336 336" fill="none" xmlns="http://www.w3.org/2000/svg" xmlns:xlink="http://www.w3.org/1999/xlink">
	<desc>
			Created with Pixso.
	</desc>
	<defs>
		<clipPath id="clip78_3817">
			<rect id="ic_light dxf" width="336.000000" height="336.000000" fill="white" fill-opacity="0"/>
		</clipPath>
		<linearGradient x1="168.000000" y1="0.000000" x2="168.000000" y2="336.000000" id="paint_linear_80_2287_0" gradientUnits="userSpaceOnUse">
			<stop stop-color="#55BFF2"/>
			<stop offset="1.000000" stop-color="#3898F7"/>
		</linearGradient>
		<linearGradient x1="289.026459" y1="79.026276" x2="254.578918" y2="105.368423" id="paint_linear_80_2287_1" gradientUnits="userSpaceOnUse">
			<stop offset="0.012343" stop-color="#A54000"/>
			<stop offset="1.000000" stop-color="#F67F22" stop-opacity="0.000000"/>
		</linearGradient>
		<linearGradient x1="247.925674" y1="45.869041" x2="198.741470" y2="92.658401" id="paint_linear_80_2290_0" gradientUnits="userSpaceOnUse">
			<stop offset="0.100487" stop-color="#4799ED"/>
			<stop offset="1.000000" stop-color="#77CDFB"/>
		</linearGradient>
		<linearGradient x1="205.607742" y1="-4.293359" x2="234.490524" y2="97.463654" id="paint_linear_80_2291_0" gradientUnits="userSpaceOnUse">
			<stop stop-color="#36BCF8"/>
			<stop offset="0.265149" stop-color="#A5DAFF"/>
			<stop offset="0.715692" stop-color="#CDEBFF"/>
			<stop offset="0.924672" stop-color="#80C9FF"/>
			<stop offset="1.000000" stop-color="#64B8F5" stop-opacity="0.000000"/>
		</linearGradient>
	</defs>
	<g clip-path="url(#clip78_3817)">
		<path id="矩形备份 113" d="M65.58 0L188.38 0C194.19 0 199.77 2.29 203.9 6.38L287.46 89.13C291.64 93.27 294 98.91 294 104.8L294 312.41C294 325.44 283.44 336 270.41 336L65.58 336C52.55 336 42 325.44 42 312.41L42 23.58C42 10.55 52.55 0 65.58 0Z" fill="url(#paint_linear_80_2287_0)" fill-opacity="1.000000" fill-rule="evenodd"/>
		<path id="矩形备份 113" d="M65.58 0L188.38 0C194.19 0 199.77 2.29 203.9 6.38L287.46 89.13C291.64 93.27 294 98.91 294 104.8L294 312.41C294 325.44 283.44 336 270.41 336L65.58 336C52.55 336 42 325.44 42 312.41L42 23.58C42 10.55 52.55 0 65.58 0Z" fill="url(#paint_linear_80_2287_1)" fill-opacity="0" fill-rule="evenodd"/>
		<g style="mix-blend-mode:normal">
			<path id="矩形 2" d="M197.08 64.1L197.08 35L196.89 17.5C196.84 11.89 194.55 6.54 190.55 2.62L187.87 0L191.68 0C196.55 0 201.2 1.96 204.59 5.45L208.87 9.85L221.39 22.29L246.45 47.15L271.5 72.02L286.87 87.27C291.42 91.78 293.97 97.91 293.97 104.31L293.97 105.36L291.38 102.77C287.38 98.77 281.95 96.52 276.29 96.52L258.6 96.52L229.5 96.52C211.6 96.52 197.08 82.01 197.08 64.1Z" fill="url(#paint_linear_80_2290_0)" fill-opacity="1.000000" fill-rule="evenodd"/>
		</g>
		<path id="减去顶层" d="M185.92 1.49902L189.964 4.3916C191.09 5.19678 192.085 6.11279 192.949 7.13818L192.949 7.13867C193.7 8.0293 194.353 9.00342 194.906 10.061C195.559 11.3071 196.033 12.5933 196.33 13.9189C196.578 15.0269 196.702 16.1626 196.702 17.3257L196.86 49.9805L196.887 64.8433C196.887 67.8325 197.298 70.6982 198.12 73.4409C198.639 75.1714 199.321 76.8525 200.167 78.4849C200.373 78.8818 200.587 79.2734 200.81 79.6602C202.672 82.8965 205.131 85.79 208.187 88.3398C209.791 89.6792 211.485 90.8657 213.268 91.8984C214.861 92.8228 216.527 93.624 218.264 94.3027C221.743 95.6631 224.995 96.3433 228.019 96.3433C229.05 96.3433 229.86 95.5327 229.86 94.501C229.86 93.4692 229.05 92.6587 228.019 92.6587C225.458 92.6587 222.653 92.063 219.605 90.8711C218.055 90.2651 216.567 89.5503 215.144 88.7271C213.531 87.7944 211.999 86.7227 210.548 85.5112C207.686 83.1226 205.418 80.4067 203.745 77.3643L203.745 77.3638C203.036 75.9961 202.151 74.0132 201.706 72.5645C200.949 70.1069 200.571 67.5332 200.571 64.8433L200.545 49.9741L200.387 17.3081C200.387 15.8999 200.239 14.5244 199.943 13.1816L199.943 13.1812C199.578 11.522 198.987 9.91211 198.17 8.35205C197.481 7.03564 196.668 5.82471 195.73 4.71875L195.73 4.71875C194.679 3.47852 193.472 2.37012 192.107 1.39502L191.159 0.716309C189.964 0.000976562 189.783 0.000976562 185.588 0.000976562L183.78 0.000976562L185.92 1.49902Z" clip-rule="evenodd" fill="url(#paint_linear_80_2291_0)" fill-opacity="1.000000" fill-rule="evenodd"/>
		<g style="mix-blend-mode:normal">
			<path id="合并" d="M198 172.901L198 221.119C198 223.863 200.156 226.02 202.9 226.02C205.646 226.02 207.802 223.863 207.802 221.119L207.802 201.387L225.78 201.387C228.845 201.387 231.252 198.98 231.252 195.916C231.252 192.852 228.845 190.445 225.78 190.445L207.802 190.445L207.802 177.803L230.278 177.803C233.023 177.803 235.18 175.646 235.18 172.901C235.18 170.157 233.023 168 230.278 168L202.9 168C202.225 168 201.597 168.12 201.02 168.359C200.441 168.598 199.914 168.957 199.436 169.436C198.957 169.914 198.598 170.442 198.358 171.02C198.119 171.597 198 172.225 198 172.901ZM174.743 205.629L184.659 222.349C186.013 224.629 188.867 225.359 191.147 224.006C193.428 222.653 194.157 219.799 192.805 217.518L180.248 196.347L192.81 175.167C194.163 172.887 193.434 170.032 191.153 168.68C188.872 167.327 186.018 168.056 184.665 170.336L174.743 187.065L164.821 170.336C163.469 168.056 160.614 167.326 158.333 168.679C156.053 170.032 155.323 172.886 156.676 175.167L169.238 196.347L156.682 217.519C155.329 219.799 156.058 222.654 158.339 224.006C160.619 225.359 163.474 224.63 164.826 222.35L174.743 205.629ZM127.646 168.677L127.646 168.677C129.356 169.054 131.032 169.59 132.673 170.284C134.321 170.981 135.88 171.814 137.349 172.784L137.349 172.784C138.974 173.856 140.488 175.094 141.893 176.499C143.298 177.904 144.536 179.418 145.608 181.043C146.577 182.512 147.41 184.07 148.107 185.719C148.802 187.359 149.337 189.035 149.715 190.746C150.165 192.785 150.39 194.874 150.39 197.012C150.39 199.15 150.165 201.239 149.715 203.279C149.337 204.989 148.802 206.665 148.107 208.306C147.41 209.954 146.577 211.513 145.608 212.981C144.536 214.606 143.298 216.121 141.893 217.525C140.488 218.93 138.974 220.168 137.349 221.241C135.88 222.21 134.321 223.043 132.673 223.74C131.032 224.434 129.356 224.97 127.646 225.348C125.606 225.797 123.518 226.022 121.38 226.022L113.328 226.022C111.857 226.022 110.601 225.502 109.561 224.461C108.521 223.421 108 222.165 108 220.694L108 173.331C108 172.595 108.13 171.913 108.391 171.285L108.391 171.285C108.65 170.657 109.04 170.083 109.561 169.563C110.081 169.042 110.655 168.652 111.283 168.393C111.911 168.132 112.593 168.002 113.328 168.002L121.38 168.002C123.518 168.002 125.606 168.227 127.646 168.677L127.646 168.677ZM121.38 178.659L118.656 178.659L118.656 215.365L121.38 215.365C122.798 215.365 124.181 215.21 125.526 214.899C126.546 214.664 127.544 214.339 128.521 213.925C129.532 213.498 130.489 212.99 131.394 212.4C132.454 211.708 133.442 210.905 134.357 209.99C135.272 209.075 136.075 208.087 136.768 207.026C137.356 206.122 137.865 205.165 138.293 204.154C138.706 203.177 139.03 202.178 139.267 201.159C139.577 199.813 139.732 198.431 139.732 197.012C139.732 195.594 139.577 194.211 139.267 192.865C139.03 191.846 138.706 190.848 138.293 189.87C137.865 188.86 137.356 187.902 136.768 186.998C136.075 185.938 135.272 184.95 134.357 184.035C133.442 183.12 132.455 182.316 131.395 181.625L131.394 181.625C130.489 181.035 129.532 180.526 128.521 180.099C127.544 179.686 126.546 179.361 125.526 179.125L125.526 179.125C124.18 178.814 122.798 178.659 121.38 178.659Z" clip-rule="evenodd" fill="#FFFFFF" fill-opacity="1.000000" fill-rule="evenodd"/>
		</g>
	</g>
</svg>
