<svg width="336.000000" height="336.000000" viewBox="0 0 336 336" fill="none" xmlns="http://www.w3.org/2000/svg" xmlns:xlink="http://www.w3.org/1999/xlink">
	<desc>
			Created with Pixso.
	</desc>
	<defs>
		<clipPath id="clip78_3448">
			<rect id="ic_light connect" width="336.000000" height="336.000000" fill="white" fill-opacity="0"/>
		</clipPath>
		<linearGradient x1="170.210938" y1="0.369141" x2="170.210938" y2="336.369141" id="paint_linear_80_2102_0" gradientUnits="userSpaceOnUse">
			<stop stop-color="#71DF66"/>
			<stop offset="1.000000" stop-color="#4EBA45"/>
		</linearGradient>
		<linearGradient x1="250.136612" y1="45.868553" x2="200.952408" y2="92.657913" id="paint_linear_80_2104_0" gradientUnits="userSpaceOnUse">
			<stop offset="0.100487" stop-color="#41B837"/>
			<stop offset="1.000000" stop-color="#68DE5C"/>
		</linearGradient>
		<linearGradient x1="207.817688" y1="-4.293857" x2="246.842575" y2="99.143570" id="paint_linear_80_2105_0" gradientUnits="userSpaceOnUse">
			<stop stop-color="#65D75C"/>
			<stop offset="0.263916" stop-color="#81EC77"/>
			<stop offset="0.651073" stop-color="#B2FFAA"/>
			<stop offset="0.832627" stop-color="#94EB8A"/>
			<stop offset="0.933527" stop-color="#59CF4E" stop-opacity="0.615686"/>
		</linearGradient>
	</defs>
	<g clip-path="url(#clip78_3448)">
		<path id="矩形备份 113" d="M67.79 0.36L190.59 0.36C196.4 0.36 201.98 2.66 206.11 6.75L289.67 89.5C293.85 93.64 296.21 99.28 296.21 105.17L296.21 312.78C296.21 325.81 285.65 336.36 272.63 336.36L67.79 336.36C54.76 336.36 44.21 325.81 44.21 312.78L44.21 23.95C44.21 10.92 54.76 0.36 67.79 0.36Z" fill="url(#paint_linear_80_2102_0)" fill-opacity="1.000000" fill-rule="evenodd"/>
		<g style="mix-blend-mode:normal">
			<path id="矩形 2" d="M199.29 64.1L199.29 35L199.11 17.5C199.05 11.89 196.77 6.54 192.76 2.62L190.08 0L193.89 0C198.76 0 203.41 1.96 206.8 5.45L211.08 9.85L223.61 22.28L248.66 47.15L273.71 72.02L289.09 87.27C293.63 91.78 296.18 97.91 296.18 104.31L296.18 105.36L293.6 102.77C289.59 98.77 284.16 96.52 278.5 96.52L260.82 96.52L231.71 96.52C213.81 96.52 199.29 82 199.29 64.1Z" fill="url(#paint_linear_80_2104_0)" fill-opacity="1.000000" fill-rule="evenodd"/>
		</g>
		<path id="减去顶层" d="M188.13 1.49854L192.174 4.39111C193.3 5.19653 194.295 6.11206 195.159 7.13794L195.159 7.13794C195.91 8.02905 196.562 9.00317 197.116 10.0603C197.769 11.3066 198.243 12.5928 198.54 13.9185C198.788 15.0264 198.912 16.1619 198.912 17.3254L199.07 49.98L199.097 64.8428C199.097 67.8318 199.508 70.6978 200.33 73.4404C200.849 75.1709 201.531 76.8523 202.377 78.4846C202.583 78.8811 202.797 79.2729 203.02 79.6597C204.882 82.896 207.341 85.7893 210.396 88.3394C212.001 89.6787 213.695 90.865 215.478 91.8982C217.071 92.822 218.737 93.6235 220.474 94.3025C223.953 95.6628 227.205 96.343 230.229 96.343C231.26 96.343 232.07 95.5322 232.07 94.5007C232.07 93.469 231.26 92.6584 230.229 92.6584C227.668 92.6584 224.863 92.0625 221.815 90.8708C220.265 90.2646 218.777 89.55 217.354 88.7263C215.741 87.7939 214.209 86.7219 212.758 85.5105C209.896 83.1221 207.628 80.4065 205.955 77.364L205.955 77.3635C205.246 75.9956 204.361 74.0127 203.916 72.564C203.159 70.1067 202.781 67.533 202.781 64.8428L202.755 49.9734L202.597 17.3076C202.597 15.8994 202.449 14.5239 202.153 13.1812L202.153 13.1807C201.788 11.5212 201.197 9.91162 200.38 8.35156C199.691 7.03516 198.878 5.82397 197.94 4.71826L197.94 4.71826C196.889 3.47778 195.682 2.36987 194.317 1.39429L193.369 0.71582C192.174 0.000488281 191.993 0.000488281 187.798 0.000488281L185.99 0.000488281L188.13 1.49854Z" clip-rule="evenodd" fill="url(#paint_linear_80_2105_0)" fill-opacity="1.000000" fill-rule="evenodd"/>
		<g opacity="0.000000">
			<rect id="矩形 538" width="336.000000" height="336.000000" fill="#C4C4C4" fill-opacity="1.000000"/>
		</g>
		<g style="mix-blend-mode:normal">
			<path id="椭圆形" d="M140.379 164.25C140.379 149.753 152.322 138 167.056 138C181.789 138 193.732 149.753 193.732 164.25C193.732 178.748 181.789 190.5 167.056 190.5C152.322 190.5 140.379 178.748 140.379 164.25ZM116.831 225.193C120.49 217.875 130 196.026 167.056 196.026C204.111 196.026 213.783 217.875 217.28 225.193C218.798 228.368 219.588 233.179 219.996 237.61C220.553 243.661 215.558 248.526 209.481 248.526L124.521 248.526C118.488 248.526 113.51 243.727 114.039 237.718C114.431 233.258 115.23 228.394 116.831 225.193Z" clip-rule="evenodd" fill="#FFFFFF" fill-opacity="1.000000" fill-rule="evenodd"/>
		</g>
	</g>
</svg>
