<svg width="336.000000" height="336.000000" viewBox="0 0 336 336" fill="none" xmlns="http://www.w3.org/2000/svg" xmlns:xlink="http://www.w3.org/1999/xlink">
	<desc>
			Created with Pixso.
	</desc>
	<defs>
		<clipPath id="clip78_3559">
			<rect id="ic_light kdh" width="336.000000" height="336.000000" fill="white" fill-opacity="0"/>
		</clipPath>
		<linearGradient x1="168.000000" y1="0.000000" x2="168.000000" y2="336.000000" id="paint_linear_80_2263_0" gradientUnits="userSpaceOnUse">
			<stop stop-color="#55BFF2"/>
			<stop offset="1.000000" stop-color="#3898F7"/>
		</linearGradient>
		<linearGradient x1="289.026459" y1="79.026276" x2="254.578918" y2="105.368423" id="paint_linear_80_2263_1" gradientUnits="userSpaceOnUse">
			<stop offset="0.012343" stop-color="#A54000"/>
			<stop offset="1.000000" stop-color="#F67F22" stop-opacity="0.000000"/>
		</linearGradient>
		<linearGradient x1="247.925674" y1="45.868797" x2="198.741470" y2="92.658157" id="paint_linear_80_2266_0" gradientUnits="userSpaceOnUse">
			<stop offset="0.100487" stop-color="#4799ED"/>
			<stop offset="1.000000" stop-color="#77CDFB"/>
		</linearGradient>
		<linearGradient x1="205.607742" y1="-4.293359" x2="234.490524" y2="97.463654" id="paint_linear_80_2267_0" gradientUnits="userSpaceOnUse">
			<stop stop-color="#36BCF8"/>
			<stop offset="0.265149" stop-color="#A5DAFF"/>
			<stop offset="0.715692" stop-color="#CDEBFF"/>
			<stop offset="0.924672" stop-color="#80C9FF"/>
			<stop offset="1.000000" stop-color="#64B8F5" stop-opacity="0.000000"/>
		</linearGradient>
	</defs>
	<g clip-path="url(#clip78_3559)">
		<path id="矩形备份 113" d="M65.58 0L188.38 0C194.19 0 199.77 2.29 203.9 6.38L287.46 89.13C291.64 93.27 294 98.91 294 104.8L294 312.41C294 325.44 283.44 336 270.41 336L65.58 336C52.55 336 42 325.44 42 312.41L42 23.58C42 10.55 52.55 0 65.58 0Z" fill="url(#paint_linear_80_2263_0)" fill-opacity="1.000000" fill-rule="evenodd"/>
		<path id="矩形备份 113" d="M65.58 0L188.38 0C194.19 0 199.77 2.29 203.9 6.38L287.46 89.13C291.64 93.27 294 98.91 294 104.8L294 312.41C294 325.44 283.44 336 270.41 336L65.58 336C52.55 336 42 325.44 42 312.41L42 23.58C42 10.55 52.55 0 65.58 0Z" fill="url(#paint_linear_80_2263_1)" fill-opacity="0" fill-rule="evenodd"/>
		<g style="mix-blend-mode:normal">
			<path id="矩形 2" d="M197.08 64.1L197.08 35L196.89 17.5C196.84 11.89 194.55 6.54 190.55 2.62L187.87 0L191.68 0C196.55 0 201.2 1.96 204.59 5.45L208.87 9.85L221.39 22.28L246.45 47.15L271.5 72.02L286.87 87.27C291.42 91.78 293.97 97.91 293.97 104.31L293.97 105.36L291.38 102.77C287.38 98.77 281.95 96.52 276.29 96.52L258.6 96.52L229.5 96.52C211.6 96.52 197.08 82 197.08 64.1Z" fill="url(#paint_linear_80_2266_0)" fill-opacity="1.000000" fill-rule="evenodd"/>
		</g>
		<path id="减去顶层" d="M185.92 1.49902L189.964 4.3916C191.09 5.19702 192.085 6.11255 192.949 7.13843L192.949 7.13843C193.7 8.02954 194.353 9.00366 194.906 10.0608C195.559 11.3071 196.033 12.5933 196.33 13.9189C196.578 15.0269 196.702 16.1624 196.702 17.3259L196.86 49.9805L196.887 64.8433C196.887 67.8323 197.298 70.6982 198.12 73.4409C198.639 75.1714 199.321 76.8528 200.167 78.4851C200.373 78.8816 200.587 79.2734 200.81 79.6602C202.672 82.8965 205.131 85.7898 208.187 88.3398C209.791 89.6792 211.485 90.8655 213.268 91.8987C214.861 92.8225 216.527 93.624 218.264 94.303C221.743 95.6633 224.995 96.3435 228.019 96.3435C229.05 96.3435 229.86 95.5327 229.86 94.5012C229.86 93.4695 229.05 92.6589 228.019 92.6589C225.458 92.6589 222.653 92.063 219.605 90.8713C218.055 90.2651 216.567 89.5505 215.144 88.7268C213.531 87.7944 211.999 86.7224 210.548 85.511C207.686 83.1226 205.418 80.407 203.745 77.3645L203.745 77.364C203.036 75.9961 202.151 74.0132 201.706 72.5645C200.949 70.1072 200.571 67.5334 200.571 64.8433L200.545 49.9739L200.387 17.3081C200.387 15.8999 200.239 14.5244 199.943 13.1816L199.943 13.1812C199.578 11.5217 198.987 9.91211 198.17 8.35205C197.481 7.03564 196.668 5.82446 195.73 4.71875L195.73 4.71875C194.679 3.47827 193.472 2.37036 192.107 1.39478L191.159 0.716309C189.964 0.000976562 189.783 0.000976562 185.588 0.000976562L183.78 0.000976562L185.92 1.49902Z" clip-rule="evenodd" fill="url(#paint_linear_80_2267_0)" fill-opacity="1.000000" fill-rule="evenodd"/>
		<g style="mix-blend-mode:normal">
			<path id="合并" d="M107.155 183.877L127.983 164.038C130.201 161.925 133.605 162.008 135.718 164.227C136.741 165.301 137.25 166.654 137.25 168.003C137.25 169.439 136.674 170.872 135.53 171.962L119.841 186.905L136.413 213.758C136.978 214.673 137.247 215.674 137.247 216.658C137.247 218.48 136.323 220.242 134.631 221.287C132.023 222.896 128.71 222.112 127.102 219.505L111.743 194.618L107.155 198.988L107.155 216.632C107.155 219.696 104.748 222.103 101.684 222.103C98.6201 222.103 96.2129 219.696 96.2129 216.632L96.2129 168C96.2129 164.937 98.6201 162.529 101.684 162.529C104.748 162.529 107.155 164.937 107.155 168L107.155 183.877ZM161.352 162.529C163.547 162.529 165.691 162.76 167.785 163.222C169.542 163.61 171.263 164.16 172.947 164.872C174.64 165.588 176.24 166.444 177.748 167.439C179.416 168.54 180.972 169.811 182.414 171.254C183.856 172.696 185.128 174.251 186.229 175.919C187.224 177.427 188.079 179.028 188.795 180.72C189.508 182.405 190.058 184.125 190.445 185.882C190.907 187.976 191.138 190.12 191.138 192.316C191.138 194.512 190.907 196.656 190.445 198.75C190.058 200.507 189.508 202.227 188.795 203.912C188.079 205.604 187.224 207.205 186.229 208.713C185.128 210.381 183.856 211.936 182.414 213.379C180.972 214.821 179.416 216.093 177.748 217.193C176.24 218.188 174.64 219.044 172.947 219.76C171.263 220.472 169.542 221.023 167.785 221.41C165.691 221.872 163.547 222.103 161.352 222.103L153.085 222.103C151.574 222.103 150.284 221.569 149.216 220.5C148.147 219.432 147.613 218.143 147.613 216.632L147.613 168C147.613 166.49 148.147 165.2 149.216 164.132C149.75 163.598 150.34 163.197 150.984 162.93C151.629 162.663 152.329 162.529 153.085 162.529L161.352 162.529ZM199.016 216.632L199.016 168C199.016 164.937 201.423 162.529 204.486 162.529C207.551 162.529 209.958 164.937 209.958 168L209.958 186.417L233.344 186.417L233.344 168C233.344 164.937 235.751 162.529 238.814 162.529C241.878 162.529 244.285 164.937 244.285 168L244.285 216.632C244.285 219.696 241.878 222.103 238.814 222.103C235.751 222.103 233.344 219.696 233.344 216.632L233.344 197.359L209.958 197.359L209.958 216.632C209.958 219.696 207.551 222.103 204.486 222.103C201.423 222.103 199.016 219.696 199.016 216.632ZM161.352 173.471L158.556 173.471L158.556 211.161L161.352 211.161C162.808 211.161 164.227 211.001 165.609 210.682C166.656 210.44 167.681 210.107 168.685 209.682C169.722 209.243 170.705 208.721 171.634 208.116C172.723 207.406 173.737 206.581 174.677 205.641C175.616 204.702 176.441 203.688 177.151 202.598C177.757 201.67 178.278 200.687 178.718 199.65C179.142 198.646 179.476 197.621 179.717 196.574C180.036 195.192 180.196 193.772 180.196 192.316C180.196 190.86 180.036 189.44 179.717 188.058C179.476 187.012 179.142 185.987 178.718 184.983C178.278 183.945 177.757 182.962 177.151 182.034C176.441 180.945 175.616 179.93 174.677 178.991C173.737 178.052 172.723 177.227 171.634 176.517L171.634 176.516C170.705 175.911 169.723 175.389 168.685 174.95C167.681 174.525 166.655 174.192 165.609 173.95C164.227 173.631 162.808 173.471 161.352 173.471Z" clip-rule="evenodd" fill="#FFFFFF" fill-opacity="1.000000" fill-rule="evenodd"/>
		</g>
	</g>
</svg>
