<svg width="336.000000" height="336.000000" viewBox="0 0 336 336" fill="none" xmlns="http://www.w3.org/2000/svg" xmlns:xlink="http://www.w3.org/1999/xlink">
	<desc>
			Created with Pixso.
	</desc>
	<defs>
		<clipPath id="clip78_3511">
			<rect id="ic_light txt" width="336.000000" height="336.000000" fill="white" fill-opacity="0"/>
		</clipPath>
		<linearGradient x1="168.000000" y1="0.000000" x2="168.000000" y2="336.000000" id="paint_linear_80_2239_0" gradientUnits="userSpaceOnUse">
			<stop stop-color="#55BFF2"/>
			<stop offset="1.000000" stop-color="#3898F7"/>
		</linearGradient>
		<linearGradient x1="289.026459" y1="79.026276" x2="254.578918" y2="105.368423" id="paint_linear_80_2239_1" gradientUnits="userSpaceOnUse">
			<stop offset="0.012343" stop-color="#A54000"/>
			<stop offset="1.000000" stop-color="#F67F22" stop-opacity="0.000000"/>
		</linearGradient>
		<linearGradient x1="247.926651" y1="45.869041" x2="198.742447" y2="92.658401" id="paint_linear_80_2242_0" gradientUnits="userSpaceOnUse">
			<stop offset="0.100487" stop-color="#4799ED"/>
			<stop offset="1.000000" stop-color="#77CDFB"/>
		</linearGradient>
		<linearGradient x1="205.607742" y1="-4.293359" x2="234.490524" y2="97.463654" id="paint_linear_80_2243_0" gradientUnits="userSpaceOnUse">
			<stop stop-color="#36BCF8"/>
			<stop offset="0.265149" stop-color="#A5DAFF"/>
			<stop offset="0.715692" stop-color="#CDEBFF"/>
			<stop offset="0.924672" stop-color="#80C9FF"/>
			<stop offset="1.000000" stop-color="#64B8F5" stop-opacity="0.000000"/>
		</linearGradient>
	</defs>
	<g clip-path="url(#clip78_3511)">
		<path id="矩形备份 113" d="M65.58 0L188.38 0C194.19 0 199.77 2.29 203.9 6.38L287.46 89.13C291.64 93.27 294 98.91 294 104.8L294 312.41C294 325.44 283.44 336 270.41 336L65.58 336C52.55 336 42 325.44 42 312.41L42 23.58C42 10.55 52.55 0 65.58 0Z" fill="url(#paint_linear_80_2239_0)" fill-opacity="1.000000" fill-rule="evenodd"/>
		<path id="矩形备份 113" d="M65.58 0L188.38 0C194.19 0 199.77 2.29 203.9 6.38L287.46 89.13C291.64 93.27 294 98.91 294 104.8L294 312.41C294 325.44 283.44 336 270.41 336L65.58 336C52.55 336 42 325.44 42 312.41L42 23.58C42 10.55 52.55 0 65.58 0Z" fill="url(#paint_linear_80_2239_1)" fill-opacity="0" fill-rule="evenodd"/>
		<g style="mix-blend-mode:normal">
			<path id="矩形 2" d="M197.08 64.1L197.08 35L196.9 17.5C196.84 11.89 194.56 6.54 190.55 2.62L187.87 0L191.68 0C196.55 0 201.2 1.96 204.59 5.45L208.87 9.85L221.4 22.29L246.45 47.15L271.5 72.02L286.88 87.27C291.42 91.78 293.97 97.91 293.97 104.31L293.97 105.36L291.39 102.77C287.38 98.77 281.95 96.52 276.29 96.52L258.61 96.52L229.5 96.52C211.6 96.52 197.08 82.01 197.08 64.1Z" fill="url(#paint_linear_80_2242_0)" fill-opacity="1.000000" fill-rule="evenodd"/>
		</g>
		<path id="减去顶层" d="M185.92 1.49902L189.964 4.3916C191.09 5.19678 192.085 6.11279 192.949 7.13818L192.949 7.13867C193.7 8.0293 194.353 9.00342 194.906 10.061C195.559 11.3071 196.033 12.5933 196.33 13.9189C196.578 15.0269 196.702 16.1626 196.702 17.3257L196.86 49.9805L196.887 64.8433C196.887 67.8325 197.298 70.6982 198.12 73.4409C198.639 75.1714 199.321 76.8525 200.167 78.4849C200.373 78.8818 200.587 79.2734 200.81 79.6602C202.672 82.8965 205.131 85.79 208.187 88.3398C209.791 89.6792 211.485 90.8657 213.268 91.8984C214.861 92.8228 216.527 93.624 218.264 94.3027C221.743 95.6631 224.995 96.3433 228.019 96.3433C229.05 96.3433 229.86 95.5327 229.86 94.501C229.86 93.4692 229.05 92.6587 228.019 92.6587C225.458 92.6587 222.653 92.063 219.605 90.8711C218.055 90.2651 216.567 89.5503 215.144 88.7271C213.531 87.7944 211.999 86.7227 210.548 85.5112C207.686 83.1226 205.418 80.4067 203.745 77.3643L203.745 77.3638C203.036 75.9961 202.151 74.0132 201.706 72.5645C200.949 70.1069 200.571 67.5332 200.571 64.8433L200.545 49.9741L200.387 17.3081C200.387 15.8999 200.239 14.5244 199.943 13.1816L199.943 13.1812C199.578 11.522 198.987 9.91211 198.17 8.35205C197.481 7.03564 196.668 5.82471 195.73 4.71875L195.73 4.71875C194.679 3.47852 193.472 2.37012 192.107 1.39502L191.159 0.716309C189.964 0.000976562 189.783 0.000976562 185.588 0.000976562L183.78 0.000976562L185.92 1.49902Z" clip-rule="evenodd" fill="url(#paint_linear_80_2243_0)" fill-opacity="1.000000" fill-rule="evenodd"/>
		<path id="合并" d="M161.946 190.45L149.188 211.712C147.822 213.986 148.537 216.844 150.811 218.208C153.084 219.573 155.942 218.859 157.307 216.585L167.469 199.652L177.63 216.585C178.994 218.859 181.853 219.573 184.126 218.208C186.4 216.844 187.114 213.986 185.75 211.712L172.99 190.45L185.75 169.188C187.114 166.914 186.399 164.056 184.126 162.691C181.853 161.327 178.994 162.041 177.63 164.315L167.469 181.248L157.308 164.315C155.943 162.041 153.085 161.327 150.812 162.691C148.537 164.056 147.823 166.914 149.188 169.188L161.946 190.45ZM116.667 162.017L132.451 162.017C135.104 162.017 137.187 164.1 137.187 166.752C137.187 169.403 135.104 171.487 132.451 171.487L121.331 171.487L121.331 214.149C121.331 216.8 119.248 218.884 116.597 218.884C113.944 218.884 111.861 216.8 111.861 214.149L111.861 171.487L100.736 171.487C98.084 171.487 96.001 169.403 96.001 166.752C96.001 164.1 98.084 162.017 100.736 162.017L116.525 162.017C116.549 162.017 116.572 162.016 116.597 162.016C116.62 162.016 116.644 162.017 116.667 162.017ZM217.582 162.017L233.367 162.017C236.019 162.017 238.103 164.1 238.103 166.752C238.103 169.403 236.019 171.487 233.367 171.487L222.246 171.487L222.246 214.149C222.246 216.8 220.163 218.884 217.512 218.884C214.859 218.884 212.776 216.8 212.776 214.149L212.776 171.487L201.651 171.487C199 171.487 196.916 169.403 196.916 166.752C196.916 164.1 199 162.017 201.651 162.017L217.44 162.017C217.464 162.017 217.487 162.016 217.512 162.016C217.535 162.016 217.559 162.017 217.582 162.017Z" clip-rule="evenodd" fill="#FFFFFF" fill-opacity="1.000000" fill-rule="evenodd"/>
	</g>
</svg>
