<svg width="336.000000" height="336.000000" viewBox="0 0 336 336" fill="none" xmlns="http://www.w3.org/2000/svg" xmlns:xlink="http://www.w3.org/1999/xlink">
	<desc>
			Created with Pixso.
	</desc>
	<defs>
		<clipPath id="clip78_3631">
			<rect id="ic_light xml" width="336.000000" height="336.000000" fill="white" fill-opacity="0"/>
		</clipPath>
		<linearGradient x1="168.000000" y1="0.000000" x2="168.000000" y2="336.000000" id="paint_linear_80_2343_0" gradientUnits="userSpaceOnUse">
			<stop stop-color="#C0CBD4"/>
			<stop offset="1.000000" stop-color="#9EB0BC"/>
		</linearGradient>
		<linearGradient x1="247.926651" y1="45.868553" x2="198.742447" y2="92.657913" id="paint_linear_80_2345_0" gradientUnits="userSpaceOnUse">
			<stop offset="0.100487" stop-color="#97ABB8"/>
			<stop offset="1.000000" stop-color="#D7E2E9"/>
		</linearGradient>
		<linearGradient x1="205.607727" y1="-4.294811" x2="231.403839" y2="96.341965" id="paint_linear_80_2346_0" gradientUnits="userSpaceOnUse">
			<stop stop-color="#9EB0BC"/>
			<stop offset="0.332341" stop-color="#D2DDE4"/>
			<stop offset="0.685898" stop-color="#EDF7FE"/>
			<stop offset="0.879007" stop-color="#DBE5EB"/>
			<stop offset="1.000000" stop-color="#C1CFD8" stop-opacity="0.000000"/>
		</linearGradient>
	</defs>
	<g clip-path="url(#clip78_3631)">
		<path id="矩形备份 113" d="M65.58 0L188.38 0C194.19 0 199.77 2.29 203.9 6.38L287.46 89.13C291.64 93.27 294 98.91 294 104.8L294 312.41C294 325.44 283.44 336 270.41 336L65.58 336C52.55 336 42 325.44 42 312.41L42 23.58C42 10.55 52.55 0 65.58 0Z" fill="url(#paint_linear_80_2343_0)" fill-opacity="1.000000" fill-rule="evenodd"/>
		<g style="mix-blend-mode:normal">
			<path id="矩形 2" d="M197.08 64.1L197.08 35L196.9 17.5C196.84 11.89 194.56 6.54 190.55 2.62L187.87 0L191.68 0C196.55 0 201.2 1.96 204.59 5.45L208.87 9.85L221.4 22.28L246.45 47.15L271.5 72.02L286.88 87.27C291.42 91.78 293.97 97.91 293.97 104.31L293.97 105.36L291.39 102.77C287.38 98.77 281.95 96.52 276.29 96.52L258.61 96.52L229.5 96.52C211.6 96.52 197.08 82 197.08 64.1Z" fill="url(#paint_linear_80_2345_0)" fill-opacity="1.000000" fill-rule="evenodd"/>
		</g>
		<path id="减去顶层" d="M183.787 -0.000488281L183.78 -0.000488281L185.92 1.49756L189.964 4.39014C191.09 5.19531 192.085 6.11133 192.949 7.13672L192.949 7.13721C193.7 8.02783 194.353 9.00195 194.906 10.0596C195.559 11.3057 196.033 12.5918 196.33 13.9175C196.578 15.0254 196.702 16.1611 196.702 17.3242L196.86 49.979L196.887 64.8418C196.887 67.8311 197.298 70.6968 198.12 73.4395C198.639 75.1699 199.321 76.8511 200.167 78.4834C200.373 78.8804 200.587 79.272 200.81 79.6587C202.672 82.895 205.131 85.7886 208.187 88.3384C209.791 89.6777 211.485 90.8643 213.268 91.897C214.861 92.8213 216.527 93.6226 218.264 94.3013C221.743 95.6616 224.995 96.3418 228.019 96.3418C229.05 96.3418 229.86 95.5312 229.86 94.4995C229.86 93.4678 229.05 92.6572 228.019 92.6572C225.458 92.6572 222.653 92.0615 219.605 90.8696C218.055 90.2637 216.567 89.5488 215.144 88.7256C213.531 87.793 211.999 86.7212 210.548 85.5098C207.686 83.1211 205.418 80.4053 203.745 77.3628L203.745 77.3623C203.036 75.9946 202.151 74.0117 201.706 72.563C200.949 70.1055 200.571 67.5317 200.571 64.8418L200.545 49.9727L200.387 17.3066C200.387 15.8984 200.239 14.5229 199.943 13.1802L199.943 13.1797C199.578 11.5205 198.987 9.91064 198.17 8.35059C197.481 7.03418 196.668 5.82324 195.73 4.71729L195.73 4.71729C194.679 3.47705 193.472 2.36865 192.107 1.39355L191.159 0.714844C190.074 0.0654297 189.825 0.00537109 186.649 0L183.787 0L183.787 -0.000488281Z" clip-rule="evenodd" fill="url(#paint_linear_80_2346_0)" fill-opacity="1.000000" fill-rule="evenodd"/>
		<g style="mix-blend-mode:normal">
			<path id="合并" d="M110.501 191.92L97.9434 170.746C96.5908 168.465 97.3193 165.61 99.6006 164.258C101.881 162.905 104.735 163.634 106.088 165.915L116.007 182.638L125.925 165.915C127.277 163.634 130.132 162.905 132.412 164.258C134.693 165.61 135.422 168.465 134.069 170.746L121.512 191.919L134.071 213.097C135.424 215.377 134.695 218.232 132.414 219.585C130.134 220.938 127.279 220.208 125.927 217.928L116.007 201.202L106.086 217.928C104.733 220.208 101.879 220.938 99.5986 219.585C97.3174 218.232 96.5889 215.377 97.9414 213.097L110.501 191.92ZM223.332 168.33L223.332 211.788L243.485 211.788C246.137 211.788 248.221 213.871 248.221 216.522C248.221 219.174 246.137 221.257 243.485 221.257L218.597 221.257C217.289 221.257 216.173 220.795 215.249 219.871C214.324 218.946 213.861 217.83 213.861 216.522L213.861 168.33C213.861 165.678 215.945 163.595 218.597 163.595C221.248 163.595 223.332 165.678 223.332 168.33ZM192.575 216.962L192.575 182.835L179.253 218.615C179.024 219.227 178.705 219.754 178.294 220.197L178.294 220.197L178.293 220.197C177.882 220.64 177.379 220.997 176.785 221.269C175.596 221.812 174.389 221.856 173.163 221.4C172.509 221.156 171.937 220.786 171.446 220.29C170.956 219.793 170.593 219.216 170.357 218.559L157.511 182.685L157.349 216.985C157.337 219.636 155.243 221.71 152.592 221.697C149.94 221.685 147.866 219.592 147.879 216.94L148.104 169.422C148.109 168.119 148.574 167.008 149.498 166.088C150.422 165.169 151.535 164.709 152.838 164.709L157.799 164.709C158.798 164.709 159.707 164.998 160.524 165.573C160.934 165.861 161.282 166.194 161.57 166.573C161.859 166.953 162.088 167.377 162.256 167.848L174.902 203.16L188.071 167.792C188.243 167.33 188.474 166.912 188.763 166.539L188.764 166.538C189.053 166.166 189.4 165.838 189.807 165.556C190.213 165.274 190.641 165.062 191.091 164.921L191.092 164.921L191.092 164.921C191.542 164.78 192.014 164.709 192.509 164.709L197.31 164.709C198.617 164.709 199.733 165.172 200.658 166.096C201.583 167.021 202.045 168.137 202.045 169.444L202.045 216.962C202.045 219.614 199.962 221.697 197.31 221.697C194.658 221.697 192.575 219.614 192.575 216.962Z" clip-rule="evenodd" fill="#FFFFFF" fill-opacity="1.000000" fill-rule="evenodd"/>
		</g>
	</g>
</svg>
