<svg width="336.000000" height="336.000000" viewBox="0 0 336 336" fill="none" xmlns="http://www.w3.org/2000/svg" xmlns:xlink="http://www.w3.org/1999/xlink">
	<desc>
			Created with Pixso.
	</desc>
	<defs>
		<clipPath id="clip78_3296">
			<rect id="ic_light wav" width="336.000000" height="336.000000" fill="white" fill-opacity="0"/>
		</clipPath>
		<linearGradient x1="168.000000" y1="0.369141" x2="168.000000" y2="336.369141" id="paint_linear_80_2175_0" gradientUnits="userSpaceOnUse">
			<stop stop-color="#FF6D81"/>
			<stop offset="1.000000" stop-color="#F03F64"/>
		</linearGradient>
		<linearGradient x1="247.925674" y1="45.868553" x2="198.741470" y2="92.657913" id="paint_linear_80_2177_0" gradientUnits="userSpaceOnUse">
			<stop offset="0.100487" stop-color="#EF4161"/>
			<stop offset="1.000000" stop-color="#FA7286"/>
		</linearGradient>
		<linearGradient x1="205.606766" y1="-4.294580" x2="236.694397" y2="99.142822" id="paint_linear_80_2178_0" gradientUnits="userSpaceOnUse">
			<stop stop-color="#F85A72"/>
			<stop offset="0.254966" stop-color="#FF9EA5"/>
			<stop offset="0.670781" stop-color="#FFB1BE"/>
			<stop offset="0.942386" stop-color="#F7637B"/>
			<stop offset="1.000000" stop-color="#F45973" stop-opacity="0.000000"/>
		</linearGradient>
	</defs>
	<g clip-path="url(#clip78_3296)">
		<path id="矩形备份 113" d="M65.58 0.36L188.38 0.36C194.19 0.36 199.77 2.66 203.9 6.75L287.46 89.5C291.64 93.64 294 99.28 294 105.17L294 312.78C294 325.81 283.44 336.36 270.41 336.36L65.58 336.36C52.55 336.36 42 325.81 42 312.78L42 23.95C42 10.92 52.55 0.36 65.58 0.36Z" fill="url(#paint_linear_80_2175_0)" fill-opacity="1.000000" fill-rule="evenodd"/>
		<g style="mix-blend-mode:normal">
			<path id="矩形 2" d="M197.08 64.1L197.08 35L196.89 17.5C196.84 11.89 194.55 6.54 190.55 2.62L187.87 0L191.68 0C196.55 0 201.2 1.96 204.59 5.45L208.87 9.85L221.39 22.28L246.45 47.15L271.5 72.02L286.87 87.27C291.42 91.78 293.97 97.91 293.97 104.31L293.97 105.36L291.38 102.77C287.38 98.77 281.95 96.52 276.29 96.52L258.6 96.52L229.5 96.52C211.6 96.52 197.08 82 197.08 64.1Z" fill="url(#paint_linear_80_2177_0)" fill-opacity="1.000000" fill-rule="evenodd"/>
		</g>
		<path id="减去顶层" d="M183.786 -0.000244141L183.779 -0.000244141L185.919 1.4978L189.963 4.39038C191.089 5.1958 192.084 6.11133 192.948 7.13721L192.948 7.13721C193.699 8.02832 194.352 9.00244 194.905 10.0596C195.558 11.3059 196.032 12.592 196.329 13.9177C196.577 15.0256 196.701 16.1611 196.701 17.3247L196.859 49.9792L196.886 64.842C196.886 67.8311 197.297 70.697 198.119 73.4397C198.638 75.1702 199.32 76.8516 200.166 78.4839C200.372 78.8804 200.586 79.2722 200.809 79.6589C202.671 82.8955 205.13 85.7886 208.186 88.3386C209.79 89.6782 211.484 90.8643 213.267 91.8975C214.86 92.8213 216.526 93.6228 218.263 94.3018C221.742 95.6621 224.994 96.3423 228.018 96.3423C229.049 96.3423 229.859 95.5315 229.859 94.5C229.859 93.4683 229.049 92.6577 228.018 92.6577C225.457 92.6577 222.652 92.0618 219.604 90.8701C218.054 90.2639 216.566 89.5493 215.143 88.7256C213.53 87.7932 211.998 86.7212 210.547 85.5098C207.685 83.1213 205.417 80.4058 203.744 77.3633L203.744 77.3628C203.035 75.9949 202.15 74.012 201.705 72.5632C200.948 70.106 200.57 67.5322 200.57 64.842L200.544 49.9727L200.386 17.3069C200.386 15.8987 200.238 14.5232 199.942 13.1804L199.942 13.1799C199.577 11.5205 198.986 9.91089 198.169 8.35083C197.48 7.03442 196.667 5.82324 195.729 4.71753L195.729 4.71753C194.678 3.47705 193.471 2.36914 192.106 1.39355L191.158 0.715088C190.073 0.0656738 189.824 0.00585938 186.648 0.000244141L183.786 0.000244141L183.786 -0.000244141Z" clip-rule="evenodd" fill="url(#paint_linear_80_2178_0)" fill-opacity="1.000000" fill-rule="evenodd"/>
		<g style="mix-blend-mode:normal">
			<path id="合并" d="M158.677 272.626L172.458 236.348C172.813 235.413 173.448 234.74 174.36 234.33C174.817 234.125 175.276 234.015 175.738 234.001L175.738 234.001L175.738 234.001C176.2 233.988 176.665 234.07 177.133 234.248C177.627 234.435 178.06 234.717 178.43 235.094C178.615 235.282 178.776 235.486 178.914 235.704C179.052 235.922 179.165 236.156 179.255 236.404L192.357 272.682C193.047 274.591 192.089 276.632 190.181 277.322C188.271 278.011 186.23 277.053 185.541 275.144L182.424 266.513L168.752 266.513L165.452 275.2C164.731 277.097 162.675 278.022 160.777 277.301C158.881 276.58 157.956 274.523 158.677 272.626ZM120.731 260.409L115.155 237.142C114.682 235.167 112.759 233.988 110.785 234.461C108.811 234.934 107.631 236.857 108.104 238.832L116.626 274.389C116.859 275.363 117.403 276.111 118.256 276.635C119.109 277.158 120.023 277.303 120.997 277.07C121.604 276.924 122.139 276.64 122.6 276.218C123.061 275.796 123.391 275.289 123.589 274.697L132.038 249.495L140.312 274.676C140.625 275.627 141.228 276.328 142.121 276.78C143.015 277.231 143.938 277.301 144.889 276.988C145.481 276.793 145.99 276.467 146.415 276.009C146.839 275.552 147.126 275.02 147.276 274.413L156.058 238.856C156.544 236.885 155.378 234.954 153.407 234.467C151.437 233.98 149.505 235.146 149.019 237.117L143.262 260.427L135.517 236.855C135.338 236.311 135.047 235.836 134.644 235.431C134.24 235.025 133.767 234.731 133.225 234.549C132.275 234.231 131.353 234.295 130.456 234.741C129.561 235.188 128.953 235.885 128.635 236.834L120.731 260.409ZM197.933 234.603C199.828 233.874 201.889 234.791 202.617 236.686L212.905 263.442L223.192 236.686C223.921 234.791 225.982 233.874 227.877 234.603C229.771 235.331 230.688 237.393 229.96 239.287L216.289 274.845C216.104 275.324 215.831 275.745 215.469 276.108C215.105 276.47 214.685 276.744 214.206 276.928C213.271 277.287 212.347 277.263 211.433 276.857C210.518 276.45 209.881 275.78 209.521 274.845L195.85 239.287C195.121 237.393 196.038 235.331 197.933 234.603ZM175.761 248.066L179.806 259.265L171.506 259.265L175.761 248.066Z" clip-rule="evenodd" fill="#FFFFFF" fill-opacity="1.000000" fill-rule="evenodd"/>
		</g>
		<g style="mix-blend-mode:normal">
			<path id="Shape Copy备份 25" d="M205.57 133.88L205.57 195.15C205.57 203.11 199.76 209.4 192.01 210.35C184.26 211.3 178.35 206.25 178.35 199.94C178.35 192.13 184.01 188.71 188.85 186.71C193.7 184.71 197.2 180.9 197.2 177.16L197.2 148.72C197.2 146.6 195.27 145 193.18 145.39L158.1 152C156.5 152.3 155.34 153.7 155.34 155.32L155.34 200.98C155.34 208.9 147.72 217.21 140.8 218.6C133.88 219.99 126 215.13 126 207.06C126 199 133.04 194.5 136.84 193.02C139.03 192.17 146.97 189.57 146.97 185.72L146.97 141.21C146.97 137.34 149.76 134.02 153.58 133.36L196.26 126.03C201.13 125.19 205.57 128.94 205.57 133.88Z" fill="#FFFFFF" fill-opacity="1.000000" fill-rule="evenodd"/>
		</g>
	</g>
</svg>
