<svg width="336.000000" height="336.000000" viewBox="0 0 336 336" fill="none" xmlns="http://www.w3.org/2000/svg" xmlns:xlink="http://www.w3.org/1999/xlink">
	<desc>
			Created with Pixso.
	</desc>
	<defs>
		<clipPath id="clip78_3879">
			<rect id="ic_light hinote" width="336.000000" height="336.000000" fill="white" fill-opacity="0"/>
		</clipPath>
		<linearGradient x1="168.000000" y1="0.000000" x2="168.000000" y2="336.000000" id="paint_linear_78_3880_0" gradientUnits="userSpaceOnUse">
			<stop stop-color="#55BFF2"/>
			<stop offset="1.000000" stop-color="#3898F7"/>
		</linearGradient>
		<linearGradient x1="247.926651" y1="45.869041" x2="198.742447" y2="92.658401" id="paint_linear_80_2208_0" gradientUnits="userSpaceOnUse">
			<stop offset="0.100487" stop-color="#4799ED"/>
			<stop offset="1.000000" stop-color="#77CDFB"/>
		</linearGradient>
		<linearGradient x1="205.607742" y1="-4.293359" x2="234.490524" y2="97.463654" id="paint_linear_80_2209_0" gradientUnits="userSpaceOnUse">
			<stop stop-color="#36BCF8"/>
			<stop offset="0.265149" stop-color="#A5DAFF"/>
			<stop offset="0.715692" stop-color="#CDEBFF"/>
			<stop offset="0.924672" stop-color="#80C9FF"/>
			<stop offset="1.000000" stop-color="#64B8F5" stop-opacity="0.000000"/>
		</linearGradient>
	</defs>
	<g clip-path="url(#clip78_3879)">
		<path id="矩形备份 113" d="M65.58 0L188.38 0C194.19 0 199.77 2.29 203.9 6.38L287.46 89.13C291.64 93.27 294 98.91 294 104.8L294 312.41C294 325.44 283.44 336 270.41 336L65.58 336C52.55 336 42 325.44 42 312.41L42 23.58C42 10.55 52.55 0 65.58 0Z" fill="url(#paint_linear_78_3880_0)" fill-opacity="1.000000" fill-rule="evenodd"/>
		<g style="mix-blend-mode:normal">
			<path id="矩形 2" d="M197.08 64.1L197.08 35L196.9 17.5C196.84 11.89 194.56 6.54 190.55 2.62L187.87 0L191.68 0C196.55 0 201.2 1.96 204.59 5.45L208.87 9.85L221.4 22.29L246.45 47.15L271.5 72.02L286.88 87.27C291.42 91.78 293.97 97.91 293.97 104.31L293.97 105.36L291.39 102.77C287.38 98.77 281.95 96.52 276.29 96.52L258.61 96.52L229.5 96.52C211.6 96.52 197.08 82.01 197.08 64.1Z" fill="url(#paint_linear_80_2208_0)" fill-opacity="1.000000" fill-rule="evenodd"/>
		</g>
		<path id="减去顶层" d="M185.92 1.49902L189.964 4.3916C191.09 5.19678 192.085 6.11279 192.949 7.13818L192.949 7.13867C193.7 8.0293 194.353 9.00342 194.906 10.061C195.559 11.3071 196.033 12.5933 196.33 13.9189C196.578 15.0269 196.702 16.1626 196.702 17.3257L196.86 49.9805L196.887 64.8433C196.887 67.8325 197.298 70.6982 198.12 73.4409C198.639 75.1714 199.321 76.8525 200.167 78.4849C200.373 78.8818 200.587 79.2734 200.81 79.6602C202.672 82.8965 205.131 85.79 208.187 88.3398C209.791 89.6792 211.485 90.8657 213.268 91.8984C214.861 92.8228 216.527 93.624 218.264 94.3027C221.743 95.6631 224.995 96.3433 228.019 96.3433C229.05 96.3433 229.86 95.5327 229.86 94.501C229.86 93.4692 229.05 92.6587 228.019 92.6587C225.458 92.6587 222.653 92.063 219.605 90.8711C218.055 90.2651 216.567 89.5503 215.144 88.7271C213.531 87.7944 211.999 86.7227 210.548 85.5112C207.686 83.1226 205.418 80.4067 203.745 77.3643L203.745 77.3638C203.036 75.9961 202.151 74.0132 201.706 72.5645C200.949 70.1069 200.571 67.5332 200.571 64.8433L200.545 49.9741L200.387 17.3081C200.387 15.8999 200.239 14.5244 199.943 13.1816L199.943 13.1812C199.578 11.522 198.987 9.91211 198.17 8.35205C197.481 7.03564 196.668 5.82471 195.73 4.71875L195.73 4.71875C194.679 3.47852 193.472 2.37012 192.107 1.39502L191.159 0.716309C189.964 0.000976562 189.783 0.000976562 185.588 0.000976562L183.78 0.000976562L185.92 1.49902Z" clip-rule="evenodd" fill="url(#paint_linear_80_2209_0)" fill-opacity="1.000000" fill-rule="evenodd"/>
		<g opacity="0.000000">
			<rect id="矩形 538" width="336.000000" height="336.000000" fill="#C4C4C4" fill-opacity="1.000000"/>
		</g>
		<g style="mix-blend-mode:normal">
			<path id="合并" d="M182.25 159.75C182.25 151.052 175.198 144 166.5 144L129.75 144C121.052 144 114 151.052 114 159.75L114 233.25C114 241.948 121.052 249 129.75 249L166.5 249C175.198 249 182.25 241.948 182.25 233.25L182.25 159.75ZM186.839 238.5L203.25 238.5C211.949 238.5 219 231.448 219 222.75L219 170.25C219 161.552 211.949 154.5 203.25 154.5L186.839 154.5C187.188 155.853 187.404 157.258 187.475 158.702L187.5 159.75L187.5 175.5L201.938 175.5C204.112 175.5 205.875 177.263 205.875 179.438C205.875 181.612 204.112 183.375 201.938 183.375L187.5 183.375L187.5 193.875L201.938 193.875C204.112 193.875 205.875 195.638 205.875 197.812C205.875 199.987 204.112 201.75 201.938 201.75L187.5 201.75L187.5 212.25L201.938 212.25C204.112 212.25 205.875 214.013 205.875 216.188C205.875 218.362 204.112 220.125 201.938 220.125L187.5 220.125L187.5 233.25C187.5 235.063 187.271 236.822 186.839 238.5ZM166.175 162.249C163.666 160.927 160.552 161.873 159.221 164.377L133.464 212.444C132.16 214.876 131.126 217.437 130.376 220.081C131.84 219.977 133.334 220.264 134.706 220.993C136.093 221.731 137.175 222.825 137.907 224.116C139.7 222.021 141.266 219.736 142.572 217.296L168.317 169.251C169.662 166.723 168.708 163.584 166.175 162.249ZM133.849 228.194C134.84 227.338 135.784 226.433 136.679 225.483C136.101 224.257 135.152 223.212 133.886 222.539C132.63 221.871 131.246 221.667 129.915 221.865C129.611 223.171 129.376 224.495 129.21 225.83L128.815 229.014C128.643 230.407 130.277 231.281 131.34 230.363L133.849 228.194Z" clip-rule="evenodd" fill="#FFFFFF" fill-opacity="1.000000" fill-rule="evenodd"/>
		</g>
	</g>
</svg>
