<svg width="336.000000" height="336.000000" viewBox="0 0 336 336" fill="none" xmlns="http://www.w3.org/2000/svg" xmlns:xlink="http://www.w3.org/1999/xlink">
	<desc>
			Created with Pixso.
	</desc>
	<defs>
		<clipPath id="clip78_3852">
			<rect id="ic_light hdoc" width="336.000000" height="336.000000" fill="white" fill-opacity="0"/>
		</clipPath>
		<linearGradient x1="168.000000" y1="0.000000" x2="168.000000" y2="336.000000" id="paint_linear_78_3853_0" gradientUnits="userSpaceOnUse">
			<stop stop-color="#FFDD71"/>
			<stop offset="1.000000" stop-color="#EDBA14"/>
		</linearGradient>
		<linearGradient x1="256.189758" y1="52.684208" x2="196.189743" y2="99.184242" id="paint_linear_80_2202_0" gradientUnits="userSpaceOnUse">
			<stop offset="0.001251" stop-color="#E0BA3E"/>
			<stop offset="1.000000" stop-color="#FCDB71"/>
		</linearGradient>
		<linearGradient x1="205.607727" y1="-4.294833" x2="244.632614" y2="99.142593" id="paint_linear_80_2203_0" gradientUnits="userSpaceOnUse">
			<stop stop-color="#FACE40"/>
			<stop offset="0.263916" stop-color="#FCD352"/>
			<stop offset="0.651073" stop-color="#FFEBA9"/>
			<stop offset="0.832627" stop-color="#FCD352"/>
			<stop offset="0.933527" stop-color="#FACE40" stop-opacity="0.615686"/>
		</linearGradient>
	</defs>
	<g clip-path="url(#clip78_3852)">
		<path id="矩形备份 113" d="M65.58 0L188.38 0C194.19 0 199.77 2.29 203.9 6.38L287.46 89.13C291.64 93.27 294 98.91 294 104.8L294 312.41C294 325.44 283.44 336 270.41 336L65.58 336C52.55 336 42 325.44 42 312.41L42 23.58C42 10.55 52.55 0 65.58 0Z" fill="url(#paint_linear_78_3853_0)" fill-opacity="1.000000" fill-rule="evenodd"/>
		<g style="mix-blend-mode:normal">
			<path id="矩形 2" d="M197.08 64.1L197.08 35L196.9 17.5C196.84 11.89 194.56 6.54 190.55 2.62L187.87 0L191.68 0C196.55 0 201.2 1.96 204.59 5.45L208.87 9.85L221.4 22.28L246.45 47.15L271.5 72.02L286.88 87.27C291.42 91.78 293.97 97.91 293.97 104.31L293.97 105.36L291.39 102.77C287.38 98.77 281.95 96.52 276.29 96.52L258.61 96.52L229.5 96.52C211.6 96.52 197.08 82 197.08 64.1Z" fill="url(#paint_linear_80_2202_0)" fill-opacity="1.000000" fill-rule="evenodd"/>
		</g>
		<path id="减去顶层" d="M183.787 -0.000488281L183.78 -0.000488281L185.92 1.49756L189.964 4.39014C191.09 5.19531 192.085 6.11133 192.949 7.13672L192.949 7.13721C193.7 8.02783 194.353 9.00195 194.906 10.0596C195.559 11.3057 196.033 12.5918 196.33 13.9175C196.578 15.0254 196.702 16.1611 196.702 17.3242L196.86 49.979L196.887 64.8418C196.887 67.8311 197.298 70.6968 198.12 73.4395C198.639 75.1699 199.321 76.8511 200.167 78.4834C200.373 78.8804 200.587 79.272 200.81 79.6587C202.672 82.895 205.131 85.7886 208.187 88.3384C209.791 89.6777 211.485 90.8643 213.268 91.897C214.861 92.8213 216.527 93.6226 218.264 94.3013C221.743 95.6616 224.995 96.3418 228.019 96.3418C229.05 96.3418 229.86 95.5312 229.86 94.4995C229.86 93.4678 229.05 92.6572 228.019 92.6572C225.458 92.6572 222.653 92.0615 219.605 90.8696C218.055 90.2637 216.567 89.5488 215.144 88.7256C213.531 87.793 211.999 86.7212 210.548 85.5098C207.686 83.1211 205.418 80.4053 203.745 77.3628L203.745 77.3623C203.036 75.9946 202.151 74.0117 201.706 72.563C200.949 70.1055 200.571 67.5317 200.571 64.8418L200.545 49.9727L200.387 17.3066C200.387 15.8984 200.239 14.5229 199.943 13.1802L199.943 13.1797C199.578 11.5205 198.987 9.91064 198.17 8.35059C197.481 7.03418 196.668 5.82324 195.73 4.71729L195.73 4.71729C194.679 3.47705 193.472 2.36865 192.107 1.39355L191.159 0.714844C190.074 0.0654297 189.825 0.00537109 186.649 0L183.787 0L183.787 -0.000488281Z" clip-rule="evenodd" fill="url(#paint_linear_80_2203_0)" fill-opacity="1.000000" fill-rule="evenodd"/>
		<g style="mix-blend-mode:normal">
			<path id="合并" d="M196.105 138.001L138 138.001C124.745 138.001 114 148.747 114 162.001L114 166.738L220.105 166.738L220.105 162.001C220.105 148.747 209.36 138.001 196.105 138.001ZM114.002 171.16L220.107 171.16L220.107 205.708C220.107 219.149 220.107 225.87 217.491 231.003C215.19 235.52 211.519 239.191 207.003 241.492C201.869 244.108 195.148 244.108 181.707 244.108L152.401 244.108C138.961 244.108 132.24 244.108 127.105 241.492C122.59 239.191 118.919 235.52 116.617 231.003C114.002 225.87 114.002 219.149 114.002 205.708L114.002 171.16ZM128.368 203.765C128.368 195.216 135.306 188.291 143.871 188.291C152.437 188.291 159.375 195.216 159.375 203.765C159.375 212.314 152.437 219.239 143.871 219.239C135.306 219.239 128.368 212.314 128.368 203.765ZM167.484 194.31C167.484 192.271 169.137 190.62 171.175 190.62L204.257 190.62C206.295 190.62 207.947 192.271 207.947 194.31C207.947 196.348 206.295 198 204.257 198L171.175 198C169.137 198 167.484 196.348 167.484 194.31ZM152.365 195.376C152.552 195.257 152.763 195.169 153.002 195.169C153.667 195.169 154.207 195.705 154.207 196.366C154.207 196.671 154.082 196.944 153.892 197.155C153.892 197.157 153.892 197.157 153.893 197.158C153.888 197.164 153.883 197.169 153.879 197.174C153.865 197.189 153.854 197.206 153.84 197.221C150.151 201.427 147.07 205.999 143.588 212.217C143.582 212.209 143.576 212.205 143.57 212.198C143.32 212.631 142.87 212.936 142.332 212.936C141.85 212.936 141.443 212.686 141.18 212.326C141.177 212.334 141.171 212.339 141.167 212.348C139.18 209.813 137.605 208.073 135.108 205.911C134.677 205.537 134.422 205.211 134.276 204.921C134.257 204.882 134.232 204.847 134.216 204.806C134.153 204.652 134.129 204.512 134.129 204.381C134.128 204.347 134.11 204.319 134.11 204.285C134.11 203.491 134.758 202.848 135.557 202.848C135.737 202.848 135.906 202.89 136.066 202.95C136.069 202.95 136.08 202.947 136.08 202.947C136.085 202.949 136.096 202.955 136.102 202.957C136.115 202.963 136.127 202.968 136.141 202.974C136.914 203.304 140.681 205.743 141.273 206.142C145.182 201.796 148.565 198.103 152.348 195.352C152.353 195.362 152.358 195.367 152.365 195.376ZM171.175 209.532C169.137 209.532 167.484 211.184 167.484 213.222C167.484 215.26 169.137 216.913 171.175 216.913L204.257 216.913C206.295 216.913 207.947 215.26 207.947 213.222C207.947 211.184 206.295 209.532 204.257 209.532L171.175 209.532Z" clip-rule="evenodd" fill="#FFFFFF" fill-opacity="1.000000" fill-rule="evenodd"/>
		</g>
	</g>
</svg>
