<svg width="336.000000" height="336.000000" viewBox="0 0 336 336" fill="none" xmlns="http://www.w3.org/2000/svg" xmlns:xlink="http://www.w3.org/1999/xlink">
	<desc>
			Created with Pixso.
	</desc>
	<defs>
		<clipPath id="clip78_3420">
			<rect id="ic_light app" width="336.000000" height="336.000000" fill="white" fill-opacity="0"/>
		</clipPath>
		<linearGradient x1="168.000000" y1="0.369141" x2="168.000000" y2="336.369141" id="paint_linear_80_2088_0" gradientUnits="userSpaceOnUse">
			<stop stop-color="#71DF66"/>
			<stop offset="1.000000" stop-color="#4EBA45"/>
		</linearGradient>
		<linearGradient x1="247.926651" y1="45.868553" x2="198.742447" y2="92.657913" id="paint_linear_80_2090_0" gradientUnits="userSpaceOnUse">
			<stop offset="0.100487" stop-color="#41B837"/>
			<stop offset="1.000000" stop-color="#68DE5C"/>
		</linearGradient>
		<linearGradient x1="205.606750" y1="-4.294833" x2="244.631638" y2="99.142593" id="paint_linear_80_2091_0" gradientUnits="userSpaceOnUse">
			<stop stop-color="#65D75C"/>
			<stop offset="0.263916" stop-color="#81EC77"/>
			<stop offset="0.651073" stop-color="#B2FFAA"/>
			<stop offset="0.832627" stop-color="#94EB8A"/>
			<stop offset="0.933527" stop-color="#59CF4E" stop-opacity="0.615686"/>
		</linearGradient>
	</defs>
	<g clip-path="url(#clip78_3420)">
		<path id="矩形备份 113" d="M65.58 0.36L188.38 0.36C194.19 0.36 199.77 2.66 203.9 6.75L287.46 89.5C291.64 93.64 294 99.28 294 105.17L294 312.78C294 325.81 283.44 336.36 270.41 336.36L65.58 336.36C52.55 336.36 42 325.81 42 312.78L42 23.95C42 10.92 52.55 0.36 65.58 0.36Z" fill="url(#paint_linear_80_2088_0)" fill-opacity="1.000000" fill-rule="evenodd"/>
		<g style="mix-blend-mode:normal">
			<path id="矩形 2" d="M197.08 64.1L197.08 35L196.9 17.5C196.84 11.89 194.56 6.54 190.55 2.62L187.87 0L191.68 0C196.55 0 201.2 1.96 204.59 5.45L208.87 9.85L221.4 22.28L246.45 47.15L271.5 72.02L286.88 87.27C291.42 91.78 293.97 97.91 293.97 104.31L293.97 105.36L291.39 102.77C287.38 98.77 281.95 96.52 276.29 96.52L258.61 96.52L229.5 96.52C211.6 96.52 197.08 82 197.08 64.1Z" fill="url(#paint_linear_80_2090_0)" fill-opacity="1.000000" fill-rule="evenodd"/>
		</g>
		<path id="减去顶层" d="M183.786 -0.000488281L183.779 -0.000488281L185.919 1.49756L189.963 4.39014C191.089 5.19531 192.084 6.11133 192.948 7.13672L192.948 7.13721C193.699 8.02783 194.352 9.00195 194.905 10.0596C195.558 11.3057 196.032 12.5918 196.329 13.9175C196.577 15.0254 196.701 16.1611 196.701 17.3242L196.859 49.979L196.886 64.8418C196.886 67.8311 197.297 70.6968 198.119 73.4395C198.638 75.1699 199.32 76.8511 200.166 78.4834C200.372 78.8804 200.586 79.272 200.809 79.6587C202.671 82.895 205.13 85.7886 208.186 88.3384C209.79 89.6777 211.484 90.8643 213.267 91.897C214.86 92.8213 216.526 93.6226 218.263 94.3013C221.742 95.6616 224.994 96.3418 228.018 96.3418C229.049 96.3418 229.859 95.5312 229.859 94.4995C229.859 93.4678 229.049 92.6572 228.018 92.6572C225.457 92.6572 222.652 92.0615 219.604 90.8696C218.054 90.2637 216.566 89.5488 215.143 88.7256C213.53 87.793 211.998 86.7212 210.547 85.5098C207.685 83.1211 205.417 80.4053 203.744 77.3628L203.744 77.3623C203.035 75.9946 202.15 74.0117 201.705 72.563C200.948 70.1055 200.57 67.5317 200.57 64.8418L200.544 49.9727L200.386 17.3066C200.386 15.8984 200.238 14.5229 199.942 13.1802L199.942 13.1797C199.577 11.5205 198.986 9.91064 198.169 8.35059C197.48 7.03418 196.667 5.82324 195.729 4.71729L195.729 4.71729C194.678 3.47705 193.471 2.36865 192.106 1.39355L191.158 0.714844C190.073 0.0654297 189.824 0.00537109 186.648 0L183.786 0L183.786 -0.000488281Z" clip-rule="evenodd" fill="url(#paint_linear_80_2091_0)" fill-opacity="1.000000" fill-rule="evenodd"/>
		<g style="mix-blend-mode:normal">
			<path id="形状结合" d="M135.224 138.001L198.883 138.001C210.604 138.001 220.106 147.503 220.106 159.224L220.106 222.883C220.106 234.604 210.604 244.106 198.883 244.106L135.224 244.106C123.503 244.106 114.001 234.604 114.001 222.883L114.001 159.224C114.001 147.503 123.503 138.001 135.224 138.001ZM194.905 163.2C194.905 161.002 193.124 159.221 190.927 159.221C188.729 159.221 186.947 161.002 186.947 163.2C186.947 174.188 178.04 183.095 167.053 183.095C156.065 183.095 147.158 174.188 147.158 163.2C147.158 161.002 145.377 159.221 143.179 159.221C140.981 159.221 139.2 161.002 139.2 163.2C139.2 178.583 151.67 191.053 167.053 191.053C182.436 191.053 194.905 178.583 194.905 163.2Z" clip-rule="evenodd" fill="#FFFFFF" fill-opacity="1.000000" fill-rule="evenodd"/>
		</g>
	</g>
</svg>
