<svg width="336.000000" height="336.000000" viewBox="0 0 336 336" fill="none" xmlns="http://www.w3.org/2000/svg" xmlns:xlink="http://www.w3.org/1999/xlink">
	<desc>
			Created with Pixso.
	</desc>
	<defs>
		<clipPath id="clip78_3654">
			<rect id="ic_light 7z" width="336.000000" height="336.000000" fill="white" fill-opacity="0"/>
		</clipPath>
		<linearGradient x1="168.000000" y1="0.000000" x2="168.000000" y2="336.000000" id="paint_linear_78_3655_0" gradientUnits="userSpaceOnUse">
			<stop stop-color="#9FB1BD"/>
			<stop offset="1.000000" stop-color="#BFCAD3"/>
		</linearGradient>
	</defs>
	<g clip-path="url(#clip78_3654)">
		<rect id="矩形 540" x="42.000000" rx="23.566467" width="252.000000" height="336.000000" fill="url(#paint_linear_78_3655_0)" fill-opacity="1.000000"/>
		<path id="合并" d="M189 0L147 0L147 4.19922C147 8.83887 150.761 12.6001 155.4 12.6001L180.6 12.6001C185.239 12.6001 189 8.83887 189 4.19922L189 0ZM153.3 21L182.7 21C186.18 21 189 23.8208 189 27.2998C189 30.7793 186.18 33.6001 182.7 33.6001L153.3 33.6001C149.82 33.6001 147 30.7793 147 27.2998C147 23.8208 149.82 21 153.3 21ZM182.7 42L153.3 42C149.82 42 147 44.8208 147 48.2998C147 51.7793 149.82 54.6001 153.3 54.6001L182.7 54.6001C186.18 54.6001 189 51.7793 189 48.2998C189 44.8208 186.18 42 182.7 42ZM153.3 63L182.7 63C186.18 63 189 65.8208 189 69.2998C189 72.7793 186.18 75.6001 182.7 75.6001L153.3 75.6001C149.82 75.6001 147 72.7793 147 69.2998C147 65.8208 149.82 63 153.3 63ZM184.8 83.999L151.2 83.999C148.881 83.999 147 85.8794 147 88.1992L147 130.199C147 132.519 148.881 134.399 151.2 134.399L184.8 134.399C187.119 134.399 189 132.519 189 130.199L189 88.1992C189 85.8794 187.119 83.999 184.8 83.999ZM157.5 109.199L178.5 109.199C179.66 109.199 180.6 110.139 180.6 111.299L180.6 123.898C180.6 125.059 179.66 125.999 178.5 125.999L157.5 125.999C156.34 125.999 155.4 125.059 155.4 123.898L155.4 111.299C155.4 110.139 156.34 109.199 157.5 109.199Z" clip-rule="evenodd" fill="#FFFFFF" fill-opacity="1.000000" fill-rule="evenodd"/>
		<g opacity="0.000000">
			<rect id="矩形 541" width="336.000000" height="336.000000" fill="#C4C4C4" fill-opacity="1.000000"/>
		</g>
		<g style="mix-blend-mode:normal">
			<path id="合并" d="M176.924 173.999L206.42 173.999C207.872 173.999 209.112 174.513 210.14 175.54C210.653 176.054 211.038 176.621 211.295 177.24C211.552 177.86 211.681 178.534 211.681 179.26C211.681 179.78 211.605 180.288 211.454 180.786C211.304 181.283 211.084 181.748 210.796 182.18L186.758 218.209L206.42 218.209C209.365 218.209 211.681 220.524 211.681 223.471C211.681 226.417 209.365 228.731 206.42 228.731L176.924 228.731C176.404 228.731 175.896 228.656 175.398 228.506C174.901 228.355 174.437 228.135 174.004 227.847C172.796 227.041 172.049 225.925 171.765 224.5C171.48 223.076 171.741 221.759 172.548 220.551L196.585 184.521L176.924 184.521C173.978 184.521 171.663 182.206 171.663 179.26C171.663 176.314 173.978 173.999 176.924 173.999ZM131.262 174.001L159.383 174.001C160.108 174.001 160.782 174.129 161.402 174.386L161.402 174.386C162.022 174.643 162.589 175.028 163.103 175.542C163.616 176.055 164.001 176.622 164.258 177.242C164.515 177.862 164.644 178.536 164.644 179.262C164.644 179.897 164.532 180.512 164.31 181.106C164.087 181.701 163.768 182.237 163.351 182.716C162.701 183.462 161.861 184.537 160.83 185.942C158.724 188.812 156.793 191.82 155.036 194.965C152.596 199.335 150.685 203.648 149.3 207.904C147.609 213.103 146.765 218.055 146.765 222.761C146.765 225.708 144.449 228.022 141.504 228.022C138.558 228.022 136.242 225.708 136.242 222.761C136.242 216.943 137.26 210.906 139.294 204.65C140.89 199.742 143.075 194.804 145.85 189.835C146.86 188.024 147.924 186.253 149.04 184.523L131.262 184.523C128.315 184.523 126.001 182.208 126.001 179.262C126.001 176.315 128.315 174.001 131.262 174.001Z" clip-rule="evenodd" fill="#FFFFFF" fill-opacity="1.000000" fill-rule="evenodd"/>
		</g>
	</g>
</svg>
