<svg width="336.000000" height="336.000000" viewBox="0 0 336 336" fill="none" xmlns="http://www.w3.org/2000/svg" xmlns:xlink="http://www.w3.org/1999/xlink">
	<desc>
			Created with Pixso.
	</desc>
	<defs>
		<clipPath id="clip78_3380">
			<rect id="ic_light excel" width="336.000000" height="336.000000" fill="white" fill-opacity="0"/>
		</clipPath>
		<linearGradient x1="168.000000" y1="0.369141" x2="168.000000" y2="336.369141" id="paint_linear_80_2067_0" gradientUnits="userSpaceOnUse">
			<stop stop-color="#71DF66"/>
			<stop offset="1.000000" stop-color="#4EBA45"/>
		</linearGradient>
		<linearGradient x1="247.925674" y1="45.868553" x2="198.741470" y2="92.657913" id="paint_linear_80_2069_0" gradientUnits="userSpaceOnUse">
			<stop offset="0.100487" stop-color="#41B837"/>
			<stop offset="1.000000" stop-color="#68DE5C"/>
		</linearGradient>
		<linearGradient x1="205.606750" y1="-4.293857" x2="244.631638" y2="99.143570" id="paint_linear_80_2070_0" gradientUnits="userSpaceOnUse">
			<stop stop-color="#65D75C"/>
			<stop offset="0.263916" stop-color="#81EC77"/>
			<stop offset="0.651073" stop-color="#B2FFAA"/>
			<stop offset="0.832627" stop-color="#94EB8A"/>
			<stop offset="0.933527" stop-color="#59CF4E" stop-opacity="0.615686"/>
		</linearGradient>
	</defs>
	<g clip-path="url(#clip78_3380)">
		<path id="矩形备份 113" d="M65.58 0.36L188.38 0.36C194.19 0.36 199.77 2.66 203.9 6.75L287.46 89.5C291.64 93.64 294 99.28 294 105.17L294 312.78C294 325.81 283.44 336.36 270.41 336.36L65.58 336.36C52.55 336.36 42 325.81 42 312.78L42 23.95C42 10.92 52.55 0.36 65.58 0.36Z" fill="url(#paint_linear_80_2067_0)" fill-opacity="1.000000" fill-rule="evenodd"/>
		<g style="mix-blend-mode:normal">
			<path id="矩形 2" d="M197.08 64.1L197.08 35L196.89 17.5C196.84 11.89 194.55 6.54 190.55 2.62L187.87 0L191.68 0C196.55 0 201.2 1.96 204.59 5.45L208.87 9.85L221.39 22.28L246.45 47.15L271.5 72.02L286.87 87.27C291.42 91.78 293.97 97.91 293.97 104.31L293.97 105.36L291.38 102.77C287.38 98.77 281.95 96.52 276.29 96.52L258.6 96.52L229.5 96.52C211.6 96.52 197.08 82 197.08 64.1Z" fill="url(#paint_linear_80_2069_0)" fill-opacity="1.000000" fill-rule="evenodd"/>
		</g>
		<path id="减去顶层" d="M185.919 1.49854L189.963 4.39111C191.089 5.19629 192.084 6.1123 192.948 7.1377L192.948 7.13818C193.699 8.02881 194.352 9.00293 194.905 10.0605C195.558 11.3066 196.032 12.5928 196.329 13.9185C196.577 15.0264 196.701 16.1621 196.701 17.3252L196.859 49.98L196.886 64.8428C196.886 67.832 197.297 70.6978 198.119 73.4404C198.638 75.1709 199.32 76.8521 200.166 78.4844C200.372 78.8813 200.586 79.2729 200.809 79.6597C202.671 82.896 205.13 85.7896 208.186 88.3394C209.79 89.6787 211.484 90.8652 213.267 91.8979C214.86 92.8223 216.526 93.6235 218.263 94.3022C221.742 95.6626 224.994 96.3428 228.018 96.3428C229.049 96.3428 229.859 95.5322 229.859 94.5005C229.859 93.4688 229.049 92.6582 228.018 92.6582C225.457 92.6582 222.652 92.0625 219.604 90.8706C218.054 90.2646 216.566 89.5498 215.143 88.7266C213.53 87.7939 211.998 86.7222 210.547 85.5107C207.685 83.1221 205.417 80.4062 203.744 77.3638L203.744 77.3633C203.035 75.9956 202.15 74.0127 201.705 72.564C200.948 70.1064 200.57 67.5327 200.57 64.8428L200.544 49.9736L200.386 17.3076C200.386 15.8994 200.238 14.5239 199.942 13.1812L199.942 13.1807C199.577 11.5215 198.986 9.91162 198.169 8.35156C197.48 7.03516 196.667 5.82422 195.729 4.71826L195.729 4.71826C194.678 3.47803 193.471 2.36963 192.106 1.39453L191.158 0.71582C189.963 0.000488281 189.782 0.000488281 185.587 0.000488281L183.779 0.000488281L185.919 1.49854Z" clip-rule="evenodd" fill="url(#paint_linear_80_2070_0)" fill-opacity="1.000000" fill-rule="evenodd"/>
		<g opacity="0.000000">
			<rect id="矩形 538" width="336.000000" height="336.000000" fill="#C4C4C4" fill-opacity="1.000000"/>
		</g>
		<g style="mix-blend-mode:normal">
			<path id="合并" d="M154.858 197.506L115.923 146.736C112.809 142.675 113.552 137.037 117.613 133.922C121.675 130.807 127.313 131.551 130.428 135.612L166.376 182.488L201.888 136.183C205.002 132.122 210.641 131.378 214.702 134.493C218.763 137.607 219.507 143.246 216.393 147.307L177.895 197.506L214.752 245.567C217.866 249.628 217.122 255.267 213.062 258.381C209 261.496 203.361 260.752 200.247 256.69L166.376 212.525L132.068 257.261C128.954 261.323 123.315 262.066 119.254 258.952C115.192 255.837 114.449 250.199 117.563 246.137L154.858 197.506Z" clip-rule="evenodd" fill="#FFFFFF" fill-opacity="1.000000" fill-rule="evenodd"/>
		</g>
	</g>
</svg>
