<svg width="336.000000" height="336.000000" viewBox="0 0 336 336" fill="none" xmlns="http://www.w3.org/2000/svg" xmlns:xlink="http://www.w3.org/1999/xlink">
	<desc>
			Created with Pixso.
	</desc>
	<defs>
		<clipPath id="clip78_3282">
			<rect id="ic_light mp3" width="336.000000" height="336.000000" fill="white" fill-opacity="0"/>
		</clipPath>
		<linearGradient x1="168.000000" y1="0.369141" x2="168.000000" y2="336.369141" id="paint_linear_80_2136_0" gradientUnits="userSpaceOnUse">
			<stop stop-color="#FF6D81"/>
			<stop offset="1.000000" stop-color="#F03F64"/>
		</linearGradient>
		<linearGradient x1="247.925674" y1="45.868553" x2="198.741470" y2="92.657913" id="paint_linear_80_2138_0" gradientUnits="userSpaceOnUse">
			<stop offset="0.100487" stop-color="#EF4161"/>
			<stop offset="1.000000" stop-color="#FA7286"/>
		</linearGradient>
		<linearGradient x1="205.606766" y1="-4.294825" x2="236.694397" y2="99.142578" id="paint_linear_80_2139_0" gradientUnits="userSpaceOnUse">
			<stop stop-color="#F85A72"/>
			<stop offset="0.254966" stop-color="#FF9EA5"/>
			<stop offset="0.670781" stop-color="#FFB1BE"/>
			<stop offset="0.942386" stop-color="#F7637B"/>
			<stop offset="1.000000" stop-color="#F45973" stop-opacity="0.000000"/>
		</linearGradient>
	</defs>
	<g clip-path="url(#clip78_3282)">
		<path id="矩形备份 113" d="M65.58 0.36L188.38 0.36C194.19 0.36 199.77 2.66 203.9 6.75L287.46 89.5C291.64 93.64 294 99.28 294 105.17L294 312.78C294 325.81 283.44 336.36 270.41 336.36L65.58 336.36C52.55 336.36 42 325.81 42 312.78L42 23.95C42 10.92 52.55 0.36 65.58 0.36Z" fill="url(#paint_linear_80_2136_0)" fill-opacity="1.000000" fill-rule="evenodd"/>
		<g style="mix-blend-mode:normal">
			<path id="矩形 2" d="M197.08 64.1L197.08 35L196.89 17.5C196.84 11.89 194.55 6.54 190.55 2.62L187.87 0L191.68 0C196.55 0 201.2 1.96 204.59 5.45L208.87 9.85L221.39 22.28L246.45 47.15L271.5 72.02L286.87 87.27C291.42 91.78 293.97 97.91 293.97 104.31L293.97 105.36L291.38 102.77C287.38 98.77 281.95 96.52 276.29 96.52L258.6 96.52L229.5 96.52C211.6 96.52 197.08 82 197.08 64.1Z" fill="url(#paint_linear_80_2138_0)" fill-opacity="1.000000" fill-rule="evenodd"/>
		</g>
		<path id="减去顶层" d="M183.786 -0.000488281L183.779 -0.000488281L185.919 1.49756L189.963 4.39014C191.089 5.19531 192.084 6.11133 192.948 7.13672L192.948 7.13721C193.699 8.02783 194.352 9.00195 194.905 10.0596C195.558 11.3057 196.032 12.5918 196.329 13.9175C196.577 15.0254 196.701 16.1611 196.701 17.3242L196.859 49.979L196.886 64.8418C196.886 67.8311 197.297 70.6968 198.119 73.4395C198.638 75.1699 199.32 76.8511 200.166 78.4834C200.372 78.8804 200.586 79.272 200.809 79.6587C202.671 82.895 205.13 85.7886 208.186 88.3384C209.79 89.6777 211.484 90.8643 213.267 91.897C214.86 92.8213 216.526 93.6226 218.263 94.3013C221.742 95.6616 224.994 96.3418 228.018 96.3418C229.049 96.3418 229.859 95.5312 229.859 94.4995C229.859 93.4678 229.049 92.6572 228.018 92.6572C225.457 92.6572 222.652 92.0615 219.604 90.8696C218.054 90.2637 216.566 89.5488 215.143 88.7256C213.53 87.793 211.998 86.7212 210.547 85.5098C207.685 83.1211 205.417 80.4053 203.744 77.3628L203.744 77.3623C203.035 75.9946 202.15 74.0117 201.705 72.563C200.948 70.1055 200.57 67.5317 200.57 64.8418L200.544 49.9727L200.386 17.3066C200.386 15.8984 200.238 14.5229 199.942 13.1802L199.942 13.1797C199.577 11.5205 198.986 9.91064 198.169 8.35059C197.48 7.03418 196.667 5.82324 195.729 4.71729L195.729 4.71729C194.678 3.47705 193.471 2.36865 192.106 1.39355L191.158 0.714844C190.073 0.0654297 189.824 0.00537109 186.648 0L183.786 0L183.786 -0.000488281Z" clip-rule="evenodd" fill="url(#paint_linear_80_2139_0)" fill-opacity="1.000000" fill-rule="evenodd"/>
		<g style="mix-blend-mode:normal">
			<path id="合并" d="M162.268 237.626L162.268 274.001C162.268 276.031 163.863 277.626 165.894 277.626C167.924 277.626 169.519 276.031 169.519 274.001L169.519 262.493L176.772 262.493C177.841 262.493 178.885 262.38 179.903 262.155C180.731 261.972 181.544 261.715 182.339 261.383C183.2 261.024 184.012 260.591 184.773 260.084C185.529 259.581 186.236 259.004 186.896 258.354C187.622 257.638 188.258 256.864 188.806 256.03C189.258 255.342 189.648 254.613 189.979 253.844C190.335 253.012 190.607 252.163 190.796 251.295L190.796 251.295L190.796 251.294C191.008 250.32 191.114 249.323 191.114 248.302C191.114 247.339 191.02 246.396 190.831 245.471C190.643 244.546 190.36 243.64 189.982 242.753C189.648 241.968 189.252 241.225 188.793 240.522C188.253 239.696 187.627 238.926 186.914 238.213C186.208 237.506 185.446 236.885 184.629 236.348C183.916 235.88 183.16 235.476 182.362 235.137C181.513 234.776 180.646 234.501 179.76 234.312C178.786 234.104 177.79 234 176.772 234L165.894 234C164.893 234 164.038 234.354 163.33 235.062C162.976 235.416 162.71 235.807 162.533 236.234L162.533 236.234C162.356 236.661 162.268 237.125 162.268 237.626ZM197.024 242.021C197.205 241.616 197.461 241.167 197.793 240.674C198.376 239.83 199.152 238.925 199.941 238.224C200.404 237.812 200.892 237.436 201.402 237.096L201.402 237.095C202.165 236.587 202.981 236.157 203.85 235.807C205.611 235.098 207.523 234.743 209.588 234.743C211.201 234.743 212.716 235.008 214.131 235.537C214.65 235.731 215.156 235.961 215.649 236.227C215.894 236.358 216.133 236.498 216.367 236.645C217.533 237.378 218.576 238.306 219.497 239.429C219.619 239.579 219.738 239.73 219.854 239.884C220.462 240.688 220.986 241.554 221.427 242.484C221.703 243.068 221.91 243.587 222.047 244.041C222.079 244.147 222.158 244.584 222.18 244.693C222.228 245.127 222.242 245.643 222.225 246.242C222.197 247.146 222.093 248.032 221.911 248.903C221.865 249.123 221.814 249.341 221.759 249.558C221.372 251.066 220.673 252.572 219.855 253.79C219.424 254.415 218.941 254.99 218.41 255.516C218.266 255.658 218.117 255.798 217.965 255.933C218.139 256.07 218.309 256.212 218.476 256.357C218.895 256.721 219.289 257.108 219.66 257.516C220.963 258.948 221.97 260.648 222.683 262.616C222.74 262.774 222.786 262.936 222.821 263.101C222.856 263.266 222.88 263.433 222.891 263.601C223.039 265.737 222.758 267.704 222.049 269.502C221.809 270.109 221.521 270.696 221.184 271.264C221.083 271.435 220.979 271.602 220.869 271.767C219.841 273.328 218.462 274.659 216.732 275.758C215.447 276.575 214.03 277.229 212.48 277.718C211.688 277.968 210.993 278.141 210.397 278.237C210.303 278.252 209.919 278.275 209.823 278.282C209.386 278.282 208.747 278.219 208.148 278.128C207.087 277.959 206.043 277.676 205.018 277.278C204.042 276.9 203.124 276.432 202.264 275.876C201.803 275.578 201.359 275.255 200.932 274.906C200.615 274.647 200.31 274.377 200.016 274.094C198.895 273.016 197.942 271.762 197.157 270.334C196.18 268.555 196.811 266.389 198.59 265.411C200.369 264.434 202.535 265.064 203.513 266.844C204.087 267.89 204.808 268.748 205.674 269.417C206.262 269.871 206.918 270.238 207.64 270.519C208.205 270.738 209.007 270.922 209.581 271.008C209.781 270.959 210.021 270.891 210.299 270.803C211.244 270.505 212.092 270.117 212.842 269.64C213.779 269.044 214.48 268.353 214.947 267.566C215.442 266.731 215.687 265.744 215.678 264.605C215.224 263.536 214.607 262.646 213.827 261.933C213.045 261.219 212.098 260.683 210.987 260.328C210.182 260.07 209.338 259.916 208.454 259.865C208.103 259.844 207.399 259.862 207.21 259.873C206.208 259.873 205.354 259.519 204.646 258.811C203.938 258.103 203.584 257.249 203.584 256.248C203.584 255.313 203.898 254.501 204.526 253.81C205.155 253.118 206.053 252.718 206.982 252.628C207.143 252.604 207.371 252.558 207.667 252.489C208.8 252.224 210.364 251.758 212.358 251.089C212.75 250.855 213.098 250.578 213.402 250.26C214.031 249.604 214.476 248.77 214.735 247.758C214.849 247.314 214.859 246.585 214.867 246.006C214.87 245.854 214.872 245.713 214.875 245.59C214.604 245.018 214.275 244.497 213.89 244.026C213.34 243.355 212.71 242.85 212.001 242.511C211.279 242.167 210.475 241.994 209.588 241.994C207.927 241.994 206.528 242.38 205.391 243.151C205.17 243.301 204.959 243.465 204.759 243.643C204.387 243.974 203.88 244.645 203.62 245.032C202.775 246.846 200.692 247.628 198.857 246.809C197.004 245.981 196.197 243.875 197.024 242.021ZM148.478 248.885L148.478 273.031C148.478 275.061 150.073 276.656 152.103 276.656C154.133 276.656 155.729 275.061 155.729 273.031L155.729 239.449C155.729 238.448 155.374 237.594 154.666 236.886C153.959 236.178 153.104 235.824 152.103 235.824L148.399 235.824C147.661 235.824 146.987 236.03 146.375 236.442C145.763 236.854 145.318 237.401 145.041 238.084L134.816 263.241L125.001 238.13C124.729 237.435 124.285 236.876 123.669 236.456C123.36 236.245 123.036 236.087 122.695 235.982L122.695 235.982C122.354 235.877 121.998 235.824 121.624 235.824L117.798 235.824C117.299 235.824 116.837 235.912 116.411 236.088C115.984 236.264 115.595 236.528 115.241 236.879C114.888 237.231 114.622 237.62 114.443 238.045C114.266 238.47 114.176 238.932 114.173 239.431L114 273.012C113.989 275.042 115.576 276.646 117.606 276.656C119.637 276.667 121.24 275.08 121.25 273.05L121.375 248.77L131.374 274.351C131.556 274.814 131.821 275.223 132.17 275.577C132.52 275.931 132.925 276.202 133.386 276.39C134.313 276.767 135.238 276.76 136.16 276.371C137.083 275.982 137.732 275.323 138.109 274.396L148.478 248.885ZM176.772 255.242L169.519 255.242L169.519 241.251L176.772 241.251C177.298 241.251 177.812 241.307 178.312 241.419C178.725 241.511 179.13 241.641 179.525 241.81C179.892 241.965 180.24 242.149 180.571 242.36L180.573 242.361C181.008 242.639 181.412 242.965 181.786 243.339C182.168 243.721 182.5 244.135 182.781 244.58L182.781 244.58L182.781 244.58C182.984 244.901 183.16 245.238 183.311 245.592C183.495 246.025 183.634 246.468 183.726 246.92C183.817 247.371 183.863 247.832 183.863 248.302C183.863 248.826 183.807 249.337 183.691 249.835C183.602 250.227 183.476 250.61 183.315 250.985C183.172 251.319 183.005 251.638 182.813 251.941C182.53 252.391 182.193 252.808 181.805 253.191C181.48 253.512 181.131 253.796 180.759 254.045C180.38 254.297 179.977 254.513 179.549 254.691C179.199 254.837 178.843 254.954 178.479 255.042C177.927 255.176 177.357 255.242 176.772 255.242Z" clip-rule="evenodd" fill="#FFFFFF" fill-opacity="1.000000" fill-rule="evenodd"/>
		</g>
		<g style="mix-blend-mode:normal">
			<path id="Shape Copy备份 24" d="M205.57 133.88L205.57 195.15C205.57 203.11 199.76 209.4 192.01 210.35C184.26 211.3 178.35 206.25 178.35 199.94C178.35 192.13 184.01 188.71 188.85 186.71C193.7 184.71 197.2 180.9 197.2 177.16L197.2 148.72C197.2 146.6 195.27 145 193.18 145.39L158.1 152C156.5 152.3 155.34 153.7 155.34 155.32L155.34 200.98C155.34 208.9 147.72 217.21 140.8 218.6C133.88 219.99 126 215.13 126 207.06C126 199 133.04 194.5 136.84 193.02C139.03 192.17 146.97 189.57 146.97 185.72L146.97 141.21C146.97 137.34 149.76 134.02 153.58 133.36L196.26 126.03C201.13 125.19 205.57 128.94 205.57 133.88Z" fill="#FFFFFF" fill-opacity="1.000000" fill-rule="evenodd"/>
		</g>
	</g>
</svg>
