<svg width="336.000000" height="336.000000" viewBox="0 0 336 336" fill="none" xmlns="http://www.w3.org/2000/svg" xmlns:xlink="http://www.w3.org/1999/xlink">
	<desc>
			Created with Pixso.
	</desc>
	<defs>
		<clipPath id="clip78_3679">
			<rect id="ic_light rar" width="336.000000" height="336.000000" fill="white" fill-opacity="0"/>
		</clipPath>
		<linearGradient x1="168.000000" y1="0.000000" x2="168.000000" y2="336.000000" id="paint_linear_78_3680_0" gradientUnits="userSpaceOnUse">
			<stop stop-color="#9FB1BD"/>
			<stop offset="1.000000" stop-color="#BFCAD3"/>
		</linearGradient>
	</defs>
	<g clip-path="url(#clip78_3679)">
		<rect id="矩形 540" x="42.000000" rx="23.566467" width="252.000000" height="336.000000" fill="url(#paint_linear_78_3680_0)" fill-opacity="1.000000"/>
		<path id="合并" d="M189 0L147 0L147 4.19922C147 8.83887 150.761 12.6001 155.4 12.6001L180.6 12.6001C185.239 12.6001 189 8.83887 189 4.19922L189 0ZM153.3 21L182.7 21C186.18 21 189 23.8208 189 27.2998C189 30.7793 186.18 33.6001 182.7 33.6001L153.3 33.6001C149.82 33.6001 147 30.7793 147 27.2998C147 23.8208 149.82 21 153.3 21ZM182.7 42L153.3 42C149.82 42 147 44.8208 147 48.2998C147 51.7793 149.82 54.6001 153.3 54.6001L182.7 54.6001C186.18 54.6001 189 51.7793 189 48.2998C189 44.8208 186.18 42 182.7 42ZM153.3 63L182.7 63C186.18 63 189 65.8208 189 69.2998C189 72.7793 186.18 75.6001 182.7 75.6001L153.3 75.6001C149.82 75.6001 147 72.7793 147 69.2998C147 65.8208 149.82 63 153.3 63ZM184.8 83.9995L151.2 83.9995C148.881 83.9995 147 85.8799 147 88.1997L147 130.199C147 132.519 148.881 134.399 151.2 134.399L184.8 134.399C187.119 134.399 189 132.519 189 130.199L189 88.1997C189 85.8799 187.119 83.9995 184.8 83.9995ZM157.5 109.199L178.5 109.199C179.66 109.199 180.6 110.139 180.6 111.299L180.6 123.898C180.6 125.059 179.66 125.999 178.5 125.999L157.5 125.999C156.34 125.999 155.4 125.059 155.4 123.898L155.4 111.299C155.4 110.139 156.34 109.199 157.5 109.199Z" clip-rule="evenodd" fill="#FFFFFF" fill-opacity="1.000000" fill-rule="evenodd"/>
		<g opacity="0.000000">
			<rect id="矩形 541" width="336.000000" height="336.000000" fill="#C4C4C4" fill-opacity="1.000000"/>
		</g>
		<g style="mix-blend-mode:normal">
			<path id="合并" d="M102 178.641L102 201.436L102 222.852C102 225.451 104.043 227.494 106.643 227.494C109.241 227.494 111.284 225.451 111.284 222.852L111.284 209.18L131.45 226.382C133.428 228.069 136.308 227.841 137.994 225.863C139.682 223.886 139.453 221.006 137.476 219.319L121.929 206.057C126.404 205.893 130.01 204.779 132.748 202.715C133.658 202.029 134.455 201.252 135.136 200.385L135.136 200.384C135.766 199.583 136.296 198.705 136.729 197.75C137.604 195.823 138.04 193.647 138.04 191.224C138.04 189.164 137.731 187.207 137.113 185.353C137.025 185.089 136.932 184.828 136.831 184.569C136.305 183.208 135.628 181.958 134.8 180.816C134.338 180.18 133.829 179.577 133.272 179.009C132.662 178.384 132.01 177.816 131.316 177.304L131.316 177.304C130.215 176.492 128.752 175.722 127.441 175.195C125.364 174.397 123.135 173.999 120.752 173.999L106.643 173.999C106.001 173.999 105.407 174.112 104.86 174.339C104.313 174.565 103.812 174.905 103.359 175.359C102.906 175.812 102.566 176.312 102.34 176.859L102.34 176.859C102.113 177.406 102 178 102 178.641ZM197.965 222.852L197.965 178.641C197.965 177.359 198.418 176.265 199.324 175.359C199.777 174.905 200.277 174.565 200.825 174.339L200.825 174.339C201.372 174.112 201.966 173.999 202.607 173.999L216.717 173.999C219.1 173.999 221.329 174.397 223.406 175.195C224.717 175.722 226.18 176.492 227.281 177.304L227.283 177.306L227.284 177.306C227.977 177.817 228.628 178.385 229.237 179.009C229.794 179.577 230.303 180.18 230.765 180.816L230.765 180.817C231.593 181.958 232.27 183.209 232.796 184.569C232.896 184.828 232.99 185.089 233.078 185.353C233.696 187.207 234.005 189.164 234.005 191.224C234.005 193.647 233.568 195.823 232.694 197.75C232.261 198.705 231.729 199.583 231.101 200.385C230.42 201.252 229.623 202.029 228.713 202.715C225.975 204.779 222.369 205.893 217.894 206.057L233.44 219.319C235.418 221.006 235.646 223.886 233.959 225.863C232.272 227.841 229.393 228.069 227.415 226.382L207.249 209.18L207.249 222.852C207.249 225.451 205.206 227.494 202.607 227.494C200.008 227.494 197.965 225.451 197.965 222.852ZM162.717 177.882L145.83 221.05C144.884 223.471 146.042 226.117 148.463 227.064C150.884 228.011 153.529 226.853 154.477 224.432L158.455 214.261L174.987 214.261L178.743 224.359C179.649 226.796 182.276 227.998 184.713 227.092C187.149 226.186 188.352 223.56 187.445 221.123L171.391 177.955C171.275 177.645 171.131 177.354 170.957 177.081C170.784 176.808 170.581 176.554 170.35 176.318C170.118 176.082 169.867 175.875 169.598 175.697L169.598 175.697L169.597 175.697L169.597 175.697C169.327 175.519 169.038 175.37 168.73 175.25C167.537 174.783 166.353 174.806 165.179 175.32C164.004 175.834 163.184 176.688 162.717 177.882ZM171.535 204.977L166.93 192.595L162.087 204.977L171.535 204.977ZM120.752 196.793L111.284 196.793L111.284 183.283L120.752 183.283C122.035 183.283 123.196 183.492 124.234 183.91C124.942 184.194 125.575 184.569 126.132 185.035C126.307 185.18 126.813 185.709 126.974 185.873C127.476 186.469 127.875 187.151 128.172 187.919C128.562 188.925 128.756 190.027 128.756 191.224C128.756 192.31 128.596 193.207 128.273 193.916C128.166 194.153 128.036 194.374 127.884 194.577C127.682 194.848 127.44 195.09 127.159 195.302C126.566 195.748 125.782 196.098 124.805 196.35C123.66 196.646 122.31 196.793 120.752 196.793ZM207.249 196.793L216.717 196.793C218.274 196.793 219.625 196.646 220.77 196.35C221.747 196.098 222.531 195.748 223.124 195.302C223.405 195.09 223.646 194.848 223.849 194.577C224.001 194.374 224.131 194.153 224.238 193.916C224.561 193.207 224.721 192.31 224.721 191.224C224.721 190.027 224.526 188.925 224.137 187.919C223.84 187.151 223.44 186.469 222.938 185.873C222.778 185.709 222.271 185.18 222.097 185.035C221.54 184.569 220.907 184.194 220.199 183.91C219.161 183.492 218 183.283 216.717 183.283L207.249 183.283L207.249 196.793Z" clip-rule="evenodd" fill="#FFFFFF" fill-opacity="1.000000" fill-rule="evenodd"/>
		</g>
	</g>
</svg>
