<svg width="336.000000" height="336.000000" viewBox="0 0 336 336" fill="none" xmlns="http://www.w3.org/2000/svg" xmlns:xlink="http://www.w3.org/1999/xlink">
	<desc>
			Created with Pixso.
	</desc>
	<defs>
		<clipPath id="clip78_3342">
			<rect id="ic_light m4a" width="336.000000" height="336.000000" fill="white" fill-opacity="0"/>
		</clipPath>
		<linearGradient x1="168.000000" y1="0.369141" x2="168.000000" y2="336.369141" id="paint_linear_80_2168_0" gradientUnits="userSpaceOnUse">
			<stop stop-color="#FF6D81"/>
			<stop offset="1.000000" stop-color="#F03F64"/>
		</linearGradient>
		<linearGradient x1="247.925674" y1="45.868553" x2="198.741470" y2="92.657913" id="paint_linear_80_2170_0" gradientUnits="userSpaceOnUse">
			<stop offset="0.100487" stop-color="#EF4161"/>
			<stop offset="1.000000" stop-color="#FA7286"/>
		</linearGradient>
		<linearGradient x1="205.606766" y1="-4.293604" x2="236.694397" y2="99.143799" id="paint_linear_80_2171_0" gradientUnits="userSpaceOnUse">
			<stop stop-color="#F85A72"/>
			<stop offset="0.254966" stop-color="#FF9EA5"/>
			<stop offset="0.670781" stop-color="#FFB1BE"/>
			<stop offset="0.942386" stop-color="#F7637B"/>
			<stop offset="1.000000" stop-color="#F45973" stop-opacity="0.000000"/>
		</linearGradient>
	</defs>
	<g clip-path="url(#clip78_3342)">
		<path id="矩形备份 113" d="M65.58 0.36L188.38 0.36C194.19 0.36 199.77 2.66 203.9 6.75L287.46 89.5C291.64 93.64 294 99.28 294 105.17L294 312.78C294 325.81 283.44 336.36 270.41 336.36L65.58 336.36C52.55 336.36 42 325.81 42 312.78L42 23.95C42 10.92 52.55 0.36 65.58 0.36Z" fill="url(#paint_linear_80_2168_0)" fill-opacity="1.000000" fill-rule="evenodd"/>
		<g style="mix-blend-mode:normal">
			<path id="矩形 2" d="M197.08 64.1L197.08 35L196.89 17.5C196.84 11.89 194.55 6.54 190.55 2.62L187.87 0L191.68 0C196.55 0 201.2 1.96 204.59 5.45L208.87 9.85L221.39 22.28L246.45 47.15L271.5 72.02L286.87 87.27C291.42 91.78 293.97 97.91 293.97 104.31L293.97 105.36L291.38 102.77C287.38 98.77 281.95 96.52 276.29 96.52L258.6 96.52L229.5 96.52C211.6 96.52 197.08 82 197.08 64.1Z" fill="url(#paint_linear_80_2170_0)" fill-opacity="1.000000" fill-rule="evenodd"/>
		</g>
		<path id="减去顶层" d="M185.919 1.49878L189.963 4.39136C191.089 5.19678 192.084 6.1123 192.948 7.13818L192.948 7.13818C193.699 8.0293 194.352 9.00342 194.905 10.0605C195.558 11.3069 196.032 12.593 196.329 13.9187C196.577 15.0266 196.701 16.1621 196.701 17.3257L196.859 49.9802L196.886 64.843C196.886 67.832 197.297 70.698 198.119 73.4407C198.638 75.1711 199.32 76.8525 200.166 78.4849C200.372 78.8813 200.586 79.2732 200.809 79.6599C202.671 82.8965 205.13 85.7896 208.186 88.3396C209.79 89.6792 211.484 90.8652 213.267 91.8984C214.86 92.8223 216.526 93.6238 218.263 94.3027C221.742 95.6631 224.994 96.3433 228.018 96.3433C229.049 96.3433 229.859 95.5325 229.859 94.501C229.859 93.4692 229.049 92.6587 228.018 92.6587C225.457 92.6587 222.652 92.0627 219.604 90.8711C218.054 90.2649 216.566 89.5503 215.143 88.7266C213.53 87.7942 211.998 86.7222 210.547 85.5107C207.685 83.1223 205.417 80.4067 203.744 77.3643L203.744 77.3638C203.035 75.9958 202.15 74.0129 201.705 72.5642C200.948 70.1069 200.57 67.5332 200.57 64.843L200.544 49.9736L200.386 17.3079C200.386 15.8997 200.238 14.5242 199.942 13.1814L199.942 13.1809C199.577 11.5215 198.986 9.91187 198.169 8.35181C197.48 7.0354 196.667 5.82422 195.729 4.71851L195.729 4.71851C194.678 3.47803 193.471 2.37012 192.106 1.39453L191.158 0.716064C189.963 0.000732422 189.782 0.000732422 185.587 0.000732422L183.779 0.000732422L185.919 1.49878Z" clip-rule="evenodd" fill="url(#paint_linear_80_2171_0)" fill-opacity="1.000000" fill-rule="evenodd"/>
		<g style="mix-blend-mode:normal">
			<path id="合并" d="M181.66 268.577L184.345 268.577C186.374 268.577 187.969 266.983 187.969 264.953C187.969 262.924 186.374 261.329 184.345 261.329L181.66 261.329L181.66 237.631C181.66 237.322 181.623 237.021 181.549 236.731C181.474 236.44 181.362 236.159 181.213 235.887C180.915 235.344 180.504 234.906 179.981 234.574C179.137 234.037 178.227 233.877 177.249 234.094C176.272 234.311 175.516 234.842 174.979 235.686L157.599 263.008C157.414 263.299 157.273 263.609 157.177 263.94C157.081 264.271 157.032 264.609 157.032 264.953C157.032 265.453 157.121 265.917 157.298 266.344C157.475 266.771 157.74 267.162 158.094 267.516C158.802 268.223 159.656 268.577 160.656 268.577L174.412 268.577L174.412 273.912C174.412 275.941 176.007 277.536 178.036 277.536C180.065 277.536 181.66 275.941 181.66 273.912L181.66 268.577ZM205.658 237.248L191.877 273.525C191.156 275.423 192.08 277.479 193.978 278.2C195.875 278.921 197.932 277.997 198.652 276.099L201.954 267.408L215.622 267.408L218.74 276.043C219.43 277.952 221.472 278.91 223.38 278.221C225.289 277.531 226.247 275.49 225.558 273.581L212.454 237.303C212.364 237.055 212.251 236.822 212.113 236.603C211.977 236.385 211.814 236.181 211.63 235.993C211.259 235.616 210.827 235.334 210.333 235.147C209.865 234.969 209.401 234.887 208.939 234.901L208.938 234.901C208.477 234.915 208.017 235.024 207.561 235.229C206.647 235.639 206.014 236.312 205.658 237.248ZM213.004 260.16L208.96 248.965L204.707 260.16L213.004 260.16ZM144.494 273.909L144.494 248.045L133.095 275.307C132.709 276.23 132.053 276.882 131.127 277.262C130.201 277.642 129.276 277.639 128.354 277.253C127.906 277.066 127.512 276.799 127.171 276.454C126.831 276.109 126.57 275.711 126.389 275.261L115.386 247.901L115.248 273.928C115.237 275.958 113.634 277.544 111.604 277.533C109.575 277.522 107.989 275.919 108 273.89L108.183 239.341C108.186 238.843 108.275 238.381 108.454 237.956L108.454 237.956C108.632 237.531 108.897 237.143 109.251 236.791C109.604 236.439 109.994 236.176 110.42 236L110.42 236C110.846 235.824 111.309 235.736 111.807 235.736L115.857 235.736C116.227 235.736 116.581 235.788 116.919 235.892L116.919 235.892C117.258 235.995 117.58 236.15 117.886 236.357C118.192 236.564 118.457 236.805 118.679 237.081L118.679 237.081C118.901 237.356 119.081 237.665 119.22 238.008L129.816 264.359L140.854 237.962C141.136 237.288 141.581 236.749 142.189 236.344C142.798 235.939 143.467 235.736 144.197 235.736L148.118 235.736C149.119 235.736 149.973 236.09 150.681 236.798C151.389 237.505 151.742 238.36 151.742 239.36L151.742 273.909C151.742 275.939 150.147 277.533 148.118 277.533C146.089 277.533 144.494 275.939 144.494 273.909ZM174.412 261.329L174.412 250.081L167.257 261.329L174.412 261.329Z" clip-rule="evenodd" fill="#FFFFFF" fill-opacity="1.000000" fill-rule="evenodd"/>
		</g>
		<g style="mix-blend-mode:normal">
			<path id="Shape Copy备份 22" d="M205.57 133.88L205.57 195.15C205.57 203.11 199.76 209.4 192.01 210.35C184.26 211.3 178.35 206.25 178.35 199.94C178.35 192.13 184.01 188.71 188.85 186.71C193.7 184.71 197.2 180.9 197.2 177.16L197.2 148.72C197.2 146.6 195.27 145 193.18 145.39L158.1 152C156.5 152.3 155.34 153.7 155.34 155.32L155.34 200.98C155.34 208.9 147.72 217.21 140.8 218.6C133.88 219.99 126 215.13 126 207.06C126 199 133.04 194.5 136.84 193.02C139.03 192.17 146.97 189.57 146.97 185.72L146.97 141.21C146.97 137.34 149.76 134.02 153.58 133.36L196.26 126.03C201.13 125.19 205.57 128.94 205.57 133.88Z" fill="#FFFFFF" fill-opacity="1.000000" fill-rule="evenodd"/>
		</g>
	</g>
</svg>
