<svg width="336.000000" height="336.000000" viewBox="0 0 336 336" fill="none" xmlns="http://www.w3.org/2000/svg" xmlns:xlink="http://www.w3.org/1999/xlink">
	<desc>
			Created with Pixso.
	</desc>
	<defs>
		<clipPath id="clip78_3604">
			<rect id="ic_light log" width="336.000000" height="336.000000" fill="white" fill-opacity="0"/>
		</clipPath>
		<linearGradient x1="168.000000" y1="0.000000" x2="168.000000" y2="336.000000" id="paint_linear_78_3605_0" gradientUnits="userSpaceOnUse">
			<stop stop-color="#C0CBD4"/>
			<stop offset="1.000000" stop-color="#9EB0BC"/>
		</linearGradient>
		<linearGradient x1="247.926651" y1="45.868553" x2="198.742447" y2="92.657913" id="paint_linear_80_2330_0" gradientUnits="userSpaceOnUse">
			<stop offset="0.100487" stop-color="#97ABB8"/>
			<stop offset="1.000000" stop-color="#D7E2E9"/>
		</linearGradient>
		<linearGradient x1="205.607727" y1="-4.293835" x2="231.403839" y2="96.342941" id="paint_linear_80_2331_0" gradientUnits="userSpaceOnUse">
			<stop stop-color="#9EB0BC"/>
			<stop offset="0.332341" stop-color="#D2DDE4"/>
			<stop offset="0.685898" stop-color="#EDF7FE"/>
			<stop offset="0.879007" stop-color="#DBE5EB"/>
			<stop offset="1.000000" stop-color="#C1CFD8" stop-opacity="0.000000"/>
		</linearGradient>
	</defs>
	<g clip-path="url(#clip78_3604)">
		<path id="矩形备份 113" d="M65.58 0L188.38 0C194.19 0 199.77 2.29 203.9 6.38L287.46 89.13C291.64 93.27 294 98.91 294 104.8L294 312.41C294 325.44 283.44 336 270.41 336L65.58 336C52.55 336 42 325.44 42 312.41L42 23.58C42 10.55 52.55 0 65.58 0Z" fill="url(#paint_linear_78_3605_0)" fill-opacity="1.000000" fill-rule="evenodd"/>
		<g style="mix-blend-mode:normal">
			<path id="矩形 2" d="M197.08 64.1L197.08 35L196.9 17.5C196.84 11.89 194.56 6.54 190.55 2.62L187.87 0L191.68 0C196.55 0 201.2 1.96 204.59 5.45L208.87 9.85L221.4 22.28L246.45 47.15L271.5 72.02L286.88 87.27C291.42 91.78 293.97 97.91 293.97 104.31L293.97 105.36L291.39 102.77C287.38 98.77 281.95 96.52 276.29 96.52L258.61 96.52L229.5 96.52C211.6 96.52 197.08 82 197.08 64.1Z" fill="url(#paint_linear_80_2330_0)" fill-opacity="1.000000" fill-rule="evenodd"/>
		</g>
		<path id="减去顶层" d="M185.92 1.49854L189.964 4.39111C191.09 5.19629 192.085 6.1123 192.949 7.1377L192.949 7.13818C193.7 8.02881 194.353 9.00293 194.906 10.0605C195.559 11.3066 196.033 12.5928 196.33 13.9185C196.578 15.0264 196.702 16.1621 196.702 17.3252L196.86 49.98L196.887 64.8428C196.887 67.832 197.298 70.6978 198.12 73.4404C198.639 75.1709 199.321 76.8521 200.167 78.4844C200.373 78.8813 200.587 79.2729 200.81 79.6597C202.672 82.896 205.131 85.7896 208.187 88.3394C209.791 89.6787 211.485 90.8652 213.268 91.8979C214.861 92.8223 216.527 93.6235 218.264 94.3022C221.743 95.6626 224.995 96.3428 228.019 96.3428C229.05 96.3428 229.86 95.5322 229.86 94.5005C229.86 93.4688 229.05 92.6582 228.019 92.6582C225.458 92.6582 222.653 92.0625 219.605 90.8706C218.055 90.2646 216.567 89.5498 215.144 88.7266C213.531 87.7939 211.999 86.7222 210.548 85.5107C207.686 83.1221 205.418 80.4062 203.745 77.3638L203.745 77.3633C203.036 75.9956 202.151 74.0127 201.706 72.564C200.949 70.1064 200.571 67.5327 200.571 64.8428L200.545 49.9736L200.387 17.3076C200.387 15.8994 200.239 14.5239 199.943 13.1812L199.943 13.1807C199.578 11.5215 198.987 9.91162 198.17 8.35156C197.481 7.03516 196.668 5.82422 195.73 4.71826L195.73 4.71826C194.679 3.47803 193.472 2.36963 192.107 1.39453L191.159 0.71582C189.964 0.000488281 189.783 0.000488281 185.588 0.000488281L183.78 0.000488281L185.92 1.49854Z" clip-rule="evenodd" fill="url(#paint_linear_80_2331_0)" fill-opacity="1.000000" fill-rule="evenodd"/>
		<g style="mix-blend-mode:normal">
			<path id="合并" d="M112.016 217.515L112.016 177.586C112.016 174.693 109.742 172.42 106.85 172.42C103.957 172.42 101.685 174.693 101.685 177.586L101.685 222.238C101.685 222.621 101.722 222.996 101.797 223.362C101.871 223.723 101.981 224.077 102.127 224.423C102.269 224.757 102.438 225.072 102.638 225.367C102.838 225.666 103.067 225.944 103.327 226.204C103.586 226.462 103.865 226.692 104.163 226.893C104.459 227.092 104.773 227.262 105.107 227.403C105.453 227.549 105.807 227.659 106.167 227.733L106.168 227.733L106.168 227.733L106.169 227.733C106.536 227.809 106.91 227.846 107.292 227.846L135.587 227.846C138.479 227.846 140.752 225.573 140.752 222.681C140.752 219.788 138.479 217.515 135.587 217.515L112.016 217.515ZM233.475 196.834L224.007 196.834C221.169 196.834 218.939 199.064 218.939 201.902C218.939 204.74 221.169 206.97 224.007 206.97L228.994 206.97C228.974 207.219 228.95 207.479 228.924 207.75C228.725 209.827 228.174 211.44 227.273 212.59C226.436 213.66 225.486 214.574 224.426 215.331C223.933 215.683 223.415 216 222.874 216.284C221.249 217.137 219.637 217.563 218.036 217.563C217.276 217.563 216.531 217.488 215.802 217.338C214.911 217.154 214.044 216.858 213.199 216.45C211.736 215.698 210.166 214.513 209.014 213.156C207.703 211.614 206.684 209.788 205.956 207.677C205.158 205.362 204.759 202.839 204.759 200.109C204.759 197.36 205.15 194.828 205.934 192.512C206.648 190.398 207.65 188.576 208.94 187.044C210.035 185.744 211.28 184.724 212.673 183.984C213.324 183.67 214.412 183.211 215.098 183.03C216.044 182.779 217.023 182.654 218.036 182.654C219.336 182.654 220.456 182.767 221.396 182.994C222.152 183.177 222.832 183.447 223.435 183.804C224.007 184.144 224.594 184.613 225.193 185.211C225.77 185.787 226.463 186.592 227.273 187.627C229.023 189.862 232.153 190.243 234.388 188.494C236.622 186.744 237.004 183.614 235.254 181.379C234.188 180.018 233.221 178.904 232.352 178.037C231.154 176.842 229.906 175.859 228.607 175.088C227.134 174.216 225.513 173.562 223.772 173.142C222.052 172.727 220.14 172.519 218.036 172.519C216.254 172.519 214.522 172.727 212.843 173.142L212.841 173.143C211.424 173.493 210.043 173.992 208.699 174.639C207.93 175.009 207.187 175.42 206.47 175.874C204.513 177.111 202.753 178.658 201.188 180.516C199.156 182.979 197.427 186.028 196.332 189.265C195.193 192.634 194.624 196.248 194.624 200.109C194.624 203.971 195.207 207.595 196.375 210.981C197.446 214.088 198.953 216.843 200.896 219.245C201.025 219.404 201.157 219.562 201.29 219.719C202.907 221.623 204.728 223.202 206.749 224.455C207.407 224.862 208.087 225.236 208.788 225.575C210.329 226.32 211.912 226.869 213.539 227.222C215.003 227.54 216.503 227.699 218.036 227.699C218.696 227.699 219.354 227.666 220.008 227.599C222.586 227.336 225.111 226.556 227.584 225.259C228.765 224.639 229.877 223.931 230.923 223.133C232.525 221.911 233.97 220.479 235.254 218.838C237.337 216.146 238.627 212.727 239.013 208.722C239.206 206.714 239.279 205.07 239.232 203.791C239.192 202.704 239.057 201.778 238.825 201.014C238.569 200.168 238.181 199.433 237.66 198.808C237.378 198.471 237.066 198.174 236.724 197.918C236.495 197.747 236.252 197.593 235.995 197.458C235.602 197.25 235.195 197.095 234.776 196.991C234.355 196.887 233.922 196.834 233.475 196.834ZM164.765 172.723C152.312 172.723 142.217 185.094 142.217 200.355C142.217 215.615 152.312 227.986 164.765 227.986C177.217 227.986 187.312 215.615 187.312 200.355C187.312 185.094 177.217 172.723 164.765 172.723ZM164.765 182.67C157.806 182.67 152.164 190.588 152.164 200.355C152.164 210.122 157.806 218.039 164.765 218.039C171.723 218.039 177.364 210.122 177.364 200.355C177.364 190.588 171.723 182.67 164.765 182.67Z" clip-rule="evenodd" fill="#FFFFFF" fill-opacity="1.000000" fill-rule="evenodd"/>
		</g>
	</g>
</svg>
