<svg width="336.000000" height="336.000000" viewBox="0 0 336 336" fill="none" xmlns="http://www.w3.org/2000/svg" xmlns:xlink="http://www.w3.org/1999/xlink">
	<desc>
			Created with Pixso.
	</desc>
	<defs>
		<clipPath id="clip78_3834">
			<rect id="ic_light eddx" width="336.000000" height="336.000000" fill="white" fill-opacity="0"/>
		</clipPath>
		<linearGradient x1="168.000000" y1="0.000000" x2="168.000000" y2="336.000000" id="paint_linear_80_2295_0" gradientUnits="userSpaceOnUse">
			<stop stop-color="#55BFF2"/>
			<stop offset="1.000000" stop-color="#3898F7"/>
		</linearGradient>
		<linearGradient x1="289.026459" y1="79.026276" x2="254.578918" y2="105.368423" id="paint_linear_80_2295_1" gradientUnits="userSpaceOnUse">
			<stop offset="0.012343" stop-color="#A54000"/>
			<stop offset="1.000000" stop-color="#F67F22" stop-opacity="0.000000"/>
		</linearGradient>
		<linearGradient x1="247.925674" y1="45.869041" x2="198.741470" y2="92.658401" id="paint_linear_80_2298_0" gradientUnits="userSpaceOnUse">
			<stop offset="0.100487" stop-color="#4799ED"/>
			<stop offset="1.000000" stop-color="#77CDFB"/>
		</linearGradient>
		<linearGradient x1="205.607742" y1="-4.293359" x2="234.490524" y2="97.463654" id="paint_linear_80_2299_0" gradientUnits="userSpaceOnUse">
			<stop stop-color="#36BCF8"/>
			<stop offset="0.265149" stop-color="#A5DAFF"/>
			<stop offset="0.715692" stop-color="#CDEBFF"/>
			<stop offset="0.924672" stop-color="#80C9FF"/>
			<stop offset="1.000000" stop-color="#64B8F5" stop-opacity="0.000000"/>
		</linearGradient>
	</defs>
	<g clip-path="url(#clip78_3834)">
		<path id="矩形备份 113" d="M65.58 0L188.38 0C194.19 0 199.77 2.29 203.9 6.38L287.46 89.13C291.64 93.27 294 98.91 294 104.8L294 312.41C294 325.44 283.44 336 270.41 336L65.58 336C52.55 336 42 325.44 42 312.41L42 23.58C42 10.55 52.55 0 65.58 0Z" fill="url(#paint_linear_80_2295_0)" fill-opacity="1.000000" fill-rule="evenodd"/>
		<path id="矩形备份 113" d="M65.58 0L188.38 0C194.19 0 199.77 2.29 203.9 6.38L287.46 89.13C291.64 93.27 294 98.91 294 104.8L294 312.41C294 325.44 283.44 336 270.41 336L65.58 336C52.55 336 42 325.44 42 312.41L42 23.58C42 10.55 52.55 0 65.58 0Z" fill="url(#paint_linear_80_2295_1)" fill-opacity="0" fill-rule="evenodd"/>
		<g style="mix-blend-mode:normal">
			<path id="矩形 2" d="M197.08 64.1L197.08 35L196.89 17.5C196.84 11.89 194.55 6.54 190.55 2.62L187.87 0L191.68 0C196.55 0 201.2 1.96 204.59 5.45L208.87 9.85L221.39 22.29L246.45 47.15L271.5 72.02L286.87 87.27C291.42 91.78 293.97 97.91 293.97 104.31L293.97 105.36L291.38 102.77C287.38 98.77 281.95 96.52 276.29 96.52L258.6 96.52L229.5 96.52C211.6 96.52 197.08 82.01 197.08 64.1Z" fill="url(#paint_linear_80_2298_0)" fill-opacity="1.000000" fill-rule="evenodd"/>
		</g>
		<path id="减去顶层" d="M185.92 1.49902L189.964 4.3916C191.09 5.19678 192.085 6.11279 192.949 7.13818L192.949 7.13867C193.7 8.0293 194.353 9.00342 194.906 10.061C195.559 11.3071 196.033 12.5933 196.33 13.9189C196.578 15.0269 196.702 16.1626 196.702 17.3257L196.86 49.9805L196.887 64.8433C196.887 67.8325 197.298 70.6982 198.12 73.4409C198.639 75.1714 199.321 76.8525 200.167 78.4849C200.373 78.8818 200.587 79.2734 200.81 79.6602C202.672 82.8965 205.131 85.79 208.187 88.3398C209.791 89.6792 211.485 90.8657 213.268 91.8984C214.861 92.8228 216.527 93.624 218.264 94.3027C221.743 95.6631 224.995 96.3433 228.019 96.3433C229.05 96.3433 229.86 95.5327 229.86 94.501C229.86 93.4692 229.05 92.6587 228.019 92.6587C225.458 92.6587 222.653 92.063 219.605 90.8711C218.055 90.2651 216.567 89.5503 215.144 88.7271C213.531 87.7944 211.999 86.7227 210.548 85.5112C207.686 83.1226 205.418 80.4067 203.745 77.3643L203.745 77.3638C203.036 75.9961 202.151 74.0132 201.706 72.5645C200.949 70.1069 200.571 67.5332 200.571 64.8433L200.545 49.9741L200.387 17.3081C200.387 15.8999 200.239 14.5244 199.943 13.1816L199.943 13.1812C199.578 11.522 198.987 9.91211 198.17 8.35205C197.481 7.03564 196.668 5.82471 195.73 4.71875L195.73 4.71875C194.679 3.47852 193.472 2.37012 192.107 1.39502L191.159 0.716309C189.964 0.000976562 189.783 0.000976562 185.588 0.000976562L183.78 0.000976562L185.92 1.49902Z" clip-rule="evenodd" fill="url(#paint_linear_80_2299_0)" fill-opacity="1.000000" fill-rule="evenodd"/>
		<g style="mix-blend-mode:normal">
			<path id="合并" d="M140.579 168C142.718 168 144.807 168.225 146.846 168.675L146.846 168.675C148.557 169.052 150.232 169.588 151.873 170.282C153.521 170.979 155.08 171.812 156.549 172.781C158.173 173.853 159.688 175.092 161.093 176.497C162.497 177.901 163.735 179.416 164.808 181.041C165.777 182.509 166.61 184.068 167.308 185.716C168.001 187.357 168.537 189.033 168.914 190.743C169.364 192.782 169.589 194.871 169.589 197.01C169.589 199.148 169.364 201.237 168.914 203.276C168.537 204.987 168.001 206.663 167.308 208.303C166.61 209.952 165.777 211.51 164.808 212.979C163.735 214.603 162.497 216.118 161.093 217.523C159.688 218.928 158.173 220.166 156.549 221.238C155.08 222.208 153.521 223.041 151.873 223.738C150.232 224.432 148.557 224.968 146.846 225.345C144.807 225.795 142.718 226.02 140.579 226.02L132.528 226.02C131.057 226.02 129.801 225.5 128.761 224.459C127.72 223.419 127.2 222.163 127.2 220.691L127.2 173.328C127.2 172.593 127.33 171.911 127.59 171.283C127.85 170.655 128.24 170.081 128.761 169.56C129.801 168.52 131.057 168 132.528 168L140.579 168ZM195.446 168.675C193.407 168.225 191.318 168 189.18 168L181.129 168C179.657 168 178.401 168.52 177.361 169.56C176.32 170.601 175.801 171.857 175.801 173.328L175.801 220.691C175.801 222.163 176.32 223.419 177.361 224.459C178.401 225.5 179.657 226.02 181.129 226.02L189.18 226.02C191.318 226.02 193.407 225.795 195.446 225.345C197.157 224.968 198.833 224.432 200.474 223.738C202.122 223.041 203.681 222.208 205.149 221.238C206.773 220.166 208.288 218.928 209.693 217.523C211.098 216.118 212.336 214.603 213.408 212.979C214.378 211.51 215.211 209.952 215.908 208.303C216.602 206.663 217.138 204.987 217.515 203.276C217.965 201.237 218.189 199.148 218.189 197.01C218.189 194.871 217.965 192.782 217.515 190.743C217.138 189.033 216.602 187.357 215.908 185.716C215.211 184.068 214.378 182.509 213.408 181.041C212.336 179.416 211.098 177.901 209.693 176.497C208.288 175.092 206.773 173.853 205.149 172.781C203.681 171.812 202.122 170.979 200.474 170.282C198.833 169.588 197.157 169.052 195.446 168.675L195.446 168.675ZM114.86 226.005L89.4707 226.005C87.96 226.005 86.6709 225.471 85.6025 224.402C84.5342 223.334 84 222.045 84 220.534L84 173.471C84 172.716 84.1338 172.016 84.4004 171.371L84.4004 171.371C84.668 170.726 85.0684 170.136 85.6025 169.603C86.1367 169.068 86.7256 168.668 87.3711 168.401L87.3711 168.401L87.3711 168.401C88.0156 168.134 88.7158 168 89.4707 168L114.86 168C117.924 168 120.331 170.407 120.331 173.471C120.331 176.535 117.924 178.942 114.86 178.942L94.9424 178.942L94.9424 190.438L111.355 190.438C114.42 190.438 116.827 192.845 116.827 195.908C116.827 198.972 114.42 201.379 111.355 201.379L94.9424 201.379L94.9424 215.063L114.86 215.063C117.924 215.063 120.331 217.47 120.331 220.534C120.331 223.598 117.924 226.005 114.86 226.005ZM250.667 222.364L240.746 205.635L230.824 222.364C229.471 224.645 226.615 225.374 224.334 224.021C222.053 222.668 221.323 219.813 222.677 217.532L235.239 196.351L222.676 175.168C221.323 172.887 222.053 170.032 224.334 168.679C226.615 167.326 229.471 168.055 230.823 170.336L240.746 187.066L250.668 170.337C252.021 168.055 254.876 167.326 257.157 168.679C259.438 170.032 260.168 172.887 258.815 175.169L246.252 196.351L258.814 217.531C260.168 219.813 259.438 222.668 257.157 224.021C254.876 225.374 252.021 224.645 250.667 222.364ZM140.579 178.656L137.856 178.656L137.856 215.363L140.579 215.363C141.998 215.363 143.38 215.208 144.727 214.896C145.745 214.661 146.744 214.336 147.722 213.923C148.731 213.496 149.689 212.987 150.594 212.397C151.654 211.706 152.642 210.903 153.557 209.988C154.472 209.073 155.275 208.084 155.967 207.024C156.557 206.12 157.065 205.162 157.492 204.152C157.906 203.174 158.23 202.176 158.466 201.157C158.777 199.811 158.933 198.428 158.933 197.01C158.933 195.591 158.777 194.209 158.466 192.863C158.23 191.844 157.906 190.845 157.492 189.867C157.065 188.857 156.557 187.9 155.967 186.996C155.275 185.935 154.472 184.947 153.557 184.032C152.642 183.117 151.654 182.314 150.594 181.622C149.689 181.032 148.731 180.524 147.722 180.097C146.744 179.683 145.745 179.358 144.727 179.123C143.38 178.812 141.997 178.656 140.579 178.656ZM186.457 178.656L189.18 178.656C190.598 178.656 191.98 178.812 193.327 179.123L193.327 179.123C194.347 179.359 195.345 179.683 196.322 180.097C197.332 180.524 198.29 181.032 199.194 181.622C200.255 182.314 201.242 183.117 202.157 184.032C203.072 184.947 203.876 185.935 204.567 186.996C205.157 187.9 205.666 188.857 206.093 189.867C206.507 190.845 206.831 191.844 207.066 192.863C207.378 194.209 207.533 195.591 207.533 197.01C207.533 198.428 207.378 199.811 207.066 201.157C206.831 202.176 206.507 203.174 206.093 204.152C205.666 205.162 205.157 206.12 204.567 207.024C203.876 208.084 203.072 209.073 202.157 209.988C201.242 210.903 200.255 211.706 199.194 212.397C198.29 212.987 197.332 213.496 196.322 213.923C195.345 214.336 194.346 214.661 193.327 214.896C191.98 215.208 190.599 215.363 189.18 215.363L186.457 215.363L186.457 178.656Z" clip-rule="evenodd" fill="#FFFFFF" fill-opacity="1.000000" fill-rule="evenodd"/>
		</g>
	</g>
</svg>
