<svg width="336.000000" height="336.000000" viewBox="0 0 336 336" fill="none" xmlns="http://www.w3.org/2000/svg" xmlns:xlink="http://www.w3.org/1999/xlink">
	<desc>
			Created with Pixso.
	</desc>
	<defs>
		<clipPath id="clip78_3781">
			<rect id="ic_light dwg" width="336.000000" height="336.000000" fill="white" fill-opacity="0"/>
		</clipPath>
		<linearGradient x1="168.000000" y1="0.000000" x2="168.000000" y2="336.000000" id="paint_linear_80_2323_0" gradientUnits="userSpaceOnUse">
			<stop stop-color="#FF7957"/>
			<stop offset="1.000000" stop-color="#E94D35"/>
		</linearGradient>
		<linearGradient x1="247.925674" y1="45.868553" x2="198.741470" y2="92.657913" id="paint_linear_80_2325_0" gradientUnits="userSpaceOnUse">
			<stop offset="0.100487" stop-color="#EE452B"/>
			<stop offset="1.000000" stop-color="#FF8B6E"/>
		</linearGradient>
		<linearGradient x1="205.606766" y1="-4.294824" x2="234.489548" y2="97.462189" id="paint_linear_80_2326_0" gradientUnits="userSpaceOnUse">
			<stop stop-color="#FF705A"/>
			<stop offset="0.263153" stop-color="#FEB8A4"/>
			<stop offset="0.641081" stop-color="#FFBAAC"/>
			<stop offset="0.945777" stop-color="#FF8F77"/>
			<stop offset="1.000000" stop-color="#F76B50" stop-opacity="0.000000"/>
		</linearGradient>
	</defs>
	<g clip-path="url(#clip78_3781)">
		<path id="矩形备份 113" d="M65.58 0L188.38 0C194.19 0 199.77 2.29 203.9 6.38L287.46 89.13C291.64 93.27 294 98.91 294 104.8L294 312.41C294 325.44 283.44 336 270.41 336L65.58 336C52.55 336 42 325.44 42 312.41L42 23.58C42 10.55 52.55 0 65.58 0Z" fill="url(#paint_linear_80_2323_0)" fill-opacity="1.000000" fill-rule="evenodd"/>
		<g style="mix-blend-mode:normal">
			<path id="矩形 2" d="M197.08 64.1L197.08 35L196.89 17.5C196.84 11.89 194.55 6.54 190.55 2.62L187.87 0L191.68 0C196.55 0 201.2 1.96 204.59 5.45L208.87 9.85L221.39 22.28L246.45 47.15L271.5 72.02L286.87 87.27C291.42 91.78 293.97 97.91 293.97 104.31L293.97 105.36L291.38 102.77C287.38 98.77 281.95 96.52 276.29 96.52L258.6 96.52L229.5 96.52C211.6 96.52 197.08 82 197.08 64.1Z" fill="url(#paint_linear_80_2325_0)" fill-opacity="1.000000" fill-rule="evenodd"/>
		</g>
		<path id="减去顶层" d="M183.786 -0.000488281L183.779 -0.000488281L185.919 1.49756L189.963 4.39014C191.089 5.19531 192.084 6.11133 192.948 7.13672L192.948 7.13721C193.699 8.02783 194.352 9.00195 194.905 10.0596C195.558 11.3057 196.032 12.5918 196.329 13.9175C196.577 15.0254 196.701 16.1611 196.701 17.3242L196.859 49.979L196.886 64.8418C196.886 67.8311 197.297 70.6968 198.119 73.4395C198.638 75.1699 199.32 76.8511 200.166 78.4834C200.372 78.8804 200.586 79.272 200.809 79.6587C202.671 82.895 205.13 85.7886 208.186 88.3384C209.79 89.6777 211.484 90.8643 213.267 91.897C214.86 92.8213 216.526 93.6226 218.263 94.3013C221.742 95.6616 224.994 96.3418 228.018 96.3418C229.049 96.3418 229.859 95.5312 229.859 94.4995C229.859 93.4678 229.049 92.6572 228.018 92.6572C225.457 92.6572 222.652 92.0615 219.604 90.8696C218.054 90.2637 216.566 89.5488 215.143 88.7256C213.53 87.793 211.998 86.7212 210.547 85.5098C207.685 83.1211 205.417 80.4053 203.744 77.3628L203.744 77.3623C203.035 75.9946 202.15 74.0117 201.705 72.563C200.948 70.1055 200.57 67.5317 200.57 64.8418L200.544 49.9727L200.386 17.3066C200.386 15.8984 200.238 14.5229 199.942 13.1802L199.942 13.1797C199.577 11.5205 198.986 9.91064 198.169 8.35059C197.48 7.03418 196.667 5.82324 195.729 4.71729L195.729 4.71729C194.678 3.47705 193.471 2.36865 192.106 1.39355L191.158 0.714844C190.073 0.0654297 189.824 0.00537109 186.648 0L183.786 0L183.786 -0.000488281Z" clip-rule="evenodd" fill="url(#paint_linear_80_2326_0)" fill-opacity="1.000000" fill-rule="evenodd"/>
		<g opacity="0.000000">
			<rect id="矩形 538" width="336.000000" height="336.000000" fill="#C4C4C4" fill-opacity="1.000000"/>
		</g>
		<g style="mix-blend-mode:normal">
			<path id="合并" d="M245.252 192.316L235.784 192.316C232.946 192.316 230.716 194.545 230.716 197.383C230.716 200.221 232.946 202.451 235.784 202.451L240.771 202.451C240.75 202.7 240.727 202.96 240.701 203.231C240.501 205.308 239.951 206.921 239.051 208.071C238.213 209.142 237.264 210.055 236.202 210.812C235.709 211.164 235.192 211.481 234.65 211.766C233.025 212.618 231.413 213.045 229.813 213.045C229.053 213.045 228.308 212.969 227.579 212.819C226.688 212.635 225.82 212.339 224.976 211.931C223.513 211.179 221.942 209.994 220.79 208.637C219.479 207.095 218.461 205.269 217.733 203.158C216.935 200.843 216.535 198.32 216.535 195.59C216.535 192.841 216.927 190.309 217.71 187.993C218.425 185.879 219.427 184.057 220.717 182.526C221.812 181.225 223.057 180.205 224.45 179.465C225.102 179.152 226.188 178.692 226.875 178.511C227.821 178.26 228.801 178.135 229.813 178.135C231.113 178.135 232.232 178.249 233.172 178.475C233.93 178.658 234.609 178.928 235.211 179.285C235.784 179.625 236.37 180.094 236.97 180.692C237.546 181.268 238.24 182.073 239.051 183.108C240.8 185.343 243.93 185.724 246.165 183.975C248.399 182.225 248.78 179.095 247.031 176.86C245.965 175.499 244.997 174.385 244.128 173.518C242.931 172.323 241.683 171.34 240.384 170.569C238.911 169.697 237.289 169.042 235.549 168.623C233.829 168.208 231.917 168 229.813 168C228.03 168 226.3 168.208 224.62 168.623C223.202 168.974 221.82 169.473 220.476 170.12C219.706 170.49 218.963 170.901 218.246 171.355C216.29 172.592 214.529 174.14 212.965 175.997C210.933 178.46 209.204 181.509 208.109 184.746C206.97 188.115 206.4 191.729 206.4 195.59C206.4 199.452 206.984 203.076 208.151 206.462C209.223 209.569 210.73 212.324 212.674 214.726C212.803 214.885 212.934 215.043 213.066 215.2C214.685 217.104 216.504 218.683 218.526 219.936C219.185 220.344 219.864 220.717 220.564 221.056C222.105 221.801 223.689 222.35 225.315 222.703C226.78 223.021 228.279 223.18 229.813 223.18C230.474 223.18 231.131 223.146 231.784 223.08C234.362 222.817 236.888 222.038 239.36 220.74C240.541 220.12 241.654 219.412 242.699 218.614C244.303 217.392 245.746 215.96 247.031 214.319C249.114 211.628 250.403 208.208 250.789 204.203C250.982 202.195 251.056 200.551 251.009 199.271C250.969 198.185 250.833 197.259 250.603 196.496C250.347 195.649 249.958 194.914 249.437 194.289C249.155 193.952 248.843 193.655 248.501 193.399C248.271 193.228 248.029 193.074 247.772 192.939C247.379 192.732 246.973 192.576 246.554 192.472C246.133 192.368 245.698 192.316 245.252 192.316ZM147.229 171.621L154.164 201.226L163.993 171.231C164.395 170.005 165.171 169.101 166.322 168.518C167.474 167.935 168.662 167.845 169.888 168.247C170.243 168.363 170.576 168.517 170.886 168.708C171.195 168.899 171.482 169.127 171.746 169.393C172.011 169.658 172.237 169.946 172.426 170.257C172.615 170.568 172.767 170.901 172.882 171.258L182.515 201.249L189.675 171.59C190.288 169.047 192.77 167.531 195.312 168.145C197.856 168.759 199.372 171.24 198.758 173.783L187.695 219.611C187.504 220.403 187.132 221.098 186.577 221.694C186.022 222.291 185.357 222.714 184.582 222.963C183.354 223.358 182.166 223.26 181.019 222.671C179.87 222.081 179.1 221.172 178.705 219.944L168.389 187.827L157.855 219.97C157.602 220.745 157.174 221.407 156.573 221.958C155.973 222.51 155.274 222.878 154.481 223.064C153.225 223.358 152.049 223.166 150.952 222.485C149.855 221.805 149.16 220.837 148.866 219.581L138.13 173.752C137.533 171.205 139.065 168.734 141.613 168.137C144.161 167.541 146.632 169.073 147.229 171.621ZM102.729 168C104.764 168 106.75 168.214 108.69 168.643L108.691 168.643L108.691 168.643L108.691 168.643L108.691 168.643C110.318 169.002 111.913 169.511 113.474 170.172C115.042 170.835 116.525 171.627 117.922 172.55L117.923 172.55C119.468 173.57 120.909 174.748 122.245 176.084C123.582 177.421 124.76 178.862 125.78 180.408C126.702 181.805 127.495 183.288 128.158 184.856C128.818 186.417 129.328 188.011 129.688 189.639C130.115 191.579 130.329 193.566 130.329 195.601C130.329 197.635 130.115 199.623 129.688 201.562C129.328 203.19 128.818 204.784 128.158 206.345C127.495 207.914 126.702 209.396 125.78 210.793C124.76 212.339 123.582 213.78 122.245 215.117C120.909 216.453 119.468 217.631 117.922 218.651L117.922 218.652L117.922 218.652C116.524 219.574 115.042 220.366 113.474 221.03C111.913 221.69 110.318 222.2 108.69 222.559C106.751 222.987 104.764 223.201 102.729 223.201L95.0693 223.201C93.6699 223.201 92.4746 222.706 91.4844 221.716C90.4951 220.726 90 219.531 90 218.131L90 173.07C90 172.37 90.124 171.721 90.3711 171.124C90.6191 170.526 90.9902 169.98 91.4844 169.485C91.9795 168.99 92.5264 168.619 93.123 168.372L93.123 168.372C93.7207 168.125 94.3691 168 95.0693 168L102.729 168ZM102.729 178.139L100.139 178.139L100.139 213.062L102.729 213.062C104.078 213.062 105.394 212.914 106.674 212.618L106.675 212.618L106.675 212.618C107.645 212.394 108.594 212.085 109.524 211.692C110.485 211.285 111.396 210.801 112.257 210.24C113.266 209.583 114.206 208.818 115.076 207.948C115.946 207.077 116.711 206.137 117.369 205.128C117.93 204.268 118.414 203.357 118.82 202.396C119.214 201.465 119.522 200.516 119.746 199.546L119.746 199.546L119.746 199.546C120.043 198.265 120.19 196.95 120.19 195.601C120.19 194.251 120.043 192.936 119.746 191.655L119.746 191.655L119.746 191.655C119.522 190.686 119.214 189.736 118.82 188.806C118.414 187.844 117.93 186.934 117.369 186.073L117.369 186.073C116.711 185.064 115.946 184.124 115.076 183.254C114.206 182.383 113.266 181.619 112.257 180.961C111.396 180.4 110.485 179.916 109.524 179.509C108.594 179.116 107.645 178.807 106.675 178.583C105.394 178.288 104.078 178.139 102.729 178.139Z" clip-rule="evenodd" fill="#FFFFFF" fill-opacity="1.000000" fill-rule="evenodd"/>
		</g>
	</g>
</svg>
