<svg width="336.000000" height="336.000000" viewBox="0 0 336 336" fill="none" xmlns="http://www.w3.org/2000/svg" xmlns:xlink="http://www.w3.org/1999/xlink">
	<desc>
			Created with Pixso.
	</desc>
	<defs>
		<clipPath id="clip78_3697">
			<rect id="ic_light zip" width="336.000000" height="336.000000" fill="white" fill-opacity="0"/>
		</clipPath>
		<linearGradient x1="168.000000" y1="0.000000" x2="168.000000" y2="336.000000" id="paint_linear_78_3698_0" gradientUnits="userSpaceOnUse">
			<stop stop-color="#9FB1BD"/>
			<stop offset="1.000000" stop-color="#BFCAD3"/>
		</linearGradient>
	</defs>
	<g clip-path="url(#clip78_3697)">
		<rect id="矩形 540" x="42.000000" rx="23.566467" width="252.000000" height="336.000000" fill="url(#paint_linear_78_3698_0)" fill-opacity="1.000000"/>
		<path id="合并" d="M189 0.000488281L147 0.000488281L147 4.19971C147 8.83936 150.761 12.6006 155.4 12.6006L180.6 12.6006C185.239 12.6006 189 8.83936 189 4.19971L189 0.000488281ZM153.3 21.0005L182.7 21.0005C186.18 21.0005 189 23.8213 189 27.3003C189 30.7798 186.18 33.6006 182.7 33.6006L153.3 33.6006C149.82 33.6006 147 30.7798 147 27.3003C147 23.8213 149.82 21.0005 153.3 21.0005ZM182.7 42.0005L153.3 42.0005C149.82 42.0005 147 44.8213 147 48.3003C147 51.7798 149.82 54.6006 153.3 54.6006L182.7 54.6006C186.18 54.6006 189 51.7798 189 48.3003C189 44.8213 186.18 42.0005 182.7 42.0005ZM153.3 63.0005L182.7 63.0005C186.18 63.0005 189 65.8213 189 69.3003C189 72.7798 186.18 75.6006 182.7 75.6006L153.3 75.6006C149.82 75.6006 147 72.7798 147 69.3003C147 65.8213 149.82 63.0005 153.3 63.0005ZM184.8 84.001L151.2 84.001C148.881 84.001 147 85.8813 147 88.2012L147 130.201C147 132.521 148.881 134.401 151.2 134.401L184.8 134.401C187.119 134.401 189 132.521 189 130.201L189 88.2012C189 85.8813 187.119 84.001 184.8 84.001ZM157.5 109.2L178.5 109.2C179.66 109.2 180.6 110.14 180.6 111.3L180.6 123.899C180.6 125.06 179.66 126 178.5 126L157.5 126C156.34 126 155.4 125.06 155.4 123.899L155.4 111.3C155.4 110.14 156.34 109.2 157.5 109.2Z" clip-rule="evenodd" fill="#FFFFFF" fill-opacity="1.000000" fill-rule="evenodd"/>
		<g opacity="0.000000">
			<rect id="矩形 541" width="336.000000" height="336.000000" fill="#C4C4C4" fill-opacity="1.000000"/>
		</g>
		<g style="mix-blend-mode:normal">
			<path id="合并" d="M170.889 223.563L170.889 179.251C170.889 176.311 168.578 174.001 165.639 174.001C162.698 174.001 160.389 176.311 160.389 179.251L160.389 223.563C160.389 226.503 162.698 228.813 165.639 228.813C168.578 228.813 170.889 226.503 170.889 223.563ZM185.817 179.572L185.817 223.884C185.817 226.824 188.127 229.134 191.067 229.134C194.007 229.134 196.317 226.824 196.317 223.884L196.317 210.699L205.245 210.699C206.799 210.699 208.312 210.529 209.788 210.191C210.737 209.974 211.671 209.686 212.588 209.329C214.011 208.774 215.333 208.076 216.558 207.234C217.301 206.722 218.008 206.157 218.679 205.54C219.859 204.451 220.868 203.252 221.704 201.944C222.146 201.252 222.54 200.53 222.885 199.777C223.43 198.591 223.833 197.375 224.096 196.128C224.339 194.971 224.461 193.787 224.461 192.578C224.461 191.432 224.352 190.308 224.133 189.206C223.873 187.897 223.46 186.619 222.892 185.372C222.543 184.604 222.145 183.868 221.696 183.164L221.694 183.161C220.866 181.858 219.87 180.663 218.706 179.574C217.972 178.887 217.193 178.265 216.371 177.707C215.208 176.917 213.958 176.257 212.62 175.726C211.624 175.33 210.61 175.018 209.577 174.789C208.168 174.478 206.724 174.322 205.245 174.322L191.067 174.322C189.617 174.322 188.38 174.834 187.354 175.859C186.329 176.885 185.817 178.122 185.817 179.572ZM141.404 175.542L113.26 175.542C110.319 175.542 108.01 177.852 108.01 180.792C108.01 183.732 110.319 186.042 113.26 186.042L131.665 186.042L108.874 220.676C108.077 221.887 107.825 223.203 108.118 224.623C108.411 226.042 109.163 227.151 110.374 227.948C110.803 228.229 111.262 228.444 111.754 228.591C112.245 228.738 112.747 228.812 113.26 228.812L141.404 228.812C144.344 228.812 146.654 226.502 146.654 223.562C146.654 220.622 144.344 218.312 141.404 218.312L122.999 218.312L145.79 183.678C146.071 183.25 146.286 182.79 146.434 182.298C146.58 181.807 146.654 181.305 146.654 180.792C146.654 180.067 146.526 179.396 146.27 178.777C146.014 178.158 145.629 177.592 145.116 177.08C144.604 176.567 144.038 176.183 143.42 175.927C142.801 175.67 142.129 175.542 141.404 175.542ZM205.245 200.199L196.317 200.199L196.317 184.822L205.245 184.822C206.055 184.822 206.839 184.918 207.599 185.112L207.599 185.112C207.986 185.21 208.368 185.334 208.743 185.483C209.467 185.771 210.132 186.138 210.739 186.583C211.017 186.787 211.282 187.007 211.535 187.244C212.193 187.859 212.934 188.97 213.336 189.722C213.589 190.279 213.766 190.849 213.865 191.432C213.929 191.808 213.961 192.19 213.961 192.578C213.961 193.022 213.919 193.458 213.834 193.886C213.731 194.402 213.384 195.278 213.158 195.77C212.76 196.523 212.228 197.206 211.562 197.818C211.374 197.992 211.178 198.157 210.976 198.313C210.315 198.82 209.582 199.231 208.774 199.545C208.467 199.666 208.155 199.769 207.839 199.856C207.006 200.084 206.142 200.199 205.245 200.199Z" clip-rule="evenodd" fill="#FFFFFF" fill-opacity="1.000000" fill-rule="evenodd"/>
		</g>
	</g>
</svg>
