<svg width="336.000000" height="336.000000" viewBox="0 0 336 336" fill="none" xmlns="http://www.w3.org/2000/svg" xmlns:xlink="http://www.w3.org/1999/xlink">
	<desc>
			Created with Pixso.
	</desc>
	<defs>
		<clipPath id="clip78_3799">
			<rect id="ic_light emmx" width="336.000000" height="336.000000" fill="white" fill-opacity="0"/>
		</clipPath>
		<linearGradient x1="168.000000" y1="0.369141" x2="168.000000" y2="336.369141" id="paint_linear_80_2303_0" gradientUnits="userSpaceOnUse">
			<stop stop-color="#71DF66"/>
			<stop offset="1.000000" stop-color="#4EBA45"/>
		</linearGradient>
		<linearGradient x1="247.926651" y1="45.868553" x2="198.742447" y2="92.657913" id="paint_linear_80_2305_0" gradientUnits="userSpaceOnUse">
			<stop offset="0.100487" stop-color="#41B837"/>
			<stop offset="1.000000" stop-color="#68DE5C"/>
		</linearGradient>
		<linearGradient x1="205.607727" y1="-4.294833" x2="244.632614" y2="99.142593" id="paint_linear_80_2306_0" gradientUnits="userSpaceOnUse">
			<stop stop-color="#65D75C"/>
			<stop offset="0.263916" stop-color="#81EC77"/>
			<stop offset="0.651073" stop-color="#B2FFAA"/>
			<stop offset="0.832627" stop-color="#94EB8A"/>
			<stop offset="0.933527" stop-color="#59CF4E" stop-opacity="0.615686"/>
		</linearGradient>
	</defs>
	<g clip-path="url(#clip78_3799)">
		<path id="矩形备份 113" d="M65.58 0.36L188.38 0.36C194.19 0.36 199.77 2.66 203.9 6.75L287.46 89.5C291.64 93.64 294 99.28 294 105.17L294 312.78C294 325.81 283.44 336.36 270.41 336.36L65.58 336.36C52.55 336.36 42 325.81 42 312.78L42 23.95C42 10.92 52.55 0.36 65.58 0.36Z" fill="url(#paint_linear_80_2303_0)" fill-opacity="1.000000" fill-rule="evenodd"/>
		<g style="mix-blend-mode:normal">
			<path id="矩形 2" d="M197.08 64.1L197.08 35L196.9 17.5C196.84 11.89 194.56 6.54 190.55 2.62L187.87 0L191.68 0C196.55 0 201.2 1.96 204.59 5.45L208.87 9.85L221.4 22.28L246.45 47.15L271.5 72.02L286.88 87.27C291.42 91.78 293.97 97.91 293.97 104.31L293.97 105.36L291.39 102.77C287.38 98.77 281.95 96.52 276.29 96.52L258.61 96.52L229.5 96.52C211.6 96.52 197.08 82 197.08 64.1Z" fill="url(#paint_linear_80_2305_0)" fill-opacity="1.000000" fill-rule="evenodd"/>
		</g>
		<path id="减去顶层" d="M183.787 -0.000488281L183.78 -0.000488281L185.92 1.49756L189.964 4.39014C191.09 5.19531 192.085 6.11133 192.949 7.13672L192.949 7.13721C193.7 8.02783 194.353 9.00195 194.906 10.0596C195.559 11.3057 196.033 12.5918 196.33 13.9175C196.578 15.0254 196.702 16.1611 196.702 17.3242L196.86 49.979L196.887 64.8418C196.887 67.8311 197.298 70.6968 198.12 73.4395C198.639 75.1699 199.321 76.8511 200.167 78.4834C200.373 78.8804 200.587 79.272 200.81 79.6587C202.672 82.895 205.131 85.7886 208.187 88.3384C209.791 89.6777 211.485 90.8643 213.268 91.897C214.861 92.8213 216.527 93.6226 218.264 94.3013C221.743 95.6616 224.995 96.3418 228.019 96.3418C229.05 96.3418 229.86 95.5312 229.86 94.4995C229.86 93.4678 229.05 92.6572 228.019 92.6572C225.458 92.6572 222.653 92.0615 219.605 90.8696C218.055 90.2637 216.567 89.5488 215.144 88.7256C213.531 87.793 211.999 86.7212 210.548 85.5098C207.686 83.1211 205.418 80.4053 203.745 77.3628L203.745 77.3623C203.036 75.9946 202.151 74.0117 201.706 72.563C200.949 70.1055 200.571 67.5317 200.571 64.8418L200.545 49.9727L200.387 17.3066C200.387 15.8984 200.239 14.5229 199.943 13.1802L199.943 13.1797C199.578 11.5205 198.987 9.91064 198.17 8.35059C197.481 7.03418 196.668 5.82324 195.73 4.71729L195.73 4.71729C194.679 3.47705 193.472 2.36865 192.107 1.39355L191.159 0.714844C190.074 0.0654297 189.825 0.00537109 186.649 0L183.787 0L183.787 -0.000488281Z" clip-rule="evenodd" fill="url(#paint_linear_80_2306_0)" fill-opacity="1.000000" fill-rule="evenodd"/>
		<g style="mix-blend-mode:normal">
			<path id="合并" d="M262.679 170.337L252.754 187.071L242.829 170.338C241.476 168.056 238.619 167.326 236.338 168.68C234.056 170.033 233.326 172.889 234.68 175.171L247.245 196.358L234.68 217.544C233.327 219.826 234.057 222.682 236.338 224.036C238.62 225.389 241.477 224.66 242.829 222.377L252.754 205.645L262.678 222.378C264.031 224.66 266.888 225.39 269.169 224.037C271.451 222.683 272.181 219.827 270.827 217.545L258.262 196.358L270.828 175.17C272.182 172.889 271.452 170.032 269.17 168.679C266.888 167.326 264.032 168.055 262.679 170.337ZM102.869 226.02L77.4736 226.02C75.9619 226.02 74.6729 225.486 73.6035 224.417C73.0693 223.883 72.6689 223.293 72.4014 222.648C72.1348 222.003 72.001 221.303 72.001 220.547L72.001 173.473C72.001 172.717 72.1348 172.017 72.4014 171.372L72.4014 171.372L72.4014 171.372C72.6689 170.727 73.0693 170.137 73.6035 169.603C74.1377 169.068 74.7275 168.668 75.373 168.401C76.0176 168.134 76.7178 168 77.4736 168L102.869 168C105.934 168 108.342 170.408 108.342 173.473C108.342 176.537 105.934 178.945 102.869 178.945L82.9463 178.945L82.9463 190.443L99.3643 190.443C102.429 190.443 104.837 192.851 104.837 195.916C104.837 198.98 102.429 201.388 99.3643 201.388L82.9463 201.388L82.9463 215.075L102.869 215.075C105.934 215.075 108.342 217.483 108.342 220.547C108.342 223.612 105.934 226.02 102.869 226.02ZM158.191 219.291L158.191 187.381L144.817 221.04C144.334 222.255 143.492 223.122 142.291 223.64C141.09 224.158 139.882 224.175 138.667 223.692C138.051 223.448 137.51 223.089 137.045 222.618C136.579 222.146 136.228 221.601 135.991 220.981L123.095 187.234L122.933 219.314C122.92 221.967 120.825 224.041 118.173 224.027C115.521 224.014 113.447 221.919 113.461 219.267L113.685 174.705C113.691 173.402 114.156 172.291 115.08 171.372C115.542 170.912 116.052 170.567 116.608 170.337C117.165 170.108 117.77 169.993 118.421 169.993L123.386 169.993C124.367 169.993 125.263 170.271 126.071 170.828C126.88 171.384 127.459 172.121 127.81 173.038L140.502 206.249L153.721 172.98C154.079 172.078 154.66 171.355 155.463 170.81C156.266 170.265 157.152 169.993 158.122 169.993L162.928 169.993C163.582 169.993 164.188 170.108 164.746 170.339C165.304 170.571 165.814 170.917 166.276 171.38C167.201 172.305 167.664 173.421 167.664 174.729L167.664 219.291C167.664 221.943 165.58 224.027 162.928 224.027C160.275 224.027 158.191 221.943 158.191 219.291ZM218.757 187.381L218.757 219.291C218.757 221.943 220.841 224.027 223.493 224.027C226.146 224.027 228.229 221.943 228.229 219.291L228.229 174.729C228.229 173.421 227.767 172.305 226.842 171.38C226.38 170.917 225.869 170.571 225.312 170.339C224.753 170.108 224.147 169.993 223.493 169.993L218.688 169.993C218.203 169.993 217.738 170.061 217.295 170.197L217.295 170.197C216.852 170.333 216.43 170.538 216.028 170.81C215.226 171.355 214.645 172.078 214.286 172.98L201.066 206.249L188.375 173.038C188.024 172.121 187.445 171.384 186.637 170.828C185.828 170.271 184.933 169.993 183.951 169.993L178.986 169.993C178.335 169.993 177.73 170.108 177.174 170.337C176.617 170.567 176.107 170.912 175.646 171.372C174.722 172.291 174.257 173.402 174.25 174.705L174.026 219.267C174.013 221.919 176.086 224.014 178.738 224.027C181.391 224.041 183.485 221.967 183.498 219.314L183.66 187.234L196.557 220.981C196.793 221.601 197.145 222.146 197.61 222.618C198.075 223.089 198.616 223.448 199.232 223.692C200.447 224.175 201.655 224.158 202.856 223.64C204.058 223.122 204.899 222.255 205.383 221.04L218.757 187.381Z" clip-rule="evenodd" fill="#FFFFFF" fill-opacity="1.000000" fill-rule="evenodd"/>
		</g>
	</g>
</svg>
