<svg width="336.000000" height="336.000000" viewBox="0 0 336 336" fill="none" xmlns="http://www.w3.org/2000/svg" xmlns:xlink="http://www.w3.org/1999/xlink">
	<desc>
			Created with Pixso.
	</desc>
	<defs>
		<clipPath id="clip78_3326">
			<rect id="ic_light amr" width="336.000000" height="336.000000" fill="white" fill-opacity="0"/>
		</clipPath>
		<linearGradient x1="168.000000" y1="0.369141" x2="168.000000" y2="336.369141" id="paint_linear_80_2161_0" gradientUnits="userSpaceOnUse">
			<stop stop-color="#FF6D81"/>
			<stop offset="1.000000" stop-color="#F03F64"/>
		</linearGradient>
		<linearGradient x1="247.925674" y1="45.868553" x2="198.741470" y2="92.657913" id="paint_linear_80_2163_0" gradientUnits="userSpaceOnUse">
			<stop offset="0.100487" stop-color="#EF4161"/>
			<stop offset="1.000000" stop-color="#FA7286"/>
		</linearGradient>
		<linearGradient x1="205.606766" y1="-4.293604" x2="236.694397" y2="99.143799" id="paint_linear_80_2164_0" gradientUnits="userSpaceOnUse">
			<stop stop-color="#F85A72"/>
			<stop offset="0.254966" stop-color="#FF9EA5"/>
			<stop offset="0.670781" stop-color="#FFB1BE"/>
			<stop offset="0.942386" stop-color="#F7637B"/>
			<stop offset="1.000000" stop-color="#F45973" stop-opacity="0.000000"/>
		</linearGradient>
	</defs>
	<g clip-path="url(#clip78_3326)">
		<path id="矩形备份 113" d="M65.58 0.36L188.38 0.36C194.19 0.36 199.77 2.66 203.9 6.75L287.46 89.5C291.64 93.64 294 99.28 294 105.17L294 312.78C294 325.81 283.44 336.36 270.41 336.36L65.58 336.36C52.55 336.36 42 325.81 42 312.78L42 23.95C42 10.92 52.55 0.36 65.58 0.36Z" fill="url(#paint_linear_80_2161_0)" fill-opacity="1.000000" fill-rule="evenodd"/>
		<g style="mix-blend-mode:normal">
			<path id="矩形 2" d="M197.08 64.1L197.08 35L196.89 17.5C196.84 11.89 194.55 6.54 190.55 2.62L187.87 0L191.68 0C196.55 0 201.2 1.96 204.59 5.45L208.87 9.85L221.39 22.28L246.45 47.15L271.5 72.02L286.87 87.27C291.42 91.78 293.97 97.91 293.97 104.31L293.97 105.36L291.38 102.77C287.38 98.77 281.95 96.52 276.29 96.52L258.6 96.52L229.5 96.52C211.6 96.52 197.08 82 197.08 64.1Z" fill="url(#paint_linear_80_2163_0)" fill-opacity="1.000000" fill-rule="evenodd"/>
		</g>
		<path id="减去顶层" d="M185.919 1.49878L189.963 4.39136C191.089 5.19678 192.084 6.1123 192.948 7.13818L192.948 7.13818C193.699 8.0293 194.352 9.00342 194.905 10.0605C195.558 11.3069 196.032 12.593 196.329 13.9187C196.577 15.0266 196.701 16.1621 196.701 17.3257L196.859 49.9802L196.886 64.843C196.886 67.832 197.297 70.698 198.119 73.4407C198.638 75.1711 199.32 76.8525 200.166 78.4849C200.372 78.8813 200.586 79.2732 200.809 79.6599C202.671 82.8965 205.13 85.7896 208.186 88.3396C209.79 89.6792 211.484 90.8652 213.267 91.8984C214.86 92.8223 216.526 93.6238 218.263 94.3027C221.742 95.6631 224.994 96.3433 228.018 96.3433C229.049 96.3433 229.859 95.5325 229.859 94.501C229.859 93.4692 229.049 92.6587 228.018 92.6587C225.457 92.6587 222.652 92.0627 219.604 90.8711C218.054 90.2649 216.566 89.5503 215.143 88.7266C213.53 87.7942 211.998 86.7222 210.547 85.5107C207.685 83.1223 205.417 80.4067 203.744 77.3643L203.744 77.3638C203.035 75.9958 202.15 74.0129 201.705 72.5642C200.948 70.1069 200.57 67.5332 200.57 64.843L200.544 49.9736L200.386 17.3079C200.386 15.8997 200.238 14.5242 199.942 13.1814L199.942 13.1809C199.577 11.5215 198.986 9.91187 198.169 8.35181C197.48 7.0354 196.667 5.82422 195.729 4.71851L195.729 4.71851C194.678 3.47803 193.471 2.37012 192.106 1.39453L191.158 0.716064C189.963 0.000732422 189.782 0.000732422 185.587 0.000732422L183.779 0.000732422L185.919 1.49878Z" clip-rule="evenodd" fill="url(#paint_linear_80_2164_0)" fill-opacity="1.000000" fill-rule="evenodd"/>
		<g style="mix-blend-mode:normal">
			<path id="合并" d="M200.099 237.631L200.099 274.847C200.099 276.881 201.696 278.478 203.73 278.478C205.764 278.478 207.361 276.881 207.361 274.847L207.361 262.863L224.198 277.581C225.729 278.919 227.983 278.768 229.321 277.237C230.66 275.706 230.509 273.451 228.978 272.113L215.634 260.449C219.589 260.402 222.744 259.469 225.1 257.65C225.789 257.117 226.396 256.52 226.922 255.857C227.469 255.166 227.926 254.405 228.294 253.573C228.992 251.995 229.342 250.212 229.342 248.223C229.342 246.446 228.916 244.339 228.371 242.749C227.918 241.549 227.325 240.453 226.594 239.459C226.261 239.006 225.898 238.575 225.508 238.166C224.964 237.596 224.379 237.082 223.752 236.625C222.906 236.008 221.606 235.344 220.609 234.934C218.965 234.312 217.202 234 215.321 234L203.73 234C202.728 234 201.871 234.355 201.162 235.064C200.453 235.773 200.099 236.629 200.099 237.631ZM108.247 273.46L122.119 237.121C122.298 236.653 122.546 236.25 122.864 235.914L122.864 235.914L122.864 235.914C123.183 235.577 123.57 235.307 124.028 235.102C124.485 234.897 124.946 234.788 125.409 234.775L125.409 234.775L125.409 234.775C125.872 234.762 126.338 234.845 126.807 235.024C127.299 235.212 127.73 235.494 128.1 235.87C128.285 236.058 128.446 236.261 128.583 236.479C128.721 236.697 128.835 236.93 128.925 237.177L142.113 273.516C142.808 275.427 141.851 277.475 139.939 278.168C138.027 278.862 135.98 277.905 135.287 275.994L132.146 267.339L118.357 267.339L115.031 276.05C114.307 277.95 112.244 278.873 110.345 278.147C108.444 277.422 107.521 275.36 108.247 273.46ZM186.373 247.867L186.373 273.85C186.373 275.883 187.971 277.481 190.004 277.481C192.038 277.481 193.636 275.883 193.636 273.85L193.636 239.243C193.636 238.24 193.281 237.384 192.572 236.675C191.863 235.966 191.007 235.612 190.004 235.612L186.059 235.612C185.327 235.612 184.657 235.814 184.049 236.219C183.439 236.623 182.994 237.162 182.711 237.836L171.582 264.32L160.898 237.882C160.621 237.196 160.176 236.646 159.562 236.232C158.948 235.819 158.271 235.612 157.531 235.612L153.455 235.612C152.456 235.612 151.603 235.964 150.895 236.668C150.186 237.373 149.829 238.225 149.824 239.224L149.64 273.83C149.629 275.864 151.218 277.47 153.252 277.481C155.285 277.491 156.892 275.902 156.902 273.869L157.041 247.72L168.15 275.21C168.332 275.659 168.592 276.055 168.932 276.4C169.271 276.744 169.664 277.01 170.11 277.197C171.035 277.586 171.961 277.59 172.89 277.211C173.818 276.832 174.477 276.181 174.864 275.256L186.373 247.867ZM215.321 253.188L207.361 253.188L207.361 241.262L215.321 241.262C216.867 241.262 218.176 241.619 219.247 242.332C219.609 242.573 220.12 243.048 220.429 243.371C220.915 243.927 221.298 244.575 221.576 245.314C221.911 246.201 222.079 247.171 222.079 248.223C222.079 249.188 221.938 249.992 221.653 250.634C221.533 250.905 221.383 251.152 221.203 251.374C221.045 251.569 220.864 251.745 220.66 251.903C219.551 252.76 217.771 253.188 215.321 253.188ZM125.426 248.823L129.51 260.077L121.129 260.077L125.426 248.823Z" clip-rule="evenodd" fill="#FFFFFF" fill-opacity="1.000000" fill-rule="evenodd"/>
		</g>
		<g style="mix-blend-mode:normal">
			<path id="Shape Copy备份 27" d="M205.57 133.88L205.57 195.15C205.57 203.11 199.76 209.4 192.01 210.35C184.26 211.3 178.35 206.25 178.35 199.94C178.35 192.13 184.01 188.71 188.85 186.71C193.7 184.71 197.2 180.9 197.2 177.16L197.2 148.72C197.2 146.6 195.27 145 193.18 145.39L158.1 152C156.5 152.3 155.34 153.7 155.34 155.32L155.34 200.98C155.34 208.9 147.72 217.21 140.8 218.6C133.88 219.99 126 215.13 126 207.06C126 199 133.04 194.5 136.84 193.02C139.03 192.17 146.97 189.57 146.97 185.72L146.97 141.21C146.97 137.34 149.76 134.02 153.58 133.36L196.26 126.03C201.13 125.19 205.57 128.94 205.57 133.88Z" fill="#FFFFFF" fill-opacity="1.000000" fill-rule="evenodd"/>
		</g>
	</g>
</svg>
