<svg width="336.000000" height="336.000000" viewBox="0 0 336 336" fill="none" xmlns="http://www.w3.org/2000/svg" xmlns:xlink="http://www.w3.org/1999/xlink">
	<desc>
			Created with Pixso.
	</desc>
	<defs>
		<clipPath id="clip78_3527">
			<rect id="ic_light html" width="336.000000" height="336.000000" fill="white" fill-opacity="0"/>
		</clipPath>
		<linearGradient x1="168.000000" y1="0.000000" x2="168.000000" y2="336.000000" id="paint_linear_80_2247_0" gradientUnits="userSpaceOnUse">
			<stop stop-color="#55BFF2"/>
			<stop offset="1.000000" stop-color="#3898F7"/>
		</linearGradient>
		<linearGradient x1="289.026459" y1="79.026276" x2="254.578918" y2="105.368423" id="paint_linear_80_2247_1" gradientUnits="userSpaceOnUse">
			<stop offset="0.012343" stop-color="#A54000"/>
			<stop offset="1.000000" stop-color="#F67F22" stop-opacity="0.000000"/>
		</linearGradient>
		<linearGradient x1="247.925674" y1="45.869041" x2="198.741470" y2="92.658401" id="paint_linear_80_2250_0" gradientUnits="userSpaceOnUse">
			<stop offset="0.100487" stop-color="#4799ED"/>
			<stop offset="1.000000" stop-color="#77CDFB"/>
		</linearGradient>
		<linearGradient x1="205.607742" y1="-4.293359" x2="234.490524" y2="97.463654" id="paint_linear_80_2251_0" gradientUnits="userSpaceOnUse">
			<stop stop-color="#36BCF8"/>
			<stop offset="0.265149" stop-color="#A5DAFF"/>
			<stop offset="0.715692" stop-color="#CDEBFF"/>
			<stop offset="0.924672" stop-color="#80C9FF"/>
			<stop offset="1.000000" stop-color="#64B8F5" stop-opacity="0.000000"/>
		</linearGradient>
	</defs>
	<g clip-path="url(#clip78_3527)">
		<path id="矩形备份 113" d="M65.58 0L188.38 0C194.19 0 199.77 2.29 203.9 6.38L287.46 89.13C291.64 93.27 294 98.91 294 104.8L294 312.41C294 325.44 283.44 336 270.41 336L65.58 336C52.55 336 42 325.44 42 312.41L42 23.58C42 10.55 52.55 0 65.58 0Z" fill="url(#paint_linear_80_2247_0)" fill-opacity="1.000000" fill-rule="evenodd"/>
		<path id="矩形备份 113" d="M65.58 0L188.38 0C194.19 0 199.77 2.29 203.9 6.38L287.46 89.13C291.64 93.27 294 98.91 294 104.8L294 312.41C294 325.44 283.44 336 270.41 336L65.58 336C52.55 336 42 325.44 42 312.41L42 23.58C42 10.55 52.55 0 65.58 0Z" fill="url(#paint_linear_80_2247_1)" fill-opacity="0" fill-rule="evenodd"/>
		<g style="mix-blend-mode:normal">
			<path id="矩形 2" d="M197.08 64.1L197.08 35L196.89 17.5C196.84 11.89 194.55 6.54 190.55 2.62L187.87 0L191.68 0C196.55 0 201.2 1.96 204.59 5.45L208.87 9.85L221.39 22.29L246.45 47.15L271.5 72.02L286.87 87.27C291.42 91.78 293.97 97.91 293.97 104.31L293.97 105.36L291.38 102.77C287.38 98.77 281.95 96.52 276.29 96.52L258.6 96.52L229.5 96.52C211.6 96.52 197.08 82.01 197.08 64.1Z" fill="url(#paint_linear_80_2250_0)" fill-opacity="1.000000" fill-rule="evenodd"/>
		</g>
		<path id="减去顶层" d="M185.92 1.49902L189.964 4.3916C191.09 5.19678 192.085 6.11279 192.949 7.13818L192.949 7.13867C193.7 8.0293 194.353 9.00342 194.906 10.061C195.559 11.3071 196.033 12.5933 196.33 13.9189C196.578 15.0269 196.702 16.1626 196.702 17.3257L196.86 49.9805L196.887 64.8433C196.887 67.8325 197.298 70.6982 198.12 73.4409C198.639 75.1714 199.321 76.8525 200.167 78.4849C200.373 78.8818 200.587 79.2734 200.81 79.6602C202.672 82.8965 205.131 85.79 208.187 88.3398C209.791 89.6792 211.485 90.8657 213.268 91.8984C214.861 92.8228 216.527 93.624 218.264 94.3027C221.743 95.6631 224.995 96.3433 228.019 96.3433C229.05 96.3433 229.86 95.5327 229.86 94.501C229.86 93.4692 229.05 92.6587 228.019 92.6587C225.458 92.6587 222.653 92.063 219.605 90.8711C218.055 90.2651 216.567 89.5503 215.144 88.7271C213.531 87.7944 211.999 86.7227 210.548 85.5112C207.686 83.1226 205.418 80.4067 203.745 77.3643L203.745 77.3638C203.036 75.9961 202.151 74.0132 201.706 72.5645C200.949 70.1069 200.571 67.5332 200.571 64.8433L200.545 49.9741L200.387 17.3081C200.387 15.8999 200.239 14.5244 199.943 13.1816L199.943 13.1812C199.578 11.522 198.987 9.91211 198.17 8.35205C197.481 7.03564 196.668 5.82471 195.73 4.71875L195.73 4.71875C194.679 3.47852 193.472 2.37012 192.107 1.39502L191.159 0.716309C189.964 0.000976562 189.783 0.000976562 185.588 0.000976562L183.78 0.000976562L185.92 1.49902Z" clip-rule="evenodd" fill="url(#paint_linear_80_2251_0)" fill-opacity="1.000000" fill-rule="evenodd"/>
		<g style="mix-blend-mode:normal">
			<path id="合并" d="M72 213.082L72 166.734C72 164.083 74.083 162 76.7354 162C79.3867 162 81.4697 164.083 81.4697 166.734L81.4697 184.319L103.439 184.319L103.439 166.734C103.439 164.083 105.522 162 108.175 162C110.826 162 112.909 164.083 112.909 166.734L112.909 188.967C112.91 188.996 112.91 189.025 112.91 189.054C112.91 189.083 112.91 189.112 112.909 189.141L112.909 213.082C112.909 215.733 110.826 217.816 108.175 217.816C105.522 217.816 103.439 215.733 103.439 213.082L103.439 193.789L81.4697 193.789L81.4697 213.082C81.4697 215.733 79.3867 217.816 76.7354 217.816C74.083 217.816 72 215.733 72 213.082ZM155.642 172.396L145.117 172.396L145.117 213.682C145.117 216.334 143.034 218.417 140.383 218.417C137.73 218.417 135.647 216.334 135.647 213.682L135.647 172.396L125.122 172.396C122.47 172.396 120.387 170.312 120.387 167.661C120.387 165.009 122.47 162.926 125.122 162.926L155.642 162.926C158.293 162.926 160.376 165.009 160.376 167.661C160.376 170.312 158.293 172.396 155.642 172.396ZM241.676 167.662L241.676 209.933L261.284 209.933C263.936 209.933 266.019 212.016 266.019 214.668C266.019 217.319 263.936 219.403 261.284 219.403L236.941 219.403C235.634 219.403 234.518 218.94 233.593 218.016C232.668 217.091 232.206 215.975 232.206 214.668L232.206 167.662C232.206 165.011 234.289 162.927 236.941 162.927C239.593 162.927 241.676 165.011 241.676 167.662ZM211.352 215.094L211.352 182.386L198.521 216.75C198.292 217.362 197.972 217.889 197.561 218.331C197.148 218.773 196.646 219.13 196.051 219.401C194.861 219.944 193.654 219.987 192.429 219.529C191.776 219.286 191.205 218.916 190.716 218.42C190.227 217.925 189.864 217.349 189.629 216.694L177.261 182.253L177.105 215.116C177.093 217.767 175 219.841 172.349 219.828C169.705 219.816 167.636 217.735 167.636 215.095L167.636 215.071L167.854 168.724C167.861 167.421 168.326 166.31 169.25 165.39C170.173 164.471 171.287 164.011 172.59 164.011L177.441 164.011C178.44 164.011 179.349 164.299 180.166 164.874C180.982 165.448 181.561 166.206 181.897 167.146L194.172 201.325L206.954 167.09C207.127 166.627 207.358 166.21 207.647 165.838L207.647 165.838L207.647 165.837C207.937 165.465 208.284 165.138 208.69 164.857C209.502 164.293 210.402 164.011 211.391 164.011L216.086 164.011C217.394 164.011 218.51 164.474 219.435 165.398C219.896 165.861 220.243 166.371 220.475 166.929C220.706 167.487 220.821 168.093 220.821 168.746L220.821 215.094C220.821 217.745 218.738 219.828 216.086 219.828C213.435 219.828 211.352 217.745 211.352 215.094Z" clip-rule="evenodd" fill="#FFFFFF" fill-opacity="1.000000" fill-rule="evenodd"/>
		</g>
	</g>
</svg>
