<svg width="336.000000" height="336.000000" viewBox="0 0 336 336" fill="none" xmlns="http://www.w3.org/2000/svg" xmlns:xlink="http://www.w3.org/1999/xlink">
	<desc>
			Created with Pixso.
	</desc>
	<defs>
		<clipPath id="clip78_3617">
			<rect id="ic_light unknow" width="336.000000" height="336.000000" fill="white" fill-opacity="0"/>
		</clipPath>
		<linearGradient x1="168.000000" y1="0.000000" x2="168.000000" y2="336.000000" id="paint_linear_80_2336_0" gradientUnits="userSpaceOnUse">
			<stop stop-color="#C0CBD4"/>
			<stop offset="1.000000" stop-color="#9EB0BC"/>
		</linearGradient>
		<linearGradient x1="247.926651" y1="45.868553" x2="198.742447" y2="92.657913" id="paint_linear_80_2338_0" gradientUnits="userSpaceOnUse">
			<stop offset="0.100487" stop-color="#97ABB8"/>
			<stop offset="1.000000" stop-color="#D7E2E9"/>
		</linearGradient>
		<linearGradient x1="205.607727" y1="-4.294811" x2="231.403839" y2="96.341965" id="paint_linear_80_2339_0" gradientUnits="userSpaceOnUse">
			<stop stop-color="#9EB0BC"/>
			<stop offset="0.332341" stop-color="#D2DDE4"/>
			<stop offset="0.685898" stop-color="#EDF7FE"/>
			<stop offset="0.879007" stop-color="#DBE5EB"/>
			<stop offset="1.000000" stop-color="#C1CFD8" stop-opacity="0.000000"/>
		</linearGradient>
	</defs>
	<g clip-path="url(#clip78_3617)">
		<path id="矩形备份 113" d="M65.58 0L188.38 0C194.19 0 199.77 2.29 203.9 6.38L287.46 89.13C291.64 93.27 294 98.91 294 104.8L294 312.41C294 325.44 283.44 336 270.41 336L65.58 336C52.55 336 42 325.44 42 312.41L42 23.58C42 10.55 52.55 0 65.58 0Z" fill="url(#paint_linear_80_2336_0)" fill-opacity="1.000000" fill-rule="evenodd"/>
		<g style="mix-blend-mode:normal">
			<path id="矩形 2" d="M197.08 64.1L197.08 35L196.9 17.5C196.84 11.89 194.56 6.54 190.55 2.62L187.87 0L191.68 0C196.55 0 201.2 1.96 204.59 5.45L208.87 9.85L221.4 22.28L246.45 47.15L271.5 72.02L286.88 87.27C291.42 91.78 293.97 97.91 293.97 104.31L293.97 105.36L291.39 102.77C287.38 98.77 281.95 96.52 276.29 96.52L258.61 96.52L229.5 96.52C211.6 96.52 197.08 82 197.08 64.1Z" fill="url(#paint_linear_80_2338_0)" fill-opacity="1.000000" fill-rule="evenodd"/>
		</g>
		<path id="减去顶层" d="M183.787 -0.000488281L183.78 -0.000488281L185.92 1.49756L189.964 4.39014C191.09 5.19531 192.085 6.11133 192.949 7.13672L192.949 7.13721C193.7 8.02783 194.353 9.00195 194.906 10.0596C195.559 11.3057 196.033 12.5918 196.33 13.9175C196.578 15.0254 196.702 16.1611 196.702 17.3242L196.86 49.979L196.887 64.8418C196.887 67.8311 197.298 70.6968 198.12 73.4395C198.639 75.1699 199.321 76.8511 200.167 78.4834C200.373 78.8804 200.587 79.272 200.81 79.6587C202.672 82.895 205.131 85.7886 208.187 88.3384C209.791 89.6777 211.485 90.8643 213.268 91.897C214.861 92.8213 216.527 93.6226 218.264 94.3013C221.743 95.6616 224.995 96.3418 228.019 96.3418C229.05 96.3418 229.86 95.5312 229.86 94.4995C229.86 93.4678 229.05 92.6572 228.019 92.6572C225.458 92.6572 222.653 92.0615 219.605 90.8696C218.055 90.2637 216.567 89.5488 215.144 88.7256C213.531 87.793 211.999 86.7212 210.548 85.5098C207.686 83.1211 205.418 80.4053 203.745 77.3628L203.745 77.3623C203.036 75.9946 202.151 74.0117 201.706 72.563C200.949 70.1055 200.571 67.5317 200.571 64.8418L200.545 49.9727L200.387 17.3066C200.387 15.8984 200.239 14.5229 199.943 13.1802L199.943 13.1797C199.578 11.5205 198.987 9.91064 198.17 8.35059C197.481 7.03418 196.668 5.82324 195.73 4.71729L195.73 4.71729C194.679 3.47705 193.472 2.36865 192.107 1.39355L191.159 0.714844C190.074 0.0654297 189.825 0.00537109 186.649 0L183.787 0L183.787 -0.000488281Z" clip-rule="evenodd" fill="url(#paint_linear_80_2339_0)" fill-opacity="1.000000" fill-rule="evenodd"/>
		<g style="mix-blend-mode:normal">
			<path id="Combined Shape" d="M110.525 190.964C110.525 223.181 136.643 249.297 168.858 249.297C201.075 249.297 227.192 223.181 227.192 190.964C227.192 158.748 201.075 132.631 168.858 132.631C136.643 132.631 110.525 158.748 110.525 190.964ZM158.254 177.521C158.254 179.718 156.473 181.498 154.276 181.498C152.08 181.498 150.299 179.718 150.299 177.521C150.299 165.98 160.891 157.267 172.534 159.498C179.808 160.894 185.644 166.655 187.061 173.865C188.778 182.596 184.162 190.986 176.234 194.387C174.191 195.263 172.838 197.421 172.838 199.83L172.838 202.896C172.838 205.093 171.057 206.874 168.86 206.874C166.664 206.874 164.883 205.093 164.883 202.896L164.883 199.83C164.883 194.309 168.065 189.235 173.099 187.076C177.631 185.133 180.238 180.393 179.256 175.4C178.467 171.385 175.136 168.097 171.036 167.311C164.289 166.018 158.254 170.982 158.254 177.521ZM168.858 214.828C165.93 214.828 163.556 217.203 163.556 220.131C163.556 223.06 165.93 225.435 168.858 225.435C171.787 225.435 174.162 223.06 174.162 220.131C174.162 217.203 171.787 214.828 168.858 214.828Z" clip-rule="evenodd" fill="#FFFFFF" fill-opacity="1.000000" fill-rule="evenodd"/>
		</g>
	</g>
</svg>
