<svg width="336.000000" height="336.000000" viewBox="0 0 336 336" fill="none" xmlns="http://www.w3.org/2000/svg" xmlns:xlink="http://www.w3.org/1999/xlink">
	<desc>
			Created with Pixso.
	</desc>
	<defs>
		<clipPath id="clip78_3358">
			<rect id="ic_light flac" width="336.000000" height="336.000000" fill="white" fill-opacity="0"/>
		</clipPath>
		<linearGradient x1="168.000000" y1="0.369141" x2="168.000000" y2="336.369141" id="paint_linear_80_2147_0" gradientUnits="userSpaceOnUse">
			<stop stop-color="#FF6D81"/>
			<stop offset="1.000000" stop-color="#F03F64"/>
		</linearGradient>
		<linearGradient x1="247.925674" y1="45.868553" x2="198.741470" y2="92.657913" id="paint_linear_80_2149_0" gradientUnits="userSpaceOnUse">
			<stop offset="0.100487" stop-color="#EF4161"/>
			<stop offset="1.000000" stop-color="#FA7286"/>
		</linearGradient>
		<linearGradient x1="205.606766" y1="-4.294825" x2="236.694397" y2="99.142578" id="paint_linear_80_2150_0" gradientUnits="userSpaceOnUse">
			<stop stop-color="#F85A72"/>
			<stop offset="0.254966" stop-color="#FF9EA5"/>
			<stop offset="0.670781" stop-color="#FFB1BE"/>
			<stop offset="0.942386" stop-color="#F7637B"/>
			<stop offset="1.000000" stop-color="#F45973" stop-opacity="0.000000"/>
		</linearGradient>
	</defs>
	<g clip-path="url(#clip78_3358)">
		<path id="矩形备份 113" d="M65.58 0.36L188.38 0.36C194.19 0.36 199.77 2.66 203.9 6.75L287.46 89.5C291.64 93.64 294 99.28 294 105.17L294 312.78C294 325.81 283.44 336.36 270.41 336.36L65.58 336.36C52.55 336.36 42 325.81 42 312.78L42 23.95C42 10.92 52.55 0.36 65.58 0.36Z" fill="url(#paint_linear_80_2147_0)" fill-opacity="1.000000" fill-rule="evenodd"/>
		<g style="mix-blend-mode:normal">
			<path id="矩形 2" d="M197.08 64.1L197.08 35L196.89 17.5C196.84 11.89 194.55 6.54 190.55 2.62L187.87 0L191.68 0C196.55 0 201.2 1.96 204.59 5.45L208.87 9.85L221.39 22.28L246.45 47.15L271.5 72.02L286.87 87.27C291.42 91.78 293.97 97.91 293.97 104.31L293.97 105.36L291.38 102.77C287.38 98.77 281.95 96.52 276.29 96.52L258.6 96.52L229.5 96.52C211.6 96.52 197.08 82 197.08 64.1Z" fill="url(#paint_linear_80_2149_0)" fill-opacity="1.000000" fill-rule="evenodd"/>
		</g>
		<path id="减去顶层" d="M183.786 -0.000488281L183.779 -0.000488281L185.919 1.49756L189.963 4.39014C191.089 5.19531 192.084 6.11133 192.948 7.13672L192.948 7.13721C193.699 8.02783 194.352 9.00195 194.905 10.0596C195.558 11.3057 196.032 12.5918 196.329 13.9175C196.577 15.0254 196.701 16.1611 196.701 17.3242L196.859 49.979L196.886 64.8418C196.886 67.8311 197.297 70.6968 198.119 73.4395C198.638 75.1699 199.32 76.8511 200.166 78.4834C200.372 78.8804 200.586 79.272 200.809 79.6587C202.671 82.895 205.13 85.7886 208.186 88.3384C209.79 89.6777 211.484 90.8643 213.267 91.897C214.86 92.8213 216.526 93.6226 218.263 94.3013C221.742 95.6616 224.994 96.3418 228.018 96.3418C229.049 96.3418 229.859 95.5312 229.859 94.4995C229.859 93.4678 229.049 92.6572 228.018 92.6572C225.457 92.6572 222.652 92.0615 219.604 90.8696C218.054 90.2637 216.566 89.5488 215.143 88.7256C213.53 87.793 211.998 86.7212 210.547 85.5098C207.685 83.1211 205.417 80.4053 203.744 77.3628L203.744 77.3623C203.035 75.9946 202.15 74.0117 201.705 72.563C200.948 70.1055 200.57 67.5317 200.57 64.8418L200.544 49.9727L200.386 17.3066C200.386 15.8984 200.238 14.5229 199.942 13.1802L199.942 13.1797C199.577 11.5205 198.986 9.91064 198.169 8.35059C197.48 7.03418 196.667 5.82324 195.729 4.71729L195.729 4.71729C194.678 3.47705 193.471 2.36865 192.106 1.39355L191.158 0.714844C190.073 0.0654297 189.824 0.00537109 186.648 0L183.786 0L183.786 -0.000488281Z" clip-rule="evenodd" fill="url(#paint_linear_80_2150_0)" fill-opacity="1.000000" fill-rule="evenodd"/>
		<path id="合并" d="M102 273.353L102 237.631C102 237.13 102.089 236.665 102.266 236.237L102.266 236.237L102.266 236.237C102.443 235.809 102.709 235.418 103.063 235.063C103.418 234.709 103.81 234.443 104.237 234.266L104.237 234.266L104.237 234.266C104.665 234.089 105.13 234 105.631 234L125.914 234C127.947 234 129.545 235.598 129.545 237.631C129.545 239.665 127.947 241.262 125.914 241.262L109.263 241.262L109.263 252.349L122.094 252.349C124.127 252.349 125.725 253.947 125.725 255.98C125.725 258.013 124.127 259.611 122.094 259.611L109.263 259.611L109.263 273.353C109.263 275.387 107.664 276.984 105.631 276.984C103.598 276.984 102 275.387 102 273.353ZM141.519 237.631L141.519 269.39L157.158 269.39C159.191 269.39 160.789 270.987 160.789 273.021C160.789 275.054 159.191 276.652 157.158 276.652L137.888 276.652C136.885 276.652 136.029 276.297 135.32 275.588C134.611 274.879 134.257 274.023 134.257 273.021L134.257 237.631C134.257 235.598 135.854 234 137.888 234C139.921 234 141.519 235.598 141.519 237.631ZM225.725 247.952C225.766 248.271 225.788 248.507 225.792 248.659C225.844 250.692 227.481 252.249 229.515 252.197C231.548 252.145 233.104 250.507 233.052 248.474C233.042 248.073 233 247.589 232.927 247.022C232.787 245.939 232.563 244.885 232.256 243.862C231.808 242.371 231.205 241.037 230.448 239.859C229.597 238.534 228.576 237.444 227.387 236.589L227.387 236.589L227.383 236.587L227.381 236.585C227.148 236.418 226.909 236.261 226.664 236.112C226.043 235.802 225.147 235.391 224.498 235.165C223.104 234.682 221.643 234.391 220.114 234.295C218.375 234.185 216.596 234.329 214.775 234.728C214.007 234.896 213.252 235.104 212.51 235.352L212.509 235.353L212.509 235.353L212.508 235.353L212.507 235.353L212.504 235.354C212.017 235.518 211.535 235.698 211.06 235.896C210.428 236.159 209.905 236.406 209.493 236.638C209.192 236.839 208.608 237.254 208.22 237.591C207.519 238.201 206.856 238.886 206.232 239.647C205.342 240.736 204.595 241.895 203.991 243.124C203.258 244.617 202.735 246.213 202.425 247.914C201.928 250.636 201.707 253.746 201.764 257.245C201.781 258.326 201.825 259.383 201.895 260.418C201.946 261.203 201.991 261.707 202.028 261.928C202.078 262.301 202.14 262.647 202.248 263.195C202.461 264.27 202.724 265.313 203.037 266.325C204.124 269.833 205.646 272.408 207.604 274.05C210.13 276.268 213.621 277.483 218.079 277.696C219.378 277.758 220.696 277.73 222.033 277.613C222.722 277.553 223.297 277.483 223.758 277.403C223.84 277.383 224.169 277.309 224.249 277.283C224.714 277.133 225.236 276.906 225.816 276.599C226.22 276.386 226.609 276.154 226.987 275.903C227.617 275.483 228.212 275.01 228.771 274.483C229.405 273.885 229.972 273.238 230.469 272.542C230.96 271.856 231.385 271.122 231.742 270.34C232.616 268.43 233.053 266.317 233.053 264C233.053 261.966 231.455 260.369 229.422 260.369C227.389 260.369 225.791 261.966 225.791 264C225.791 265.728 225.383 267.165 224.565 268.311C224.339 268.629 224.08 268.925 223.79 269.198C223.47 269.5 223.126 269.763 222.759 269.987C222.675 270.032 222.261 270.262 222.185 270.297C221.968 270.325 221.706 270.352 221.4 270.379C220.389 270.467 219.397 270.488 218.426 270.442C217.126 270.38 215.973 270.2 214.965 269.904C213.876 269.583 213.014 269.141 212.379 268.578C211.963 268.233 211.455 267.597 211.047 266.833C210.649 266.088 210.292 265.203 209.975 264.176C209.736 263.407 209.535 262.61 209.372 261.784C209.299 261.416 209.247 261.125 209.217 260.91C209.196 260.67 209.159 260.213 209.141 259.933C209.079 259.02 209.041 258.085 209.025 257.127C208.977 254.106 209.157 251.47 209.568 249.219C209.767 248.133 210.106 247.12 210.587 246.178L210.588 246.176C210.936 245.495 211.357 244.853 211.853 244.247C212.215 243.805 212.591 243.414 212.98 243.076C213.141 242.997 213.582 242.712 213.849 242.601C214.124 242.486 214.402 242.381 214.684 242.284C215.221 242.098 215.769 241.944 216.327 241.822C218.539 241.338 220.535 241.43 222.314 242.098C222.552 242.187 222.785 242.286 223.015 242.395C224.025 243.058 224.787 244.245 225.302 245.954C225.494 246.597 225.636 247.262 225.725 247.952ZM163.73 273.444L177.375 237.064C177.727 236.125 178.359 235.449 179.272 235.034C180.186 234.619 181.111 234.587 182.05 234.94C182.551 235.127 182.988 235.412 183.363 235.793C183.738 236.174 184.016 236.616 184.194 237.12L197.168 273.5C197.851 275.415 196.883 277.457 194.968 278.14C193.052 278.822 191.011 277.854 190.328 275.939L187.244 267.292L173.794 267.292L170.529 275.995C169.815 277.898 167.759 278.833 165.854 278.119C163.951 277.405 163.016 275.348 163.73 273.444ZM176.518 260.029L184.654 260.029L180.688 248.909L176.518 260.029Z" clip-rule="evenodd" fill="#FFFFFF" fill-opacity="1.000000" fill-rule="evenodd"/>
		<path id="Shape Copy备份 23" d="M205.57 133.88L205.57 195.15C205.57 203.11 199.76 209.4 192.01 210.35C184.26 211.3 178.35 206.25 178.35 199.94C178.35 192.13 184.01 188.71 188.85 186.71C193.7 184.71 197.2 180.9 197.2 177.16L197.2 148.72C197.2 146.6 195.27 145 193.18 145.39L158.1 152C156.5 152.3 155.34 153.7 155.34 155.32L155.34 200.98C155.34 208.9 147.72 217.21 140.8 218.6C133.88 219.99 126 215.13 126 207.06C126 199 133.04 194.5 136.84 193.02C139.03 192.17 146.97 189.57 146.97 185.72L146.97 141.21C146.97 137.34 149.76 134.02 153.58 133.36L196.26 126.03C201.13 125.19 205.57 128.94 205.57 133.88Z" fill="#FFFFFF" fill-opacity="1.000000" fill-rule="evenodd"/>
	</g>
</svg>
