<svg width="336.000000" height="336.000000" viewBox="0 0 336 336" fill="none" xmlns="http://www.w3.org/2000/svg" xmlns:xlink="http://www.w3.org/1999/xlink">
	<desc>
			Created with Pixso.
	</desc>
	<defs>
		<clipPath id="clip78_3474">
			<rect id="ic_light pdf" width="336.000000" height="336.000000" fill="white" fill-opacity="0"/>
		</clipPath>
		<linearGradient x1="168.000000" y1="0.000000" x2="168.000000" y2="336.000000" id="paint_linear_80_2316_0" gradientUnits="userSpaceOnUse">
			<stop stop-color="#FF7957"/>
			<stop offset="1.000000" stop-color="#E94D35"/>
		</linearGradient>
		<linearGradient x1="289.026459" y1="79.026276" x2="254.578918" y2="105.368423" id="paint_linear_80_2316_1" gradientUnits="userSpaceOnUse">
			<stop offset="0.012343" stop-color="#A54000"/>
			<stop offset="1.000000" stop-color="#F67F22" stop-opacity="0.000000"/>
		</linearGradient>
		<linearGradient x1="247.925674" y1="45.868553" x2="198.741470" y2="92.657913" id="paint_linear_80_2318_0" gradientUnits="userSpaceOnUse">
			<stop offset="0.100487" stop-color="#EE452B"/>
			<stop offset="1.000000" stop-color="#FF8B6E"/>
		</linearGradient>
		<linearGradient x1="205.606766" y1="-4.294824" x2="234.489548" y2="97.462189" id="paint_linear_80_2319_0" gradientUnits="userSpaceOnUse">
			<stop stop-color="#FF705A"/>
			<stop offset="0.263153" stop-color="#FEB8A4"/>
			<stop offset="0.641081" stop-color="#FFBAAC"/>
			<stop offset="0.945777" stop-color="#FF8F77"/>
			<stop offset="1.000000" stop-color="#F76B50" stop-opacity="0.000000"/>
		</linearGradient>
	</defs>
	<g clip-path="url(#clip78_3474)">
		<path id="矩形备份 113" d="M65.58 0L188.38 0C194.19 0 199.77 2.29 203.9 6.38L287.46 89.13C291.64 93.27 294 98.91 294 104.8L294 312.41C294 325.44 283.44 336 270.41 336L65.58 336C52.55 336 42 325.44 42 312.41L42 23.58C42 10.55 52.55 0 65.58 0Z" fill="url(#paint_linear_80_2316_0)" fill-opacity="1.000000" fill-rule="evenodd"/>
		<path id="矩形备份 113" d="M65.58 0L188.38 0C194.19 0 199.77 2.29 203.9 6.38L287.46 89.13C291.64 93.27 294 98.91 294 104.8L294 312.41C294 325.44 283.44 336 270.41 336L65.58 336C52.55 336 42 325.44 42 312.41L42 23.58C42 10.55 52.55 0 65.58 0Z" fill="url(#paint_linear_80_2316_1)" fill-opacity="0" fill-rule="evenodd"/>
		<g style="mix-blend-mode:normal">
			<path id="矩形 2" d="M197.08 64.1L197.08 35L196.89 17.5C196.84 11.89 194.55 6.54 190.55 2.62L187.87 0L191.68 0C196.55 0 201.2 1.96 204.59 5.45L208.87 9.85L221.39 22.28L246.45 47.15L271.5 72.02L286.87 87.27C291.42 91.78 293.97 97.91 293.97 104.31L293.97 105.36L291.38 102.77C287.38 98.77 281.95 96.52 276.29 96.52L258.6 96.52L229.5 96.52C211.6 96.52 197.08 82 197.08 64.1Z" fill="url(#paint_linear_80_2318_0)" fill-opacity="1.000000" fill-rule="evenodd"/>
		</g>
		<path id="减去顶层" d="M183.786 -0.000488281L183.779 -0.000488281L185.919 1.49756L189.963 4.39014C191.089 5.19531 192.084 6.11133 192.948 7.13672L192.948 7.13721C193.699 8.02783 194.352 9.00195 194.905 10.0596C195.558 11.3057 196.032 12.5918 196.329 13.9175C196.577 15.0254 196.701 16.1611 196.701 17.3242L196.859 49.979L196.886 64.8418C196.886 67.8311 197.297 70.6968 198.119 73.4395C198.638 75.1699 199.32 76.8511 200.166 78.4834C200.372 78.8804 200.586 79.272 200.809 79.6587C202.671 82.895 205.13 85.7886 208.186 88.3384C209.79 89.6777 211.484 90.8643 213.267 91.897C214.86 92.8213 216.526 93.6226 218.263 94.3013C221.742 95.6616 224.994 96.3418 228.018 96.3418C229.049 96.3418 229.859 95.5312 229.859 94.4995C229.859 93.4678 229.049 92.6572 228.018 92.6572C225.457 92.6572 222.652 92.0615 219.604 90.8696C218.054 90.2637 216.566 89.5488 215.143 88.7256C213.53 87.793 211.998 86.7212 210.547 85.5098C207.685 83.1211 205.417 80.4053 203.744 77.3628L203.744 77.3623C203.035 75.9946 202.15 74.0117 201.705 72.563C200.948 70.1055 200.57 67.5317 200.57 64.8418L200.544 49.9727L200.386 17.3066C200.386 15.8984 200.238 14.5229 199.942 13.1802L199.942 13.1797C199.577 11.5205 198.986 9.91064 198.169 8.35059C197.48 7.03418 196.667 5.82324 195.729 4.71729L195.729 4.71729C194.678 3.47705 193.471 2.36865 192.106 1.39355L191.158 0.714844C190.073 0.0654297 189.824 0.00537109 186.648 0L183.786 0L183.786 -0.000488281Z" clip-rule="evenodd" fill="url(#paint_linear_80_2319_0)" fill-opacity="1.000000" fill-rule="evenodd"/>
		<g opacity="0.000000">
			<rect id="矩形 538" width="336.000000" height="336.000000" fill="#C4C4C4" fill-opacity="1.000000"/>
		</g>
		<g style="mix-blend-mode:normal">
			<path id="合并" d="M176.535 177.106L201.194 219.816C206.145 218.939 210.364 218.515 213.853 218.542C218.187 218.577 221.63 219.332 224.184 220.806C225.267 221.431 226.258 222.155 227.159 222.978C227.873 223.63 228.529 224.343 229.129 225.119C229.825 226.02 230.42 226.971 230.912 227.972C231.352 228.864 231.709 229.796 231.985 230.768C232.321 231.947 232.524 233.135 232.592 234.331C232.645 235.241 232.618 236.156 232.515 237.076C232.394 238.154 232.17 239.2 231.843 240.212C231.497 241.282 231.037 242.314 230.462 243.311C229.888 244.306 229.223 245.221 228.469 246.055C227.756 246.844 226.963 247.561 226.089 248.206C225.345 248.755 224.564 249.235 223.75 249.645C222.681 250.184 221.552 250.603 220.361 250.901C219.382 251.147 218.396 251.304 217.404 251.37C216.291 251.444 215.17 251.404 214.041 251.251C213.069 251.12 212.123 250.908 211.202 250.616C210.039 250.247 208.916 249.75 207.833 249.125C205.279 247.65 202.902 245.044 200.705 241.306C198.999 238.405 197.318 234.704 195.661 230.203L145.698 230.203C144.041 234.704 142.359 238.406 140.653 241.307C138.456 245.043 136.081 247.648 133.527 249.122C132.444 249.747 131.321 250.244 130.158 250.613C129.237 250.905 128.291 251.117 127.319 251.249C126.19 251.401 125.069 251.44 123.956 251.366C122.965 251.3 121.979 251.144 120.999 250.898C119.81 250.599 118.68 250.181 117.61 249.642C116.796 249.231 116.016 248.752 115.271 248.202C114.397 247.558 113.604 246.841 112.892 246.052L112.892 246.052C112.138 245.218 111.474 244.303 110.898 243.307C110.323 242.312 109.863 241.279 109.518 240.208C109.191 239.196 108.967 238.151 108.846 237.073C108.742 236.153 108.716 235.238 108.769 234.327C108.837 233.132 109.039 231.944 109.375 230.764C109.651 229.793 110.009 228.861 110.448 227.969C110.94 226.968 111.535 226.017 112.231 225.116C112.831 224.34 113.488 223.626 114.201 222.975C115.103 222.152 116.095 221.428 117.177 220.803C119.731 219.328 123.177 218.573 127.513 218.539C131.001 218.512 135.221 218.937 140.171 219.814L164.827 177.108C161.661 173.327 159.23 169.941 157.535 166.951C155.398 163.18 154.33 159.82 154.33 156.872C154.33 155.622 154.461 154.401 154.724 153.208C154.931 152.265 155.221 151.34 155.593 150.432C156.024 149.378 156.551 148.388 157.172 147.461C157.725 146.635 158.353 145.86 159.056 145.134C159.91 144.253 160.837 143.484 161.838 142.828C162.601 142.327 163.406 141.892 164.255 141.521C165.249 141.087 166.267 140.759 167.307 140.536C168.406 140.3 169.53 140.182 170.681 140.182C171.83 140.182 172.955 140.3 174.054 140.536C175.094 140.759 176.111 141.087 177.106 141.521C177.954 141.892 178.76 142.327 179.522 142.828C180.523 143.484 181.451 144.253 182.305 145.134C183.008 145.86 183.636 146.635 184.188 147.461C184.81 148.388 185.336 149.378 185.768 150.432C186.14 151.34 186.43 152.265 186.637 153.208L186.637 153.209C186.899 154.401 187.03 155.622 187.03 156.872C187.03 159.821 185.961 163.183 183.823 166.955C182.128 169.944 179.699 173.328 176.535 177.106ZM173.884 161.32C173.064 162.766 171.997 164.367 170.681 166.123C169.362 164.365 168.294 162.764 167.475 161.317C166.831 160.183 166.362 159.18 166.067 158.311C165.859 157.696 165.755 157.216 165.755 156.872C165.755 156.372 165.817 155.889 165.942 155.422L165.942 155.421C166.002 155.199 166.076 154.98 166.164 154.766C166.317 154.391 166.508 154.042 166.735 153.718C166.893 153.495 167.067 153.284 167.26 153.085C167.592 152.743 167.956 152.458 168.354 152.23C168.506 152.143 168.662 152.063 168.824 151.993C169.091 151.876 169.363 151.787 169.642 151.723C169.979 151.646 170.325 151.607 170.681 151.607C171.035 151.607 171.382 151.646 171.719 151.723C171.997 151.787 172.27 151.876 172.536 151.993C172.698 152.063 172.855 152.143 173.008 152.23C173.404 152.458 173.769 152.743 174.101 153.085C174.293 153.284 174.468 153.495 174.625 153.718C174.853 154.042 175.043 154.391 175.196 154.766C175.284 154.98 175.358 155.199 175.418 155.421C175.543 155.888 175.605 156.372 175.605 156.872C175.605 157.216 175.501 157.696 175.292 158.312C174.997 159.182 174.528 160.185 173.884 161.32ZM170.682 189.817L153.961 218.778L187.402 218.778L170.682 189.817ZM127.603 229.963C129.264 229.951 131.185 230.075 133.364 230.337C132.5 232.356 131.647 234.083 130.805 235.516C130.144 236.64 129.51 237.547 128.905 238.237C128.477 238.726 128.112 239.056 127.814 239.228C127.382 239.479 126.932 239.666 126.465 239.791C126.242 239.851 126.016 239.896 125.786 239.927C125.385 239.981 124.987 239.991 124.594 239.956C124.321 239.931 124.051 239.885 123.782 239.817C123.32 239.702 122.892 239.529 122.495 239.299C122.344 239.21 122.196 239.114 122.055 239.009C121.82 238.836 121.606 238.646 121.412 238.437C121.177 238.183 120.97 237.902 120.792 237.595C120.615 237.288 120.476 236.968 120.373 236.637C120.289 236.365 120.231 236.083 120.198 235.795C120.179 235.619 120.169 235.444 120.168 235.268C120.167 234.81 120.232 234.352 120.362 233.894C120.438 233.628 120.533 233.371 120.648 233.123C120.814 232.765 121.021 232.425 121.27 232.104C121.411 231.921 121.564 231.748 121.727 231.584C122.068 231.243 122.456 230.947 122.889 230.697C123.188 230.524 123.655 230.375 124.293 230.248C125.194 230.069 126.297 229.974 127.603 229.963ZM207.997 230.34C208.859 232.358 209.712 234.083 210.554 235.516C211.216 236.642 211.85 237.549 212.455 238.24C212.884 238.729 213.248 239.059 213.546 239.231C213.979 239.481 214.429 239.669 214.896 239.794C215.118 239.854 215.345 239.899 215.574 239.93C215.977 239.984 216.374 239.994 216.768 239.958C217.039 239.934 217.31 239.888 217.578 239.821C218.04 239.705 218.469 239.532 218.865 239.302C219.017 239.214 219.164 239.117 219.306 239.012C219.54 238.84 219.754 238.649 219.948 238.439C220.184 238.186 220.391 237.906 220.568 237.598C220.745 237.291 220.885 236.971 220.987 236.641C221.071 236.368 221.129 236.087 221.162 235.798C221.182 235.623 221.191 235.447 221.192 235.271C221.193 234.813 221.128 234.355 220.998 233.897C220.922 233.631 220.827 233.374 220.712 233.126C220.546 232.768 220.339 232.428 220.091 232.107C219.949 231.924 219.797 231.75 219.634 231.588C219.292 231.246 218.904 230.95 218.472 230.7C218.173 230.528 217.705 230.378 217.068 230.251C216.168 230.072 215.065 229.977 213.761 229.967C212.099 229.954 210.178 230.078 207.997 230.34Z" clip-rule="evenodd" fill="#FFFFFF" fill-opacity="1.000000" fill-rule="evenodd"/>
		</g>
	</g>
</svg>
