<svg width="336.000000" height="336.000000" viewBox="0 0 336 336" fill="none" xmlns="http://www.w3.org/2000/svg" xmlns:xlink="http://www.w3.org/1999/xlink">
	<desc>
			Created with Pixso.
	</desc>
	<defs>
		<clipPath id="clip78_3668">
			<rect id="ic_light zip 1" width="336.000000" height="336.000000" fill="white" fill-opacity="0"/>
		</clipPath>
		<linearGradient x1="168.000000" y1="0.000000" x2="168.000000" y2="336.000000" id="paint_linear_78_3669_0" gradientUnits="userSpaceOnUse">
			<stop stop-color="#9FB1BD"/>
			<stop offset="1.000000" stop-color="#BFCAD3"/>
		</linearGradient>
	</defs>
	<g clip-path="url(#clip78_3668)">
		<rect id="矩形 540" x="42.000000" rx="23.566467" width="252.000000" height="336.000000" fill="url(#paint_linear_78_3669_0)" fill-opacity="1.000000"/>
		<path id="合并" d="M189 0.000488281L147 0.000488281L147 4.19971C147 8.83936 150.761 12.6006 155.4 12.6006L180.6 12.6006C185.239 12.6006 189 8.83936 189 4.19971L189 0.000488281ZM153.3 21.0005L182.7 21.0005C186.18 21.0005 189 23.8213 189 27.3003C189 30.7798 186.18 33.6006 182.7 33.6006L153.3 33.6006C149.82 33.6006 147 30.7798 147 27.3003C147 23.8213 149.82 21.0005 153.3 21.0005ZM182.7 42.0005L153.3 42.0005C149.82 42.0005 147 44.8213 147 48.3003C147 51.7798 149.82 54.6006 153.3 54.6006L182.7 54.6006C186.18 54.6006 189 51.7798 189 48.3003C189 44.8213 186.18 42.0005 182.7 42.0005ZM153.3 63.0005L182.7 63.0005C186.18 63.0005 189 65.8213 189 69.3003C189 72.7798 186.18 75.6006 182.7 75.6006L153.3 75.6006C149.82 75.6006 147 72.7798 147 69.3003C147 65.8213 149.82 63.0005 153.3 63.0005ZM184.8 83.999L151.2 83.999C148.881 83.999 147 85.8799 147 88.1997L147 130.199C147 132.519 148.881 134.399 151.2 134.399L184.8 134.399C187.119 134.399 189 132.519 189 130.199L189 88.1997C189 85.8799 187.119 83.999 184.8 83.999ZM157.5 109.199L178.5 109.199C179.66 109.199 180.6 110.139 180.6 111.299L180.6 123.899C180.6 125.059 179.66 125.999 178.5 125.999L157.5 125.999C156.34 125.999 155.4 125.059 155.4 123.899L155.4 111.299C155.4 110.139 156.34 109.199 157.5 109.199Z" clip-rule="evenodd" fill="#FFFFFF" fill-opacity="1.000000" fill-rule="evenodd"/>
		<g opacity="0.000000">
			<rect id="矩形 541" width="336.000000" height="336.000000" fill="#C4C4C4" fill-opacity="1.000000"/>
		</g>
	</g>
</svg>
