<?xml version="1.0" standalone="no"?>
<svg xmlns="http://www.w3.org/2000/svg" width="24" height="24"><rect width="24" height="24" opacity="0"></rect><g><path d="M7.58 9.34Q7.8 9.12 7.8 8.81Q7.8 8.5 7.58 8.28Q7.32 8.06 7.03 8.06Q6.74 8.06 6.5 8.28L4.06 10.73L4.01 10.8Q3.77 11.09 3.77 11.47Q3.77 11.78 3.98 12.12L4.06 12.19L6.5 14.64Q6.74 14.83 7.06 14.84Q7.37 14.86 7.58 14.64Q7.8 14.42 7.8 14.1Q7.8 13.78 7.58 13.56L5.47 11.47L7.58 9.34Z" fill="rgba(0,0,0,0.9019607843137255)"></path><path d="M7.54 1.08Q6.91 1.08 6.4 1.38Q5.88 1.68 5.58 2.2Q5.28 2.71 5.28 3.31L5.28 7.68Q5.74 7.22 6.08 7.03Q6.43 6.84 6.79 6.79L6.79 3.31Q6.79 3 7.01 2.78Q7.22 2.57 7.54 2.57L15.31 2.57L11.3 3.29Q10.97 3.34 10.73 3.61Q10.49 3.89 10.49 4.25L10.49 20.76L7.51 20.76Q7.2 20.76 7 20.54Q6.79 20.33 6.79 20.02L6.79 16.13Q6.46 16.08 6.29 15.98Q6.07 15.89 5.82 15.71Q5.57 15.53 5.28 15.24L5.28 20.02Q5.28 20.64 5.58 21.16Q5.88 21.67 6.4 21.97Q6.91 22.27 7.54 22.27L10.56 22.27Q10.68 22.61 10.99 22.79Q11.3 22.97 11.66 22.92L15.31 22.27L18.02 22.27Q18.65 22.27 19.16 21.97Q19.68 21.67 19.98 21.16Q20.28 20.64 20.28 20.02L20.28 3.31Q20.28 2.71 19.98 2.2Q19.68 1.68 19.16 1.38Q18.65 1.08 18.02 1.08L7.54 1.08ZM12.41 11.98Q12.41 11.52 12.73 11.2Q13.06 10.87 13.51 10.87Q13.99 10.87 14.3 11.18Q14.62 11.5 14.62 11.98Q14.62 12.43 14.29 12.76Q13.97 13.08 13.51 13.08Q13.06 13.08 12.73 12.76Q12.41 12.43 12.41 11.98Z" fill="rgba(0,0,0,0.9019607843137255)"></path></g></svg>