<?xml version="1.0" standalone="no"?>
<svg xmlns="http://www.w3.org/2000/svg" width="24" height="24"><rect width="24" height="24" opacity="0"></rect><g><path d="M14.04 12.84Q14.23 12.84 14.41 12.73Q14.59 12.62 14.69 12.43L16.39 9.05Q16.49 8.86 16.49 8.71L16.49 7.58Q16.49 7.2 16.22 6.95Q15.96 6.7 15.6 6.7L8.47 6.7Q8.11 6.7 7.85 6.95Q7.58 7.2 7.58 7.58L7.58 8.71Q7.58 8.9 7.68 9.07L9.36 12.43Q9.46 12.62 9.64 12.73Q9.82 12.84 10.03 12.84L14.04 12.84ZM13.85 13.73Q14.09 13.73 14.27 13.9Q14.45 14.06 14.45 14.3L14.45 21.84Q14.45 22.3 14.11 22.62Q13.78 22.94 13.32 22.94L10.73 22.94Q10.27 22.94 9.95 22.62Q9.62 22.3 9.62 21.84L9.62 14.3Q9.62 14.06 9.79 13.9Q9.96 13.73 10.22 13.73L13.85 13.73ZM13.18 16.54Q13.18 16.08 12.85 15.76Q12.53 15.43 12.07 15.43Q11.59 15.43 11.27 15.76Q10.94 16.08 10.94 16.54L10.94 17.66Q10.94 18.12 11.28 18.46Q11.62 18.79 12.07 18.79Q12.53 18.79 12.85 18.46Q13.18 18.12 13.18 17.66L13.18 16.54ZM12.62 16.54Q12.62 16.32 12.47 16.15Q12.31 15.98 12.07 15.98Q11.86 15.98 11.7 16.13Q11.54 16.27 11.52 16.46L11.52 16.92Q11.52 17.16 11.68 17.32Q11.83 17.47 12.07 17.47Q12.29 17.47 12.44 17.3Q12.6 17.14 12.62 16.92L12.62 16.54Z" fill="rgba(0,0,0,0.9019607843137255)"></path><path d="M11.98 4.94Q12.24 4.94 12.43 4.76Q12.62 4.58 12.62 4.32L12.62 1.68Q12.62 1.42 12.43 1.22Q12.24 1.03 11.98 1.03Q11.71 1.03 11.52 1.22Q11.33 1.42 11.33 1.68L11.33 4.32Q11.33 4.58 11.52 4.76Q11.71 4.94 11.98 4.94ZM15.48 5.74Q15.82 5.88 16.04 5.81Q16.27 5.74 16.37 5.5L17.71 3.17L17.74 3.14Q17.86 2.93 17.78 2.68Q17.71 2.42 17.47 2.28Q17.26 2.14 16.99 2.22Q16.73 2.3 16.58 2.52L15.24 4.85Q15.12 5.09 15.19 5.35Q15.26 5.62 15.48 5.74ZM8.52 5.74Q8.74 5.62 8.81 5.35Q8.88 5.09 8.76 4.85L7.42 2.52Q7.27 2.3 7.02 2.23Q6.77 2.16 6.53 2.28Q6.29 2.42 6.22 2.69Q6.14 2.95 6.29 3.19L7.61 5.5Q7.78 5.74 8.05 5.81Q8.33 5.88 8.52 5.74Z" fill="rgba(0,0,0,0.9019607843137255)"></path></g></svg>