<?xml version="1.0" standalone="no"?>
<svg xmlns="http://www.w3.org/2000/svg" width="24" height="24"><rect width="24" height="24" opacity="0"></rect><g mask="url(#hms_mask_0)"><path d="M8.93 1.82Q6.82 1.82 5 2.88Q3.19 3.94 2.14 5.74Q1.08 7.54 1.08 9.65Q1.08 12.72 3.19 15.64Q5.3 18.55 7.75 20.69Q8.26 21.12 8.93 21.12Q9.6 21.12 10.1 20.69Q10.32 20.5 10.51 20.33Q12.86 18.19 14.82 15.36Q16.78 12.53 16.78 9.67Q16.78 7.54 15.72 5.74Q14.66 3.94 12.86 2.88Q11.06 1.82 8.93 1.82ZM8.93 11.69Q8.11 11.69 7.54 11.12Q6.96 10.56 6.96 9.74Q6.96 8.93 7.54 8.36Q8.11 7.8 8.93 7.8Q9.74 7.8 10.31 8.36Q10.87 8.93 10.87 9.74Q10.87 10.56 10.31 11.12Q9.74 11.69 8.93 11.69Z" fill="rgba(0,0,0,0.9019607843137255)"></path></g><defs><mask id="hms_mask_0"><rect width="24" height="24" fill="#ffffff"></rect><g><path d="M11.45 12.77Q10.99 12.79 10.67 13.04Q10.34 13.3 10.27 13.78Q10.2 14.23 10.43 14.57Q10.66 14.9 10.99 15Q11.02 15 11.04 15.01Q11.06 15.02 11.09 15.02L11.35 15.07Q11.9 15.14 12.46 15.22Q12.77 15.22 13.06 15.24Q13.39 15.24 13.54 15.19L13.61 15.19Q13.8 15.14 13.94 15.05L14.35 14.71L14.5 14.54Q14.57 14.47 14.62 14.42Q14.66 14.52 14.71 14.62Q14.76 14.66 14.78 14.71Q14.81 14.76 14.83 14.81Q13.73 15.91 13.46 16.21Q13.2 16.51 13.15 16.7L13.15 16.7Q12.43 18.77 11.71 20.86Q11.66 21.02 11.64 21.28Q11.62 21.53 11.76 21.82Q11.98 22.3 12.48 22.46Q12.7 22.56 12.98 22.56Q13.37 22.56 13.68 22.38Q13.99 22.2 14.16 21.98Q14.23 21.91 14.23 21.84L15.77 18.31Q16.1 18.1 16.49 17.93Q16.63 17.86 16.76 17.78Q16.9 17.71 17.02 17.64L19.27 19.32Q19.63 19.46 20.09 19.49Q20.62 19.49 22.99 18.62Q23.06 18.62 23.11 18.58Q23.47 18.36 23.65 17.94Q23.83 17.52 23.66 17.04Q23.47 16.54 23.05 16.31Q22.63 16.08 22.2 16.18L20.62 16.56L19.37 15.19Q19.34 15.17 19.34 15.16Q19.34 15.14 19.32 15.12Q19.3 15.07 19.27 15.02L19.27 14.93Q19.32 14.52 19.18 14.16Q19.15 14.06 19.06 13.87L18.74 13.18Q18.94 13.37 19.13 13.58Q19.44 13.92 19.6 14.08Q19.75 14.23 19.85 14.28Q20.21 14.47 20.59 14.42Q20.98 14.38 21.26 14.11Q21.58 13.82 21.6 13.43Q21.62 13.03 21.43 12.67Q20.18 10.51 19.9 10.22Q19.58 9.94 18.24 9.62Q16.9 9.31 15.79 9.17Q15.82 9.07 15.83 8.98Q15.84 8.88 15.84 8.78Q15.84 7.99 15.26 7.42Q14.69 6.84 13.87 6.84Q13.08 6.84 12.5 7.4Q11.93 7.97 11.93 8.78Q11.93 9.48 12.37 10.01Q12.82 10.54 13.46 10.68Q13.42 10.8 13.37 10.94Q13.15 11.06 13.03 11.28L12.36 12.82L11.45 12.77Z" fill="#000000"></path></g></mask></defs><g><path d="M13.87 7.58Q13.39 7.58 13.03 7.94Q12.67 8.3 12.67 8.78Q12.67 9.29 13.03 9.64Q13.39 9.98 13.87 9.98Q14.38 9.98 14.72 9.64Q15.07 9.29 15.07 8.78Q15.07 8.3 14.72 7.94Q14.38 7.58 13.87 7.58ZM19.37 10.75Q19.2 10.58 17.53 10.21Q15.86 9.84 15.48 9.89Q15.05 9.91 14.54 10.43Q14.04 10.94 14.02 11.45Q14.02 11.93 14.18 12.32Q14.35 12.72 14.86 13.46Q15.38 14.23 15.77 14.93L15.62 15.07Q15.17 15.53 14.53 16.18Q13.9 16.82 13.87 16.87Q13.85 17.06 12.43 21.12Q12.36 21.34 12.42 21.52Q12.48 21.7 12.72 21.77Q12.96 21.86 13.19 21.78Q13.42 21.7 13.56 21.53L15.19 17.81Q17.86 16.03 18.05 15.86L18.12 15.79Q18.29 15.62 18.38 15.47Q18.48 15.31 18.5 14.95Q18.55 14.71 18.46 14.42Q18.22 13.78 17.16 11.69L18.65 12L18.84 12.22Q20.14 13.58 20.18 13.61Q20.28 13.68 20.44 13.69Q20.59 13.7 20.74 13.56Q20.83 13.46 20.83 13.32Q20.83 13.18 20.76 13.03Q20.33 12.26 19.91 11.57Q19.49 10.87 19.37 10.75ZM18.82 15.72Q18.77 15.91 18.62 16.1Q18.46 16.3 17.47 17.04L19.66 18.67Q19.8 18.74 20.09 18.77Q20.38 18.79 22.75 17.95Q22.9 17.86 22.97 17.69Q23.04 17.52 22.99 17.3Q22.9 17.06 22.73 16.98Q22.56 16.9 22.37 16.92L20.35 17.4L18.82 15.72ZM12.84 13.61L11.4 13.51Q11.26 13.54 11.14 13.62Q11.02 13.7 11.02 13.87Q10.97 14.18 11.23 14.28L11.5 14.33Q12.02 14.4 12.53 14.47Q13.13 14.52 13.46 14.47Q13.66 14.3 13.85 14.16Q14.04 13.97 14.28 13.61Q14.09 13.27 13.85 12.74Q13.73 12.48 13.67 12.23Q13.61 11.98 13.61 11.81Z" fill="rgba(0,0,0,0.9019607843137255)"></path></g></svg>