<?xml version="1.0" standalone="no"?>
<svg xmlns="http://www.w3.org/2000/svg" width="24" height="24"><rect width="24" height="24" opacity="0"></rect><g mask="url(#hms_mask_0)"><path d="M8.64 1.78Q6.55 1.78 4.78 2.82Q3 3.86 1.96 5.64Q0.91 7.42 0.91 9.5Q0.91 11.52 1.84 13.39Q2.76 15.26 4.02 16.73Q5.28 18.19 7.2 20.11L7.49 20.4Q7.92 20.83 8.64 20.83Q9.31 20.83 9.82 20.4Q12.19 18.31 14.28 15.42Q16.37 12.53 16.37 9.5Q16.37 7.39 15.32 5.63Q14.28 3.86 12.52 2.82Q10.75 1.78 8.64 1.78ZM8.64 11.52Q7.85 11.52 7.28 10.96Q6.72 10.39 6.72 9.6Q6.72 8.78 7.28 8.22Q7.85 7.66 8.64 7.66Q9.46 7.66 10.02 8.22Q10.58 8.78 10.58 9.6Q10.58 10.39 10.02 10.96Q9.46 11.52 8.64 11.52Z" fill="rgba(0,0,0,0.9019607843137255)"></path></g><defs><mask id="hms_mask_0"><rect width="24" height="24" fill="#ffffff"></rect><g><path d="M21.58 12.86L20.9 11.35Q20.81 11.11 20.57 10.99L20.54 10.92Q20.52 10.82 20.47 10.73Q21.12 10.61 21.56 10.07Q22.01 9.53 22.01 8.83Q22.01 8.02 21.43 7.45Q20.86 6.89 20.04 6.89Q19.25 6.89 18.67 7.46Q18.1 8.04 18.1 8.83Q18.1 9 18.12 9.1L18.14 9.22Q17.02 9.36 15.67 9.67Q14.33 9.98 14.04 10.27Q13.7 10.61 12.5 12.72Q12.31 13.06 12.34 13.45Q12.36 13.85 12.67 14.16Q12.96 14.42 13.34 14.47Q13.73 14.52 14.09 14.33Q14.26 14.23 15.19 13.2L14.93 13.85L14.76 14.21Q14.59 14.62 14.66 15.07Q14.64 15.17 14.57 15.24L13.32 16.61L11.74 16.22Q11.28 16.13 10.86 16.34Q10.44 16.56 10.27 17.09Q10.1 17.57 10.27 18Q10.44 18.43 10.82 18.62Q11.06 18.74 12.29 19.14Q13.51 19.54 13.85 19.54Q14.45 19.54 14.64 19.37L16.92 17.69Q17.04 17.76 17.17 17.83Q17.3 17.9 17.45 17.98Q17.86 18.14 18.14 18.36L19.68 21.86Q19.92 22.34 20.4 22.51Q20.88 22.68 21.43 22.51Q22.08 22.3 22.2 21.78Q22.32 21.26 22.2 20.9L20.76 16.78L20.76 16.75Q20.71 16.56 20.46 16.26Q20.21 15.96 19.08 14.86Q19.2 14.66 19.32 14.47Q19.44 14.62 19.56 14.76Q19.68 14.88 19.92 15.02Q20.16 15.17 20.3 15.24Q20.42 15.29 20.8 15.3Q21.17 15.31 21.46 15.26Q21.77 15.19 22.34 15.14L22.92 15.05Q23.28 14.95 23.5 14.62Q23.71 14.28 23.64 13.82Q23.59 13.37 23.26 13.1Q22.92 12.84 22.49 12.82Z" fill="#000000"></path></g></mask></defs><g><path d="M20.06 7.66Q19.56 7.66 19.21 8Q18.86 8.35 18.86 8.86Q18.86 9.34 19.21 9.7Q19.56 10.06 20.06 10.06Q20.54 10.06 20.9 9.7Q21.26 9.34 21.26 8.86Q21.26 8.35 20.9 8Q20.54 7.66 20.06 7.66ZM14.57 10.8Q14.45 10.92 14.02 11.64Q13.58 12.36 13.27 12.86L13.15 13.08Q13.08 13.22 13.08 13.37Q13.08 13.51 13.2 13.61Q13.34 13.75 13.5 13.74Q13.66 13.73 13.73 13.66Q14.26 13.1 14.52 12.84Q14.78 12.58 15.29 12.05L16.78 11.71Q15.72 13.82 15.48 14.47Q15.38 14.74 15.43 15Q15.46 15.34 15.55 15.5Q15.65 15.67 15.82 15.82L15.89 15.89Q16.08 16.08 18.74 17.86L20.38 21.58Q20.42 21.72 20.65 21.83Q20.88 21.94 21.19 21.82Q21.5 21.7 21.54 21.52Q21.58 21.34 21.48 21.14L21.48 21.12L20.04 16.92Q20.04 16.85 18.24 15.05L18.14 14.95Q18.55 14.26 19.08 13.51Q19.58 12.72 19.75 12.34Q19.92 11.95 19.92 11.47Q19.9 10.99 19.39 10.48Q18.89 9.96 18.46 9.91Q18.05 9.89 16.39 10.26Q14.74 10.63 14.57 10.8ZM13.58 17.45L11.57 16.97Q11.38 16.94 11.21 17.03Q11.04 17.11 10.97 17.35Q10.85 17.64 10.93 17.77Q11.02 17.9 11.18 17.98L11.18 17.98Q11.66 18.14 12.66 18.47Q13.66 18.79 13.85 18.79Q14.18 18.79 14.28 18.72L16.46 17.09L16.3 16.94Q15.48 16.34 15.31 16.13Q15.17 15.96 15.12 15.77ZM20.3 11.86Q20.33 12.02 20.27 12.28Q20.21 12.53 20.09 12.79Q19.87 13.32 19.66 13.68Q19.9 14.02 20.09 14.21Q20.35 14.45 20.58 14.51Q20.81 14.57 21.41 14.52Q22.01 14.47 22.7 14.35Q22.82 14.3 22.88 14.2Q22.94 14.09 22.92 13.92Q22.9 13.75 22.79 13.67Q22.68 13.58 22.54 13.56L21.1 13.66L20.3 11.86Z" fill="rgba(0,0,0,0.9019607843137255)"></path></g></svg>