<?xml version="1.0" standalone="no"?>
<svg xmlns="http://www.w3.org/2000/svg" width="24" height="24"><rect width="24" height="24" opacity="0"></rect><g><path d="M13.73 13.92Q13.73 14.28 13.96 14.53Q14.18 14.78 14.53 14.86Q14.88 14.93 15.19 14.76L18.5 12.84Q18.82 12.67 18.92 12.34Q19.03 12 18.92 11.68Q18.82 11.35 18.5 11.16L15.19 9.24Q14.88 9.07 14.53 9.13Q14.18 9.19 13.96 9.46Q13.73 9.72 13.73 10.08L13.73 13.92Z" fill="rgba(0,0,0,0.9019607843137255)"></path><path d="M6.72 15.34Q7.03 15.34 7.25 15.11Q7.46 14.88 7.46 14.57L7.46 8.45Q7.46 8.14 7.25 7.92Q7.03 7.7 6.72 7.7Q6.41 7.7 6.19 7.92Q5.98 8.14 5.98 8.45L5.98 14.57Q5.98 14.88 6.19 15.11Q6.41 15.34 6.72 15.34ZM1.06 11.66Q1.06 11.98 1.27 12.19Q1.49 12.41 1.8 12.41Q2.11 12.41 2.33 12.19Q2.54 11.98 2.54 11.66Q2.54 11.35 2.33 11.14Q2.11 10.92 1.8 10.92Q1.49 10.92 1.27 11.14Q1.06 11.35 1.06 11.66ZM3.55 12.82Q3.55 13.13 3.77 13.34Q3.98 13.56 4.3 13.56Q4.61 13.56 4.82 13.34Q5.04 13.13 5.04 12.82L5.04 10.51Q5.04 10.2 4.82 9.98Q4.61 9.77 4.3 9.77Q3.98 9.77 3.77 9.98Q3.55 10.2 3.55 10.51L3.55 12.82ZM8.9 15.96Q8.9 16.78 9.31 17.46Q9.72 18.14 10.4 18.55Q11.09 18.96 11.9 18.96L19.92 18.96Q20.74 18.96 21.43 18.55Q22.13 18.14 22.52 17.46Q22.92 16.78 22.92 15.96L22.92 8.04Q22.92 7.22 22.52 6.54Q22.13 5.86 21.43 5.45Q20.74 5.04 19.92 5.04L11.9 5.04Q11.09 5.04 10.4 5.45Q9.72 5.86 9.31 6.54Q8.9 7.22 8.9 8.04L8.9 15.96ZM10.42 8.04Q10.42 7.42 10.86 6.97Q11.3 6.53 11.9 6.53L19.92 6.53Q20.54 6.53 20.99 6.97Q21.43 7.42 21.43 8.04L21.43 15.96Q21.43 16.58 20.99 17.02Q20.54 17.45 19.92 17.45L11.9 17.45Q11.3 17.45 10.86 17Q10.42 16.56 10.42 15.96L10.42 8.04Z" fill="rgba(0,0,0,0.9019607843137255)"></path></g></svg>