<?xml version="1.0" standalone="no"?>
<svg xmlns="http://www.w3.org/2000/svg" width="24" height="24"><rect width="24" height="24" opacity="0"></rect><g><path d="M16.22 14.93Q17.18 14.93 18 14.45Q18.82 13.97 19.3 13.15Q19.78 12.34 19.78 11.38L19.78 6.7Q19.78 5.74 19.3 4.91Q18.82 4.08 18 3.6Q17.18 3.12 16.22 3.12Q15.26 3.12 14.44 3.6Q13.61 4.08 13.13 4.91Q12.65 5.74 12.65 6.7L12.65 11.38Q12.65 12.34 13.13 13.15Q13.61 13.97 14.44 14.45Q15.26 14.93 16.22 14.93ZM14.16 6.7Q14.16 5.83 14.76 5.23Q15.36 4.63 16.2 4.63Q17.06 4.63 17.66 5.23Q18.26 5.83 18.26 6.7L18.26 11.38Q18.26 12.22 17.66 12.83Q17.06 13.44 16.2 13.44Q15.36 13.44 14.76 12.83Q14.16 12.22 14.16 11.38L14.16 6.7ZM22.97 11.38Q22.97 11.06 22.75 10.84Q22.54 10.61 22.22 10.61Q21.91 10.61 21.7 10.84Q21.48 11.06 21.48 11.38Q21.48 12.82 20.77 14.02Q20.06 15.22 18.86 15.92Q17.66 16.63 16.22 16.63Q14.78 16.63 13.58 15.92Q12.38 15.22 11.68 14.02Q10.97 12.82 10.97 11.38Q10.97 11.06 10.74 10.84Q10.51 10.61 10.2 10.61Q9.89 10.61 9.67 10.84Q9.46 11.06 9.46 11.38Q9.46 13.08 10.25 14.54Q11.04 16.01 12.42 16.96Q13.8 17.9 15.48 18.1L15.48 20.11Q15.48 20.42 15.7 20.65Q15.91 20.88 16.22 20.88Q16.54 20.88 16.75 20.65Q16.97 20.42 16.97 20.11L16.97 18.1Q18.65 17.9 20.02 16.97Q21.38 16.03 22.18 14.56Q22.97 13.08 22.97 11.38Z" fill="rgba(0,0,0,0.9019607843137255)"></path><path d="M7.1 7.87Q6.79 7.87 6.58 8.1Q6.36 8.33 6.36 8.64L6.36 15.29Q6.36 15.6 6.58 15.82Q6.79 16.03 7.1 16.03Q7.42 16.03 7.63 15.82Q7.85 15.6 7.85 15.29L7.85 8.64Q7.85 8.33 7.63 8.1Q7.42 7.87 7.1 7.87ZM4.46 10.13Q4.15 10.13 3.94 10.34Q3.72 10.56 3.72 10.87L3.72 13.39Q3.72 13.7 3.94 13.92Q4.15 14.14 4.46 14.14Q4.78 14.14 4.99 13.92Q5.21 13.7 5.21 13.39L5.21 10.87Q5.21 10.56 4.99 10.34Q4.78 10.13 4.46 10.13ZM1.75 11.4Q1.44 11.4 1.22 11.6Q1.01 11.81 1.01 12.12Q1.01 12.43 1.22 12.65Q1.44 12.86 1.75 12.86Q2.06 12.86 2.28 12.65Q2.5 12.43 2.5 12.12Q2.5 11.81 2.28 11.6Q2.06 11.4 1.75 11.4Z" fill="rgba(0,0,0,0.9019607843137255)"></path></g></svg>