<?xml version="1.0" standalone="no"?>
<svg xmlns="http://www.w3.org/2000/svg" width="24" height="24"><rect width="24" height="24" opacity="0"></rect><g><path d="M20.93 14.71Q19.94 15.05 18.46 15.05Q16.9 15.02 15.84 14.74Q14.78 14.45 14.3 14.06Q14.09 13.99 14.04 13.75Q13.99 13.54 14.06 13.42L14.83 11.69Q14.93 11.5 14.88 11.27Q14.83 11.04 14.68 10.86Q14.52 10.68 14.26 10.66L10.8 10.13Q10.46 10.13 10.19 9.9Q9.91 9.67 9.74 9.36Q8.93 7.46 8.93 5.52Q8.93 4.15 9.26 3.05Q9.43 2.52 9.22 2.18Q9 1.85 8.63 1.74Q8.26 1.63 7.99 1.75Q6.12 2.59 4.69 4.07Q3.26 5.54 2.47 7.48Q1.68 9.41 1.68 11.54Q1.68 14.47 3.13 16.93Q4.58 19.39 7.06 20.84Q9.53 22.3 12.46 22.3Q14.54 22.3 16.49 21.49Q18.43 20.69 19.91 19.27Q21.38 17.86 22.2 16.08Q22.39 15.65 22.22 15.29Q22.06 14.93 21.68 14.76Q21.31 14.59 20.93 14.71ZM6.79 12.84Q6.41 13.13 6.01 13.21Q5.62 13.3 5.11 13.22Q4.92 13.18 4.8 13.02Q4.68 12.86 4.7 12.65L4.7 12.62Q4.75 12.43 4.92 12.32Q5.09 12.22 5.28 12.24Q5.35 12.24 5.4 12.26Q5.83 12.29 6.22 12.02Q6.58 11.76 6.7 11.33L6.72 11.21Q6.77 10.99 6.94 10.87Q7.1 10.75 7.32 10.8Q7.51 10.85 7.63 11Q7.75 11.16 7.73 11.38Q7.66 11.83 7.42 12.2Q7.18 12.58 6.79 12.84Z" fill="rgba(0,0,0,0.9019607843137255)"></path><path d="M19.2 8.28Q19.46 8.28 19.63 8.1Q19.8 7.92 19.8 7.68Q19.8 7.42 19.63 7.24Q19.46 7.06 19.2 7.06L17.21 7.06L19.63 4.61Q19.75 4.49 19.8 4.3Q19.85 4.1 19.75 3.94Q19.68 3.74 19.52 3.65Q19.37 3.55 19.18 3.55L15.67 3.55Q15.43 3.55 15.25 3.74Q15.07 3.94 15.07 4.18Q15.07 4.42 15.25 4.61Q15.43 4.8 15.67 4.8L17.66 4.8L15.24 7.22Q15.12 7.34 15.07 7.54Q15.02 7.73 15.12 7.9Q15.19 8.06 15.35 8.17Q15.5 8.28 15.7 8.28L19.2 8.28Z" fill="rgba(0,0,0,0.9019607843137255)"></path></g></svg>