<?xml version="1.0" standalone="no"?>
<svg xmlns="http://www.w3.org/2000/svg" width="24" height="24"><rect width="24" height="24" opacity="0"></rect><g mask="url(#hms_mask_0)"><path d="M12 1.01Q9.02 1.01 6.49 2.48Q3.96 3.96 2.48 6.49Q1.01 9.02 1.01 12Q1.01 14.98 2.48 17.51Q3.96 20.04 6.49 21.52Q9.02 22.99 12 22.99Q14.98 22.99 17.51 21.52Q20.04 20.04 21.52 17.51Q22.99 14.98 22.99 12Q22.99 9.02 21.52 6.49Q20.04 3.96 17.51 2.48Q14.98 1.01 12 1.01Z" fill="rgba(0,0,0,0.9019607843137255)"></path></g><defs><mask id="hms_mask_0"><rect width="24" height="24" fill="#ffffff"></rect><g><path d="M16.51 10.8Q16.73 10.8 16.86 10.94Q16.99 11.09 16.99 11.3Q16.99 11.52 16.85 11.66Q16.7 11.81 16.51 11.81L12.98 11.81Q12.65 11.81 12.42 11.58Q12.19 11.35 12.19 11.04L12.19 7.51Q12.19 7.3 12.35 7.15Q12.5 7.01 12.7 7.01Q12.91 7.01 13.06 7.15Q13.2 7.3 13.2 7.51L13.2 10.08L16.22 7.06Q16.39 6.91 16.58 6.91Q16.78 6.91 16.94 7.06Q17.09 7.22 17.09 7.42Q17.09 7.61 16.94 7.75L13.9 10.8L16.51 10.8ZM7.92 6.53Q8.23 6.48 8.53 6.59Q8.83 6.7 9 6.94L9.31 7.34Q9.55 7.61 9.74 7.85Q9.94 8.09 10.03 8.18Q10.3 8.47 10.27 8.87Q10.25 9.26 9.96 9.53L9.38 10.1Q9.19 10.3 9.17 10.55Q9.14 10.8 9.29 11.02Q9.79 11.83 10.94 12.97Q12.1 14.11 12.96 14.64Q13.18 14.78 13.42 14.76Q13.66 14.74 13.85 14.54L14.4 13.99Q14.66 13.73 15.06 13.72Q15.46 13.7 15.74 13.94L16.54 14.54Q16.85 14.76 17.14 15Q17.5 15.29 17.48 15.77Q17.47 16.25 17.14 16.61L16.8 16.94Q16.39 17.35 15.84 17.51Q15.29 17.66 14.74 17.57Q13.18 17.26 11.36 15.88Q9.55 14.5 8.17 12.66Q6.79 10.82 6.43 9.22Q6.29 8.66 6.46 8.09Q6.62 7.51 7.03 7.1Q7.34 6.79 7.52 6.68Q7.7 6.58 7.92 6.53Z" fill="#000000"></path></g></mask></defs></svg>