<?xml version="1.0" standalone="no"?>
<svg xmlns="http://www.w3.org/2000/svg" width="24" height="24"><rect width="24" height="24" opacity="0"></rect><g><path d="M21.24 12.74Q21.55 12.74 21.78 12.53Q22.01 12.31 22.01 12Q22.01 11.69 21.78 11.47Q21.55 11.26 21.24 11.26L2.76 11.26Q2.45 11.26 2.22 11.47Q1.99 11.69 1.99 12Q1.99 12.31 2.22 12.53Q2.45 12.74 2.76 12.74L21.24 12.74ZM19.01 10.01Q19.82 10.01 20.41 9.42Q21 8.83 21 7.99L21 4.01Q21 3.17 20.41 2.58Q19.82 1.99 19.01 1.99L4.99 1.99Q4.46 1.99 4.01 2.27Q3.55 2.54 3.28 3Q3 3.46 3 4.01L3 7.99Q3 8.54 3.28 9Q3.55 9.46 4.01 9.73Q4.46 10.01 4.99 10.01L19.01 10.01Z" fill="rgba(0,0,0,0.9019607843137255)"></path><path d="M19.01 22.01Q19.82 22.01 20.41 21.42Q21 20.83 21 19.99L21 16.01Q21 15.17 20.41 14.58Q19.82 13.99 19.01 13.99L5.02 13.99Q4.2 13.99 3.6 14.58Q3 15.17 3 16.01L3 19.99Q3 20.81 3.6 21.41Q4.2 22.01 5.02 22.01L19.01 22.01ZM19.01 15.5Q19.15 15.5 19.27 15.56Q19.39 15.62 19.45 15.74Q19.51 15.86 19.51 16.01L19.51 19.99Q19.51 20.14 19.45 20.26Q19.39 20.38 19.27 20.44Q19.15 20.5 19.01 20.5L5.02 20.5Q4.87 20.5 4.75 20.44Q4.63 20.38 4.57 20.26Q4.51 20.14 4.51 19.99L4.51 16.01Q4.51 15.86 4.57 15.74Q4.63 15.62 4.75 15.56Q4.87 15.5 5.02 15.5L19.01 15.5Z" fill="rgba(0,0,0,0.9019607843137255)"></path></g></svg>