<?xml version="1.0" standalone="no"?>
<svg xmlns="http://www.w3.org/2000/svg" width="24" height="24"><rect width="24" height="24" opacity="0"></rect><g><path d="M21.24 12.74Q21.55 12.74 21.78 12.53Q22.01 12.31 22.01 12Q22.01 11.69 21.78 11.47Q21.55 11.26 21.24 11.26L2.76 11.26Q2.45 11.26 2.22 11.47Q1.99 11.69 1.99 12Q1.99 12.31 2.22 12.53Q2.45 12.74 2.76 12.74L21.24 12.74ZM19.01 22.01Q19.82 22.01 20.41 21.42Q21 20.83 21 19.99L21 16.01Q21 15.17 20.41 14.58Q19.82 13.99 19.01 13.99L4.99 13.99Q4.46 13.99 4.01 14.27Q3.55 14.54 3.28 15Q3 15.46 3 16.01L3 19.99Q3 20.54 3.28 21Q3.55 21.46 4.01 21.73Q4.46 22.01 4.99 22.01L19.01 22.01Z" fill="rgba(0,0,0,0.9019607843137255)"></path><path d="M19.01 10.01Q19.82 10.01 20.41 9.42Q21 8.83 21 7.99L21 4.01Q21 3.17 20.41 2.58Q19.82 1.99 19.01 1.99L4.99 1.99Q4.46 1.99 4.01 2.27Q3.55 2.54 3.28 3Q3 3.46 3 4.01L3 7.99Q3 8.54 3.28 9Q3.55 9.46 4.01 9.73Q4.46 10.01 4.99 10.01L19.01 10.01ZM19.01 3.5Q19.13 3.5 19.25 3.58Q19.37 3.65 19.44 3.76Q19.51 3.86 19.51 4.01L19.51 7.99Q19.51 8.14 19.44 8.24Q19.37 8.35 19.25 8.42Q19.13 8.5 19.01 8.5L4.99 8.5Q4.85 8.5 4.74 8.44Q4.63 8.38 4.57 8.26Q4.51 8.14 4.51 7.99L4.51 4.01Q4.51 3.86 4.57 3.74Q4.63 3.62 4.74 3.56Q4.85 3.5 4.99 3.5L19.01 3.5Z" fill="rgba(0,0,0,0.9019607843137255)"></path></g></svg>