<?xml version="1.0" standalone="no"?>
<svg xmlns="http://www.w3.org/2000/svg" width="24" height="24"><rect width="24" height="24" opacity="0"></rect><g mask="url(#hms_mask_0)"><path d="M19.01 22.01Q19.8 22.01 20.5 21.6Q21.19 21.19 21.6 20.5Q22.01 19.8 22.01 19.01L22.01 4.99Q22.01 4.2 21.6 3.5Q21.19 2.81 20.5 2.4Q19.8 1.99 19.01 1.99L4.99 1.99Q4.2 1.99 3.5 2.4Q2.81 2.81 2.4 3.5Q1.99 4.2 1.99 4.99L1.99 19.01Q1.99 19.8 2.4 20.5Q2.81 21.19 3.5 21.6Q4.2 22.01 4.99 22.01L19.01 22.01Z" fill="rgba(0,0,0,0.9019607843137255)"></path></g><defs><mask id="hms_mask_0"><rect width="24" height="24" fill="#ffffff"></rect><g><path d="M19.18 16.9Q19.3 17.16 19.19 17.41Q19.08 17.66 18.84 17.76Q18.58 17.86 18.34 17.76Q18.1 17.66 17.98 17.42L16.97 15.12L15.48 15.12L14.93 13.82L16.42 13.82L15.19 10.97L14.5 12.77L13.75 11.04L14.52 9.02Q14.62 8.78 14.84 8.68Q15.07 8.57 15.31 8.64Q15.55 8.71 15.72 8.95L19.18 16.9ZM15.1 16.78Q15.22 17.06 15.1 17.35Q14.98 17.64 14.69 17.76Q14.35 17.86 14.09 17.75Q13.82 17.64 13.7 17.35L12.46 14.4L7.56 14.4L6.31 17.35Q6.17 17.66 5.92 17.76Q5.66 17.86 5.33 17.76Q5.02 17.64 4.91 17.35Q4.8 17.06 4.92 16.78L9.31 6.41Q9.41 6.22 9.58 6.1Q9.74 5.98 9.94 5.95Q10.15 5.93 10.34 6.04Q10.54 6.14 10.66 6.34Q12.1 9.72 13.54 13.13L15.1 16.78ZM11.81 12.89L10.01 8.62L8.21 12.89Z" fill="#000000"></path></g></mask></defs></svg>