<?xml version="1.0" standalone="no"?>
<svg xmlns="http://www.w3.org/2000/svg" width="24" height="24"><rect width="24" height="24" opacity="0"></rect><g mask="url(#hms_mask_0)"><path d="M12 0.62Q10.97 0.62 10.09 1.14Q9.22 1.66 8.71 2.52Q8.21 3.38 8.21 4.42L8.21 13.44Q7.32 14.26 6.82 15.35Q6.31 16.44 6.31 17.69Q6.31 19.22 7.08 20.53Q7.85 21.84 9.16 22.61Q10.46 23.38 12 23.38Q13.54 23.38 14.83 22.61Q16.13 21.84 16.9 20.53Q17.66 19.22 17.66 17.69Q17.66 16.44 17.16 15.35Q16.66 14.26 15.77 13.44L15.77 4.42Q15.77 3.38 15.26 2.52Q14.76 1.66 13.9 1.14Q13.03 0.62 12 0.62Z" fill="rgba(0,0,0,0.9019607843137255)"></path></g><defs><mask id="hms_mask_0"><rect width="24" height="24" fill="#ffffff"></rect><g><path d="M10.73 10.1Q10.73 9.58 11.1 9.2Q11.47 8.83 12 8.83Q12.5 8.83 12.88 9.2Q13.25 9.58 13.25 10.1L13.25 15.48Q13.85 15.84 14.18 16.42Q14.52 16.99 14.52 17.69Q14.52 18.38 14.18 18.96Q13.85 19.54 13.26 19.87Q12.67 20.21 11.98 20.21Q11.28 20.21 10.7 19.87Q10.13 19.54 9.79 18.96Q9.46 18.38 9.46 17.69Q9.46 16.99 9.79 16.42Q10.13 15.84 10.7 15.48L10.73 10.1Z" fill="#000000"></path></g></mask></defs></svg>