<?xml version="1.0" standalone="no"?>
<svg xmlns="http://www.w3.org/2000/svg" width="25" height="24"><rect width="25" height="24" opacity="0"></rect><g mask="url(#hms_mask_0)"><path d="M20.65 7.18Q20.46 5.81 19.41 4.9Q18.37 3.98 16.98 3.98L9.27 3.98Q9.03 3.58 8.58 3.32Q8.12 3.07 7.64 3.07L4.71 3.07Q3.8 3.07 3.03 3.53Q2.26 3.98 1.81 4.75Q1.35 5.52 1.35 6.43L1.35 17.57Q1.35 18.48 1.81 19.26Q2.26 20.04 3.03 20.48Q3.8 20.93 4.71 20.93L20.02 20.93Q20.94 20.93 21.7 20.48Q22.47 20.04 22.92 19.26Q23.36 18.48 23.36 17.57L23.36 10.46Q23.36 9.24 22.59 8.33Q21.82 7.42 20.65 7.18ZM11.43 7.1Q11.31 7.1 11.22 7.06Q11.12 7.01 11.05 6.89L11.05 6.89L10.21 5.47L16.98 5.47Q17.74 5.47 18.33 5.93Q18.92 6.38 19.11 7.1L11.43 7.1Z" fill="rgba(0,0,0,0.9019607843137255)"></path></g><defs><mask id="hms_mask_0"><rect width="25" height="24" fill="#ffffff"></rect><g><path d="M23.12 13.18Q22.35 12.41 21.39 12.01Q20.43 11.62 19.38 11.62Q18.3 11.62 17.34 12.01Q16.38 12.41 15.61 13.18Q14.86 13.92 14.47 14.89Q14.07 15.86 14.07 16.92Q14.07 17.98 14.47 18.95Q14.86 19.92 15.61 20.66Q16.38 21.43 17.34 21.83Q18.3 22.22 19.38 22.22Q20.43 22.22 21.39 21.83Q22.35 21.43 23.12 20.66Q23.86 19.94 24.26 18.97Q24.66 18 24.66 16.92Q24.66 15.84 24.26 14.87Q23.86 13.9 23.12 13.18Z" fill="#000000"></path></g></mask></defs><g><path d="M19.38 12.91Q18.58 12.91 17.84 13.21Q17.1 13.51 16.54 14.09Q15.78 14.86 15.51 15.89Q15.25 16.92 15.51 17.94Q15.78 18.96 16.54 19.73Q17.12 20.3 17.84 20.6Q18.56 20.9 19.38 20.9Q20.14 20.9 20.89 20.6Q21.63 20.3 22.21 19.73Q22.95 18.96 23.23 17.93Q23.5 16.9 23.23 15.88Q22.95 14.86 22.21 14.09Q21.63 13.51 20.89 13.21Q20.14 12.91 19.38 12.91ZM19.38 19.06Q19.18 19.06 19.05 18.92Q18.92 18.79 18.92 18.6L18.92 15.22Q18.92 15.02 19.05 14.89Q19.18 14.76 19.38 14.76Q19.54 14.76 19.68 14.89Q19.81 15.02 19.81 15.22L19.81 18.6Q19.81 18.79 19.68 18.92Q19.54 19.06 19.38 19.06ZM21.18 19.06Q21.01 19.06 20.86 18.91Q20.72 18.77 20.72 18.6L20.72 17.23Q20.72 17.04 20.86 16.91Q21.01 16.78 21.18 16.78Q21.37 16.78 21.5 16.91Q21.63 17.04 21.63 17.23L21.63 18.6Q21.63 18.79 21.5 18.92Q21.37 19.06 21.18 19.06ZM17.53 19.06Q17.36 19.06 17.22 18.91Q17.07 18.77 17.07 18.6L17.07 16.46Q17.07 16.27 17.2 16.14Q17.34 16.01 17.53 16.01Q17.72 16.01 17.85 16.14Q17.98 16.27 17.98 16.46L17.98 18.6Q17.98 18.79 17.85 18.92Q17.72 19.06 17.53 19.06Z" fill="rgba(0,0,0,0.9019607843137255)"></path></g></svg>