<?xml version="1.0" standalone="no"?>
<svg xmlns="http://www.w3.org/2000/svg" width="24" height="24"><rect width="24" height="24" opacity="0"></rect><g><path d="M17.35 10.94L17.35 8.66Q17.35 8.35 17.14 8.14Q16.92 7.92 16.61 7.92Q16.3 7.92 16.08 8.14Q15.86 8.35 15.86 8.66L15.86 10.94L4.1 10.94Q3.43 10.94 2.88 11.28Q2.33 11.62 1.99 12.17Q1.66 12.72 1.66 13.39L1.66 19.39Q1.66 20.06 1.99 20.62Q2.33 21.17 2.88 21.5Q3.43 21.84 4.1 21.84L19.2 21.84Q19.87 21.84 20.44 21.5Q21 21.17 21.32 20.62Q21.65 20.06 21.65 19.39L21.65 13.39Q21.65 12.72 21.32 12.17Q21 11.62 20.44 11.28Q19.87 10.94 19.2 10.94ZM5.66 16.39Q5.66 15.98 5.96 15.7Q6.26 15.41 6.67 15.41Q7.08 15.41 7.38 15.7Q7.68 15.98 7.68 16.39Q7.68 16.8 7.38 17.1Q7.08 17.4 6.67 17.4Q6.26 17.4 5.96 17.1Q5.66 16.8 5.66 16.39ZM9.67 16.39Q9.67 15.98 9.96 15.7Q10.25 15.41 10.66 15.41Q11.06 15.41 11.36 15.7Q11.66 15.98 11.66 16.39Q11.66 16.8 11.36 17.1Q11.06 17.4 10.66 17.4Q10.25 17.4 9.96 17.1Q9.67 16.8 9.67 16.39Z" fill="rgba(0,0,0,0.9019607843137255)"></path><path d="M12.65 6.86Q12.46 7.1 12.48 7.42Q12.5 7.73 12.74 7.92Q13.01 8.14 13.28 8.11Q13.56 8.09 13.8 7.82Q14.3 7.2 15.05 6.84Q15.79 6.48 16.61 6.48Q17.42 6.48 18.16 6.83Q18.89 7.18 19.44 7.82Q19.63 8.06 19.94 8.1Q20.26 8.14 20.5 7.92Q20.74 7.73 20.76 7.42Q20.78 7.1 20.59 6.86Q19.87 5.98 18.83 5.48Q17.78 4.99 16.63 4.99Q15.46 4.99 14.41 5.48Q13.37 5.98 12.65 6.86Z" fill="rgba(0,0,0,0.9019607843137255)"></path><path d="M11.11 5.45Q11.33 5.66 11.64 5.68Q11.95 5.69 12.17 5.45Q13.06 4.56 14.2 4.1Q15.34 3.65 16.61 3.65Q17.86 3.65 19.02 4.12Q20.18 4.58 21.07 5.47L21.12 5.52Q21.31 5.71 21.64 5.69Q21.96 5.66 22.13 5.47Q22.34 5.28 22.34 4.97Q22.34 4.66 22.13 4.44Q21.02 3.34 19.58 2.74Q18.14 2.14 16.58 2.14Q15.02 2.14 13.62 2.72Q12.22 3.31 11.11 4.39Q10.87 4.61 10.87 4.92Q10.87 5.23 11.11 5.45Z" fill="rgba(0,0,0,0.9019607843137255)"></path></g></svg>